<svg width="48" height="41" viewBox="0 0 48 41" fill="none" xmlns="http://www.w3.org/2000/svg">
<path d="M7.68356 8.63393C7.80794 8.63409 7.9311 8.60941 8.04581 8.56132C8.16052 8.51324 8.26447 8.44273 8.35156 8.35393C8.52171 8.17835 8.61658 7.94326 8.61594 7.69876C8.61531 7.45425 8.51923 7.21966 8.34818 7.04496C8.17712 6.87025 7.94461 6.76924 7.70018 6.76345C7.45574 6.75765 7.21871 6.84753 7.03956 7.01393L7.01956 7.03393C6.88877 7.16522 6.7998 7.33232 6.76388 7.51412C6.72796 7.69593 6.7467 7.88431 6.81774 8.05547C6.88877 8.22664 7.00892 8.37293 7.16301 8.47588C7.31711 8.57883 7.49824 8.63383 7.68356 8.63393Z" fill="url(#paint0_linear)"/>
<path d="M47.7963 20.8851C47.101 15.6463 44.7058 10.7803 40.9783 7.03409C38.7537 4.79712 36.1075 3.02362 33.1929 1.81623C30.2782 0.608841 27.1531 -0.00845075 23.9983 8.7375e-05C19.0249 -0.0123466 14.1722 1.53065 10.1193 4.41309C9.92156 4.55897 9.78898 4.77662 9.75005 5.01922C9.71111 5.26183 9.76892 5.51003 9.91106 5.71045C10.0532 5.91088 10.2683 6.04754 10.5101 6.09104C10.752 6.13454 11.0012 6.08142 11.2043 5.94309C11.5073 5.72809 11.8143 5.52209 12.1243 5.32309L14.4573 9.36309C12.4189 10.6936 10.6806 12.4347 9.35327 14.4751L5.31327 12.1431C5.73527 11.4791 6.19127 10.8361 6.68327 10.2191C6.82573 10.0238 6.88729 9.78101 6.8551 9.54142C6.82291 9.30182 6.69946 9.08391 6.5105 8.93313C6.32154 8.78235 6.08166 8.71034 5.8409 8.73213C5.60014 8.75392 5.37709 8.86783 5.21827 9.05009C2.5019 12.4658 0.767156 16.5569 0.200269 20.8841C-0.478531 26.1183 0.578888 31.4307 3.21027 36.0061C3.48316 36.4842 3.84816 36.9034 4.28415 37.2395C4.72014 37.5756 5.21846 37.8219 5.75027 37.9641C6.28127 38.1088 6.83568 38.1469 7.38149 38.0762C7.92729 38.0055 8.45369 37.8274 8.93027 37.5521C9.40884 37.2793 9.82851 36.9142 10.165 36.478C10.5014 36.0419 10.7479 35.5432 10.8903 35.0111C11.0353 34.4795 11.0734 33.9245 11.0023 33.3781C10.9312 32.8317 10.7524 32.3049 10.4763 31.8281C8.7473 28.8509 8.05842 25.383 8.51827 21.9711C8.96097 18.5636 10.5252 15.4004 12.9643 12.9801C14.4099 11.5266 16.1295 10.3742 18.0235 9.58977C19.9175 8.80533 21.9483 8.40436 23.9983 8.41009C26.0483 8.40431 28.0791 8.80525 29.9731 9.58969C31.8671 10.3741 33.5867 11.5265 35.0323 12.9801C37.4717 15.4003 39.0362 18.5635 39.4793 21.9711C39.6954 23.594 39.6552 25.2407 39.3603 26.8511L29.6733 23.1861C29.497 21.9641 28.9292 20.8322 28.0553 19.9601C26.979 18.8862 25.5207 18.2831 24.0003 18.2831C22.4799 18.2831 21.0215 18.8862 19.9453 19.9601C18.8716 21.0365 18.2687 22.4948 18.2687 24.0151C18.2687 25.5354 18.8716 26.9937 19.9453 28.0701C20.4774 28.6029 21.1096 29.0253 21.8055 29.3131C22.5013 29.6009 23.2472 29.7484 24.0003 29.7471C24.8663 29.7488 25.7213 29.5537 26.5009 29.1766C27.2804 28.7995 27.9641 28.2501 28.5003 27.5701L38.7193 29.2401C38.3979 30.1377 37.9963 31.0046 37.5193 31.8301C36.9671 32.7941 36.8198 33.9377 37.1096 35.0102C37.3994 36.0826 38.1027 36.9964 39.0653 37.5511C40.0353 38.1091 41.1653 38.2551 42.2453 37.9641C42.7769 37.8222 43.2752 37.5762 43.7112 37.2405C44.1471 36.9047 44.5122 36.4858 44.7853 36.0081C47.4167 31.4324 48.4741 26.1197 47.7953 20.8851H47.7963ZM8.85127 32.7651C9.15927 33.3011 9.24127 33.9251 9.07927 34.5221C9.00065 34.816 8.86454 35.0914 8.67882 35.3324C8.4931 35.5734 8.26145 35.7752 7.99727 35.9261C7.73383 36.0783 7.44283 36.1769 7.14109 36.216C6.83934 36.2551 6.53283 36.2341 6.23927 36.1541C5.94521 36.0752 5.66971 35.9387 5.42872 35.7527C5.18773 35.5666 4.98602 35.3346 4.83527 35.0701C3.04381 31.9871 2.03122 28.5138 1.88527 24.9511H6.53827C6.68827 27.6891 7.47727 30.3831 8.85227 32.7641L8.85127 32.7651ZM6.65927 21.7261C6.59927 22.1741 6.55927 22.6251 6.53527 23.0751H1.88927C2.02863 19.8281 2.87825 16.6512 4.37827 13.7681L8.41427 16.0981C7.51392 17.8608 6.92043 19.764 6.65927 21.7261ZM21.2703 26.7431C20.5476 26.0187 20.1418 25.0373 20.1418 24.0141C20.1418 22.9909 20.5476 22.0095 21.2703 21.2851C21.7078 20.8488 22.2436 20.5238 22.8327 20.3374C23.4218 20.151 24.047 20.1085 24.6558 20.2136C25.2647 20.3187 25.8395 20.5683 26.332 20.9415C26.8245 21.3146 27.2203 21.8004 27.4863 22.3581L24.8113 21.3461C24.4804 21.2223 24.127 21.1702 23.7745 21.1931C23.422 21.2161 23.0783 21.3135 22.7663 21.4791C22.4109 21.6645 22.0976 21.9212 21.8458 22.2331C21.5941 22.5451 21.4094 22.9056 21.3033 23.2921C21.2021 23.6798 21.1819 24.0843 21.2441 24.4802C21.3062 24.8761 21.4492 25.2549 21.6643 25.5931C21.8518 25.8924 22.1006 26.1485 22.3943 26.3447C22.688 26.5408 23.02 26.6725 23.3683 26.7311L26.1893 27.1911C25.4459 27.702 24.5472 27.9369 23.6489 27.8551C22.7506 27.7733 21.9091 27.3799 21.2703 26.7431ZM28.2253 25.6241L28.2173 25.6231L23.6713 24.8801C23.582 24.8626 23.4973 24.8265 23.4229 24.7741C23.3485 24.7217 23.2859 24.6543 23.2393 24.5761C23.1653 24.4582 23.1161 24.3265 23.0946 24.1889C23.0731 24.0514 23.0798 23.9109 23.1143 23.7761C23.1843 23.5131 23.3793 23.2721 23.6223 23.1471C23.7225 23.094 23.8339 23.0653 23.9473 23.0631C24.0113 23.0631 24.0793 23.0731 24.1473 23.1001L28.4443 24.7251L28.4723 24.7351L32.7943 26.3711L28.2253 25.6241ZM24.9353 6.56009V1.89609C28.186 2.02518 31.3675 2.87427 34.2503 4.38209L31.9173 8.42209C29.7463 7.31856 27.3674 6.68415 24.9353 6.56009ZM13.7483 4.38309C16.6301 2.87439 19.811 2.0246 23.0613 1.89509V6.56009C20.6298 6.68443 18.2516 7.31883 16.0813 8.42209L13.7483 4.38209V4.38309ZM33.5403 9.36309L35.8743 5.32109C37.2405 6.1935 38.5077 7.21218 39.6533 8.35909C40.8004 9.50471 41.8185 10.7726 42.6893 12.1401L38.6453 14.4761C37.9833 13.4586 37.2172 12.5129 36.3593 11.6541C35.5009 10.7954 34.5563 10.0277 33.5403 9.36309ZM39.5833 16.0991L43.6273 13.7641C44.8224 16.065 45.6043 18.5578 45.9373 21.1291C46.0233 21.7791 46.0793 22.4291 46.1083 23.0761H41.4623C41.4383 22.6261 41.3983 22.1761 41.3393 21.7261C41.0778 19.7643 40.484 17.8614 39.5833 16.0991ZM43.1613 35.0721C42.8533 35.6081 42.3553 35.9921 41.7583 36.1531C41.3165 36.2713 40.8497 36.2562 40.4165 36.1097C39.9833 35.9632 39.6032 35.6918 39.3239 35.3298C39.0445 34.9677 38.8785 34.5311 38.8468 34.0749C38.815 33.6188 38.9188 33.1634 39.1453 32.7661C39.7343 31.7445 40.2178 30.6656 40.5883 29.5461L41.7313 29.7321C41.9619 29.7723 42.1992 29.7248 42.3965 29.5988C42.5938 29.4728 42.7368 29.2776 42.7974 29.0515C42.8579 28.8254 42.8317 28.5848 42.7238 28.3771C42.6158 28.1693 42.4341 28.0095 42.2143 27.9291L41.1283 27.5191C41.3013 26.6731 41.4133 25.8151 41.4603 24.9511H46.1113C45.9656 28.5141 44.953 31.9879 43.1613 35.0711V35.0721Z" fill="url(#paint1_linear)"/>
<path d="M29.6265 33.2339H18.3745C18.126 33.2339 17.8877 33.3326 17.7119 33.5083C17.5362 33.684 17.4375 33.9224 17.4375 34.1709V37.1709C17.4375 37.6899 17.8575 38.1089 18.3745 38.1089H29.6265C30.1435 38.1089 30.5645 37.6889 30.5645 37.1719V34.1719C30.5645 33.9231 30.4657 33.6845 30.2898 33.5086C30.1139 33.3327 29.8753 33.2339 29.6265 33.2339ZM28.6885 36.2339H19.3125V35.1099H28.6885V36.2349V36.2339Z" fill="url(#paint2_linear)"/>
<path d="M10.1406 23.0762C9.89198 23.0762 9.65353 23.1749 9.47771 23.3508C9.3019 23.5266 9.20312 23.765 9.20312 24.0137C9.20312 24.2623 9.3019 24.5008 9.47771 24.6766C9.65353 24.8524 9.89198 24.9512 10.1406 24.9512H10.1626C10.4113 24.9512 10.6497 24.8524 10.8255 24.6766C11.0014 24.5008 11.1001 24.2623 11.1001 24.0137C11.1001 23.765 11.0014 23.5266 10.8255 23.3508C10.6497 23.1749 10.4113 23.0762 10.1626 23.0762H10.1406Z" fill="url(#paint3_linear)"/>
<path d="M17.8937 11.5631L17.8837 11.5431C17.8221 11.4364 17.74 11.3429 17.6422 11.2679C17.5444 11.1929 17.4328 11.138 17.3137 11.1061C17.1947 11.0743 17.0705 11.0662 16.9484 11.0823C16.8262 11.0984 16.7084 11.1385 16.6017 11.2001C16.495 11.2618 16.4015 11.3438 16.3265 11.4416C16.2515 11.5394 16.1965 11.651 16.1647 11.7701C16.1328 11.8891 16.1248 12.0133 16.1409 12.1354C16.157 12.2576 16.1971 12.3754 16.2587 12.4821L16.2697 12.5011C16.3313 12.6077 16.4133 12.7012 16.511 12.7762C16.6087 12.8511 16.7202 12.9061 16.8392 12.9379C16.9581 12.9698 17.0822 12.9779 17.2043 12.9618C17.3264 12.9457 17.4441 12.9057 17.5507 12.8441C17.6573 12.7825 17.7508 12.7005 17.8257 12.6028C17.9007 12.5051 17.9557 12.3936 17.9875 12.2747C18.0194 12.1557 18.0275 12.0316 18.0114 11.9096C17.9953 11.7875 17.9553 11.6697 17.8937 11.5631Z" fill="url(#paint4_linear)"/>
<path d="M30.9173 12.9711C31.0819 12.9711 31.2436 12.9278 31.3862 12.8455C31.5287 12.7631 31.6471 12.6447 31.7293 12.5021L31.7403 12.4831C31.8533 12.2686 31.8788 12.0187 31.8116 11.7858C31.7444 11.5529 31.5896 11.3551 31.3798 11.2338C31.1699 11.1125 30.9212 11.0772 30.6858 11.1352C30.4505 11.1932 30.2467 11.3401 30.1173 11.5451L30.1063 11.5651C30.024 11.7074 29.9806 11.8689 29.9805 12.0334C29.9803 12.1978 30.0235 12.3594 30.1056 12.5018C30.1876 12.6443 30.3058 12.7627 30.4481 12.845C30.5904 12.9274 30.7519 12.9709 30.9163 12.9711H30.9173Z" fill="url(#paint5_linear)"/>
<path d="M37.8581 24.9541C38.1067 24.9541 38.3452 24.8553 38.521 24.6795C38.6968 24.5037 38.7956 24.2652 38.7956 24.0166C38.7956 23.768 38.6968 23.5295 38.521 23.3537C38.3452 23.1779 38.1067 23.0791 37.8581 23.0791H37.8371C37.5937 23.0871 37.363 23.1893 37.1937 23.3643C37.0244 23.5392 36.9297 23.7731 36.9297 24.0166C36.9297 24.2601 37.0244 24.494 37.1937 24.669C37.363 24.8439 37.5937 24.9462 37.8371 24.9541H37.8581Z" fill="url(#paint6_linear)"/>
<path d="M20.7407 39.0469H20.7188C20.4701 39.0469 20.2317 39.1457 20.0558 39.3215C19.88 39.4973 19.7812 39.7357 19.7812 39.9844C19.7812 40.233 19.88 40.4715 20.0558 40.6473C20.2317 40.8231 20.4701 40.9219 20.7188 40.9219H20.7407C20.8664 40.926 20.9917 40.9048 21.109 40.8595C21.2263 40.8143 21.3334 40.7459 21.4237 40.6584C21.5141 40.5709 21.5859 40.4662 21.635 40.3504C21.6841 40.2346 21.7094 40.1101 21.7094 39.9844C21.7094 39.8586 21.6841 39.7342 21.635 39.6184C21.5859 39.5026 21.5141 39.3978 21.4237 39.3104C21.3334 39.2229 21.2263 39.1545 21.109 39.1093C20.9917 39.064 20.8664 39.0428 20.7407 39.0469Z" fill="url(#paint7_linear)"/>
<path d="M27.2821 39.0469H23.4341C23.1853 39.0469 22.9467 39.1457 22.7708 39.3216C22.5949 39.4975 22.4961 39.7361 22.4961 39.9849C22.4961 40.2336 22.5949 40.4722 22.7708 40.6481C22.9467 40.824 23.1853 40.9229 23.4341 40.9229H27.2821C27.5309 40.9229 27.7695 40.824 27.9454 40.6481C28.1213 40.4722 28.2201 40.2336 28.2201 39.9849C28.2201 39.7361 28.1213 39.4975 27.9454 39.3216C27.7695 39.1457 27.5309 39.0469 27.2821 39.0469Z" fill="url(#paint8_linear)"/>
<defs>
<linearGradient id="paint0_linear" x1="48.0006" y1="20.4609" x2="0.000564669" y2="20.4609" gradientUnits="userSpaceOnUse">
<stop stop-color="#A31FED"/>
<stop offset="1" stop-color="#03EE65"/>
</linearGradient>
<linearGradient id="paint1_linear" x1="47.9983" y1="20.4611" x2="-0.00173092" y2="20.4611" gradientUnits="userSpaceOnUse">
<stop stop-color="#A31FED"/>
<stop offset="1" stop-color="#03EE65"/>
</linearGradient>
<linearGradient id="paint2_linear" x1="48.0005" y1="20.4609" x2="0.000501946" y2="20.4609" gradientUnits="userSpaceOnUse">
<stop stop-color="#A31FED"/>
<stop offset="1" stop-color="#03EE65"/>
</linearGradient>
<linearGradient id="paint3_linear" x1="47.9986" y1="20.4612" x2="-0.00137202" y2="20.4612" gradientUnits="userSpaceOnUse">
<stop stop-color="#A31FED"/>
<stop offset="1" stop-color="#03EE65"/>
</linearGradient>
<linearGradient id="paint4_linear" x1="47.9987" y1="20.4611" x2="-0.00129382" y2="20.4611" gradientUnits="userSpaceOnUse">
<stop stop-color="#A31FED"/>
<stop offset="1" stop-color="#03EE65"/>
</linearGradient>
<linearGradient id="paint5_linear" x1="47.9983" y1="20.4611" x2="-0.00171569" y2="20.4611" gradientUnits="userSpaceOnUse">
<stop stop-color="#A31FED"/>
<stop offset="1" stop-color="#03EE65"/>
</linearGradient>
<linearGradient id="paint6_linear" x1="48.0001" y1="20.4611" x2="2.92204e-05" y2="20.4611" gradientUnits="userSpaceOnUse">
<stop stop-color="#A31FED"/>
<stop offset="1" stop-color="#03EE65"/>
</linearGradient>
<linearGradient id="paint7_linear" x1="48.0007" y1="20.4609" x2="0.000761818" y2="20.4609" gradientUnits="userSpaceOnUse">
<stop stop-color="#A31FED"/>
<stop offset="1" stop-color="#03EE65"/>
</linearGradient>
<linearGradient id="paint8_linear" x1="48.0001" y1="20.4609" x2="9.72081e-05" y2="20.4609" gradientUnits="userSpaceOnUse">
<stop stop-color="#A31FED"/>
<stop offset="1" stop-color="#03EE65"/>
</linearGradient>
</defs>
</svg>
