<svg width="48" height="52" viewBox="0 0 48 52" fill="none" xmlns="http://www.w3.org/2000/svg">
<g clip-path="url(#clip0)">
<path d="M45.246 0H2.754C2.02384 0.000794087 1.32381 0.291202 0.807505 0.807505C0.291202 1.32381 0.000794087 2.02384 0 2.754L0 45.246C0.00100302 45.9707 0.287435 46.6659 0.797272 47.181C1.30711 47.6961 1.99932 47.9896 2.724 47.998V50.896C2.724 51.1238 2.8145 51.3423 2.9756 51.5034C3.13669 51.6645 3.35518 51.755 3.583 51.755H9.423C9.53589 51.7551 9.6477 51.733 9.75203 51.6899C9.85637 51.6468 9.95118 51.5835 10.0311 51.5038C10.1109 51.424 10.1743 51.3292 10.2175 51.225C10.2607 51.1207 10.283 51.0089 10.283 50.896V48.002H37.718V50.896C37.7183 51.1236 37.8087 51.3418 37.9695 51.5028C38.1304 51.6638 38.3484 51.7545 38.576 51.755H44.417C44.6448 51.755 44.8633 51.6645 45.0244 51.5034C45.1855 51.3423 45.276 51.1238 45.276 50.896V47.998C46.0007 47.9896 46.6929 47.6961 47.2027 47.181C47.7126 46.6659 47.999 45.9707 48 45.246V2.754C47.9989 2.02392 47.7085 1.32404 47.1922 0.807797C46.676 0.291551 45.9761 0.00105809 45.246 0V0ZM8.566 50.038H4.44V48.002H8.564V50.038H8.566ZM39.435 50.038V48.002H43.559V50.04L39.435 50.038ZM46.283 45.246C46.2825 45.5208 46.173 45.7841 45.9786 45.9783C45.7842 46.1725 45.5208 46.2817 45.246 46.282H2.754C2.47922 46.2817 2.21576 46.1725 2.02138 45.9783C1.82699 45.7841 1.71753 45.5208 1.717 45.246V2.754C1.71726 2.47905 1.8266 2.21544 2.02102 2.02102C2.21544 1.8266 2.47905 1.71726 2.754 1.717H45.246C45.5209 1.71726 45.7846 1.8266 45.979 2.02102C46.1734 2.21544 46.2827 2.47905 46.283 2.754V45.246Z" fill="url(#paint0_linear)"/>
<path d="M31.4583 16.6718C31.4396 16.6464 31.4196 16.622 31.3983 16.5988C31.3756 16.578 31.3519 16.5583 31.3273 16.5398C29.3744 14.6133 26.7415 13.5332 23.9983 13.5332C21.2551 13.5332 18.6222 14.6133 16.6693 16.5398C16.6446 16.5586 16.6209 16.5787 16.5983 16.5998C16.577 16.6227 16.5569 16.6467 16.5383 16.6718C14.6115 18.6246 13.5313 21.2575 13.5312 24.0008C13.5313 26.7441 14.6115 29.377 16.5383 31.3298C16.5563 31.3542 16.5757 31.3775 16.5963 31.3998C16.6183 31.4198 16.6413 31.4398 16.6653 31.4568C18.6182 33.3848 21.252 34.4658 23.9963 34.4658C26.7405 34.4658 29.3743 33.3848 31.3273 31.4568C31.3516 31.4391 31.375 31.4201 31.3973 31.3998C31.4175 31.3775 31.4366 31.3542 31.4543 31.3298C33.3812 29.3772 34.4617 26.7442 34.4617 24.0008C34.4617 21.2574 33.3812 18.6245 31.4543 16.6718H31.4583ZM30.7583 29.5458L29.1763 27.9638C29.8716 27.0601 30.3165 25.9892 30.4663 24.8588H32.7033C32.5349 26.5797 31.8577 28.2113 30.7583 29.5458ZM15.2933 24.8578H17.5303C17.6798 25.9885 18.1248 27.0598 18.8203 27.9638L17.2383 29.5458C16.1386 28.2111 15.4615 26.579 15.2933 24.8578ZM17.2383 18.4538L18.8203 20.0358C18.1249 20.9395 17.68 22.0105 17.5303 23.1408H15.2933C15.4618 21.42 16.1389 19.7884 17.2383 18.4538ZM23.9983 28.8138C22.7212 28.8138 21.4965 28.3065 20.5935 27.4035C19.6906 26.5005 19.1833 25.2758 19.1833 23.9988C19.1833 22.7218 19.6906 21.4971 20.5935 20.5941C21.4965 19.6911 22.7212 19.1838 23.9983 19.1838C25.2753 19.1838 26.5 19.6911 27.403 20.5941C28.306 21.4971 28.8133 22.7218 28.8133 23.9988C28.8133 25.2758 28.306 26.5005 27.403 27.4035C26.5 28.3065 25.2753 28.8138 23.9983 28.8138ZM27.9623 18.8218C27.0586 18.1265 25.9876 17.6815 24.8573 17.5318V15.2938C26.5781 15.463 28.2096 16.1404 29.5443 17.2398L27.9623 18.8218ZM23.1403 17.5318C22.0096 17.6814 20.9382 18.1263 20.0343 18.8218L18.4523 17.2398C19.7871 16.1402 21.4191 15.4628 23.1403 15.2938V17.5318ZM20.0333 29.1778C20.9377 29.8731 22.0093 30.3181 23.1403 30.4678V32.7048C21.4191 32.5363 19.7872 31.8592 18.4523 30.7598L20.0333 29.1778ZM24.8563 30.4678C25.9872 30.3181 27.0588 29.8731 27.9633 29.1778L29.5443 30.7598C28.2093 31.8592 26.5774 32.5362 24.8563 32.7048V30.4678ZM30.4663 23.1418C30.3167 22.0111 29.8718 20.9398 29.1763 20.0358L30.7583 18.4538C31.8578 19.7886 32.5349 21.4207 32.7033 23.1418H30.4663Z" fill="url(#paint1_linear)"/>
<path d="M23.9982 21.9321C23.4496 21.9321 22.9235 22.1501 22.5355 22.538C22.1476 22.9259 21.9297 23.452 21.9297 24.0006C21.9297 24.5492 22.1476 25.0754 22.5355 25.4633C22.9235 25.8512 23.4496 26.0691 23.9982 26.0691C24.5468 26.0691 25.0729 25.8512 25.4608 25.4633C25.8488 25.0754 26.0667 24.5492 26.0667 24.0006C26.0667 23.452 25.8488 22.9259 25.4608 22.538C25.0729 22.1501 24.5468 21.9321 23.9982 21.9321ZM23.9982 24.3521C23.9048 24.3521 23.8153 24.315 23.7493 24.249C23.6833 24.183 23.6462 24.0935 23.6462 24.0001C23.6462 23.9068 23.6833 23.8172 23.7493 23.7512C23.8153 23.6852 23.9048 23.6481 23.9982 23.6481C24.0882 23.6529 24.1729 23.6921 24.2349 23.7575C24.2969 23.8228 24.3314 23.9095 24.3314 23.9996C24.3314 24.0897 24.2969 24.1764 24.2349 24.2418C24.1729 24.3072 24.0882 24.3463 23.9982 24.3511V24.3521Z" fill="url(#paint2_linear)"/>
<path d="M43.6226 19.9499H43.0096V7.40195C43.0091 7.17438 42.9184 6.9563 42.7574 6.79548C42.5963 6.63466 42.3782 6.54421 42.1506 6.54395H5.84859C5.62112 6.54421 5.40304 6.63469 5.24219 6.79554C5.08134 6.95639 4.99086 7.17447 4.99059 7.40195V10.3359C4.46431 10.5155 4.00726 10.855 3.6833 11.307C3.35933 11.759 3.18463 12.3009 3.18359 12.8569V16.5199C3.18448 17.0761 3.35912 17.618 3.68311 18.07C4.00709 18.522 4.46423 18.8615 4.99059 19.0409V28.9589C4.46439 29.1384 4.00737 29.4777 3.6834 29.9295C3.35943 30.3813 3.18469 30.923 3.18359 31.4789V35.1419C3.18448 35.6981 3.35912 36.24 3.68311 36.692C4.00709 37.144 4.46423 37.4835 4.99059 37.6629V40.5969C4.99086 40.8245 5.08131 41.0427 5.24213 41.2037C5.40295 41.3647 5.62103 41.4554 5.84859 41.4559H42.1506C42.3782 41.4554 42.5962 41.3647 42.7571 41.2037C42.9179 41.0427 43.0083 40.8245 43.0086 40.5969V28.0499H43.6226C43.8502 28.0497 44.0685 27.9591 44.2294 27.798C44.3902 27.6369 44.4806 27.4186 44.4806 27.1909V20.8079C44.4801 20.5806 44.3895 20.3626 44.2287 20.2018C44.0679 20.041 43.85 19.9505 43.6226 19.9499ZM42.7636 26.3329H40.3316V21.6669H42.7616L42.7636 26.3329ZM4.90259 12.8569C4.9138 12.6131 5.01857 12.3829 5.19513 12.2142C5.37169 12.0456 5.60644 11.9515 5.85059 11.9515C6.09474 11.9515 6.3295 12.0456 6.50606 12.2142C6.68262 12.3829 6.78739 12.6131 6.79859 12.8569V16.5199C6.79859 16.7713 6.69889 17.0124 6.52135 17.1903C6.34381 17.3682 6.10294 17.4684 5.85159 17.4689H5.84959C5.59825 17.4684 5.35738 17.3682 5.17984 17.1903C5.0023 17.0124 4.90259 16.7713 4.90259 16.5199V12.8569ZM4.90259 31.4789C4.90259 31.2275 5.00247 30.9864 5.18026 30.8086C5.35804 30.6308 5.59917 30.5309 5.85059 30.5309C6.10202 30.5309 6.34315 30.6308 6.52093 30.8086C6.69872 30.9864 6.79859 31.2275 6.79859 31.4789V35.1419C6.78739 35.3858 6.68262 35.616 6.50606 35.7847C6.3295 35.9533 6.09474 36.0474 5.85059 36.0474C5.60644 36.0474 5.37169 35.9533 5.19513 35.7847C5.01857 35.616 4.9138 35.3858 4.90259 35.1419V31.4799V31.4789ZM41.2906 39.7389H6.70859V37.6629C7.23472 37.4834 7.69165 37.1441 8.0156 36.6923C8.33955 36.2405 8.51435 35.6989 8.51559 35.1429V31.4789C8.5145 30.923 8.33976 30.3813 8.01579 29.9295C7.69182 29.4777 7.2348 29.1384 6.70859 28.9589V19.0399C7.23472 18.8604 7.69165 18.5211 8.0156 18.0693C8.33955 17.6175 8.51435 17.0759 8.51559 16.5199V12.8559C8.51465 12.3 8.33997 11.7582 8.01597 11.3063C7.69198 10.8545 7.23488 10.5152 6.70859 10.3359V8.25995H41.2906V19.9499H39.4746C39.247 19.9499 39.0288 20.0403 38.8679 20.2012C38.707 20.3622 38.6166 20.5804 38.6166 20.8079V27.1909C38.6166 27.4186 38.707 27.6369 38.8678 27.798C39.0287 27.9591 39.2469 28.0497 39.4746 28.0499H41.2906V39.7389Z" fill="url(#paint3_linear)"/>
</g>
<g clip-path="url(#clip1)">
<path d="M45.246 0H2.754C2.02384 0.000794087 1.32381 0.291202 0.807505 0.807505C0.291202 1.32381 0.000794087 2.02384 0 2.754L0 45.246C0.00100302 45.9707 0.287435 46.6659 0.797272 47.181C1.30711 47.6961 1.99932 47.9896 2.724 47.998V50.896C2.724 51.1238 2.8145 51.3423 2.9756 51.5034C3.13669 51.6645 3.35518 51.755 3.583 51.755H9.423C9.53589 51.7551 9.6477 51.733 9.75203 51.6899C9.85637 51.6468 9.95118 51.5835 10.0311 51.5038C10.1109 51.424 10.1743 51.3292 10.2175 51.225C10.2607 51.1207 10.283 51.0089 10.283 50.896V48.002H37.718V50.896C37.7183 51.1236 37.8087 51.3418 37.9695 51.5028C38.1304 51.6638 38.3484 51.7545 38.576 51.755H44.417C44.6448 51.755 44.8633 51.6645 45.0244 51.5034C45.1855 51.3423 45.276 51.1238 45.276 50.896V47.998C46.0007 47.9896 46.6929 47.6961 47.2027 47.181C47.7126 46.6659 47.999 45.9707 48 45.246V2.754C47.9989 2.02392 47.7085 1.32404 47.1922 0.807797C46.676 0.291551 45.9761 0.00105809 45.246 0V0ZM8.566 50.038H4.44V48.002H8.564V50.038H8.566ZM39.435 50.038V48.002H43.559V50.04L39.435 50.038ZM46.283 45.246C46.2825 45.5208 46.173 45.7841 45.9786 45.9783C45.7842 46.1725 45.5208 46.2817 45.246 46.282H2.754C2.47922 46.2817 2.21576 46.1725 2.02138 45.9783C1.82699 45.7841 1.71753 45.5208 1.717 45.246V2.754C1.71726 2.47905 1.8266 2.21544 2.02102 2.02102C2.21544 1.8266 2.47905 1.71726 2.754 1.717H45.246C45.5209 1.71726 45.7846 1.8266 45.979 2.02102C46.1734 2.21544 46.2827 2.47905 46.283 2.754V45.246Z" fill="url(#paint4_linear)"/>
<path d="M31.4583 16.6718C31.4396 16.6464 31.4196 16.622 31.3983 16.5988C31.3756 16.578 31.3519 16.5583 31.3273 16.5398C29.3744 14.6133 26.7415 13.5332 23.9983 13.5332C21.2551 13.5332 18.6222 14.6133 16.6693 16.5398C16.6446 16.5586 16.6209 16.5787 16.5983 16.5998C16.577 16.6227 16.5569 16.6467 16.5383 16.6718C14.6115 18.6246 13.5313 21.2575 13.5312 24.0008C13.5313 26.7441 14.6115 29.377 16.5383 31.3298C16.5563 31.3542 16.5757 31.3775 16.5963 31.3998C16.6183 31.4198 16.6413 31.4398 16.6653 31.4568C18.6182 33.3848 21.252 34.4658 23.9963 34.4658C26.7405 34.4658 29.3743 33.3848 31.3273 31.4568C31.3516 31.4391 31.375 31.4201 31.3973 31.3998C31.4175 31.3775 31.4366 31.3542 31.4543 31.3298C33.3812 29.3772 34.4617 26.7442 34.4617 24.0008C34.4617 21.2574 33.3812 18.6245 31.4543 16.6718H31.4583ZM30.7583 29.5458L29.1763 27.9638C29.8716 27.0601 30.3165 25.9892 30.4663 24.8588H32.7033C32.5349 26.5797 31.8577 28.2113 30.7583 29.5458ZM15.2933 24.8578H17.5303C17.6798 25.9885 18.1248 27.0598 18.8203 27.9638L17.2383 29.5458C16.1386 28.2111 15.4615 26.579 15.2933 24.8578ZM17.2383 18.4538L18.8203 20.0358C18.1249 20.9395 17.68 22.0105 17.5303 23.1408H15.2933C15.4618 21.42 16.1389 19.7884 17.2383 18.4538ZM23.9983 28.8138C22.7212 28.8138 21.4965 28.3065 20.5935 27.4035C19.6906 26.5005 19.1833 25.2758 19.1833 23.9988C19.1833 22.7218 19.6906 21.4971 20.5935 20.5941C21.4965 19.6911 22.7212 19.1838 23.9983 19.1838C25.2753 19.1838 26.5 19.6911 27.403 20.5941C28.306 21.4971 28.8133 22.7218 28.8133 23.9988C28.8133 25.2758 28.306 26.5005 27.403 27.4035C26.5 28.3065 25.2753 28.8138 23.9983 28.8138ZM27.9623 18.8218C27.0586 18.1265 25.9876 17.6815 24.8573 17.5318V15.2938C26.5781 15.463 28.2096 16.1404 29.5443 17.2398L27.9623 18.8218ZM23.1403 17.5318C22.0096 17.6814 20.9382 18.1263 20.0343 18.8218L18.4523 17.2398C19.7871 16.1402 21.4191 15.4628 23.1403 15.2938V17.5318ZM20.0333 29.1778C20.9377 29.8731 22.0093 30.3181 23.1403 30.4678V32.7048C21.4191 32.5363 19.7872 31.8592 18.4523 30.7598L20.0333 29.1778ZM24.8563 30.4678C25.9872 30.3181 27.0588 29.8731 27.9633 29.1778L29.5443 30.7598C28.2093 31.8592 26.5774 32.5362 24.8563 32.7048V30.4678ZM30.4663 23.1418C30.3167 22.0111 29.8718 20.9398 29.1763 20.0358L30.7583 18.4538C31.8578 19.7886 32.5349 21.4207 32.7033 23.1418H30.4663Z" fill="url(#paint5_linear)"/>
<path d="M23.9982 21.9321C23.4496 21.9321 22.9235 22.1501 22.5355 22.538C22.1476 22.9259 21.9297 23.452 21.9297 24.0006C21.9297 24.5492 22.1476 25.0754 22.5355 25.4633C22.9235 25.8512 23.4496 26.0691 23.9982 26.0691C24.5468 26.0691 25.0729 25.8512 25.4608 25.4633C25.8488 25.0754 26.0667 24.5492 26.0667 24.0006C26.0667 23.452 25.8488 22.9259 25.4608 22.538C25.0729 22.1501 24.5468 21.9321 23.9982 21.9321ZM23.9982 24.3521C23.9048 24.3521 23.8153 24.315 23.7493 24.249C23.6833 24.183 23.6462 24.0935 23.6462 24.0001C23.6462 23.9068 23.6833 23.8172 23.7493 23.7512C23.8153 23.6852 23.9048 23.6481 23.9982 23.6481C24.0882 23.6529 24.1729 23.6921 24.2349 23.7575C24.2969 23.8228 24.3314 23.9095 24.3314 23.9996C24.3314 24.0897 24.2969 24.1764 24.2349 24.2418C24.1729 24.3072 24.0882 24.3463 23.9982 24.3511V24.3521Z" fill="url(#paint6_linear)"/>
<path d="M43.6226 19.9499H43.0096V7.40195C43.0091 7.17438 42.9184 6.9563 42.7574 6.79548C42.5963 6.63466 42.3782 6.54421 42.1506 6.54395H5.84859C5.62112 6.54421 5.40304 6.63469 5.24219 6.79554C5.08134 6.95639 4.99086 7.17447 4.99059 7.40195V10.3359C4.46431 10.5155 4.00726 10.855 3.6833 11.307C3.35933 11.759 3.18463 12.3009 3.18359 12.8569V16.5199C3.18448 17.0761 3.35912 17.618 3.68311 18.07C4.00709 18.522 4.46423 18.8615 4.99059 19.0409V28.9589C4.46439 29.1384 4.00737 29.4777 3.6834 29.9295C3.35943 30.3813 3.18469 30.923 3.18359 31.4789V35.1419C3.18448 35.6981 3.35912 36.24 3.68311 36.692C4.00709 37.144 4.46423 37.4835 4.99059 37.6629V40.5969C4.99086 40.8245 5.08131 41.0427 5.24213 41.2037C5.40295 41.3647 5.62103 41.4554 5.84859 41.4559H42.1506C42.3782 41.4554 42.5962 41.3647 42.7571 41.2037C42.9179 41.0427 43.0083 40.8245 43.0086 40.5969V28.0499H43.6226C43.8502 28.0497 44.0685 27.9591 44.2294 27.798C44.3902 27.6369 44.4806 27.4186 44.4806 27.1909V20.8079C44.4801 20.5806 44.3895 20.3626 44.2287 20.2018C44.0679 20.041 43.85 19.9505 43.6226 19.9499ZM42.7636 26.3329H40.3316V21.6669H42.7616L42.7636 26.3329ZM4.90259 12.8569C4.9138 12.6131 5.01857 12.3829 5.19513 12.2142C5.37169 12.0456 5.60644 11.9515 5.85059 11.9515C6.09474 11.9515 6.3295 12.0456 6.50606 12.2142C6.68262 12.3829 6.78739 12.6131 6.79859 12.8569V16.5199C6.79859 16.7713 6.69889 17.0124 6.52135 17.1903C6.34381 17.3682 6.10294 17.4684 5.85159 17.4689H5.84959C5.59825 17.4684 5.35738 17.3682 5.17984 17.1903C5.0023 17.0124 4.90259 16.7713 4.90259 16.5199V12.8569ZM4.90259 31.4789C4.90259 31.2275 5.00247 30.9864 5.18026 30.8086C5.35804 30.6308 5.59917 30.5309 5.85059 30.5309C6.10202 30.5309 6.34315 30.6308 6.52093 30.8086C6.69872 30.9864 6.79859 31.2275 6.79859 31.4789V35.1419C6.78739 35.3858 6.68262 35.616 6.50606 35.7847C6.3295 35.9533 6.09474 36.0474 5.85059 36.0474C5.60644 36.0474 5.37169 35.9533 5.19513 35.7847C5.01857 35.616 4.9138 35.3858 4.90259 35.1419V31.4799V31.4789ZM41.2906 39.7389H6.70859V37.6629C7.23472 37.4834 7.69165 37.1441 8.0156 36.6923C8.33955 36.2405 8.51435 35.6989 8.51559 35.1429V31.4789C8.5145 30.923 8.33976 30.3813 8.01579 29.9295C7.69182 29.4777 7.2348 29.1384 6.70859 28.9589V19.0399C7.23472 18.8604 7.69165 18.5211 8.0156 18.0693C8.33955 17.6175 8.51435 17.0759 8.51559 16.5199V12.8559C8.51465 12.3 8.33997 11.7582 8.01597 11.3063C7.69198 10.8545 7.23488 10.5152 6.70859 10.3359V8.25995H41.2906V19.9499H39.4746C39.247 19.9499 39.0288 20.0403 38.8679 20.2012C38.707 20.3622 38.6166 20.5804 38.6166 20.8079V27.1909C38.6166 27.4186 38.707 27.6369 38.8678 27.798C39.0287 27.9591 39.2469 28.0497 39.4746 28.0499H41.2906V39.7389Z" fill="url(#paint7_linear)"/>
</g>
<defs>
<linearGradient id="paint0_linear" x1="48" y1="25.877" x2="0" y2="25.877" gradientUnits="userSpaceOnUse">
<stop stop-color="#A31FED"/>
<stop offset="1" stop-color="#03EE65"/>
</linearGradient>
<linearGradient id="paint1_linear" x1="47.9983" y1="25.8768" x2="-0.00173759" y2="25.8768" gradientUnits="userSpaceOnUse">
<stop stop-color="#A31FED"/>
<stop offset="1" stop-color="#03EE65"/>
</linearGradient>
<linearGradient id="paint2_linear" x1="47.9982" y1="25.8771" x2="-0.00181925" y2="25.8771" gradientUnits="userSpaceOnUse">
<stop stop-color="#A31FED"/>
<stop offset="1" stop-color="#03EE65"/>
</linearGradient>
<linearGradient id="paint3_linear" x1="47.9996" y1="25.8769" x2="-0.000407219" y2="25.8769" gradientUnits="userSpaceOnUse">
<stop stop-color="#A31FED"/>
<stop offset="1" stop-color="#03EE65"/>
</linearGradient>
<linearGradient id="paint4_linear" x1="48" y1="25.877" x2="0" y2="25.877" gradientUnits="userSpaceOnUse">
<stop stop-color="#A31FED"/>
<stop offset="1" stop-color="#03EE65"/>
</linearGradient>
<linearGradient id="paint5_linear" x1="47.9983" y1="25.8768" x2="-0.00173759" y2="25.8768" gradientUnits="userSpaceOnUse">
<stop stop-color="#A31FED"/>
<stop offset="1" stop-color="#03EE65"/>
</linearGradient>
<linearGradient id="paint6_linear" x1="47.9982" y1="25.8771" x2="-0.00181925" y2="25.8771" gradientUnits="userSpaceOnUse">
<stop stop-color="#A31FED"/>
<stop offset="1" stop-color="#03EE65"/>
</linearGradient>
<linearGradient id="paint7_linear" x1="47.9996" y1="25.8769" x2="-0.000407219" y2="25.8769" gradientUnits="userSpaceOnUse">
<stop stop-color="#A31FED"/>
<stop offset="1" stop-color="#03EE65"/>
</linearGradient>
<clipPath id="clip0">
<rect width="48" height="52" fill="white"/>
</clipPath>
<clipPath id="clip1">
<rect width="48" height="52" fill="white"/>
</clipPath>
</defs>
</svg>
