<svg width="48" height="35" viewBox="0 0 48 35" fill="none" xmlns="http://www.w3.org/2000/svg">
<g clip-path="url(#clip0)">
<path fill-rule="evenodd" clip-rule="evenodd" d="M4.44585 0.0951875C3.81285 0.331188 3.45585 0.632188 3.21085 1.13819C3.06614 1.40941 2.99544 1.71396 3.00585 2.02119C3.00685 2.32119 3.04985 2.53719 3.15785 2.79319C3.31785 3.17619 3.51985 3.39719 5.01085 4.82819C5.49485 5.29319 6.15785 5.93319 6.48285 6.25019C6.80885 6.56719 7.47085 7.20719 7.95485 7.67219C8.43785 8.13819 9.09985 8.77819 9.42485 9.09519C9.75085 9.41219 10.4248 10.0622 10.9208 10.5412C11.4188 11.0202 12.0808 11.6602 12.3928 11.9632C12.7048 12.2672 13.3558 12.8962 13.8388 13.3612C14.3228 13.8262 14.9958 14.4772 15.3348 14.8082C15.6738 15.1382 16.3348 15.7782 16.8058 16.2302C17.2758 16.6822 17.9278 17.3102 18.2528 17.6282C18.5778 17.9442 19.2398 18.5842 19.7238 19.0502C20.2078 19.5152 20.8698 20.1552 21.1948 20.4722C21.5208 20.7892 22.1828 21.4292 22.6658 21.8942C23.1498 22.3592 23.8228 23.0102 24.1618 23.3412C24.5008 23.6712 25.1628 24.3112 25.6328 24.7632C26.1028 25.2142 26.7658 25.8542 27.1048 26.1852C27.4428 26.5152 28.1048 27.1552 28.5748 27.6072C29.0458 28.0592 29.6968 28.6872 30.0228 29.0052C30.3478 29.3222 31.0098 29.9622 31.4928 30.4272C31.9843 30.8997 32.4743 31.3737 32.9628 31.8492C33.9208 32.7842 34.7018 33.5152 34.8678 33.6322C35.0778 33.7782 35.1478 33.8122 35.4818 33.9302C35.7458 34.0242 35.7858 34.0312 36.0218 34.0302C36.2588 34.0302 36.2938 34.0232 36.5778 33.9212C37.0428 33.7552 37.3418 33.5492 37.5838 33.2312C38.1338 32.5062 38.1468 31.5882 37.6188 30.8482C37.4608 30.6272 35.8168 28.9972 34.5968 27.8532C34.4559 27.7266 34.323 27.5913 34.1988 27.4482C34.1709 27.3958 34.1555 27.3376 34.1538 27.2782C34.1538 27.1612 34.2608 27.0492 34.4388 26.9832C34.9088 26.8072 36.5268 26.0832 36.9858 25.8432C38.7408 24.9252 39.7458 24.3212 41.1178 23.3572C42.3078 22.5202 43.3238 21.6902 44.5488 20.5552C45.9488 19.2582 47.3258 17.6052 47.8118 16.6352C48.0848 16.0892 48.0678 15.8422 47.7118 15.2352C46.8378 13.7442 44.8418 11.6322 42.6378 9.86519C41.6089 9.03716 40.5298 8.27338 39.4068 7.57819C38.4288 6.97019 37.9118 6.68319 36.7038 6.07819C33.6948 4.57419 30.6088 3.63219 27.3498 3.22519C26.7624 3.1559 26.1732 3.10221 25.5828 3.06419C25.1318 3.03019 22.8928 3.03019 22.4208 3.06419C19.7308 3.25519 17.8778 3.59819 15.4298 4.35919C14.5698 4.62519 13.2838 5.11419 12.4208 5.50019C12.0008 5.68819 11.8908 5.71219 11.7278 5.65019C11.5748 5.59119 11.3758 5.41719 10.6498 4.70719C10.3108 4.37619 9.62785 3.71319 9.13185 3.23419C8.63269 2.75338 8.13469 2.27138 7.63785 1.78819C6.95685 1.12319 6.29985 0.515188 6.13285 0.395188C5.96685 0.275188 5.78385 0.190188 5.48785 0.0871875C5.32126 0.0166315 5.14026 -0.013193 4.95985 0.000187515C4.78304 -0.0100671 4.60636 0.0225231 4.44485 0.0951875H4.44585ZM24.8118 6.10019C26.8208 6.37619 28.5248 7.09719 30.0858 8.33319C30.4308 8.60619 31.3738 9.54819 31.6688 9.91619C33.6628 12.3932 34.4278 15.5492 33.7848 18.6452C33.4548 20.2352 32.7448 21.7152 31.6648 23.0592C31.1398 23.7122 30.9048 23.9292 30.7208 23.9292C30.5478 23.9292 30.4208 23.8222 29.3578 22.7892C27.9968 21.4642 27.4358 20.9012 27.3988 20.8252C27.3756 20.7742 27.3634 20.719 27.3628 20.663C27.3623 20.607 27.3736 20.5516 27.3958 20.5002C27.4158 20.4642 27.5568 20.2832 27.7118 20.0982C27.8658 19.9142 28.0568 19.6662 28.1368 19.5482C28.3678 19.2012 28.6688 18.5802 28.7948 18.1892C29.0088 17.5272 29.0648 17.1102 29.0468 16.3452C29.0348 15.8612 29.0248 15.7602 28.9568 15.4332C28.7378 14.3185 28.1793 13.2989 27.3578 12.5142C26.5045 11.6911 25.4108 11.1617 24.2358 11.0032C23.9038 10.9562 23.0478 10.9632 22.7058 11.0162C22.1374 11.1018 21.5862 11.2773 21.0728 11.5362C20.5538 11.7912 20.1598 12.0702 19.6028 12.5752C19.4668 12.6972 19.3468 12.7852 19.2898 12.8012C19.0898 12.8612 18.9898 12.7812 17.8208 11.6452C16.4078 10.2692 15.9308 9.79019 15.8848 9.70219C15.7748 9.49219 15.8338 9.37319 16.2338 8.98419C17.8953 7.36747 20.045 6.34604 22.3478 6.07919C22.9078 6.01219 24.2508 6.02319 24.8118 6.10019ZM5.01685 10.1222C4.85185 10.2062 4.46285 10.5422 3.49985 11.4292C2.44585 12.3992 1.16285 13.8692 0.547846 14.8082C0.313846 15.1642 0.109846 15.5462 0.0478465 15.7412C-0.0241535 15.9712 -0.0141535 16.3022 0.0728464 16.5612C0.144846 16.7762 0.456846 17.3952 0.644846 17.6962C1.27885 18.7112 2.43185 20.0612 3.53785 21.0812C4.83885 22.2812 5.79085 23.0332 7.16985 23.9512C8.18617 24.6385 9.24682 25.2578 10.3448 25.8052C12.7038 26.9943 15.2104 27.8643 17.7988 28.3922C18.7108 28.5822 19.9778 28.7712 20.9868 28.8692C22.2818 28.9942 24.1138 29.0582 24.3588 28.9852C24.5508 28.9292 24.6158 28.7992 24.5308 28.6422C24.5108 28.6052 24.0568 28.1512 23.5208 27.6322L21.9308 26.0872C21.5908 25.7572 20.9078 25.0942 20.4108 24.6162C19.8946 24.1188 19.3796 23.6202 18.8658 23.1202C18.3521 22.6202 17.8371 22.1216 17.3208 21.6242C16.8238 21.1452 16.1398 20.4842 15.8008 20.1532C15.4608 19.8232 14.7778 19.1612 14.2808 18.6822C13.7732 18.1929 13.2665 17.7025 12.7608 17.2112C12.2468 16.7115 11.7318 16.2128 11.2158 15.7152C10.6998 15.2176 10.1848 14.7189 9.67085 14.2192C9.33085 13.8892 8.63685 13.2162 8.12685 12.7242C7.59497 12.2101 7.0643 11.6948 6.53485 11.1782C5.39485 10.0622 5.28485 9.98619 5.01685 10.1222Z" fill="url(#paint0_linear)"/>
</g>
<defs>
<linearGradient id="paint0_linear" x1="47.9998" y1="17.0152" x2="-0.000154495" y2="17.0152" gradientUnits="userSpaceOnUse">
<stop stop-color="#A31FED"/>
<stop offset="1" stop-color="#03EE65"/>
</linearGradient>
<clipPath id="clip0">
<rect width="48" height="35" fill="white"/>
</clipPath>
</defs>
</svg>
