<svg width="48" height="49" viewBox="0 0 48 49" fill="none" xmlns="http://www.w3.org/2000/svg">
<path d="M38.989 41.9028L37.192 36.5128C36.8839 35.589 36.3332 34.7651 35.5975 34.1271C34.8618 33.4892 33.9681 33.0608 33.01 32.8868L27.824 31.9428V31.5408C28.7246 31.0173 29.5114 30.3189 30.138 29.4868H31.704C32.3213 29.4862 32.9131 29.2408 33.3496 28.8043C33.786 28.3679 34.0315 27.776 34.032 27.1588V17.8478C34.032 12.2848 29.507 7.75977 23.945 7.75977C18.382 7.75977 13.857 12.2848 13.857 17.8478V23.2788C13.8578 23.9925 14.1041 24.6842 14.5546 25.2377C15.0051 25.7913 15.6324 26.173 16.331 26.3188C16.5457 27.4049 16.9899 28.4326 17.6339 29.3331C18.2778 30.2337 19.1067 30.9864 20.065 31.5408V31.9428L14.878 32.8868C13.92 33.0608 13.0265 33.4892 12.2909 34.1271C11.5553 34.7651 11.0048 35.589 10.697 36.5128L10.387 37.4448L7.74401 34.8018C7.59856 34.6561 7.51686 34.4586 7.51686 34.2528C7.51686 34.0469 7.59856 33.8494 7.74401 33.7038L10.809 30.6398L5.05601 24.8868L1.59201 28.3508C1.08606 28.8537 0.684851 29.4519 0.411588 30.1108C0.138326 30.7698 -0.00156339 31.4764 1.3179e-05 32.1898C1.3179e-05 33.6418 0.565013 35.0048 1.59001 36.0308L12.08 46.5188C12.5832 47.0249 13.1817 47.4262 13.8411 47.6995C14.5004 47.9728 15.2073 48.1125 15.921 48.1108C16.629 48.1137 17.3306 47.9767 17.9855 47.7076C18.6404 47.4385 19.2356 47.0427 19.737 46.5428L23.517 43.0798L22.339 41.9028H38.989ZM32.48 27.1598C32.4797 27.3655 32.3979 27.5627 32.2524 27.7082C32.107 27.8537 31.9097 27.9355 31.704 27.9358H31.052C31.2795 27.4173 31.4492 26.8754 31.558 26.3198C31.89 26.2508 32.196 26.1188 32.48 25.9528V27.1598ZM31.704 24.6168V21.9438C32.166 22.2138 32.48 22.7088 32.48 23.2798C32.48 23.8518 32.166 24.3468 31.704 24.6168ZM16.184 24.6168C15.949 24.4814 15.7536 24.2866 15.6176 24.052C15.4816 23.8173 15.4096 23.551 15.409 23.2798C15.409 22.7088 15.723 22.2128 16.185 21.9438V24.6168H16.184ZM16.184 19.4008V20.2868C15.9121 20.3574 15.6513 20.4655 15.409 20.6078V17.8478C15.409 13.1418 19.239 9.31277 23.945 9.31277C28.651 9.31277 32.48 13.1428 32.48 17.8488V20.6078C32.24 20.4678 31.98 20.3578 31.704 20.2868V19.3998H30.928C29.7993 19.4026 28.6812 19.1816 27.6385 18.7496C26.5957 18.3175 25.649 17.683 24.853 16.8828L23.944 15.9738L23.036 16.8838C22.2399 17.684 21.2929 18.3184 20.25 18.7503C19.2071 19.1822 18.0888 19.4029 16.96 19.3998H16.184V19.4008ZM17.737 24.8318V20.9228C20.0635 20.751 22.2581 19.7761 23.945 18.1648C25.6316 19.7761 27.8258 20.7511 30.152 20.9228V24.8328C30.152 25.9628 29.843 27.0228 29.312 27.9358H23.945V29.4878H28.037C26.9082 30.4873 25.4527 31.0393 23.945 31.0398C22.2991 31.0379 20.7212 30.3833 19.5573 29.2194C18.3935 28.0556 17.7389 26.4777 17.737 24.8318ZM26.273 32.2348V32.2708L23.945 34.5988L21.617 32.2708V32.2348C23.132 32.7118 24.757 32.7118 26.272 32.2348H26.273ZM12.168 37.0048C12.388 36.3448 12.7813 35.7561 13.3068 35.3003C13.8323 34.8445 14.4706 34.5383 15.155 34.4138L20.579 33.4278L23.945 36.7928L27.309 33.4288L32.733 34.4138C33.4173 34.5384 34.0554 34.8446 34.5808 35.3004C35.1061 35.7563 35.4992 36.3449 35.719 37.0048L36.836 40.3518H20.786L17.763 37.3298L14.405 40.3678C14.2574 40.5094 14.0606 40.5885 13.856 40.5885C13.6514 40.5885 13.4547 40.5094 13.307 40.3678L11.613 38.6728L12.168 37.0048ZM5.05501 27.0798L8.61301 30.6388L7.77101 31.4808L4.21201 27.9228L5.05501 27.0798ZM18.662 45.4228C18.3023 45.7836 17.8748 46.0697 17.404 46.2645C16.9332 46.4593 16.4285 46.559 15.919 46.5578C15.4092 46.5589 14.9042 46.459 14.4332 46.2638C13.9623 46.0687 13.5346 45.7821 13.175 45.4208L2.68701 34.9358C2.32559 34.5762 2.03909 34.1486 1.84409 33.6776C1.64909 33.2066 1.54948 32.7015 1.55101 32.1918C1.55101 31.1558 1.95501 30.1818 2.68701 29.4488L3.11401 29.0218L6.67301 32.5798L6.64501 32.6078C6.20919 33.0449 5.96446 33.637 5.96446 34.2543C5.96446 34.8715 6.20919 35.4636 6.64501 35.9008L12.209 41.4648C12.649 41.9048 13.234 42.1468 13.856 42.1468C14.478 42.1468 15.063 41.9048 15.474 41.4928L15.532 41.4408L19.107 45.0158L18.662 45.4238V45.4228ZM20.252 43.9628L16.685 40.3968L17.71 39.4698L21.271 43.0308L20.252 43.9638V43.9628Z" fill="url(#paint0_linear)"/>
<path d="M45.6725 0H34.8085C34.1912 0.000529611 33.5994 0.24597 33.1629 0.68244C32.7264 1.11891 32.481 1.71074 32.4805 2.328V8.536C32.481 9.15326 32.7264 9.74509 33.1629 10.1816C33.5994 10.618 34.1912 10.8635 34.8085 10.864H36.8815L36.0795 15.544L43.5675 10.864H45.6725C46.2897 10.8635 46.8816 10.618 47.318 10.1816C47.7545 9.74509 47.9999 9.15326 48.0005 8.536V2.328C47.9999 1.71074 47.7545 1.11891 47.318 0.68244C46.8816 0.24597 46.2897 0.000529611 45.6725 0V0ZM46.4485 8.536C46.4482 8.74173 46.3664 8.93895 46.2209 9.08442C46.0754 9.22989 45.8782 9.31174 45.6725 9.312H43.1225L38.1935 12.392L38.7225 9.312H34.8085C34.6027 9.31174 34.4055 9.22989 34.26 9.08442C34.1146 8.93895 34.0327 8.74173 34.0325 8.536V2.328C34.0325 1.9 34.3815 1.552 34.8085 1.552H45.6725C46.1005 1.552 46.4485 1.9 46.4485 2.328V8.536Z" fill="url(#paint1_linear)"/>
<path d="M44.8979 3.104H35.5859V4.656H44.8979V3.104Z" fill="url(#paint2_linear)"/>
<path d="M41.7939 6.20801H35.5859V7.76001H41.7939V6.20801Z" fill="url(#paint3_linear)"/>
<path d="M44.8957 6.20801H43.3438V7.76001H44.8957V6.20801Z" fill="url(#paint4_linear)"/>
<path d="M23.945 2.32816C13.805 2.32816 5.072 9.34016 2.8 19.1242L1.33 16.6732L0 17.4702L2.728 22.0152L7.273 19.2882L6.474 17.9572L4.371 19.2192C6.571 10.2692 14.618 3.87916 23.945 3.87916C25.983 3.87916 27.995 4.18216 29.923 4.77916L30.383 3.29716C28.2979 2.65209 26.1276 2.32509 23.945 2.32716V2.32816Z" fill="url(#paint5_linear)"/>
<path d="M47.6212 17.1821L43.0762 14.4541L40.3482 19.0001L41.6782 19.7981L43.0372 17.5351C43.7546 19.6339 44.1195 21.8371 44.1172 24.0551C44.1172 28.6701 42.5192 33.1821 39.6172 36.7581L40.8222 37.7361C43.9546 33.8645 45.6653 29.0362 45.6692 24.0561C45.6692 21.6821 45.2862 19.3641 44.5412 17.1451L46.8212 18.5131L47.6202 17.1821H47.6212Z" fill="url(#paint6_linear)"/>
<defs>
<linearGradient id="paint0_linear" x1="48" y1="24.0548" x2="1.14441e-05" y2="24.0548" gradientUnits="userSpaceOnUse">
<stop stop-color="#A31FED"/>
<stop offset="1" stop-color="#03EE65"/>
</linearGradient>
<linearGradient id="paint1_linear" x1="48.0005" y1="24.055" x2="0.000466258" y2="24.055" gradientUnits="userSpaceOnUse">
<stop stop-color="#A31FED"/>
<stop offset="1" stop-color="#03EE65"/>
</linearGradient>
<linearGradient id="paint2_linear" x1="48.0019" y1="24.055" x2="0.00193739" y2="24.055" gradientUnits="userSpaceOnUse">
<stop stop-color="#A31FED"/>
<stop offset="1" stop-color="#03EE65"/>
</linearGradient>
<linearGradient id="paint3_linear" x1="48.0019" y1="24.055" x2="0.00193602" y2="24.055" gradientUnits="userSpaceOnUse">
<stop stop-color="#A31FED"/>
<stop offset="1" stop-color="#03EE65"/>
</linearGradient>
<linearGradient id="paint4_linear" x1="47.9997" y1="24.055" x2="-0.000198259" y2="24.055" gradientUnits="userSpaceOnUse">
<stop stop-color="#A31FED"/>
<stop offset="1" stop-color="#03EE65"/>
</linearGradient>
<linearGradient id="paint5_linear" x1="48" y1="24.0552" x2="0" y2="24.0552" gradientUnits="userSpaceOnUse">
<stop stop-color="#A31FED"/>
<stop offset="1" stop-color="#03EE65"/>
</linearGradient>
<linearGradient id="paint6_linear" x1="47.9982" y1="24.0551" x2="-0.00182096" y2="24.0551" gradientUnits="userSpaceOnUse">
<stop stop-color="#A31FED"/>
<stop offset="1" stop-color="#03EE65"/>
</linearGradient>
</defs>
</svg>
