<svg width="48" height="44" viewBox="0 0 48 44" fill="none" xmlns="http://www.w3.org/2000/svg">
<g clip-path="url(#clip0)">
<path d="M26.4497 38.9341H21.5817C21.3974 38.9341 21.2206 39.0073 21.0903 39.1376C20.9599 39.268 20.8867 39.4448 20.8867 39.6291C20.8867 39.8134 20.9599 39.9902 21.0903 40.1205C21.2206 40.2509 21.3974 40.3241 21.5817 40.3241H26.4487C26.633 40.3241 26.8098 40.2509 26.9402 40.1205C27.0705 39.9902 27.1437 39.8134 27.1437 39.6291C27.1437 39.4448 27.0705 39.268 26.9402 39.1376C26.8098 39.0073 26.633 38.9341 26.4487 38.9341H26.4497Z" fill="url(#paint0_linear)"/>
<path d="M29.141 38.9341H28.445C28.2607 38.9341 28.0839 39.0073 27.9536 39.1376C27.8232 39.268 27.75 39.4448 27.75 39.6291C27.75 39.8134 27.8232 39.9902 27.9536 40.1205C28.0839 40.2509 28.2607 40.3241 28.445 40.3241H29.141C29.3253 40.3241 29.5021 40.2509 29.6324 40.1205C29.7628 39.9902 29.836 39.8134 29.836 39.6291C29.836 39.4448 29.7628 39.268 29.6324 39.1376C29.5021 39.0073 29.3253 38.9341 29.141 38.9341Z" fill="url(#paint1_linear)"/>
<path d="M45.9155 15.296H41.7445V3.476C41.7434 2.55443 41.3768 1.67091 40.7252 1.01927C40.0736 0.367619 39.19 0.00105867 38.2685 0L21.5815 0C20.6599 0.00105867 19.7764 0.367619 19.1247 1.01927C18.4731 1.67091 18.1065 2.55443 18.1055 3.476V39.63C18.1065 40.5516 18.4731 41.4351 19.1247 42.0867C19.7764 42.7384 20.6599 43.1049 21.5815 43.106H38.2675C39.189 43.1049 40.0726 42.7384 40.7242 42.0867C41.3758 41.4351 41.7424 40.5516 41.7435 39.63V29.201H45.9145C46.4676 29.2002 46.9978 28.9802 47.389 28.5892C47.7802 28.1982 48.0004 27.6681 48.0015 27.115V17.38C48.0007 16.8271 47.7806 16.2971 47.3896 15.9062C46.9985 15.5153 46.4684 15.2955 45.9155 15.295V15.296ZM33.2055 1.39L32.8585 2.78H26.9915L26.6435 1.39H33.2045H33.2055ZM40.3535 39.628C40.3524 40.1807 40.1324 40.7106 39.7417 41.1015C39.3509 41.4924 38.8212 41.7127 38.2685 41.714H21.5815C21.0284 41.7135 20.4981 41.4935 20.107 41.1024C19.7159 40.7114 19.496 40.1811 19.4955 39.628V3.476C19.4963 2.92309 19.7163 2.39308 20.1074 2.00221C20.4984 1.61134 21.0286 1.39153 21.5815 1.391H25.2095L25.7735 3.645C25.8112 3.79541 25.8981 3.92889 26.0204 4.02421C26.1427 4.11952 26.2934 4.17119 26.4485 4.171H33.4015C33.5564 4.17097 33.7068 4.11919 33.8289 4.0239C33.951 3.9286 34.0378 3.79525 34.0755 3.645L34.6395 1.39H38.2685C38.8213 1.39106 39.3512 1.6112 39.742 2.0022C40.1328 2.3932 40.3527 2.92318 40.3535 3.476V15.296H29.2315V13.21C29.2315 13.0255 29.1582 12.8486 29.0278 12.7182C28.8973 12.5878 28.7204 12.5145 28.536 12.5145C28.3515 12.5145 28.1746 12.5878 28.0442 12.7182C27.9137 12.8486 27.8405 13.0255 27.8405 13.21V29.896C27.8405 30.0803 27.9137 30.2571 28.044 30.3874C28.1744 30.5178 28.3511 30.591 28.5355 30.591C28.7198 30.591 28.8966 30.5178 29.0269 30.3874C29.1572 30.2571 29.2305 30.0803 29.2305 29.896V29.2H40.3545V39.628H40.3535ZM46.6115 27.114C46.6112 27.2984 46.5378 27.4752 46.4073 27.6055C46.2768 27.7358 46.0999 27.809 45.9155 27.809H29.2295V22.247H46.6115V27.114ZM46.6115 20.857H29.2305V19.466H46.6105V20.856L46.6115 20.857ZM46.6115 18.075H29.2305V16.685H45.9155C46.0999 16.685 46.2768 16.7582 46.4073 16.8885C46.5378 17.0188 46.6112 17.1956 46.6115 17.38V18.075Z" fill="url(#paint2_linear)"/>
<path d="M42.5123 25.7681H39.0353C38.8509 25.7681 38.674 25.8413 38.5436 25.9718C38.4131 26.1022 38.3398 26.2791 38.3398 26.4636C38.3398 26.648 38.4131 26.8249 38.5436 26.9554C38.674 27.0858 38.8509 27.1591 39.0353 27.1591H42.5123C42.6967 27.1591 42.8734 27.0858 43.0038 26.9555C43.1341 26.8252 43.2073 26.6484 43.2073 26.4641C43.2073 26.2797 43.1341 26.103 43.0038 25.9726C42.8734 25.8423 42.6967 25.7691 42.5123 25.7691V25.7681Z" fill="url(#paint3_linear)"/>
<path d="M45.2938 25.7681H44.5978C44.4134 25.7681 44.2365 25.8413 44.1061 25.9718C43.9756 26.1022 43.9023 26.2791 43.9023 26.4636C43.9023 26.648 43.9756 26.8249 44.1061 26.9554C44.2365 27.0858 44.4134 27.1591 44.5978 27.1591H45.2938C45.4782 27.1591 45.6549 27.0858 45.7853 26.9555C45.9156 26.8252 45.9888 26.6484 45.9888 26.4641C45.9888 26.2797 45.9156 26.103 45.7853 25.9726C45.6549 25.8423 45.4782 25.7691 45.2938 25.7691V25.7681Z" fill="url(#paint4_linear)"/>
<path d="M2.75727 28.6209H2.21127V31.3799H2.75727V28.6199V28.6209ZM2.47026 27.4719C2.42447 27.4701 2.37879 27.4778 2.3361 27.4945C2.29342 27.5112 2.25465 27.5365 2.22224 27.5689C2.18983 27.6013 2.16448 27.6401 2.14779 27.6828C2.1311 27.7255 2.12343 27.7711 2.12527 27.8169C2.12681 27.9079 2.16369 27.9946 2.22809 28.0588C2.29248 28.123 2.37934 28.1597 2.47026 28.1609C2.51606 28.1628 2.56174 28.1551 2.60443 28.1384C2.64711 28.1217 2.68588 28.0964 2.71829 28.064C2.7507 28.0316 2.77605 27.9928 2.79274 27.9501C2.80943 27.9074 2.8171 27.8617 2.81526 27.8159C2.81695 27.7702 2.80918 27.7247 2.79243 27.6821C2.77567 27.6395 2.7503 27.6009 2.71791 27.5686C2.68552 27.5363 2.6468 27.511 2.60418 27.4944C2.56157 27.4778 2.51597 27.4701 2.47026 27.4719Z" fill="#8B25CE"/>
<path d="M9.196 23.1328H3.448C2.5346 23.1357 1.65942 23.4998 1.01345 24.1456C0.367482 24.7914 0.0031642 25.6664 0 26.5798L0 32.3278C0.00290068 33.2414 0.367103 34.1167 1.0131 34.7627C1.6591 35.4087 2.53443 35.7729 3.448 35.7758H9.196C10.1096 35.7729 10.9849 35.4087 11.6309 34.7627C12.2769 34.1167 12.6411 33.2414 12.644 32.3278V26.5798C12.6411 25.6663 12.2769 24.7909 11.6309 24.1449C10.9849 23.4989 10.1096 23.1347 9.196 23.1318V23.1328ZM12.069 32.3288C12.0666 33.0901 11.7632 33.8195 11.2249 34.3577C10.6866 34.896 9.95724 35.1995 9.196 35.2018H3.448C2.68694 35.1995 1.95771 34.8961 1.41946 34.3581C0.881206 33.82 0.577637 33.0909 0.575 32.3298V26.5798C0.577374 25.8186 0.880826 25.0892 1.4191 24.5509C1.95738 24.0127 2.68676 23.7092 3.448 23.7068H9.196C9.95724 23.7092 10.6866 24.0127 11.2249 24.5509C11.7632 25.0892 12.0666 25.8186 12.069 26.5798V32.3278V32.3288Z" fill="#8B25CE"/>
<path d="M5.46062 27.645C4.42662 27.645 3.76562 28.363 3.76562 29.541C3.76562 30.719 4.39762 31.466 5.46062 31.466C6.52362 31.466 7.15663 30.719 7.15663 29.541C7.18463 28.363 6.52362 27.645 5.46062 27.645ZM5.46062 30.921C4.77062 30.921 4.34063 30.375 4.34063 29.541C4.34063 28.708 4.77062 28.161 5.46062 28.161C6.15062 28.161 6.58062 28.708 6.58062 29.541C6.58062 30.403 6.17963 30.921 5.46062 30.921ZM9.51262 29.31L9.10962 29.225C8.62162 29.11 8.44963 28.966 8.44963 28.707C8.44963 28.391 8.73662 28.161 9.19662 28.161C9.62662 28.161 9.91462 28.362 9.97262 28.707H10.5186C10.4886 28.104 9.94362 27.673 9.19662 27.673C8.39162 27.673 7.87463 28.103 7.87463 28.765C7.87463 29.311 8.16162 29.627 8.82262 29.771L9.28262 29.886C9.77062 30 9.97262 30.173 9.97262 30.432C9.97262 30.748 9.62762 30.978 9.19662 30.978C8.70762 30.978 8.36262 30.748 8.33462 30.403H7.75962C7.78862 31.063 8.33462 31.466 9.13962 31.466C10.0006 31.466 10.5466 31.036 10.5466 30.346C10.5466 29.771 10.2596 29.483 9.51262 29.311V29.31Z" fill="#8B25CE"/>
<path d="M9.196 7.47217H3.448C2.53443 7.47507 1.6591 7.83927 1.0131 8.48527C0.367103 9.13127 0.00290068 10.0066 0 10.9202L0 16.6682C0.00290068 17.5817 0.367103 18.4571 1.0131 19.1031C1.6591 19.7491 2.53443 20.1133 3.448 20.1162H9.196C10.1096 20.1133 10.9849 19.7491 11.6309 19.1031C12.2769 18.4571 12.6411 17.5817 12.644 16.6682V10.9202C12.6411 10.0066 12.2769 9.13127 11.6309 8.48527C10.9849 7.83927 10.1096 7.47507 9.196 7.47217ZM12.069 16.6682C12.0666 17.4294 11.7632 18.1588 11.2249 18.6971C10.6866 19.2353 9.95724 19.5388 9.196 19.5412H3.448C2.68676 19.5388 1.95738 19.2353 1.4191 18.6971C0.880826 18.1588 0.577374 17.4294 0.575 16.6682V10.9202C0.57711 10.1588 0.880446 9.42912 1.41875 8.89063C1.95706 8.35213 2.68659 8.04854 3.448 8.04617H9.196C9.95741 8.04854 10.6869 8.35213 11.2252 8.89063C11.7636 9.42912 12.0669 10.1588 12.069 10.9202V16.6682Z" fill="#06EB67"/>
<path d="M8.39113 12.7018L8.99513 11.7818C9.05313 11.6958 9.08113 11.5518 8.99513 11.4658C8.93813 11.3798 8.82313 11.3218 8.67913 11.3508C8.59313 11.3798 8.53512 11.4078 8.50712 11.4658L7.84612 12.4718C7.35737 12.2976 6.84199 12.2099 6.32313 12.2128C5.80513 12.2128 5.25912 12.2988 4.80012 12.4718L4.13913 11.4658C4.10936 11.4238 4.07054 11.3891 4.02553 11.3642C3.98053 11.3392 3.93049 11.3247 3.87913 11.3218H3.85113C3.76513 11.3508 3.67913 11.4088 3.65013 11.4948C3.62112 11.5808 3.62113 11.6948 3.67913 11.7528L4.28213 12.6728C3.24813 13.2188 2.50112 14.1668 2.32812 15.2588V15.6608H10.3741V15.2878C10.1741 14.1958 9.42613 13.2478 8.39213 12.7018H8.39113ZM2.98913 15.0868C3.24813 14.2248 3.87913 13.5068 4.77113 13.1038C4.80013 13.1038 4.80013 13.0748 4.82813 13.0748C5.28813 12.8748 5.77713 12.7878 6.32313 12.7878C6.83444 12.7917 7.34075 12.889 7.81713 13.0748H7.84612C8.73612 13.4768 9.39713 14.1958 9.65613 15.0578H2.98913V15.0868Z" fill="#06EB67"/>
<path d="M4.7435 14.5119C4.85781 14.5119 4.96743 14.4665 5.04826 14.3857C5.12909 14.3048 5.1745 14.1952 5.1745 14.0809C5.1745 13.9666 5.12909 13.857 5.04826 13.7761C4.96743 13.6953 4.85781 13.6499 4.7435 13.6499C4.62919 13.6499 4.51957 13.6953 4.43874 13.7761C4.35791 13.857 4.3125 13.9666 4.3125 14.0809C4.3125 14.1952 4.35791 14.3048 4.43874 14.3857C4.51957 14.4665 4.62919 14.5119 4.7435 14.5119ZM7.9045 14.5119C8.01881 14.5119 8.12843 14.4665 8.20926 14.3857C8.29009 14.3048 8.3355 14.1952 8.3355 14.0809C8.3355 13.9666 8.29009 13.857 8.20926 13.7761C8.12843 13.6953 8.01881 13.6499 7.9045 13.6499C7.79019 13.6499 7.68057 13.6953 7.59974 13.7761C7.51891 13.857 7.4735 13.9666 7.4735 14.0809C7.4735 14.1952 7.51891 14.3048 7.59974 14.3857C7.68057 14.4665 7.79019 14.5119 7.9045 14.5119Z" fill="#06EB67"/>
</g>
<defs>
<linearGradient id="paint0_linear" x1="48.0017" y1="21.553" x2="18.1067" y2="21.553" gradientUnits="userSpaceOnUse">
<stop stop-color="#A31FED"/>
<stop offset="1" stop-color="#03EE65"/>
</linearGradient>
<linearGradient id="paint1_linear" x1="47.999" y1="21.553" x2="18.104" y2="21.553" gradientUnits="userSpaceOnUse">
<stop stop-color="#A31FED"/>
<stop offset="1" stop-color="#03EE65"/>
</linearGradient>
<linearGradient id="paint2_linear" x1="48.0015" y1="21.553" x2="18.1065" y2="21.553" gradientUnits="userSpaceOnUse">
<stop stop-color="#A31FED"/>
<stop offset="1" stop-color="#03EE65"/>
</linearGradient>
<linearGradient id="paint3_linear" x1="47.9993" y1="21.5531" x2="18.1043" y2="21.5531" gradientUnits="userSpaceOnUse">
<stop stop-color="#A31FED"/>
<stop offset="1" stop-color="#03EE65"/>
</linearGradient>
<linearGradient id="paint4_linear" x1="47.9998" y1="21.5531" x2="18.1049" y2="21.5531" gradientUnits="userSpaceOnUse">
<stop stop-color="#A31FED"/>
<stop offset="1" stop-color="#03EE65"/>
</linearGradient>
<clipPath id="clip0">
<rect width="48" height="44" fill="white"/>
</clipPath>
</defs>
</svg>
