<svg width="48" height="48" viewBox="0 0 48 48" fill="none" xmlns="http://www.w3.org/2000/svg">
<path d="M45.942 24C45.942 22.15 45.7 20.32 45.222 18.547L48 16.554L42.61 7.446L39.447 8.798C36.7436 6.17889 33.4113 4.30021 29.771 3.343L29.391 0H18.61L18.229 3.343C14.5887 4.30021 11.2564 6.17889 8.553 8.798L5.39 7.446L0 16.554L2.777 18.547C2.29868 20.3252 2.05693 22.1586 2.058 24C2.058 25.85 2.3 27.68 2.778 29.453L0 31.446L5.39 40.554L8.553 39.202C11.2563 41.8212 14.5887 43.6999 18.229 44.657L18.609 48H29.39L29.771 44.657C33.4113 43.6999 36.7437 41.8212 39.447 39.202L42.61 40.554L48 31.446L45.223 29.453C45.7013 27.6748 45.943 25.8414 45.942 24ZM28.138 42.153L27.131 42.371L26.81 45.187H21.19L20.87 42.371L19.862 42.153C16.0692 41.3432 12.6137 39.3955 9.957 36.57L9.26 35.83L6.597 36.968L3.787 32.22L6.124 30.542L5.815 29.583C5.23445 27.7789 4.93955 25.8952 4.941 24C4.941 22.096 5.235 20.217 5.815 18.417L6.125 17.457L3.787 15.78L6.597 11.032L9.26 12.171L9.957 11.431C12.6135 8.60515 16.0691 6.65709 19.862 5.847L20.869 5.629L21.19 2.813H26.81L27.13 5.629L28.138 5.847C31.9308 6.65693 35.3862 8.60462 38.043 11.43L38.74 12.17L41.403 11.032L44.213 15.78L41.876 17.458L42.185 18.417C42.765 20.217 43.059 22.096 43.059 24C43.059 25.904 42.765 27.782 42.185 29.583L41.875 30.543L44.213 32.22L41.403 36.968L38.74 35.829L38.043 36.569C35.3865 39.3949 31.9309 41.3429 28.138 42.153Z" fill="url(#paint0_linear)"/>
<path d="M18.2763 20.78L16.2163 18.813L10.9453 24.065L16.3283 29.208L18.3453 27.198L15.0213 24.023L18.2763 20.781V20.78Z" fill="url(#paint1_linear)"/>
<path d="M29.7213 20.78L32.9763 24.023L29.6523 27.199L31.6693 29.208L37.0523 24.065L31.7803 18.813L29.7203 20.781L29.7213 20.78Z" fill="url(#paint2_linear)"/>
<path d="M20.5508 33.2038L24.6508 14.1948L27.4728 14.7748L23.3728 33.7828L20.5508 33.2038Z" fill="url(#paint3_linear)"/>
<defs>
<linearGradient id="paint0_linear" x1="48" y1="24" x2="0" y2="24" gradientUnits="userSpaceOnUse">
<stop stop-color="#A31FED"/>
<stop offset="1" stop-color="#03EE65"/>
</linearGradient>
<linearGradient id="paint1_linear" x1="47.9993" y1="24" x2="-0.000687351" y2="24" gradientUnits="userSpaceOnUse">
<stop stop-color="#A31FED"/>
<stop offset="1" stop-color="#03EE65"/>
</linearGradient>
<linearGradient id="paint2_linear" x1="47.9983" y1="24" x2="-0.00166131" y2="24" gradientUnits="userSpaceOnUse">
<stop stop-color="#A31FED"/>
<stop offset="1" stop-color="#03EE65"/>
</linearGradient>
<linearGradient id="paint3_linear" x1="48.0008" y1="23.9998" x2="0.000776567" y2="23.9998" gradientUnits="userSpaceOnUse">
<stop stop-color="#A31FED"/>
<stop offset="1" stop-color="#03EE65"/>
</linearGradient>
</defs>
</svg>
