<svg width="48" height="45" viewBox="0 0 48 45" fill="none" xmlns="http://www.w3.org/2000/svg">
<g clip-path="url(#clip0)">
<path d="M34.2704 31.8131H20.4904C20.304 31.8131 20.1252 31.8872 19.9933 32.019C19.8615 32.1508 19.7874 32.3297 19.7874 32.5161C19.7874 32.7025 19.8615 32.8814 19.9933 33.0132C20.1252 33.145 20.304 33.2191 20.4904 33.2191H34.2704C35.5756 33.2175 36.8269 32.6983 37.7498 31.7754C38.6727 30.8525 39.1919 29.6013 39.1934 28.2961V17.7361C39.1919 16.4309 38.6727 15.1797 37.7498 14.2568C36.8269 13.3339 35.5756 12.8147 34.2704 12.8131H30.2764L21.2014 8.1801C20.7658 7.95854 20.2601 7.91875 19.7952 8.06947C19.3304 8.22019 18.9442 8.5491 18.7214 8.9841L16.7674 12.8131H14.1634C13.2594 12.8131 12.5234 13.5491 12.5234 14.4531V31.5781C12.5234 32.4831 13.2594 33.2191 14.1634 33.2191H17.3964C17.583 33.2191 17.762 33.145 17.8939 33.0131C18.0258 32.8811 18.0999 32.7022 18.0999 32.5156C18.0999 32.329 18.0258 32.1501 17.8939 32.0182C17.762 31.8862 17.583 31.8121 17.3964 31.8121H14.1634C14.1015 31.8118 14.0421 31.7871 13.9983 31.7433C13.9544 31.6994 13.9297 31.6401 13.9294 31.5781V14.4531C13.9294 14.3241 14.0344 14.2191 14.1634 14.2191H34.2704C35.2026 14.2202 36.0963 14.5909 36.7555 15.2501C37.4146 15.9092 37.7854 16.8029 37.7864 17.7351V20.0221H32.1844C31.3218 20.0232 30.4949 20.3664 29.885 20.9764C29.2752 21.5865 28.9322 22.4135 28.9314 23.2761V24.2131C28.9322 25.0757 29.2752 25.9028 29.885 26.5128C30.4949 27.1228 31.3218 27.466 32.1844 27.4671H37.7864V28.2961C37.7856 29.2285 37.415 30.1224 36.7558 30.7818C36.0966 31.4411 35.2028 31.812 34.2704 31.8131ZM19.9754 9.6221C20.0854 9.4081 20.3474 9.3221 20.5624 9.4321L27.1824 12.8121H18.3484L19.9764 9.6221H19.9754ZM32.1854 26.0591C31.6957 26.0586 31.2261 25.8638 30.8796 25.5176C30.5332 25.1714 30.3382 24.7019 30.3374 24.2121V23.2751C30.3382 22.7855 30.5331 22.3162 30.8793 21.97C31.2255 21.6237 31.6948 21.4289 32.1844 21.4281H37.7864V26.0591H32.1844H32.1854Z" fill="url(#paint0_linear)"/>
<path d="M46.3072 13.902C45.1904 11.1858 43.5491 8.71643 41.4772 6.63504C40.9648 6.11922 40.4282 5.628 39.8692 5.16304C39.725 5.05017 39.5426 4.99792 39.3605 5.01736C39.1784 5.0368 39.0111 5.12641 38.894 5.26718C38.7769 5.40795 38.7193 5.5888 38.7333 5.77136C38.7474 5.95392 38.832 6.12383 38.9692 6.24504C39.4941 6.68088 39.998 7.1414 40.4792 7.62504C42.4247 9.57423 43.9662 11.8883 45.0154 14.4345C46.0646 16.9808 46.6008 19.7091 46.5932 22.463C46.5932 28.087 44.4032 33.375 40.4262 37.351C38.4756 39.3126 36.1553 40.8677 33.5996 41.9265C31.0439 42.9852 28.3035 43.5265 25.5372 43.519C21.1378 43.532 16.8469 42.1544 13.2772 39.583L14.1072 38.503C17.439 40.891 21.4381 42.1694 25.5372 42.157C30.7992 42.157 35.7492 40.1 39.4742 36.365C43.2002 32.63 45.2442 27.675 45.2312 22.413C45.2042 11.608 36.3922 2.79604 25.5872 2.76904H25.5372C22.3952 2.76904 19.3902 3.49004 16.6052 4.91404C13.9192 6.29208 11.5816 8.26274 9.76921 10.677C9.65742 10.8264 9.60953 11.014 9.63606 11.1986C9.6626 11.3832 9.76139 11.5498 9.91071 11.6615C10.06 11.7733 10.2476 11.8212 10.4323 11.7947C10.6169 11.7682 10.7834 11.6694 10.8952 11.52C14.3422 6.91804 19.8142 4.17504 25.5392 4.17504H25.5842C35.6172 4.20004 43.8002 12.383 43.8242 22.416C43.8372 27.302 41.9382 31.903 38.4782 35.371C35.0182 38.84 30.4222 40.75 25.5382 40.75C21.6272 40.762 17.8173 39.5086 14.6772 37.177C14.451 37.0116 14.1691 36.941 13.8916 36.9802C13.614 37.0194 13.3628 37.1654 13.1912 37.387L11.9532 38.997C11.8657 39.1099 11.8018 39.2392 11.7651 39.3771C11.7284 39.5151 11.7197 39.6591 11.7396 39.8005C11.7594 39.9419 11.8074 40.0779 11.8807 40.2004C11.954 40.323 12.051 40.4296 12.1662 40.514C16.0289 43.3918 20.7205 44.9395 25.5372 44.925C31.5372 44.925 37.1782 42.589 41.4212 38.345C43.5133 36.2644 45.1721 33.7895 46.3013 31.0635C47.4306 28.3375 48.008 25.4147 48.0002 22.464C48.0002 19.509 47.4302 16.628 46.3072 13.903V13.902Z" fill="url(#paint1_linear)"/>
<path d="M9.20334 19.064C9.13807 18.9531 9.05143 18.8561 8.94844 18.7789C8.84545 18.7017 8.72815 18.6456 8.60334 18.614C8.47864 18.5817 8.34876 18.5744 8.22122 18.5926C8.09368 18.6108 7.97102 18.6541 7.86034 18.72L7.60534 18.87C7.92861 17.2531 8.4713 15.688 9.21834 14.218C9.2601 14.1356 9.28522 14.0458 9.29227 13.9537C9.29931 13.8616 9.28815 13.769 9.25941 13.6812C9.23067 13.5934 9.18492 13.5121 9.12477 13.442C9.06462 13.3719 8.99124 13.3143 8.90884 13.2725C8.82644 13.2308 8.73661 13.2057 8.6445 13.1986C8.55239 13.1916 8.45979 13.2027 8.37199 13.2315C8.28419 13.2602 8.20292 13.306 8.1328 13.3661C8.06268 13.4263 8.0051 13.4996 7.96334 13.582C6.91844 15.6388 6.2467 17.8646 5.97934 20.156C5.96395 20.2863 5.9853 20.4182 6.04097 20.537C6.09664 20.6557 6.18442 20.7565 6.29438 20.828C6.40434 20.8994 6.53209 20.9387 6.66321 20.9414C6.79432 20.944 6.92357 20.91 7.03634 20.843L8.21034 20.147L8.90534 21.319L4.89034 23.699L1.58334 20.699L2.49834 19.689L3.44134 20.546C3.53744 20.633 3.65568 20.6917 3.78303 20.7158C3.91037 20.7398 4.04189 20.7283 4.16308 20.6823C4.28428 20.6364 4.39045 20.558 4.46989 20.4556C4.54934 20.3532 4.59898 20.2308 4.61334 20.102C5.14334 15.325 7.22934 10.993 10.6483 7.57403C12.5906 5.62162 14.8991 4.07183 17.4416 3.01356C19.984 1.95528 22.7104 1.40933 25.4643 1.40703H25.5363C29.3863 1.40703 33.1403 2.44503 36.3963 4.41203C36.4754 4.45977 36.5631 4.49146 36.6544 4.50531C36.7457 4.51916 36.8388 4.51489 36.9285 4.49274C37.0181 4.4706 37.1026 4.43101 37.1769 4.37624C37.2513 4.32147 37.3141 4.25259 37.3618 4.17353C37.4096 4.09448 37.4413 4.00679 37.4551 3.91549C37.469 3.82418 37.4647 3.73104 37.4426 3.64139C37.4204 3.55173 37.3808 3.46732 37.326 3.39296C37.2713 3.31861 37.2024 3.25577 37.1233 3.20803C33.6257 1.10246 29.6189 -0.00686402 25.5363 3.1956e-05H25.4593C22.5053 0.010032 19.6263 0.590032 16.9043 1.72303C14.1922 2.84984 11.7286 4.49992 9.65434 6.57903C6.32734 9.90603 4.18334 14.043 3.40234 18.612L3.12734 18.362C3.03215 18.2752 2.92074 18.208 2.79951 18.1644C2.67828 18.1207 2.54962 18.1014 2.42091 18.1077C2.29221 18.1139 2.16601 18.1455 2.04956 18.2006C1.93311 18.2558 1.8287 18.3334 1.74234 18.429L0.254341 20.069C0.167439 20.1642 0.100323 20.2758 0.0568906 20.3971C0.0134584 20.5185 -0.0054239 20.6473 0.00134069 20.776C0.00719222 20.9046 0.0384883 21.0307 0.0934169 21.1471C0.148346 21.2635 0.225815 21.3678 0.321341 21.454L4.12734 24.906C4.29684 25.0608 4.51165 25.1569 4.74001 25.1802C4.96837 25.2034 5.19815 25.1525 5.39534 25.035L9.98934 22.312C10.2127 22.1793 10.3743 21.9633 10.4386 21.7115C10.5029 21.4597 10.4647 21.1927 10.3323 20.969L9.20334 19.064Z" fill="url(#paint2_linear)"/>
<path d="M32.6709 24.9218C32.9856 24.9218 33.2873 24.7968 33.5099 24.5743C33.7324 24.3518 33.8574 24.05 33.8574 23.7353C33.8574 23.4206 33.7324 23.1189 33.5099 22.8963C33.2873 22.6738 32.9856 22.5488 32.6709 22.5488C32.3562 22.5488 32.0544 22.6738 31.8319 22.8963C31.6094 23.1189 31.4844 23.4206 31.4844 23.7353C31.4844 24.05 31.6094 24.3518 31.8319 24.5743C32.0544 24.7968 32.3562 24.9218 32.6709 24.9218Z" fill="url(#paint3_linear)"/>
</g>
<defs>
<linearGradient id="paint0_linear" x1="47.9984" y1="22.4621" x2="-0.00156262" y2="22.4621" gradientUnits="userSpaceOnUse">
<stop stop-color="#A31FED"/>
<stop offset="1" stop-color="#03EE65"/>
</linearGradient>
<linearGradient id="paint1_linear" x1="48.0002" y1="22.462" x2="0.000211241" y2="22.462" gradientUnits="userSpaceOnUse">
<stop stop-color="#A31FED"/>
<stop offset="1" stop-color="#03EE65"/>
</linearGradient>
<linearGradient id="paint2_linear" x1="48.0003" y1="22.462" x2="0.000343323" y2="22.462" gradientUnits="userSpaceOnUse">
<stop stop-color="#A31FED"/>
<stop offset="1" stop-color="#03EE65"/>
</linearGradient>
<linearGradient id="paint3_linear" x1="47.9999" y1="22.4618" x2="-8.90303e-05" y2="22.4618" gradientUnits="userSpaceOnUse">
<stop stop-color="#A31FED"/>
<stop offset="1" stop-color="#03EE65"/>
</linearGradient>
<clipPath id="clip0">
<rect width="48" height="45" fill="white"/>
</clipPath>
</defs>
</svg>
