<svg width="48" height="43" viewBox="0 0 48 43" fill="none" xmlns="http://www.w3.org/2000/svg">
<path d="M44.7402 17.672C44.645 17.672 44.5508 17.6532 44.4629 17.6168C44.375 17.5803 44.2951 17.5269 44.2279 17.4596C44.1606 17.3923 44.1073 17.3123 44.071 17.2244C44.0347 17.1364 44.016 17.0422 44.0162 16.947V8.015C44.014 6.27424 43.3216 4.60538 42.0907 3.37448C40.8598 2.14357 39.1909 1.45112 37.4502 1.449H10.5502C8.80922 1.45085 7.14011 2.14319 5.90899 3.37412C4.67786 4.60506 3.98527 6.27407 3.98316 8.015V16.573C3.98316 16.765 3.90688 16.9492 3.7711 17.0849C3.63533 17.2207 3.45117 17.297 3.25916 17.297C3.06714 17.297 2.88299 17.2207 2.74721 17.0849C2.61143 16.9492 2.53516 16.765 2.53516 16.573V8.015C2.53516 3.595 6.12916 0 10.5492 0H37.4492C41.8692 0 45.4642 3.595 45.4642 8.015V16.947C45.4642 17.347 45.1392 17.672 44.7392 17.672H44.7402Z" fill="url(#paint0_linear)"/>
<path d="M37.4492 42.93H10.5492C6.13016 42.93 2.53516 39.334 2.53516 34.915V25.285C2.53516 25.093 2.61143 24.9089 2.74721 24.7731C2.88299 24.6373 3.06714 24.561 3.25916 24.561C3.45117 24.561 3.63533 24.6373 3.7711 24.7731C3.90688 24.9089 3.98316 25.093 3.98316 25.285V34.915C3.98527 36.656 4.67786 38.325 5.90899 39.5559C7.14011 40.7868 8.80922 41.4792 10.5502 41.481H37.4502C39.1909 41.4789 40.8598 40.7865 42.0907 39.5556C43.3216 38.3247 44.014 36.6558 44.0162 34.915V26.357C44.0162 26.1649 44.0925 25.9806 44.2284 25.8447C44.3642 25.7089 44.5485 25.6325 44.7407 25.6325C44.9328 25.6325 45.1171 25.7089 45.253 25.8447C45.3888 25.9806 45.4652 26.1649 45.4652 26.357V34.915C45.4652 39.335 41.8692 42.93 37.4502 42.93H37.4492Z" fill="url(#paint1_linear)"/>
<path d="M3.52486 22.6118C3.45416 22.5412 3.3583 22.5015 3.25836 22.5015C3.15841 22.5015 3.06255 22.5412 2.99186 22.6118L0.108857 25.4938C0.0567048 25.5466 0.0212821 25.6136 0.00702573 25.6864C-0.00723067 25.7592 0.000313023 25.8346 0.028712 25.9031C0.0571109 25.9717 0.105102 26.0303 0.166676 26.0717C0.228249 26.1131 0.300666 26.1354 0.374857 26.1358H6.13886C6.21305 26.1354 6.28547 26.1131 6.34704 26.0717C6.40861 26.0303 6.4566 25.9717 6.485 25.9031C6.5134 25.8346 6.52094 25.7592 6.50669 25.6864C6.49243 25.6136 6.45701 25.5466 6.40486 25.4938L3.52386 22.6118H3.52486Z" fill="url(#paint2_linear)"/>
<path d="M47.6227 16.668H41.8587C41.784 16.6675 41.7109 16.6893 41.6487 16.7306C41.5864 16.7719 41.5379 16.8308 41.5092 16.8998C41.4806 16.9688 41.4731 17.0447 41.4878 17.1179C41.5025 17.1912 41.5387 17.2584 41.5917 17.311L44.4737 20.193C44.5444 20.2636 44.6403 20.3033 44.7402 20.3033C44.8402 20.3033 44.936 20.2636 45.0067 20.193L47.8887 17.311C47.9413 17.2582 47.977 17.191 47.9914 17.118C48.0059 17.0449 47.9983 16.9692 47.9698 16.9004C47.9412 16.8316 47.8929 16.7728 47.831 16.7315C47.769 16.6901 47.6962 16.668 47.6217 16.668H47.6227Z" fill="url(#paint3_linear)"/>
<path d="M19.3193 23.6421L19.3123 25.2851C18.8123 25.0871 18.4433 24.8791 18.4453 24.4001C18.4473 23.9861 18.7753 23.7261 19.3193 23.6421Z" fill="url(#paint4_linear)"/>
<path d="M19.8633 28.8901L19.8713 26.9961C20.3383 27.2041 20.6853 27.4671 20.6833 28.0001C20.6813 28.5121 20.3433 28.7931 19.8633 28.8901Z" fill="url(#paint5_linear)"/>
<path fill-rule="evenodd" clip-rule="evenodd" d="M13.043 26.2599C13.0448 24.5409 13.7286 22.8928 14.9442 21.6774C16.1598 20.462 17.808 19.7784 19.527 19.7769C21.2458 19.7787 22.8937 20.4623 24.1091 21.6777C25.3245 22.8931 26.0081 24.541 26.01 26.2599C26.0081 27.9787 25.3245 29.6266 24.1091 30.842C22.8937 32.0574 21.2458 32.741 19.527 32.7429C17.8081 32.741 16.1602 32.0574 14.9448 30.842C13.7294 29.6266 13.0458 27.9787 13.044 26.2599H13.043ZM16.901 28.8339C16.899 29.4429 17.886 30.1539 19.203 30.1919L19.202 30.4969C19.202 30.6389 19.364 30.7699 19.571 30.7709C19.756 30.7709 19.941 30.6409 19.941 30.5009L19.943 30.1629C21.163 29.9719 22.003 29.2029 22.009 27.8639C22.015 26.3839 20.929 25.8899 19.962 25.5269L19.97 23.6119C20.399 23.6459 20.661 23.7799 20.867 23.8859C21.011 23.9599 21.127 24.0189 21.252 24.0199C21.655 24.0209 21.832 23.5209 21.832 23.2709C21.835 22.6399 20.682 22.4289 19.975 22.4039L19.976 22.1209C19.976 21.9789 19.792 21.8479 19.607 21.8469C19.4 21.8469 19.237 21.9769 19.236 22.1169L19.235 22.4219C18.146 22.5589 17.121 23.1539 17.115 24.5359C17.109 25.9289 18.228 26.3579 19.217 26.7319L19.208 28.8969C18.648 28.8309 18.306 28.5619 18.035 28.3489C17.842 28.1979 17.685 28.0749 17.514 28.0739C17.177 28.0739 16.903 28.5289 16.901 28.8339Z" fill="url(#paint6_linear)"/>
<path d="M37.3587 17.6472C37.2652 17.6292 37.1692 17.6298 37.076 17.649C36.9828 17.6681 36.8943 17.7055 36.8155 17.7589C36.7367 17.8123 36.6693 17.8807 36.617 17.9602C36.5647 18.0397 36.5286 18.1287 36.5107 18.2222C36.1305 20.1706 35.0577 21.9155 33.4907 23.1342C33.5799 22.6255 33.6281 22.1105 33.6347 21.5942V21.5042C33.6567 16.1912 29.3517 11.8502 24.0387 11.8292H23.9987C23.2087 11.8292 22.4317 11.9242 21.6797 12.1102C23.1847 9.88718 25.7347 8.48318 28.4717 8.48318H28.5047C30.3998 8.49381 32.2328 9.16022 33.6923 10.3692C35.1517 11.5782 36.1476 13.2551 36.5107 15.1152C36.5244 15.2125 36.5578 15.306 36.6087 15.3901C36.6597 15.4741 36.7272 15.5469 36.8072 15.604C36.8872 15.6611 36.9779 15.7014 37.074 15.7224C37.17 15.7433 37.2693 15.7446 37.3658 15.726C37.4623 15.7074 37.554 15.6693 37.6354 15.6142C37.7167 15.5591 37.786 15.4879 37.839 15.4052C37.8921 15.3224 37.9277 15.2298 37.9438 15.1328C37.9599 15.0358 37.9561 14.9366 37.9327 14.8412C37.0627 10.3362 33.1007 7.05318 28.5107 7.03418H28.4707C26.5067 7.03418 24.6167 7.62418 23.0027 8.74118C21.5036 9.77536 20.328 11.2128 19.6117 12.8872C19.238 13.0794 18.8772 13.2959 18.5317 13.5352C17.0336 14.5684 15.8583 16.0043 15.1417 17.6772C14.2576 18.132 13.4488 18.7203 12.7437 19.4212C11.8421 20.3096 11.1256 21.3681 10.6359 22.5353C10.1462 23.7026 9.8929 24.9554 9.89069 26.2212C9.88243 28.4662 10.658 30.6438 12.0836 32.3781C13.5093 34.1124 15.4955 35.2948 17.6997 35.7212C17.7931 35.7392 17.8891 35.7386 17.9822 35.7195C18.0754 35.7004 18.1638 35.6631 18.2426 35.6098C18.3213 35.5565 18.3888 35.4882 18.4411 35.4088C18.4935 35.3295 18.5297 35.2405 18.5477 35.1472C18.5657 35.0538 18.5651 34.9578 18.546 34.8647C18.5269 34.7715 18.4896 34.683 18.4363 34.6043C18.383 34.5256 18.3147 34.4581 18.2353 34.4057C18.156 34.3534 18.0671 34.3172 17.9737 34.2992C16.1009 33.9366 14.4133 32.9317 13.2022 31.4579C11.9911 29.9841 11.3324 28.1338 11.3397 26.2262C11.3418 25.151 11.5571 24.0869 11.9732 23.0954C12.3893 22.104 12.9979 21.2049 13.7637 20.4502C14.4046 19.8125 15.1462 19.2847 15.9587 18.8882C15.9989 18.8733 16.0377 18.8549 16.0747 18.8332C17.1658 18.3241 18.3567 18.0645 19.5607 18.0732C20.6359 18.0753 21.7 18.2906 22.6915 18.7066C23.6829 19.1227 24.582 19.7313 25.3367 20.4972C26.0966 21.2581 26.6981 22.1621 27.1062 23.157C27.5144 24.1519 27.7212 25.2178 27.7147 26.2932C27.7109 27.3103 27.5166 28.3177 27.1417 29.2632C26.6353 30.5443 25.8145 31.6773 24.7548 32.5576C23.6952 33.438 22.431 34.0372 21.0787 34.3002C20.8901 34.3365 20.7237 34.4463 20.6161 34.6053C20.5084 34.7643 20.4684 34.9596 20.5047 35.1482C20.541 35.3367 20.6508 35.5032 20.8098 35.6108C20.9688 35.7185 21.1641 35.7585 21.3527 35.7222C22.8991 35.4214 24.3485 34.7467 25.5742 33.7569C26.7999 32.7672 27.7648 31.4925 28.3847 30.0442C30.3824 29.0125 31.9601 27.3195 32.8487 25.2542C34.1521 24.5857 35.2868 23.6301 36.1675 22.4595C37.0481 21.2889 37.6516 19.9338 37.9327 18.4962C37.9507 18.4028 37.9501 18.3068 37.931 18.2137C37.9119 18.1205 37.8746 18.032 37.8213 17.9533C37.768 17.8745 37.6997 17.8071 37.6204 17.7547C37.541 17.7024 37.4521 17.6662 37.3587 17.6482V17.6472ZM29.0177 27.9272C29.1107 27.3972 29.1607 26.8522 29.1637 26.2992C29.1715 25.0335 28.9283 23.7789 28.448 22.6079C27.9677 21.4369 27.26 20.3728 26.3657 19.4772C25.4772 18.5755 24.4188 17.8591 23.2515 17.3694C22.0843 16.8797 20.8315 16.6264 19.5657 16.6242H19.5257C18.7357 16.6242 17.9587 16.7192 17.2087 16.9042C17.9176 15.8593 18.8563 14.9904 19.9528 14.3642C21.0492 13.7379 22.2745 13.3709 23.5347 13.2912C23.7005 13.2817 23.8666 13.2773 24.0327 13.2782C28.4957 13.2962 32.1207 16.8992 32.1857 21.3432C32.1823 21.3831 32.1823 21.4232 32.1857 21.4632L32.1867 21.4982V21.5762C32.1648 22.804 31.8689 24.0114 31.3207 25.1102C30.7724 26.209 29.9856 27.1714 29.0177 27.9272Z" fill="url(#paint7_linear)"/>
<defs>
<linearGradient id="paint0_linear" x1="47.9992" y1="21.465" x2="-0.000843104" y2="21.465" gradientUnits="userSpaceOnUse">
<stop stop-color="#A31FED"/>
<stop offset="1" stop-color="#03EE65"/>
</linearGradient>
<linearGradient id="paint1_linear" x1="47.9992" y1="21.465" x2="-0.000842992" y2="21.465" gradientUnits="userSpaceOnUse">
<stop stop-color="#A31FED"/>
<stop offset="1" stop-color="#03EE65"/>
</linearGradient>
<linearGradient id="paint2_linear" x1="47.9989" y1="21.4648" x2="-0.00114441" y2="21.4648" gradientUnits="userSpaceOnUse">
<stop stop-color="#A31FED"/>
<stop offset="1" stop-color="#03EE65"/>
</linearGradient>
<linearGradient id="paint3_linear" x1="47.9997" y1="21.465" x2="-0.000268004" y2="21.465" gradientUnits="userSpaceOnUse">
<stop stop-color="#A31FED"/>
<stop offset="1" stop-color="#03EE65"/>
</linearGradient>
<linearGradient id="paint4_linear" x1="48.0013" y1="21.4651" x2="0.00130984" y2="21.4651" gradientUnits="userSpaceOnUse">
<stop stop-color="#A31FED"/>
<stop offset="1" stop-color="#03EE65"/>
</linearGradient>
<linearGradient id="paint5_linear" x1="48.0013" y1="21.4651" x2="0.00128968" y2="21.4651" gradientUnits="userSpaceOnUse">
<stop stop-color="#A31FED"/>
<stop offset="1" stop-color="#03EE65"/>
</linearGradient>
<linearGradient id="paint6_linear" x1="47.999" y1="21.4649" x2="-0.00102997" y2="21.4649" gradientUnits="userSpaceOnUse">
<stop stop-color="#A31FED"/>
<stop offset="1" stop-color="#03EE65"/>
</linearGradient>
<linearGradient id="paint7_linear" x1="47.9987" y1="21.4652" x2="-0.00130968" y2="21.4652" gradientUnits="userSpaceOnUse">
<stop stop-color="#A31FED"/>
<stop offset="1" stop-color="#03EE65"/>
</linearGradient>
</defs>
</svg>
