<svg width="48" height="43" viewBox="0 0 48 43" fill="none" xmlns="http://www.w3.org/2000/svg">
<g clip-path="url(#clip0)">
<path d="M36.6942 18.0678L36.6912 18.0408C36.685 17.997 36.6759 17.9536 36.6642 17.9108V17.9088C36.6529 17.8681 36.6392 17.828 36.6232 17.7888L36.6082 17.7558C36.5955 17.7272 36.5814 17.6992 36.5662 17.6718L36.5462 17.6358L36.5362 17.6158C36.5199 17.5908 36.5026 17.5664 36.4842 17.5428L36.4742 17.5298C36.4473 17.4951 36.4182 17.462 36.3872 17.4308L36.3692 17.4138C36.3428 17.3885 36.3151 17.3644 36.2862 17.3418L36.2642 17.3248C36.226 17.2959 36.1859 17.2695 36.1442 17.2458L20.1442 8.15184L29.3562 2.35184L44.8002 11.1288L38.2962 15.2248C38.1737 15.2999 38.0673 15.3986 37.9831 15.5151C37.899 15.6316 37.8388 15.7637 37.8061 15.9036C37.7734 16.0436 37.7688 16.1886 37.7926 16.3304C37.8163 16.4721 37.868 16.6077 37.9445 16.7294C38.0211 16.851 38.1211 16.9562 38.2386 17.0389C38.3561 17.1217 38.4889 17.1802 38.6292 17.2112C38.7696 17.2423 38.9147 17.2451 39.0561 17.2196C39.1976 17.1942 39.3325 17.1409 39.4532 17.0628L47.4922 11.9998C47.6511 11.8998 47.7812 11.7603 47.8701 11.595C47.9589 11.4296 48.0034 11.2441 47.9992 11.0564C47.995 10.8688 47.9422 10.6854 47.846 10.5243C47.7497 10.3631 47.6134 10.2296 47.4502 10.1368L29.8642 0.141836C29.6935 0.0447945 29.4996 -0.00412942 29.3033 0.000272946C29.1069 0.00467531 28.9155 0.0622392 28.7492 0.166836L17.4592 7.27584L17.4532 7.27984L11.8122 10.8318L11.8042 10.8368L0.507233 17.9508C0.348408 18.0509 0.218222 18.1904 0.129373 18.3557C0.040524 18.521 -0.00395458 18.7066 0.000275929 18.8942C0.00450644 19.0819 0.0573016 19.2652 0.153512 19.4264C0.249722 19.5876 0.386062 19.7211 0.549233 19.8138L18.1342 29.8098C18.305 29.9073 18.4991 29.9564 18.6957 29.952C18.8923 29.9476 19.084 29.8898 19.2502 29.7848L27.2892 24.7228C27.4099 24.6468 27.5144 24.5477 27.5968 24.4313C27.6792 24.3149 27.7379 24.1834 27.7695 24.0443C27.8011 23.9051 27.8049 23.7612 27.7809 23.6206C27.7568 23.48 27.7053 23.3455 27.6292 23.2248C27.5532 23.1042 27.4541 22.9996 27.3377 22.9172C27.2213 22.8348 27.0898 22.7762 26.9506 22.7446C26.8115 22.713 26.6676 22.7092 26.527 22.7332C26.3864 22.7573 26.2519 22.8088 26.1312 22.8848L18.6422 27.5998L3.19923 18.8218L12.4112 13.0218L28.8812 22.3838V34.7838C28.8812 34.9781 28.9332 35.1687 29.0319 35.336C29.1307 35.5033 29.2724 35.641 29.4424 35.7348C29.6125 35.8287 29.8046 35.8752 29.9987 35.8696C30.1928 35.864 30.3819 35.8064 30.5462 35.7028L36.1952 32.1458C36.5112 31.9458 36.7022 31.5998 36.7022 31.2258V18.1958L36.7012 18.1758C36.7009 18.1397 36.6986 18.1037 36.6942 18.0678ZM31.0542 32.8168V21.7518C31.0542 21.3618 30.8442 21.0018 30.5042 20.8078L14.4962 11.7078L18.0602 9.46484L33.5032 18.2428L32.1502 19.0938C32.0295 19.1699 31.925 19.2689 31.8426 19.3854C31.7602 19.5018 31.7016 19.6333 31.67 19.7724C31.6384 19.9115 31.6346 20.0555 31.6586 20.1961C31.6827 20.3367 31.7342 20.4712 31.8102 20.5918C31.8863 20.7125 31.9853 20.817 32.1018 20.8994C32.2182 20.9818 32.3497 21.0405 32.4888 21.0721C32.6279 21.1037 32.7719 21.1075 32.9125 21.0835C33.0531 21.0594 33.1875 21.0079 33.3082 20.9318L34.5302 20.1618V30.6268L31.0542 32.8168Z" fill="url(#paint0_linear)"/>
<path d="M46.3357 14.5071L38.2957 19.5691C38.1718 19.6436 38.0641 19.742 37.9788 19.8587C37.8935 19.9754 37.8324 20.1079 37.799 20.2485C37.7655 20.3891 37.7605 20.5349 37.7842 20.6775C37.8079 20.8201 37.8598 20.9565 37.9368 21.0788C38.0139 21.201 38.1146 21.3067 38.233 21.3895C38.3514 21.4723 38.4852 21.5307 38.6265 21.5612C38.7677 21.5917 38.9137 21.5937 39.0557 21.567C39.1978 21.5404 39.3331 21.4857 39.4537 21.4061L47.4937 16.3441C47.6144 16.268 47.7189 16.169 47.8013 16.0525C47.8837 15.9361 47.9424 15.8046 47.9739 15.6655C48.0055 15.5264 48.0094 15.3824 47.9853 15.2418C47.9612 15.1012 47.9097 14.9667 47.8337 14.8461C47.7577 14.7254 47.6586 14.6208 47.5422 14.5384C47.4257 14.456 47.2942 14.3974 47.1551 14.3658C47.016 14.3342 46.872 14.3304 46.7314 14.3544C46.5909 14.3785 46.4564 14.43 46.3357 14.5061V14.5071Z" fill="url(#paint1_linear)"/>
<path d="M26.1317 27.2291L18.6417 31.9441L1.62166 22.2701C1.49747 22.1948 1.35944 22.1452 1.21574 22.1242C1.07203 22.1032 0.925579 22.1112 0.785036 22.1478C0.644492 22.1844 0.512715 22.2488 0.397501 22.3372C0.282288 22.4257 0.185978 22.5363 0.11427 22.6626C0.0425627 22.7889 -0.00308611 22.9283 -0.0199752 23.0725C-0.0368642 23.2167 -0.0246505 23.3629 0.0159435 23.5023C0.0565374 23.6418 0.124687 23.7717 0.21636 23.8843C0.308033 23.9969 0.421366 24.0901 0.549656 24.1581L18.1347 34.1541C18.3053 34.2514 18.4992 34.3004 18.6956 34.296C18.892 34.2916 19.0835 34.2339 19.2497 34.1291L27.2887 29.0671C27.4112 28.992 27.5176 28.8934 27.6018 28.7768C27.6859 28.6603 27.7461 28.5283 27.7788 28.3883C27.8115 28.2484 27.8161 28.1033 27.7923 27.9616C27.7686 27.8198 27.7169 27.6842 27.6403 27.5626C27.5638 27.4409 27.4638 27.3357 27.3463 27.253C27.2288 27.1703 27.096 27.1117 26.9557 27.0807C26.8153 27.0497 26.6702 27.0468 26.5288 27.0723C26.3873 27.0978 26.2523 27.1511 26.1317 27.2291Z" fill="url(#paint2_linear)"/>
<path d="M46.3357 18.8502L38.2957 23.9132C38.1718 23.9877 38.0641 24.0862 37.9788 24.2029C37.8935 24.3195 37.8324 24.4521 37.799 24.5927C37.7655 24.7333 37.7605 24.8791 37.7842 25.0217C37.8079 25.1643 37.8598 25.3007 37.9368 25.4229C38.0139 25.5452 38.1146 25.6508 38.233 25.7337C38.3514 25.8165 38.4852 25.8749 38.6265 25.9054C38.7677 25.9359 38.9137 25.9378 39.0557 25.9112C39.1978 25.8846 39.3331 25.8298 39.4537 25.7502L47.4937 20.6882C47.7308 20.5317 47.8972 20.2886 47.9571 20.0109C48.017 19.7332 47.9657 19.443 47.8142 19.2027C47.6627 18.9623 47.4231 18.7909 47.1467 18.7252C46.8703 18.6595 46.5791 18.7048 46.3357 18.8512V18.8502Z" fill="url(#paint3_linear)"/>
<path d="M26.1317 31.5729L18.6417 36.2879L1.62166 26.6139C1.49747 26.5386 1.35944 26.489 1.21574 26.468C1.07203 26.447 0.925579 26.455 0.785036 26.4916C0.644492 26.5282 0.512715 26.5926 0.397501 26.681C0.282288 26.7694 0.185978 26.88 0.11427 27.0063C0.0425627 27.1326 -0.00308611 27.272 -0.0199752 27.4162C-0.0368642 27.5605 -0.0246505 27.7067 0.0159435 27.8461C0.0565374 27.9855 0.124687 28.1154 0.21636 28.2281C0.308033 28.3407 0.421366 28.4338 0.549656 28.5019L18.1347 38.4979C18.3053 38.5951 18.4992 38.6442 18.6956 38.6398C18.892 38.6354 19.0835 38.5777 19.2497 38.4729L27.2887 33.4109C27.5286 33.2557 27.6978 33.0123 27.7594 32.7332C27.8211 32.4542 27.7703 32.1622 27.6181 31.9203C27.4659 31.6785 27.2245 31.5064 26.9462 31.4414C26.668 31.3763 26.3753 31.4236 26.1317 31.5729Z" fill="url(#paint4_linear)"/>
<path d="M46.3362 23.194L38.2962 28.256C38.1756 28.3321 38.071 28.4311 37.9886 28.5476C37.9062 28.664 37.8476 28.7955 37.816 28.9346C37.7844 29.0737 37.7806 29.2177 37.8046 29.3583C37.8287 29.4989 37.8802 29.6334 37.9562 29.754C38.0323 29.8747 38.1313 29.9793 38.2478 30.0617C38.3642 30.1441 38.4957 30.2027 38.6348 30.2343C38.7739 30.2659 38.9179 30.2697 39.0585 30.2457C39.1991 30.2216 39.3336 30.1701 39.4542 30.094L47.4942 25.032C47.6149 24.956 47.7195 24.8569 47.8019 24.7405C47.8843 24.6241 47.9429 24.4926 47.9745 24.3535C48.0061 24.2144 48.0099 24.0704 47.9859 23.9298C47.9618 23.7892 47.9103 23.6547 47.8342 23.534C47.7582 23.4134 47.6592 23.3088 47.5427 23.2264C47.4263 23.144 47.2948 23.0854 47.1557 23.0538C47.0166 23.0222 46.8726 23.0184 46.732 23.0424C46.5914 23.0665 46.4569 23.118 46.3362 23.194Z" fill="url(#paint5_linear)"/>
<path d="M26.1317 35.9161L18.6417 40.6321L1.62166 30.9571C1.49747 30.8818 1.35944 30.8322 1.21574 30.8112C1.07203 30.7902 0.925579 30.7982 0.785036 30.8348C0.644492 30.8714 0.512715 30.9358 0.397501 31.0243C0.282288 31.1127 0.185978 31.2233 0.11427 31.3496C0.0425627 31.4759 -0.00308611 31.6153 -0.0199752 31.7595C-0.0368642 31.9038 -0.0246505 32.0499 0.0159435 32.1894C0.0565374 32.3288 0.124687 32.4587 0.21636 32.5713C0.308033 32.684 0.421366 32.7771 0.549656 32.8451L18.1347 42.8411C18.3053 42.9384 18.4992 42.9874 18.6956 42.983C18.892 42.9786 19.0835 42.9209 19.2497 42.8161L27.2887 37.7541C27.4112 37.679 27.5176 37.5804 27.6018 37.4639C27.6859 37.3473 27.7461 37.2153 27.7788 37.0753C27.8115 36.9354 27.8161 36.7903 27.7923 36.6486C27.7686 36.5068 27.7169 36.3712 27.6403 36.2496C27.5638 36.128 27.4638 36.0227 27.3463 35.94C27.2288 35.8573 27.096 35.7987 26.9557 35.7677C26.8153 35.7367 26.6702 35.7339 26.5288 35.7593C26.3873 35.7848 26.2523 35.8381 26.1317 35.9161Z" fill="url(#paint6_linear)"/>
</g>
<defs>
<linearGradient id="paint0_linear" x1="47.9992" y1="21.4908" x2="-0.000766754" y2="21.4908" gradientUnits="userSpaceOnUse">
<stop stop-color="#A31FED"/>
<stop offset="1" stop-color="#03EE65"/>
</linearGradient>
<linearGradient id="paint1_linear" x1="48.0007" y1="21.4911" x2="0.000684885" y2="21.4911" gradientUnits="userSpaceOnUse">
<stop stop-color="#A31FED"/>
<stop offset="1" stop-color="#03EE65"/>
</linearGradient>
<linearGradient id="paint2_linear" x1="47.9997" y1="21.4911" x2="-0.000341417" y2="21.4911" gradientUnits="userSpaceOnUse">
<stop stop-color="#A31FED"/>
<stop offset="1" stop-color="#03EE65"/>
</linearGradient>
<linearGradient id="paint3_linear" x1="48.0007" y1="21.4912" x2="0.000683118" y2="21.4912" gradientUnits="userSpaceOnUse">
<stop stop-color="#A31FED"/>
<stop offset="1" stop-color="#03EE65"/>
</linearGradient>
<linearGradient id="paint4_linear" x1="47.9997" y1="21.4909" x2="-0.000341417" y2="21.4909" gradientUnits="userSpaceOnUse">
<stop stop-color="#A31FED"/>
<stop offset="1" stop-color="#03EE65"/>
</linearGradient>
<linearGradient id="paint5_linear" x1="48.0012" y1="21.491" x2="0.00125461" y2="21.491" gradientUnits="userSpaceOnUse">
<stop stop-color="#A31FED"/>
<stop offset="1" stop-color="#03EE65"/>
</linearGradient>
<linearGradient id="paint6_linear" x1="47.9997" y1="21.4911" x2="-0.000341417" y2="21.4911" gradientUnits="userSpaceOnUse">
<stop stop-color="#A31FED"/>
<stop offset="1" stop-color="#03EE65"/>
</linearGradient>
<clipPath id="clip0">
<rect width="48" height="43" fill="white"/>
</clipPath>
</defs>
</svg>
