<svg width="48" height="47" viewBox="0 0 48 47" fill="none" xmlns="http://www.w3.org/2000/svg">
<path d="M27.1414 8.20999C26.0149 7.07725 24.675 6.17918 23.1992 5.56776C21.7233 4.95634 20.1409 4.64372 18.5434 4.64799C16.9461 4.64372 15.3639 4.95625 13.8882 5.56749C12.4126 6.17873 11.0728 7.07655 9.94638 8.20899C5.20537 12.95 5.20537 20.664 9.94638 25.405C11.0728 26.5374 12.4126 27.4353 13.8882 28.0465C15.3639 28.6577 16.9461 28.9703 18.5434 28.966C20.1408 28.9704 21.7232 28.6579 23.1991 28.0467C24.6749 27.4354 26.0149 26.5376 27.1414 25.405C28.2739 24.2785 29.1718 22.9385 29.7831 21.4627C30.3943 19.9868 30.7068 18.4044 30.7024 16.807C30.7069 15.2097 30.3946 13.6273 29.7835 12.1514C29.1725 10.6756 28.2748 9.33559 27.1424 8.20899L27.1414 8.20999ZM10.9254 9.18899C11.9234 8.1854 13.1107 7.38971 14.4183 6.84799C15.7259 6.30626 17.128 6.02925 18.5434 6.03299C19.959 6.0289 21.3613 6.30574 22.6691 6.84749C23.977 7.38923 25.1643 8.1851 26.1624 9.18899C27.75 10.7682 28.8018 12.806 29.1694 15.015L25.3954 18.706C24.8536 18.4015 24.2169 18.3127 23.6126 18.4573C23.0082 18.6019 22.4806 18.9693 22.1354 19.486L16.5884 17.746L16.5894 17.698C16.5888 17.0436 16.3287 16.4162 15.8659 15.9534C15.4032 15.4907 14.7758 15.2305 14.1214 15.23C13.4672 15.2308 12.84 15.4911 12.3775 15.9538C11.915 16.4165 11.6549 17.0438 11.6544 17.698C11.6544 18.143 11.7734 18.56 11.9794 18.921L9.06938 21.938C6.86038 17.855 7.47937 12.635 10.9254 9.18799V9.18899ZM25.2704 20.856C25.2584 21.1352 25.139 21.3989 24.9372 21.5922C24.7355 21.7855 24.4668 21.8934 24.1874 21.8934C23.9079 21.8934 23.6393 21.7855 23.4375 21.5922C23.2357 21.3989 23.1164 21.1352 23.1044 20.856C23.1164 20.5768 23.2357 20.3131 23.4375 20.1198C23.6393 19.9265 23.9079 19.8185 24.1874 19.8185C24.4668 19.8185 24.7355 19.9265 24.9372 20.1198C25.139 20.3131 25.2584 20.5768 25.2704 20.856ZM15.2044 17.698C15.2044 18.295 14.7184 18.781 14.1224 18.781C13.8352 18.7807 13.5599 18.6665 13.3569 18.4635C13.1538 18.2605 13.0396 17.9851 13.0394 17.698C13.054 17.4208 13.1744 17.1597 13.3758 16.9686C13.5772 16.7775 13.8442 16.671 14.1219 16.671C14.3995 16.671 14.6665 16.7775 14.868 16.9686C15.0694 17.1597 15.1898 17.4208 15.2044 17.698ZM26.1624 24.426C25.1641 25.4296 23.9767 26.2252 22.6689 26.7667C21.3611 27.3083 19.9589 27.585 18.5434 27.581C15.6664 27.581 12.9604 26.461 10.9254 24.426C10.5272 24.0279 10.1608 23.5992 9.82938 23.144L12.9764 19.883C13.5159 20.1658 14.1409 20.239 14.7312 20.0885C15.3214 19.9381 15.8351 19.5746 16.1734 19.068L21.7204 20.808V20.856C21.7209 21.5102 21.981 22.1375 22.4435 22.6002C22.906 23.0629 23.5332 23.3232 24.1874 23.324C24.6131 23.3232 25.0314 23.2123 25.4016 23.0023C25.7719 22.7922 26.0816 22.4899 26.3006 22.1249C26.5196 21.7598 26.6406 21.3444 26.6518 20.9188C26.663 20.4933 26.564 20.072 26.3644 19.696L29.3184 16.807C29.3184 19.685 28.1974 22.391 26.1624 24.426Z" fill="url(#paint0_linear)"/>
<path d="M12.4141 9.74415L13.3221 10.7891C14.3843 9.87065 15.6698 9.24824 17.0492 8.98456C18.4285 8.72088 19.8529 8.82524 21.1791 9.28715L21.6351 7.97915C20.0785 7.4375 18.4067 7.31545 16.7879 7.6253C15.1692 7.93514 13.6606 8.66595 12.4141 9.74415Z" fill="url(#paint1_linear)"/>
<path d="M23.4114 8.81887L22.6914 9.99987C23.0574 10.2239 23.4094 10.4799 23.7364 10.7599L24.6394 9.70987C24.2549 9.37976 23.8442 9.08145 23.4114 8.81787V8.81887Z" fill="url(#paint2_linear)"/>
<path d="M20.2007 24.6002C18.6515 24.9291 17.0395 24.7899 15.5697 24.2002L15.0547 25.4852C16.7785 26.178 18.6695 26.3417 20.4867 25.9552L20.2007 24.5992V24.6002Z" fill="url(#paint3_linear)"/>
<path d="M35.89 27.932L34.885 28.937L32.391 26.271C35.343 21.955 36.054 16.557 34.522 11.72L36.502 9.784C36.849 9.973 37.247 10.079 37.67 10.079C38.3242 10.0785 38.9515 9.81842 39.4142 9.35591C39.8769 8.8934 40.1372 8.26622 40.138 7.612C40.1383 7.22251 40.0457 6.83856 39.868 6.492L44.116 2.338V4.485H45.501V0H41.016V1.385H43.111L38.918 5.485C38.5399 5.26201 38.1089 5.14459 37.67 5.145C37.016 5.14579 36.3889 5.40596 35.9264 5.86844C35.464 6.33092 35.2038 6.95795 35.203 7.612C35.203 8.047 35.317 8.456 35.515 8.812L34 10.295C33.1605 8.29629 31.9394 6.48042 30.405 4.949C23.866 -1.591 13.227 -1.59 6.688 4.949C0.862 10.774 0.227 19.852 4.78 26.387L3.614 27.596C3.26076 27.4097 2.86735 27.3126 2.468 27.313C1.81378 27.3135 1.18649 27.5736 0.723798 28.0361C0.261102 28.4986 0.000794384 29.1258 0 29.78C0.000529658 30.4344 0.26072 31.0618 0.723445 31.5246C1.18617 31.9873 1.81361 32.2475 2.468 32.248C3.12222 32.2472 3.7494 31.9869 4.21191 31.5242C4.67442 31.0615 4.93447 30.4342 4.935 29.78C4.93533 29.3508 4.82291 28.9291 4.609 28.557L5.628 27.502C7.19984 29.404 9.1732 30.9344 11.4065 31.9836C13.6398 33.0327 16.0776 33.5745 18.545 33.57C21.906 33.5735 25.1903 32.5659 27.971 30.678L30.471 33.351L29.431 34.391L41.541 46.457L48 39.998L35.89 27.932ZM37.67 6.529C38.267 6.529 38.753 7.015 38.753 7.612C38.753 8.209 38.267 8.695 37.67 8.695C37.3908 8.683 37.1271 8.56365 36.9338 8.36187C36.7405 8.16008 36.6325 7.89144 36.6325 7.612C36.6325 7.33256 36.7405 7.06392 36.9338 6.86213C37.1271 6.66035 37.3908 6.541 37.67 6.529ZM2.468 30.863C2.18085 30.8627 1.90554 30.7485 1.7025 30.5455C1.49945 30.3425 1.38526 30.0671 1.385 29.78C1.397 29.5008 1.51635 29.2371 1.71814 29.0438C1.91992 28.8505 2.18856 28.7426 2.468 28.7426C2.74744 28.7426 3.01608 28.8505 3.21786 29.0438C3.41965 29.2371 3.539 29.5008 3.551 29.78C3.551 30.377 3.065 30.863 2.468 30.863ZM7.666 27.686C1.667 21.688 1.667 11.926 7.666 5.928C10.666 2.928 14.606 1.428 18.546 1.428C22.486 1.428 26.426 2.928 29.425 5.928C35.423 11.927 35.423 21.688 29.425 27.686C23.426 33.685 13.665 33.685 7.666 27.686ZM29.09 29.848C29.9919 29.118 30.8163 28.297 31.55 27.398L33.906 29.917L31.451 32.371L29.091 29.848H29.09ZM41.54 44.5L31.391 34.389L35.891 29.889L46.04 40L41.54 44.5Z" fill="url(#paint4_linear)"/>
<path d="M35.8922 31.8979L33.9102 33.8799L34.8902 34.8599L35.8922 33.8569L39.7142 37.6789L40.6932 36.6989L35.8922 31.8989V31.8979Z" fill="url(#paint5_linear)"/>
<path d="M41.8784 37.8838L40.8984 38.8638L41.9254 39.8898L42.9054 38.9098L41.8784 37.8838Z" fill="url(#paint6_linear)"/>
<path d="M8.88791 34.2788H7.50391V35.7878H8.88791V34.2778V34.2788Z" fill="url(#paint7_linear)"/>
<path d="M8.88791 42.7349H7.50391V44.2439H8.88791V42.7349Z" fill="url(#paint8_linear)"/>
<path d="M20.2913 37.189H18.9062V38.697H20.2913V37.19V37.189Z" fill="url(#paint9_linear)"/>
<path d="M40.1389 24.7339H38.7539V26.2429H40.1389V24.7339Z" fill="url(#paint10_linear)"/>
<path d="M41.7092 12.7178H40.3242V14.2268H41.7092V12.7178Z" fill="url(#paint11_linear)"/>
<path d="M46.2991 19.0801H44.9141V20.5901H46.2991V19.0801Z" fill="url(#paint12_linear)"/>
<defs>
<linearGradient id="paint0_linear" x1="47.9984" y1="23.229" x2="-0.00162411" y2="23.229" gradientUnits="userSpaceOnUse">
<stop stop-color="#A31FED"/>
<stop offset="1" stop-color="#03EE65"/>
</linearGradient>
<linearGradient id="paint1_linear" x1="48.0001" y1="23.2291" x2="6.26123e-05" y2="23.2291" gradientUnits="userSpaceOnUse">
<stop stop-color="#A31FED"/>
<stop offset="1" stop-color="#03EE65"/>
</linearGradient>
<linearGradient id="paint2_linear" x1="47.9994" y1="23.2289" x2="-0.00059275" y2="23.2289" gradientUnits="userSpaceOnUse">
<stop stop-color="#A31FED"/>
<stop offset="1" stop-color="#03EE65"/>
</linearGradient>
<linearGradient id="paint3_linear" x1="47.9987" y1="23.2292" x2="-0.00131428" y2="23.2292" gradientUnits="userSpaceOnUse">
<stop stop-color="#A31FED"/>
<stop offset="1" stop-color="#03EE65"/>
</linearGradient>
<linearGradient id="paint4_linear" x1="48" y1="23.229" x2="0" y2="23.229" gradientUnits="userSpaceOnUse">
<stop stop-color="#A31FED"/>
<stop offset="1" stop-color="#03EE65"/>
</linearGradient>
<linearGradient id="paint5_linear" x1="48.0002" y1="23.2289" x2="0.000150443" y2="23.2289" gradientUnits="userSpaceOnUse">
<stop stop-color="#A31FED"/>
<stop offset="1" stop-color="#03EE65"/>
</linearGradient>
<linearGradient id="paint6_linear" x1="47.9984" y1="23.2288" x2="-0.0015604" y2="23.2288" gradientUnits="userSpaceOnUse">
<stop stop-color="#A31FED"/>
<stop offset="1" stop-color="#03EE65"/>
</linearGradient>
<linearGradient id="paint7_linear" x1="48.0009" y1="23.2288" x2="0.000903421" y2="23.2288" gradientUnits="userSpaceOnUse">
<stop stop-color="#A31FED"/>
<stop offset="1" stop-color="#03EE65"/>
</linearGradient>
<linearGradient id="paint8_linear" x1="48.0009" y1="23.2289" x2="0.000903421" y2="23.2289" gradientUnits="userSpaceOnUse">
<stop stop-color="#A31FED"/>
<stop offset="1" stop-color="#03EE65"/>
</linearGradient>
<linearGradient id="paint9_linear" x1="47.9993" y1="23.229" x2="-0.000751482" y2="23.229" gradientUnits="userSpaceOnUse">
<stop stop-color="#A31FED"/>
<stop offset="1" stop-color="#03EE65"/>
</linearGradient>
<linearGradient id="paint10_linear" x1="48.0009" y1="23.2289" x2="0.000847023" y2="23.2289" gradientUnits="userSpaceOnUse">
<stop stop-color="#A31FED"/>
<stop offset="1" stop-color="#03EE65"/>
</linearGradient>
<linearGradient id="paint11_linear" x1="48.0002" y1="23.2288" x2="0.000268327" y2="23.2288" gradientUnits="userSpaceOnUse">
<stop stop-color="#A31FED"/>
<stop offset="1" stop-color="#03EE65"/>
</linearGradient>
<linearGradient id="paint12_linear" x1="48.0011" y1="23.2291" x2="0.000994015" y2="23.2291" gradientUnits="userSpaceOnUse">
<stop stop-color="#A31FED"/>
<stop offset="1" stop-color="#03EE65"/>
</linearGradient>
</defs>
</svg>
