<svg width="535" height="513" viewBox="0 0 535 513" fill="none" xmlns="http://www.w3.org/2000/svg">
<g filter="url(#filter0_d)">
<path d="M47.9852 217.784C54.665 217.97 62.4276 224.43 65.3221 232.158C68.2166 239.887 65.1541 245.955 58.5381 245.772C51.8583 245.586 44.0958 239.126 41.2013 231.398C38.3068 223.669 41.3624 217.54 47.9852 217.784Z" fill="#03EE65"/>
<path d="M390.283 36.4548C396.962 36.6411 404.725 43.1012 407.619 50.8296C410.514 58.558 407.451 64.6259 400.836 64.4436C394.156 64.2573 386.393 57.7972 383.499 50.0688C380.604 42.3405 383.66 36.2113 390.283 36.4548Z" fill="#A31FED"/>
<path d="M282.966 435.6C289.645 435.786 297.408 442.246 300.303 449.974C303.197 457.703 300.135 463.771 293.519 463.588C286.839 463.402 279.076 456.942 276.182 449.214C273.287 441.485 276.343 435.356 282.966 435.6Z" fill="#03EE65"/>
<path d="M491.486 444.14C491.421 444.135 491.421 444.135 491.486 444.14C491.429 444.193 491.429 444.193 491.429 444.193C491.429 444.193 491.429 444.193 491.438 444.251C491.438 444.251 491.438 444.251 491.446 444.309C491.446 444.309 491.646 444.997 491.242 444.361C490.443 445.512 489.261 446.57 487.515 447.426C487.45 447.421 487.459 447.479 487.394 447.475C483.65 449.225 478.587 449.907 473.306 449.54C468.155 449.183 462.86 447.838 458.593 445.588C458.454 445.521 458.315 445.454 458.176 445.387C453.966 443.084 451.57 440.39 450.983 437.706C450.983 437.706 450.983 437.706 450.974 437.648C450.957 437.532 450.94 437.416 450.923 437.3L451.443 440.84C451.46 440.956 451.485 441.131 451.502 441.247L451.443 440.84C451.852 443.626 454.273 446.495 458.696 448.927C463.11 451.302 468.545 452.714 473.891 453.085C475.065 453.167 476.295 453.195 477.451 453.16C481.443 453.093 485.21 452.378 488.1 450.971C491.235 449.465 492.859 447.337 493.113 445.115C493.119 444.713 493.124 444.311 493.056 443.847L492.536 440.306C492.537 441.628 492.211 442.926 491.486 444.14Z" fill="#E1EAE7"/>
<path d="M451.149 441.025L451.209 441.431L451.669 444.565C452.078 447.351 454.5 450.219 458.923 452.652C463.337 455.027 468.771 456.439 474.118 456.81C479.464 457.181 484.591 456.504 488.327 454.695C492.062 452.887 493.683 450.299 493.282 447.572L492.958 445.366L492.762 444.031C492.822 444.438 492.825 444.897 492.82 445.299C492.639 447.584 491.007 449.654 487.807 451.155C484.916 452.563 481.149 453.277 477.158 453.345C476.001 453.379 474.771 453.351 473.598 453.27C468.252 452.898 462.817 451.487 458.403 449.112C453.98 446.679 451.493 443.806 451.149 441.025Z" fill="url(#paint0_linear)"/>
<path d="M459.276 456.385C454.862 454.011 452.432 451.084 452.023 448.298L451.503 444.758C451.912 447.544 454.334 450.412 458.756 452.845C467.52 457.59 480.69 458.505 488.161 454.888C491.896 453.08 493.517 450.492 493.116 447.765L493.636 451.305C494.037 454.033 492.416 456.62 488.68 458.429C481.275 462.05 468.105 461.135 459.276 456.385Z" fill="#E1EAE7"/>
<path d="M459.695 460.123C455.281 457.748 452.851 454.822 452.442 452.036L451.922 448.495C452.331 451.281 454.753 454.149 459.175 456.582C467.939 461.327 481.109 462.242 488.579 458.625C492.315 456.817 493.935 454.23 493.535 451.502L494.055 455.042C494.455 457.77 492.835 460.357 489.099 462.166C481.628 465.783 468.458 464.868 459.695 460.123Z" fill="url(#paint1_linear)"/>
<path d="M460.113 463.86C455.698 461.485 453.268 458.559 452.859 455.773L452.339 452.232C452.748 455.018 455.17 457.887 459.593 460.319C468.356 465.064 481.526 465.98 488.997 462.363C492.733 460.554 494.353 457.967 493.953 455.239L494.472 458.779C494.873 461.507 493.252 464.094 489.517 465.903C482.046 469.52 468.876 468.605 460.113 463.86Z" fill="#E1EAE7"/>
<path d="M470.572 431.959C470.747 432.956 470.684 433.706 469.613 434.216C468.486 434.781 466.996 434.742 465.236 434.627C465.41 435.624 465.347 436.374 464.276 436.884C463.149 437.449 461.66 437.41 459.899 437.296L466.94 441.058C469.286 442.313 472.684 442.939 475.619 443.13C477.706 443.266 479.622 443.158 480.81 442.946C481.978 441.514 481.669 437.899 477.613 435.722L470.572 431.959Z" fill="url(#paint2_linear)"/>
<path d="M475.533 443.142C472.583 442.933 469.178 442.289 466.847 441.029L459.854 437.249C461.624 437.374 463.188 437.427 464.271 436.87C465.297 436.366 465.445 435.627 465.295 434.637C467.064 434.762 468.629 434.815 469.712 434.258C470.803 433.759 470.885 433.015 470.735 432.025L477.728 435.805C481.756 437.992 481.976 441.58 480.763 442.993C479.571 443.255 477.631 443.29 475.533 443.142ZM470.064 427.597C467.31 427.402 464.667 427.503 462.124 427.842C459.778 428.195 457.599 428.79 455.726 429.695C451.857 431.554 450.267 434.323 450.831 437.187C450.831 437.187 450.831 437.187 450.839 437.245C451.434 439.881 453.863 442.646 458.105 444.963C458.245 445.031 458.385 445.098 458.525 445.166C462.89 447.434 468.219 448.791 473.332 449.153C478.641 449.528 483.727 448.851 487.482 447.099C487.547 447.104 487.538 447.046 487.604 447.05C489.355 446.194 490.686 445.136 491.484 443.982C491.484 443.982 491.475 443.924 491.54 443.928C491.54 443.928 491.54 443.928 491.532 443.87C491.532 443.87 491.532 443.87 491.523 443.812C491.523 443.812 491.514 443.754 491.58 443.758C493.938 440.064 491.675 435.408 485.102 431.831C480.908 429.402 475.373 427.973 470.064 427.597Z" fill="white"/>
</g>
<defs>
<filter id="filter0_d" x="0.108398" y="0.447754" width="534.423" height="511.667" filterUnits="userSpaceOnUse" color-interpolation-filters="sRGB">
<feFlood flood-opacity="0" result="BackgroundImageFix"/>
<feColorMatrix in="SourceAlpha" type="matrix" values="0 0 0 0 0 0 0 0 0 0 0 0 0 0 0 0 0 0 127 0"/>
<feOffset dy="4"/>
<feGaussianBlur stdDeviation="20"/>
<feColorMatrix type="matrix" values="0 0 0 0 0 0 0 0 0 0 0 0 0 0 0 0 0 0 0.25 0"/>
<feBlend mode="normal" in2="BackgroundImageFix" result="effect1_dropShadow"/>
<feBlend mode="normal" in="SourceGraphic" in2="effect1_dropShadow" result="shape"/>
</filter>
<linearGradient id="paint0_linear" x1="452.11" y1="448.121" x2="492.452" y2="442.198" gradientUnits="userSpaceOnUse">
<stop stop-color="#A31FED"/>
<stop offset="0.3059" stop-color="#3ACC4E"/>
<stop offset="0.9247" stop-color="#3A9A3F"/>
<stop offset="1" stop-color="#3A943D"/>
</linearGradient>
<linearGradient id="paint1_linear" x1="453.025" y1="455.728" x2="493.368" y2="449.804" gradientUnits="userSpaceOnUse">
<stop stop-color="#A31FED"/>
<stop offset="0.9247" stop-color="#3A9A3F"/>
<stop offset="0.9999" stop-color="#3ACC4E"/>
<stop offset="1" stop-color="#3A943D"/>
</linearGradient>
<linearGradient id="paint2_linear" x1="459.819" y1="436.697" x2="480.113" y2="433.151" gradientUnits="userSpaceOnUse">
<stop stop-color="#A31FED"/>
<stop offset="1" stop-color="#03EE65"/>
</linearGradient>
</defs>
</svg>
