<svg width="48" height="48" viewBox="0 0 48 48" fill="none" xmlns="http://www.w3.org/2000/svg">
<g clip-path="url(#clip0)">
<path d="M47.023 0H0.977C0.717883 0 0.46938 0.102934 0.286157 0.286157C0.102934 0.46938 0 0.717883 0 0.977L0 47.023C0 47.563 0.437 48 0.977 48H40.117C40.3761 48 40.6246 47.8971 40.8078 47.7138C40.9911 47.5306 41.094 47.2821 41.094 47.023C41.094 46.7639 40.9911 46.5154 40.8078 46.3322C40.6246 46.1489 40.3761 46.046 40.117 46.046H1.954V1.954H46.046V47.024C46.046 47.2831 46.1489 47.5316 46.3322 47.7148C46.5154 47.8981 46.7639 48.001 47.023 48.001C47.2821 48.001 47.5306 47.8981 47.7138 47.7148C47.8971 47.5316 48 47.2831 48 47.024V0.976C47.9997 0.717057 47.8967 0.46881 47.7135 0.285803C47.5303 0.102796 47.2819 -1.35639e-07 47.023 0V0Z" fill="url(#paint0_linear)"/>
<path d="M10.7138 10.1621C9.72093 10.1629 8.76899 10.5576 8.06687 11.2595C7.36474 11.9615 6.96981 12.9133 6.96875 13.9061C6.96954 14.8991 7.36436 15.8512 8.06651 16.5533C8.76866 17.2555 9.72076 17.6503 10.7138 17.6511C11.7066 17.65 12.6584 17.2551 13.3603 16.553C14.0623 15.8509 14.457 14.8989 14.4577 13.9061C14.4567 12.9135 14.0619 11.9618 13.36 11.2599C12.6581 10.558 11.7064 10.1632 10.7138 10.1621ZM10.7138 15.6971C10.239 15.6968 9.78376 15.5082 9.44797 15.1726C9.11218 14.837 8.92328 14.3819 8.92275 13.9071C8.92275 12.9191 9.72575 12.1161 10.7127 12.1161C11.7007 12.1161 12.5038 12.9191 12.5038 13.9061C12.5038 14.8941 11.7008 15.6971 10.7138 15.6971Z" fill="url(#paint1_linear)"/>
<path d="M40.1821 12.9302H17.3911C17.1375 12.9383 16.897 13.0447 16.7205 13.227C16.544 13.4092 16.4453 13.653 16.4453 13.9067C16.4453 14.1604 16.544 14.4041 16.7205 14.5864C16.897 14.7686 17.1375 14.8751 17.3911 14.8832H40.1831C40.4366 14.8751 40.6771 14.7686 40.8536 14.5864C41.0301 14.4041 41.1288 14.1604 41.1288 13.9067C41.1288 13.653 41.0301 13.4092 40.8536 13.227C40.6771 13.0447 40.4366 12.9383 40.1831 12.9302H40.1821Z" fill="url(#paint2_linear)"/>
<path d="M10.7138 20.2559C10.4602 20.264 10.2197 20.3704 10.0432 20.5527C9.86669 20.7349 9.768 20.9787 9.768 21.2324C9.768 21.4861 9.86669 21.7298 10.0432 21.9121C10.2197 22.0943 10.4602 22.2007 10.7138 22.2089C11.7008 22.2089 12.5038 23.0129 12.5038 23.9999C12.5038 24.9869 11.7008 25.7899 10.7138 25.7899C10.239 25.7896 9.78376 25.601 9.44797 25.2653C9.11218 24.9297 8.92328 24.4746 8.92275 23.9999C8.92275 23.7407 8.81982 23.4922 8.63659 23.309C8.45337 23.1258 8.20487 23.0229 7.94575 23.0229C7.68663 23.0229 7.43813 23.1258 7.25491 23.309C7.07168 23.4922 6.96875 23.7407 6.96875 23.9999C6.96981 24.9927 7.36474 25.9445 8.06687 26.6465C8.76899 27.3484 9.72093 27.7431 10.7138 27.7439C11.7064 27.7428 12.6581 27.348 13.36 26.6461C14.0619 25.9442 14.4567 24.9925 14.4577 23.9999C14.4567 23.0072 14.0619 22.0555 13.36 21.3536C12.6581 20.6517 11.7064 20.2569 10.7138 20.2559Z" fill="url(#paint3_linear)"/>
<path d="M40.1821 23.0229H17.3911C17.1319 23.0229 16.8834 23.1259 16.7002 23.3091C16.517 23.4923 16.4141 23.7408 16.4141 23.9999C16.4141 24.2591 16.517 24.5076 16.7002 24.6908C16.8834 24.874 17.1319 24.9769 17.3911 24.9769H40.1831C40.4422 24.9769 40.6907 24.874 40.8739 24.6908C41.0571 24.5076 41.1601 24.2591 41.1601 23.9999C41.1601 23.7408 41.0571 23.4923 40.8739 23.3091C40.6907 23.1259 40.4422 23.0229 40.1831 23.0229H40.1821Z" fill="url(#paint4_linear)"/>
<path d="M10.7138 30.3501C9.7211 30.3509 8.76931 30.7455 8.06722 31.4472C7.36512 32.1489 6.97007 33.1005 6.96875 34.0931C6.96954 35.0861 7.36436 36.0382 8.06651 36.7404C8.76866 37.4425 9.72076 37.8373 10.7138 37.8381C11.7066 37.8371 12.6584 37.4421 13.3603 36.74C14.0623 36.0379 14.457 35.0859 14.4577 34.0931C14.4567 33.1005 14.0619 32.1488 13.36 31.4469C12.6581 30.745 11.7064 30.3502 10.7138 30.3491V30.3501ZM10.7138 35.8841C10.239 35.8839 9.78376 35.6952 9.44797 35.3596C9.11218 35.024 8.92328 34.5689 8.92275 34.0941C8.92275 33.1061 9.72575 32.3031 10.7127 32.3031C11.7007 32.3031 12.5038 33.1061 12.5038 34.0931C12.5038 35.0811 11.7008 35.8841 10.7138 35.8841Z" fill="url(#paint5_linear)"/>
<path d="M40.1821 33.1172H17.3911C17.1375 33.1253 16.897 33.2317 16.7205 33.414C16.544 33.5962 16.4453 33.84 16.4453 34.0937C16.4453 34.3474 16.544 34.5911 16.7205 34.7734C16.897 34.9556 17.1375 35.0621 17.3911 35.0702H40.1831C40.4366 35.0621 40.6771 34.9556 40.8536 34.7734C41.0301 34.5911 41.1288 34.3474 41.1288 34.0937C41.1288 33.84 41.0301 33.5962 40.8536 33.414C40.6771 33.2317 40.4366 33.1253 40.1831 33.1172H40.1821Z" fill="url(#paint6_linear)"/>
</g>
<defs>
<linearGradient id="paint0_linear" x1="48" y1="24" x2="0" y2="24" gradientUnits="userSpaceOnUse">
<stop stop-color="#A31FED"/>
<stop offset="1" stop-color="#03EE65"/>
</linearGradient>
<linearGradient id="paint1_linear" x1="47.9987" y1="24.0001" x2="-0.001251" y2="24.0001" gradientUnits="userSpaceOnUse">
<stop stop-color="#A31FED"/>
<stop offset="1" stop-color="#03EE65"/>
</linearGradient>
<linearGradient id="paint2_linear" x1="48.0011" y1="24.0002" x2="0.00105953" y2="24.0002" gradientUnits="userSpaceOnUse">
<stop stop-color="#A31FED"/>
<stop offset="1" stop-color="#03EE65"/>
</linearGradient>
<linearGradient id="paint3_linear" x1="47.9987" y1="23.9999" x2="-0.001251" y2="23.9999" gradientUnits="userSpaceOnUse">
<stop stop-color="#A31FED"/>
<stop offset="1" stop-color="#03EE65"/>
</linearGradient>
<linearGradient id="paint4_linear" x1="48.0011" y1="23.9999" x2="0.00106335" y2="23.9999" gradientUnits="userSpaceOnUse">
<stop stop-color="#A31FED"/>
<stop offset="1" stop-color="#03EE65"/>
</linearGradient>
<linearGradient id="paint5_linear" x1="47.9987" y1="24.0001" x2="-0.001251" y2="24.0001" gradientUnits="userSpaceOnUse">
<stop stop-color="#A31FED"/>
<stop offset="1" stop-color="#03EE65"/>
</linearGradient>
<linearGradient id="paint6_linear" x1="48.0011" y1="24.0002" x2="0.00105953" y2="24.0002" gradientUnits="userSpaceOnUse">
<stop stop-color="#A31FED"/>
<stop offset="1" stop-color="#03EE65"/>
</linearGradient>
<clipPath id="clip0">
<rect width="48" height="48" fill="white"/>
</clipPath>
</defs>
</svg>
