<svg width="48" height="49" viewBox="0 0 48 49" fill="none" xmlns="http://www.w3.org/2000/svg">
<g clip-path="url(#clip0)">
<path d="M20.9039 17.0322H16.2589C16.0535 17.0322 15.8565 17.1138 15.7112 17.2591C15.566 17.4043 15.4844 17.6013 15.4844 17.8067C15.4844 18.0121 15.566 18.2091 15.7112 18.3544C15.8565 18.4996 16.0535 18.5812 16.2589 18.5812H20.9039C21.1093 18.5812 21.3063 18.4996 21.4515 18.3544C21.5968 18.2091 21.6784 18.0121 21.6784 17.8067C21.6784 17.6013 21.5968 17.4043 21.4515 17.2591C21.3063 17.1138 21.1093 17.0322 20.9039 17.0322Z" fill="url(#paint0_linear)"/>
<path d="M24.0016 17.0322H23.2276C23.0222 17.0322 22.8252 17.1138 22.68 17.2591C22.5347 17.4043 22.4531 17.6013 22.4531 17.8067C22.4531 18.0121 22.5347 18.2091 22.68 18.3544C22.8252 18.4996 23.0222 18.5812 23.2276 18.5812H24.0016C24.207 18.5812 24.404 18.4996 24.5493 18.3544C24.6945 18.2091 24.7761 18.0121 24.7761 17.8067C24.7761 17.6013 24.6945 17.4043 24.5493 17.2591C24.404 17.1138 24.207 17.0322 24.0016 17.0322Z" fill="url(#paint1_linear)"/>
<path d="M42.5795 35.663V27.871C42.5799 27.7387 42.5462 27.6085 42.4818 27.4929C42.4173 27.3773 42.3243 27.2803 42.2115 27.211L32.9815 21.532L38.2555 16.258H41.8055C41.9072 16.2581 42.008 16.2382 42.102 16.1994C42.196 16.1605 42.2815 16.1035 42.3535 16.0317C42.4254 15.9598 42.4825 15.8744 42.5215 15.7804C42.5605 15.6865 42.5805 15.5857 42.5805 15.484V12.387C42.5805 12.2853 42.5605 12.1845 42.5215 12.0906C42.4825 11.9966 42.4254 11.9112 42.3535 11.8393C42.2815 11.7675 42.196 11.7105 42.102 11.6716C42.008 11.6328 41.9072 11.6129 41.8055 11.613H38.7095V0.774003C38.7095 0.672275 38.6895 0.571546 38.6505 0.477574C38.6115 0.383603 38.5544 0.298234 38.4825 0.226348C38.4105 0.154462 38.325 0.0974709 38.231 0.0586326C38.137 0.0197943 38.0362 -0.000128846 37.9345 2.58421e-06H34.8395C34.6342 2.58421e-06 34.4374 0.0815488 34.2922 0.226702C34.1471 0.371855 34.0655 0.568725 34.0655 0.774003V11.613H32.5165V4.645C32.5165 4.43972 32.435 4.24285 32.2898 4.0977C32.1447 3.95255 31.9478 3.871 31.7425 3.871H28.6455C28.4402 3.871 28.2434 3.95255 28.0982 4.0977C27.9531 4.24285 27.8715 4.43972 27.8715 4.645V11.613H26.3235V0.774003C26.3235 0.672191 26.3034 0.57138 26.2644 0.477343C26.2254 0.383306 26.1682 0.297892 26.0961 0.225994C26.024 0.154095 25.9385 0.0971241 25.8443 0.0583448C25.7502 0.0195655 25.6493 -0.000260495 25.5475 2.58421e-06H22.4515C22.3498 -0.000128846 22.249 0.0197943 22.155 0.0586326C22.061 0.0974709 21.9755 0.154462 21.9036 0.226348C21.8316 0.298234 21.7745 0.383603 21.7355 0.477574C21.6966 0.571546 21.6765 0.672275 21.6765 0.774003V11.613H20.1295V7.742C20.1295 7.53673 20.048 7.33985 19.9028 7.1947C19.7577 7.04955 19.5608 6.968 19.3555 6.968H16.2585C16.0532 6.968 15.8564 7.04955 15.7112 7.1947C15.5661 7.33985 15.4845 7.53673 15.4845 7.742V11.612H13.9355V4.646C13.9355 4.54436 13.9155 4.44371 13.8766 4.34981C13.8377 4.2559 13.7807 4.17057 13.7088 4.0987C13.6369 4.02683 13.5516 3.96982 13.4577 3.93092C13.3638 3.89202 13.2632 3.872 13.1615 3.872H10.0655C9.96378 3.87187 9.86303 3.89179 9.769 3.93063C9.67498 3.96947 9.58954 4.02646 9.51756 4.09835C9.44558 4.17023 9.38848 4.2556 9.34952 4.34957C9.31056 4.44355 9.29051 4.54427 9.29051 4.646V11.614H6.19351C6.09178 11.6139 5.99103 11.6338 5.897 11.6726C5.80298 11.7115 5.71754 11.7685 5.64556 11.8403C5.57358 11.9122 5.51648 11.9976 5.47752 12.0916C5.43856 12.1855 5.41851 12.2863 5.41851 12.388V15.485C5.41851 15.5867 5.43856 15.6875 5.47752 15.7814C5.51648 15.8754 5.57358 15.9608 5.64556 16.0327C5.71754 16.1045 5.80298 16.1615 5.897 16.2004C5.99103 16.2392 6.09178 16.2591 6.19351 16.259H9.74351L15.0165 21.533L5.78751 27.213C5.67471 27.282 5.58153 27.3789 5.51692 27.4943C5.4523 27.6097 5.41842 27.7397 5.41851 27.872V35.664C3.85556 35.861 2.42643 36.6462 1.42203 37.8598C0.417639 39.0734 -0.086523 40.6242 0.012176 42.1964C0.110875 43.7686 0.805015 45.2441 1.9533 46.3226C3.10158 47.4011 4.61769 48.0014 6.19301 48.0014C7.76833 48.0014 9.28444 47.4011 10.4327 46.3226C11.581 45.2441 12.2751 43.7686 12.3738 42.1964C12.4725 40.6242 11.9684 39.0734 10.964 37.8598C9.95959 36.6462 8.53046 35.861 6.96751 35.664V28.304L16.1425 22.658L20.9025 27.418V31.743C20.9026 31.8868 20.9427 32.0278 21.0183 32.1502C21.0939 32.2725 21.202 32.3715 21.3305 32.436L23.2255 33.382V35.664C21.6625 35.8609 20.2333 36.646 19.2288 37.8596C18.2243 39.0732 17.72 40.6239 17.8187 42.1962C17.9173 43.7685 18.6114 45.2441 19.7597 46.3226C20.908 47.4011 22.4241 48.0014 23.9995 48.0014C25.5749 48.0014 27.091 47.4011 28.2393 46.3226C29.3876 45.2441 30.0817 43.7685 30.1804 42.1962C30.279 40.6239 29.7747 39.0732 28.7702 37.8596C27.7657 36.646 26.3365 35.8609 24.7735 35.664V34.157L25.9755 34.758C26.0935 34.817 26.2246 34.8448 26.3563 34.8389C26.4881 34.8329 26.6161 34.7934 26.7283 34.7241C26.8405 34.6548 26.9332 34.5579 26.9974 34.4428C27.0617 34.3276 27.0954 34.1979 27.0955 34.066V27.418L31.8565 22.658L41.0315 28.304V35.664C39.4686 35.861 38.0394 36.6462 37.035 37.8598C36.0306 39.0734 35.5265 40.6242 35.6252 42.1964C35.7239 43.7686 36.418 45.2441 37.5663 46.3226C38.7146 47.4011 40.2307 48.0014 41.806 48.0014C43.3813 48.0014 44.8974 47.4011 46.0457 46.3226C47.194 45.2441 47.8881 43.7686 47.9868 42.1964C48.0855 40.6242 47.5814 39.0734 46.577 37.8598C45.5726 36.6462 44.1435 35.861 42.5805 35.664L42.5795 35.663ZM10.8395 41.806C10.8395 43.0379 10.3501 44.2194 9.47902 45.0905C8.60791 45.9616 7.42644 46.451 6.19451 46.451C4.96258 46.451 3.7811 45.9616 2.91 45.0905C2.03889 44.2194 1.54951 43.0379 1.54951 41.806C1.54951 40.5741 2.03889 39.3926 2.91 38.5215C3.7811 37.6504 4.96258 37.161 6.19451 37.161C7.42644 37.161 8.60791 37.6504 9.47902 38.5215C10.3501 39.3926 10.8395 40.5741 10.8395 41.806ZM35.6125 1.548H37.1605V11.613H35.6125V1.548ZM29.4185 5.42H30.9675V11.614H29.4185V5.419V5.42ZM23.2255 1.55H24.7735V11.614H23.2255V1.548V1.55ZM17.0315 8.517H18.5805V11.614H17.0315V8.516V8.517ZM10.8395 5.42H12.3875V11.614H10.8395V5.419V5.42ZM6.96851 14.71V13.162H41.0325V14.711H6.96751L6.96851 14.71ZM28.6455 41.807C28.6455 43.0389 28.1561 44.2204 27.285 45.0915C26.4139 45.9626 25.2324 46.452 24.0005 46.452C22.7686 46.452 21.5871 45.9626 20.716 45.0915C19.8449 44.2204 19.3555 43.0389 19.3555 41.807C19.3555 40.5751 19.8449 39.3936 20.716 38.5225C21.5871 37.6514 22.7686 37.162 24.0005 37.162C25.2324 37.162 26.4139 37.6514 27.285 38.5225C28.1561 39.3936 28.6455 40.5751 28.6455 41.807ZM25.7755 26.55C25.6302 26.6953 25.5485 26.8925 25.5485 27.098V32.813L22.4525 31.265V27.098C22.4525 26.8925 22.3709 26.6953 22.2255 26.55L11.9335 16.26H36.0675L25.7755 26.55ZM41.8065 46.453C40.5746 46.453 39.3931 45.9636 38.522 45.0925C37.6509 44.2214 37.1615 43.0399 37.1615 41.808C37.1615 40.5761 37.6509 39.3946 38.522 38.5235C39.3931 37.6524 40.5746 37.163 41.8065 37.163C43.0384 37.163 44.2199 37.6524 45.091 38.5235C45.9621 39.3946 46.4515 40.5761 46.4515 41.808C46.4515 43.0399 45.9621 44.2214 45.091 45.0925C44.2199 45.9636 43.0384 46.453 41.8065 46.453Z" fill="url(#paint2_linear)"/>
<path d="M26.3218 41.806V44.129C26.3218 44.2308 26.3017 44.3315 26.2628 44.4255C26.2238 44.5194 26.1667 44.6048 26.0947 44.6767C26.0228 44.7486 25.9373 44.8056 25.8433 44.8444C25.7493 44.8832 25.6485 44.9032 25.5468 44.903H24.7728C24.7728 45.1083 24.6912 45.3052 24.5461 45.4503C24.4009 45.5955 24.2041 45.677 23.9988 45.677C23.7935 45.677 23.5966 45.5955 23.4515 45.4503C23.3063 45.3052 23.2248 45.1083 23.2248 44.903H22.4508C22.2455 44.903 22.0486 44.8215 21.9035 44.6763C21.7583 44.5312 21.6768 44.3343 21.6768 44.129C21.6768 43.9238 21.7583 43.7269 21.9035 43.5817C22.0486 43.4366 22.2455 43.355 22.4508 43.355H24.7728V42.581H22.4508C22.349 42.5812 22.2481 42.5612 22.154 42.5223C22.06 42.4834 21.9745 42.4263 21.9025 42.3543C21.8305 42.2823 21.7734 42.1969 21.7345 42.1028C21.6956 42.0087 21.6757 41.9078 21.6758 41.806V39.484C21.6758 39.3823 21.6958 39.2816 21.7348 39.1876C21.7738 39.0936 21.8309 39.0083 21.9028 38.9364C21.9748 38.8645 22.0603 38.8075 22.1543 38.7687C22.2483 38.7298 22.3491 38.7099 22.4508 38.71H23.2248C23.2248 38.5048 23.3063 38.3079 23.4515 38.1627C23.5966 38.0176 23.7935 37.936 23.9988 37.936C24.2041 37.936 24.4009 38.0176 24.5461 38.1627C24.6912 38.3079 24.7728 38.5048 24.7728 38.71H25.5468C25.7521 38.71 25.9489 38.7916 26.0941 38.9367C26.2392 39.0819 26.3208 39.2788 26.3208 39.484C26.3208 39.6893 26.2392 39.8862 26.0941 40.0313C25.9489 40.1765 25.7521 40.258 25.5468 40.258H23.2248V41.032H25.5468C25.6485 41.0319 25.7493 41.0518 25.8433 41.0907C25.9373 41.1295 26.0228 41.1865 26.0947 41.2584C26.1667 41.3303 26.2238 41.4156 26.2628 41.5096C26.3017 41.6036 26.3218 41.7043 26.3218 41.806Z" fill="url(#paint3_linear)"/>
<path d="M8.51609 41.806V44.129C8.51609 44.3343 8.43455 44.5312 8.2894 44.6763C8.14424 44.8215 7.94737 44.903 7.74209 44.903H6.96809C6.96809 45.1085 6.8865 45.3055 6.74125 45.4507C6.596 45.5959 6.399 45.6775 6.19359 45.6775C5.98818 45.6775 5.79119 45.5959 5.64594 45.4507C5.50069 45.3055 5.41909 45.1085 5.41909 44.903H4.64509C4.44662 44.893 4.25961 44.807 4.1227 44.663C3.98579 44.5189 3.90945 44.3278 3.90945 44.129C3.90945 43.9303 3.98579 43.7392 4.1227 43.5951C4.25961 43.4511 4.44662 43.3651 4.64509 43.355H6.96809V42.581H4.64509C4.54337 42.581 4.44264 42.561 4.34867 42.522C4.25469 42.4831 4.16933 42.426 4.09744 42.354C4.02555 42.282 3.96856 42.1966 3.92972 42.1026C3.89089 42.0085 3.87096 41.9078 3.87109 41.806V39.484C3.87109 39.2788 3.95264 39.0819 4.09779 38.9367C4.24295 38.7916 4.43982 38.71 4.64509 38.71H5.41909C5.41909 38.6083 5.43913 38.5076 5.47805 38.4137C5.51697 38.3197 5.57402 38.2343 5.64594 38.1624C5.71786 38.0905 5.80324 38.0334 5.89721 37.9945C5.99117 37.9556 6.09189 37.9355 6.19359 37.9355C6.2953 37.9355 6.39602 37.9556 6.48998 37.9945C6.58395 38.0334 6.66933 38.0905 6.74125 38.1624C6.81317 38.2343 6.87022 38.3197 6.90914 38.4137C6.94806 38.5076 6.96809 38.6083 6.96809 38.71H7.74209C7.94737 38.71 8.14424 38.7916 8.2894 38.9367C8.43455 39.0819 8.51609 39.2788 8.51609 39.484C8.51609 39.6893 8.43455 39.8862 8.2894 40.0313C8.14424 40.1765 7.94737 40.258 7.74209 40.258H5.41909V41.032H7.74209C7.94737 41.032 8.14424 41.1136 8.2894 41.2587C8.43455 41.4039 8.51609 41.6008 8.51609 41.806Z" fill="url(#paint4_linear)"/>
<path d="M44.1294 41.806V44.129C44.1294 44.3343 44.0478 44.5312 43.9027 44.6763C43.7575 44.8215 43.5607 44.903 43.3554 44.903H42.5814C42.5814 45.1085 42.4998 45.3055 42.3545 45.4507C42.2093 45.5959 42.0123 45.6775 41.8069 45.6775C41.6015 45.6775 41.4045 45.5959 41.2592 45.4507C41.114 45.3055 41.0324 45.1085 41.0324 44.903H40.2584C40.0599 44.893 39.8729 44.807 39.736 44.663C39.5991 44.5189 39.5227 44.3278 39.5227 44.129C39.5227 43.9303 39.5991 43.7392 39.736 43.5951C39.8729 43.4511 40.0599 43.3651 40.2584 43.355H42.5814V42.581H40.2584C40.1566 42.581 40.0559 42.561 39.9619 42.522C39.868 42.4831 39.7826 42.426 39.7107 42.354C39.6388 42.282 39.5818 42.1966 39.543 42.1026C39.5042 42.0085 39.4842 41.9078 39.4844 41.806V39.484C39.4844 39.2788 39.5659 39.0819 39.7111 38.9367C39.8562 38.7916 40.0531 38.71 40.2584 38.71H41.0324C41.0324 38.5046 41.114 38.3076 41.2592 38.1624C41.4045 38.0171 41.6015 37.9355 41.8069 37.9355C42.0123 37.9355 42.2093 38.0171 42.3545 38.1624C42.4998 38.3076 42.5814 38.5046 42.5814 38.71H43.3554C43.5607 38.71 43.7575 38.7916 43.9027 38.9367C44.0478 39.0819 44.1294 39.2788 44.1294 39.484C44.1294 39.6893 44.0478 39.8862 43.9027 40.0313C43.7575 40.1765 43.5607 40.258 43.3554 40.258H41.0324V41.032H43.3554C43.5607 41.032 43.7575 41.1136 43.9027 41.2587C44.0478 41.4039 44.1294 41.6008 44.1294 41.806Z" fill="url(#paint5_linear)"/>
<path d="M0.774 5.42H3.097C3.19873 5.42 3.29946 5.39995 3.39343 5.36099C3.4874 5.32203 3.57277 5.26493 3.64465 5.19295C3.71654 5.12097 3.77353 5.03553 3.81237 4.9415C3.85121 4.84748 3.87113 4.74673 3.871 4.645V0.775C3.87113 0.673273 3.85121 0.572517 3.81237 0.478496C3.77353 0.384474 3.71654 0.299031 3.64465 0.227053C3.57277 0.155074 3.4874 0.0979724 3.39343 0.0590128C3.29946 0.0200531 3.19873 -8.49033e-08 3.097 0L0.774 0C0.568722 0 0.371853 0.0815462 0.226699 0.226699C0.0815462 0.371853 0 0.568722 0 0.774L0 4.645C0 4.85028 0.0815462 5.04715 0.226699 5.1923C0.371853 5.33745 0.568722 5.419 0.774 5.419V5.42ZM1.548 1.548H2.323V3.871H1.548V1.548Z" fill="url(#paint6_linear)"/>
<path d="M0.774 15.4838C0.979278 15.4838 1.17615 15.4023 1.3213 15.2571C1.46645 15.112 1.548 14.9151 1.548 14.7098V6.96785C1.548 6.76257 1.46645 6.5657 1.3213 6.42055C1.17615 6.27539 0.979278 6.19385 0.774 6.19385C0.568722 6.19385 0.371853 6.27539 0.226699 6.42055C0.0815462 6.5657 0 6.76257 0 6.96785L0 14.7098C0 14.9151 0.0815462 15.112 0.226699 15.2571C0.371853 15.4023 0.568722 15.4838 0.774 15.4838Z" fill="url(#paint7_linear)"/>
<path d="M3.09822 6.19385C2.89294 6.19385 2.69607 6.27539 2.55092 6.42055C2.40576 6.5657 2.32422 6.76257 2.32422 6.96785V10.0648C2.32422 10.1665 2.34424 10.2671 2.38314 10.361C2.42203 10.455 2.47905 10.5403 2.55092 10.6121C2.62279 10.684 2.70812 10.741 2.80202 10.7799C2.89593 10.8188 2.99658 10.8388 3.09822 10.8388C3.19986 10.8388 3.30051 10.8188 3.39442 10.7799C3.48832 10.741 3.57365 10.684 3.64552 10.6121C3.71739 10.5403 3.7744 10.455 3.8133 10.361C3.8522 10.2671 3.87222 10.1665 3.87222 10.0648V6.96785C3.87222 6.76257 3.79067 6.5657 3.64552 6.42055C3.50037 6.27539 3.3035 6.19385 3.09822 6.19385Z" fill="url(#paint8_linear)"/>
<path d="M47.2259 0H44.9029C44.6976 0 44.5008 0.0815462 44.3556 0.226699C44.2104 0.371853 44.1289 0.568722 44.1289 0.774V4.645C44.1289 4.85028 44.2104 5.04715 44.3556 5.1923C44.5008 5.33745 44.6976 5.419 44.9029 5.419H47.2259C47.4312 5.419 47.6281 5.33745 47.7732 5.1923C47.9184 5.04715 47.9999 4.85028 47.9999 4.645V0.775C48 0.673273 47.9801 0.572517 47.9413 0.478496C47.9024 0.384474 47.8454 0.299031 47.7736 0.227053C47.7017 0.155074 47.6163 0.0979724 47.5223 0.0590128C47.4284 0.0200531 47.3276 -8.49033e-08 47.2259 0V0ZM46.4519 3.871H45.6769V1.548H46.4519V3.871Z" fill="url(#paint9_linear)"/>
<path d="M47.2271 6.19385C47.0218 6.19385 46.825 6.27539 46.6798 6.42055C46.5347 6.5657 46.4531 6.76257 46.4531 6.96785V13.1608C46.4531 13.3661 46.5347 13.563 46.6798 13.7081C46.825 13.8533 47.0218 13.9348 47.2271 13.9348C47.4324 13.9348 47.6293 13.8533 47.7744 13.7081C47.9196 13.563 48.0011 13.3661 48.0011 13.1608V6.96785C48.0011 6.76257 47.9196 6.5657 47.7744 6.42055C47.6293 6.27539 47.4324 6.19385 47.2271 6.19385Z" fill="url(#paint10_linear)"/>
<path d="M44.9029 9.29006C45.0045 9.29006 45.1052 9.27004 45.1991 9.23115C45.293 9.19225 45.3783 9.13524 45.4502 9.06337C45.5221 8.99149 45.5791 8.90617 45.618 8.81226C45.6569 8.71836 45.6769 8.61771 45.6769 8.51606V6.96806C45.6668 6.76959 45.5809 6.58258 45.4368 6.44567C45.2928 6.30876 45.1016 6.23242 44.9029 6.23242C44.7042 6.23242 44.513 6.30876 44.369 6.44567C44.2249 6.58258 44.139 6.76959 44.1289 6.96806V8.51606C44.1289 8.72134 44.2104 8.91821 44.3556 9.06337C44.5008 9.20852 44.6976 9.29006 44.9029 9.29006Z" fill="url(#paint11_linear)"/>
</g>
<defs>
<linearGradient id="paint0_linear" x1="48.0009" y1="24.0012" x2="0.000876427" y2="24.0012" gradientUnits="userSpaceOnUse">
<stop stop-color="#A31FED"/>
<stop offset="1" stop-color="#03EE65"/>
</linearGradient>
<linearGradient id="paint1_linear" x1="48.0016" y1="24.0012" x2="0.00162621" y2="24.0012" gradientUnits="userSpaceOnUse">
<stop stop-color="#A31FED"/>
<stop offset="1" stop-color="#03EE65"/>
</linearGradient>
<linearGradient id="paint2_linear" x1="47.9995" y1="24.001" x2="-0.000492096" y2="24.001" gradientUnits="userSpaceOnUse">
<stop stop-color="#A31FED"/>
<stop offset="1" stop-color="#03EE65"/>
</linearGradient>
<linearGradient id="paint3_linear" x1="47.9988" y1="24.001" x2="-0.00121633" y2="24.001" gradientUnits="userSpaceOnUse">
<stop stop-color="#A31FED"/>
<stop offset="1" stop-color="#03EE65"/>
</linearGradient>
<linearGradient id="paint4_linear" x1="48.0001" y1="24.001" x2="9.54668e-05" y2="24.001" gradientUnits="userSpaceOnUse">
<stop stop-color="#A31FED"/>
<stop offset="1" stop-color="#03EE65"/>
</linearGradient>
<linearGradient id="paint5_linear" x1="48.0004" y1="24.001" x2="0.000372708" y2="24.001" gradientUnits="userSpaceOnUse">
<stop stop-color="#A31FED"/>
<stop offset="1" stop-color="#03EE65"/>
</linearGradient>
<linearGradient id="paint6_linear" x1="48" y1="24.001" x2="0" y2="24.001" gradientUnits="userSpaceOnUse">
<stop stop-color="#A31FED"/>
<stop offset="1" stop-color="#03EE65"/>
</linearGradient>
<linearGradient id="paint7_linear" x1="48" y1="24.0009" x2="0" y2="24.0009" gradientUnits="userSpaceOnUse">
<stop stop-color="#A31FED"/>
<stop offset="1" stop-color="#03EE65"/>
</linearGradient>
<linearGradient id="paint8_linear" x1="48.0012" y1="24.0008" x2="0.00121948" y2="24.0008" gradientUnits="userSpaceOnUse">
<stop stop-color="#A31FED"/>
<stop offset="1" stop-color="#03EE65"/>
</linearGradient>
<linearGradient id="paint9_linear" x1="47.9999" y1="24.001" x2="-7.72716e-05" y2="24.001" gradientUnits="userSpaceOnUse">
<stop stop-color="#A31FED"/>
<stop offset="1" stop-color="#03EE65"/>
</linearGradient>
<linearGradient id="paint10_linear" x1="48.0011" y1="24.0009" x2="0.0011124" y2="24.0009" gradientUnits="userSpaceOnUse">
<stop stop-color="#A31FED"/>
<stop offset="1" stop-color="#03EE65"/>
</linearGradient>
<linearGradient id="paint11_linear" x1="47.9999" y1="24.0011" x2="3.2726e-06" y2="24.0011" gradientUnits="userSpaceOnUse">
<stop stop-color="#A31FED"/>
<stop offset="1" stop-color="#03EE65"/>
</linearGradient>
<clipPath id="clip0">
<rect width="48" height="49" fill="white"/>
</clipPath>
</defs>
</svg>
