<svg width="48" height="48" viewBox="0 0 48 48" fill="none" xmlns="http://www.w3.org/2000/svg">
<g clip-path="url(#clip0)">
<path d="M45.188 25.534V5.156C45.1864 3.78869 44.6424 2.47786 43.6754 1.51121C42.7084 0.544555 41.3973 0.0010586 40.03 0L5.156 0C3.78903 0.00158796 2.4785 0.545318 1.51191 1.51191C0.545318 2.4785 0.00158796 3.78903 0 5.156L0 37.22C0.00158796 38.587 0.545318 39.8975 1.51191 40.8641C2.4785 41.8307 3.78903 42.3744 5.156 42.376H17.063V44.72C17.0643 45.5895 17.4103 46.423 18.0252 47.0378C18.64 47.6527 19.4735 47.9987 20.343 48H44.72C45.5897 47.9987 46.4233 47.6525 47.0382 47.0375C47.6531 46.4224 47.9989 45.5887 48 44.719V28.78C47.9989 27.9913 47.7141 27.2293 47.1976 26.6331C46.6812 26.037 45.9675 25.6465 45.187 25.533L45.188 25.534ZM44.718 28.313C44.8423 28.313 44.9616 28.3622 45.0496 28.45C45.1377 28.5377 45.1875 28.6567 45.188 28.781V31.969H19.875V28.78C19.8755 28.6559 19.9251 28.537 20.013 28.4493C20.1009 28.3616 20.2199 28.3123 20.344 28.312H44.719L44.718 28.313ZM5.157 2.813H40.032C40.6533 2.81353 41.2491 3.06052 41.6885 3.49977C42.128 3.93903 42.3752 4.53467 42.376 5.156V8.531H2.812V5.156C2.81279 4.53467 3.06004 3.93903 3.49948 3.49977C3.93892 3.06052 4.53467 2.81353 5.156 2.813H5.157ZM5.157 39.563C4.53567 39.5622 3.94003 39.315 3.50077 38.8755C3.06152 38.4361 2.81453 37.8403 2.814 37.219V11.344H42.376V25.5H20.344C19.474 25.5008 18.6398 25.8467 18.0245 26.4618C17.4092 27.0769 17.0631 27.911 17.062 28.781V39.563H5.156H5.157ZM44.72 45.187H20.344C20.2199 45.1867 20.1009 45.1374 20.013 45.0497C19.9251 44.962 19.8755 44.8431 19.875 44.719V41.294C19.9257 41.0803 19.9257 40.8577 19.875 40.644V34.78H45.188V44.718C45.1875 44.8423 45.1377 44.9613 45.0496 45.049C44.9616 45.1368 44.8423 45.186 44.718 45.186L44.72 45.187Z" fill="url(#paint0_linear)"/>
<path d="M11.3395 21.2098C10.7925 21.0178 9.4795 20.5378 9.0265 20.1728C8.6345 19.8578 8.9195 19.2898 9.2555 19.0998C10.1635 18.5858 11.0465 19.4378 11.2655 19.5528C11.5676 19.7099 11.9164 19.7522 12.2472 19.6718C12.5781 19.5913 12.8685 19.3937 13.0647 19.1154C13.2609 18.8371 13.3496 18.4971 13.3142 18.1585C13.2789 17.8198 13.122 17.5055 12.8725 17.2738C12.8285 17.2398 12.3065 16.6738 11.2495 16.3488V15.5618C11.2495 15.1889 11.1014 14.8312 10.8377 14.5676C10.574 14.3039 10.2164 14.1558 9.8435 14.1558C9.47061 14.1558 9.11298 14.3039 8.84931 14.5676C8.58563 14.8312 8.4375 15.1889 8.4375 15.5618V16.3938C7.2395 16.8038 6.3515 17.8438 6.1065 19.1428C5.6365 21.6388 7.3555 22.7048 9.6125 23.5728C10.4115 23.8798 10.9955 23.9628 11.1095 24.5928C11.3365 25.8568 9.6595 26.7758 7.9265 25.6418C7.61434 25.4375 7.23384 25.3657 6.86871 25.442C6.50357 25.5184 6.18372 25.7366 5.9795 26.0488C5.77528 26.3609 5.70344 26.7414 5.77976 27.1066C5.85609 27.4717 6.07434 27.7915 6.3865 27.9958C7.1585 28.5008 7.7645 28.7418 8.4365 28.8508V29.6248C8.4365 29.9978 8.58469 30.3555 8.84846 30.6193C9.11223 30.8831 9.46997 31.0313 9.843 31.0313C10.216 31.0313 10.5738 30.8831 10.8375 30.6193C11.1013 30.3555 11.2495 29.9978 11.2495 29.6248V28.6598C14.6015 27.3858 15.0205 22.5118 11.3395 21.2098Z" fill="url(#paint1_linear)"/>
<path d="M24.8442 39.4692H23.4373C23.0644 39.4692 22.7067 39.6174 22.4431 39.881C22.1794 40.1447 22.0312 40.5023 22.0312 40.8752C22.0312 41.2481 22.1794 41.6058 22.4431 41.8694C22.7067 42.1331 23.0644 42.2812 23.4373 42.2812H24.8442C25.2171 42.2812 25.5748 42.1331 25.8384 41.8694C26.1021 41.6058 26.2502 41.2481 26.2502 40.8752C26.2502 40.5023 26.1021 40.1447 25.8384 39.881C25.5748 39.6174 25.2171 39.4692 24.8442 39.4692Z" fill="url(#paint2_linear)"/>
<path d="M30.4692 39.4692H29.0623C28.6894 39.4692 28.3317 39.6174 28.0681 39.881C27.8044 40.1447 27.6562 40.5023 27.6562 40.8752C27.6562 41.2481 27.8044 41.6058 28.0681 41.8694C28.3317 42.1331 28.6894 42.2812 29.0623 42.2812H30.4692C30.8421 42.2812 31.1998 42.1331 31.4634 41.8694C31.7271 41.6058 31.8752 41.2481 31.8752 40.8752C31.8752 40.5023 31.7271 40.1447 31.4634 39.881C31.1998 39.6174 30.8421 39.4692 30.4692 39.4692Z" fill="url(#paint3_linear)"/>
<path d="M35.9995 39.4692H34.5935C34.2206 39.4692 33.863 39.6174 33.5993 39.881C33.3356 40.1447 33.1875 40.5023 33.1875 40.8752C33.1875 41.2481 33.3356 41.6058 33.5993 41.8694C33.863 42.1331 34.2206 42.2812 34.5935 42.2812H35.9995C36.3724 42.2812 36.73 42.1331 36.9937 41.8694C37.2574 41.6058 37.4055 41.2481 37.4055 40.8752C37.4055 40.5023 37.2574 40.1447 36.9937 39.881C36.73 39.6174 36.3724 39.4692 35.9995 39.4692Z" fill="url(#paint4_linear)"/>
<path d="M41.6245 39.4692H40.2185C39.8456 39.4692 39.488 39.6174 39.2243 39.881C38.9606 40.1447 38.8125 40.5023 38.8125 40.8752C38.8125 41.2481 38.9606 41.6058 39.2243 41.8694C39.488 42.1331 39.8456 42.2812 40.2185 42.2812H41.6245C41.9974 42.2812 42.355 42.1331 42.6187 41.8694C42.8824 41.6058 43.0305 41.2481 43.0305 40.8752C43.0305 40.5023 42.8824 40.1447 42.6187 39.881C42.355 39.6174 41.9974 39.4692 41.6245 39.4692Z" fill="url(#paint5_linear)"/>
<path d="M18.3752 16.9688H38.0632C38.4363 16.9688 38.794 16.8206 39.0578 16.5568C39.3216 16.293 39.4698 15.9353 39.4698 15.5623C39.4698 15.1892 39.3216 14.8315 39.0578 14.5677C38.794 14.3039 38.4363 14.1558 38.0632 14.1558H18.3752C18.0022 14.1558 17.6445 14.3039 17.3807 14.5677C17.1169 14.8315 16.9688 15.1892 16.9688 15.5623C16.9688 15.9353 17.1169 16.293 17.3807 16.5568C17.6445 16.8206 18.0022 16.9688 18.3752 16.9688Z" fill="url(#paint6_linear)"/>
<path d="M18.3752 22.5938H38.0632C38.4363 22.5938 38.794 22.4456 39.0578 22.1818C39.3216 21.918 39.4698 21.5603 39.4698 21.1873C39.4698 20.8142 39.3216 20.4565 39.0578 20.1927C38.794 19.9289 38.4363 19.7808 38.0632 19.7808H18.3752C18.0022 19.7808 17.6445 19.9289 17.3807 20.1927C17.1169 20.4565 16.9688 20.8142 16.9688 21.1873C16.9688 21.5603 17.1169 21.918 17.3807 22.1818C17.6445 22.4456 18.0022 22.5938 18.3752 22.5938Z" fill="url(#paint7_linear)"/>
</g>
<defs>
<linearGradient id="paint0_linear" x1="48" y1="24" x2="0" y2="24" gradientUnits="userSpaceOnUse">
<stop stop-color="#A31FED"/>
<stop offset="1" stop-color="#03EE65"/>
</linearGradient>
<linearGradient id="paint1_linear" x1="47.9995" y1="23.9998" x2="-0.000499107" y2="23.9998" gradientUnits="userSpaceOnUse">
<stop stop-color="#A31FED"/>
<stop offset="1" stop-color="#03EE65"/>
</linearGradient>
<linearGradient id="paint2_linear" x1="48.0002" y1="24.0003" x2="0.000249531" y2="24.0003" gradientUnits="userSpaceOnUse">
<stop stop-color="#A31FED"/>
<stop offset="1" stop-color="#03EE65"/>
</linearGradient>
<linearGradient id="paint3_linear" x1="48.0002" y1="24.0003" x2="0.000251121" y2="24.0003" gradientUnits="userSpaceOnUse">
<stop stop-color="#A31FED"/>
<stop offset="1" stop-color="#03EE65"/>
</linearGradient>
<linearGradient id="paint4_linear" x1="47.9995" y1="24.0003" x2="-0.000488486" y2="24.0003" gradientUnits="userSpaceOnUse">
<stop stop-color="#A31FED"/>
<stop offset="1" stop-color="#03EE65"/>
</linearGradient>
<linearGradient id="paint5_linear" x1="47.9995" y1="24.0003" x2="-0.000485704" y2="24.0003" gradientUnits="userSpaceOnUse">
<stop stop-color="#A31FED"/>
<stop offset="1" stop-color="#03EE65"/>
</linearGradient>
<linearGradient id="paint6_linear" x1="48.0003" y1="23.9998" x2="0.00024783" y2="23.9998" gradientUnits="userSpaceOnUse">
<stop stop-color="#A31FED"/>
<stop offset="1" stop-color="#03EE65"/>
</linearGradient>
<linearGradient id="paint7_linear" x1="48.0003" y1="23.9998" x2="0.00024783" y2="23.9998" gradientUnits="userSpaceOnUse">
<stop stop-color="#A31FED"/>
<stop offset="1" stop-color="#03EE65"/>
</linearGradient>
<clipPath id="clip0">
<rect width="48" height="48" fill="white"/>
</clipPath>
</defs>
</svg>
