<svg width="48" height="46" viewBox="0 0 48 46" fill="none" xmlns="http://www.w3.org/2000/svg">
<path d="M20.7927 10.9561C19.9558 10.9571 19.1536 11.2901 18.5619 11.8819C17.9702 12.4738 17.6375 13.2762 17.6367 14.1131C17.6378 14.9498 17.9706 15.7519 18.5623 16.3435C19.1539 16.9352 19.956 17.268 20.7927 17.2691C21.6296 17.2683 22.432 16.9355 23.0238 16.3439C23.6157 15.7522 23.9487 14.9499 23.9497 14.1131C23.9489 13.276 23.6161 12.4735 23.0242 11.8816C22.4323 11.2897 21.6298 10.9568 20.7927 10.9561ZM20.7927 15.7661C20.3545 15.7655 19.9343 15.5912 19.6245 15.2813C19.3146 14.9714 19.1402 14.5513 19.1397 14.1131C19.1397 13.2011 19.8817 12.4591 20.7927 12.4591C21.7047 12.4591 22.4467 13.2011 22.4467 14.1131C22.4467 15.0251 21.7047 15.7661 20.7927 15.7661Z" fill="url(#paint0_linear)"/>
<path d="M11.9734 10.9561C11.1364 10.9568 10.3338 11.2897 9.74195 11.8816C9.15007 12.4735 8.8172 13.276 8.81641 14.1131C8.81747 14.9499 9.15045 15.7522 9.7423 16.3439C10.3342 16.9355 11.1365 17.2683 11.9734 17.2691C12.8103 17.2683 13.6127 16.9355 14.2045 16.3439C14.7964 15.7522 15.1293 14.9499 15.1304 14.1131C15.1296 13.276 14.7967 12.4735 14.2049 11.8816C13.613 11.2897 12.8105 10.9568 11.9734 10.9561ZM11.9734 15.7661C11.5352 15.7655 11.115 15.5912 10.8051 15.2813C10.4953 14.9714 10.3209 14.5513 10.3204 14.1131C10.3204 13.2011 11.0614 12.4591 11.9734 12.4591C12.8854 12.4591 13.6264 13.2011 13.6264 14.1131C13.6264 15.0251 12.8854 15.7661 11.9734 15.7661Z" fill="url(#paint1_linear)"/>
<path d="M48 29.345C48 25.581 46.32 22.082 43.268 19.493C43.1152 19.3709 42.9209 19.3131 42.7262 19.3318C42.5315 19.3506 42.3518 19.4445 42.2252 19.5937C42.0986 19.7428 42.0351 19.9353 42.0481 20.1305C42.0611 20.3257 42.1497 20.5081 42.295 20.639C45.005 22.939 46.497 26.03 46.497 29.345C46.497 32.923 44.712 36.297 41.599 38.601C41.4823 38.6876 41.3932 38.8061 41.3425 38.9422C41.2917 39.0783 41.2815 39.2262 41.313 39.368L42.127 43.032L38.266 40.715C38.1731 40.6592 38.0692 40.6242 37.9615 40.6123C37.8538 40.6004 37.7448 40.6119 37.642 40.646C36.0861 41.1618 34.4572 41.4232 32.818 41.42C25.276 41.42 19.14 36.003 19.14 29.344C19.14 22.686 25.276 17.269 32.818 17.269C35.297 17.269 37.724 17.86 39.838 18.979C40.0131 19.0622 40.2135 19.0746 40.3974 19.0136C40.5814 18.9526 40.7347 18.8229 40.8254 18.6516C40.9161 18.4803 40.9371 18.2806 40.8841 18.0942C40.8311 17.9078 40.7082 17.749 40.541 17.651C38.211 16.418 35.541 15.766 32.819 15.766L32.719 15.767C32.751 15.395 32.769 15.02 32.769 14.647C32.768 6.571 25.418 0 16.383 0C7.35 0 0 6.57 0 14.647C0 16.328 0.316 17.977 0.939 19.547C0.978125 19.6423 1.03623 19.7287 1.10979 19.8009C1.18334 19.8731 1.27081 19.9296 1.36688 19.9669C1.46294 20.0042 1.56559 20.0216 1.66858 20.018C1.77158 20.0144 1.87277 19.9899 1.966 19.946C2.1353 19.8618 2.26707 19.7174 2.33551 19.5411C2.40394 19.3649 2.40412 19.1694 2.336 18.993C1.78521 17.6103 1.50252 16.1354 1.503 14.647C1.503 7.399 8.179 1.503 16.384 1.503C24.59 1.503 31.265 7.399 31.265 14.647C31.265 15.046 31.245 15.447 31.204 15.843C24.181 16.51 18.574 21.477 17.744 27.736C17.293 27.772 16.837 27.791 16.384 27.791C13.674 27.791 11.019 27.141 8.709 25.909C8.60021 25.851 8.4788 25.8206 8.3555 25.8206C8.2322 25.8206 8.11079 25.851 8.002 25.909L4.559 27.745L5.775 24.5C5.82721 24.3608 5.83693 24.2092 5.80293 24.0645C5.76893 23.9198 5.69273 23.7884 5.584 23.687C4.87558 23.0287 4.23962 22.2966 3.687 21.503C3.57058 21.3463 3.39776 21.2409 3.20508 21.2093C3.01241 21.1777 2.81499 21.2222 2.65457 21.3336C2.49416 21.4449 2.38333 21.6142 2.34553 21.8058C2.30772 21.9973 2.3459 22.1961 2.452 22.36C2.96915 23.1026 3.55217 23.7971 4.194 24.435L2.453 29.08C2.215 29.713 2.911 30.327 3.51 30.007L8.36 27.42C10.802 28.647 13.567 29.293 16.384 29.293C16.801 29.293 17.221 29.279 17.638 29.251L17.637 29.344C17.637 36.831 24.447 42.922 32.818 42.922C34.521 42.922 36.189 42.672 37.784 42.178L42.854 45.22C43.409 45.553 44.114 45.042 43.974 44.412L42.884 39.509C46.142 36.93 48 33.251 48 29.345Z" fill="url(#paint2_linear)"/>
<path d="M28.0076 26.188C27.1707 26.189 26.3684 26.522 25.7768 27.1139C25.1851 27.7057 24.8524 28.5081 24.8516 29.345C24.8526 30.1817 25.1855 30.9838 25.7771 31.5754C26.3687 32.1671 27.1709 32.4999 28.0076 32.501C28.8444 32.5002 29.6468 32.1675 30.2387 31.5758C30.8305 30.9841 31.1635 30.1819 31.1646 29.345C31.1638 28.5079 30.8309 27.7054 30.239 27.1135C29.6471 26.5216 28.8446 26.1888 28.0076 26.188ZM28.0076 30.998C27.5691 30.9975 27.1489 30.823 26.8389 30.5129C26.529 30.2028 26.3548 29.7824 26.3546 29.344C26.3546 28.433 27.0966 27.691 28.0076 27.691C28.9196 27.691 29.6616 28.433 29.6616 29.345C29.6616 30.256 28.9196 30.998 28.0076 30.998Z" fill="url(#paint3_linear)"/>
<path d="M37.6287 26.188C36.7918 26.189 35.9895 26.522 35.3978 27.1139C34.8062 27.7057 34.4735 28.5081 34.4727 29.345C34.4737 30.1817 34.8066 30.9838 35.3982 31.5754C35.9898 32.1671 36.792 32.4999 37.6287 32.501C38.4655 32.5002 39.2679 32.1675 39.8598 31.5758C40.4516 30.9841 40.7846 30.1819 40.7857 29.345C40.7849 28.5079 40.452 27.7054 39.8601 27.1135C39.2682 26.5216 38.4657 26.1888 37.6287 26.188ZM37.6287 30.998C37.1902 30.9975 36.77 30.823 36.46 30.5129C36.1501 30.2028 35.9759 29.7824 35.9757 29.344C35.9757 28.433 36.7177 27.691 37.6287 27.691C38.5407 27.691 39.2827 28.433 39.2827 29.345C39.2827 30.256 38.5407 30.998 37.6287 30.998Z" fill="url(#paint4_linear)"/>
<defs>
<linearGradient id="paint0_linear" x1="47.9997" y1="22.6631" x2="-0.000284377" y2="22.6631" gradientUnits="userSpaceOnUse">
<stop stop-color="#A31FED"/>
<stop offset="1" stop-color="#03EE65"/>
</linearGradient>
<linearGradient id="paint1_linear" x1="47.9984" y1="22.6631" x2="-0.00159264" y2="22.6631" gradientUnits="userSpaceOnUse">
<stop stop-color="#A31FED"/>
<stop offset="1" stop-color="#03EE65"/>
</linearGradient>
<linearGradient id="paint2_linear" x1="48" y1="22.663" x2="0" y2="22.663" gradientUnits="userSpaceOnUse">
<stop stop-color="#A31FED"/>
<stop offset="1" stop-color="#03EE65"/>
</linearGradient>
<linearGradient id="paint3_linear" x1="47.9996" y1="22.663" x2="-0.000442891" y2="22.663" gradientUnits="userSpaceOnUse">
<stop stop-color="#A31FED"/>
<stop offset="1" stop-color="#03EE65"/>
</linearGradient>
<linearGradient id="paint4_linear" x1="48.0007" y1="22.663" x2="0.000658255" y2="22.663" gradientUnits="userSpaceOnUse">
<stop stop-color="#A31FED"/>
<stop offset="1" stop-color="#03EE65"/>
</linearGradient>
</defs>
</svg>
