<svg width="40" height="54" viewBox="0 0 40 54" fill="none" xmlns="http://www.w3.org/2000/svg">
<g clip-path="url(#clip0)">
<path d="M11.1643 48.2236H4.65266C4.406 48.2236 4.16946 48.3143 3.99505 48.4758C3.82064 48.6372 3.72266 48.8562 3.72266 49.0845C3.72266 49.3129 3.82064 49.5319 3.99505 49.6933C4.16946 49.8548 4.406 49.9455 4.65266 49.9455H11.1643C11.411 49.9455 11.6475 49.8548 11.8219 49.6933C11.9963 49.5319 12.0943 49.3129 12.0943 49.0845C12.0943 48.8562 11.9963 48.6372 11.8219 48.4758C11.6475 48.3143 11.411 48.2236 11.1643 48.2236Z" fill="url(#paint0_linear)"/>
<path d="M14.7654 48.2236H13.8362C13.5896 48.2236 13.353 48.3143 13.1786 48.4758C13.0042 48.6372 12.9062 48.8562 12.9062 49.0845C12.9062 49.3129 13.0042 49.5319 13.1786 49.6933C13.353 49.8548 13.5896 49.9455 13.8362 49.9455H14.7663C15.0129 49.9455 15.2495 49.8548 15.4239 49.6933C15.5983 49.5319 15.6963 49.3129 15.6963 49.0845C15.6963 48.8562 15.5983 48.6372 15.4239 48.4758C15.2495 48.3143 15.0129 48.2236 14.7663 48.2236H14.7654Z" fill="url(#paint1_linear)"/>
<path d="M37.2092 18.9447H31.6275V4.30534C31.6262 3.164 31.1359 2.06975 30.2641 1.26263C29.3924 0.45551 28.2104 0.00142934 26.9775 0L4.65 0C3.41707 0.00142934 2.2351 0.45551 1.36336 1.26263C0.491631 2.06975 0.0013231 3.164 0 4.30534L0 49.0845C0.00132351 50.2259 0.491746 51.3203 1.36366 52.1274C2.23557 52.9346 3.41776 53.3886 4.65083 53.3898H26.9767C28.2097 53.3886 29.3919 52.9346 30.2638 52.1274C31.1358 51.3203 31.6262 50.2259 31.6275 49.0845V36.1677H37.2092C37.9492 36.1668 38.6587 35.8943 39.1819 35.4098C39.7051 34.9253 39.9993 34.2684 40 33.5834V21.529C39.9991 20.8441 39.7048 20.1874 39.1816 19.7031C38.6584 19.2188 37.9491 18.9463 37.2092 18.9455V18.9447ZM20.2033 1.7226L19.7383 3.44443H11.8892L11.4242 1.7226H20.2033ZM29.7675 49.0845C29.7664 49.7693 29.472 50.4259 28.9489 50.9101C28.4257 51.3944 27.7165 51.6669 26.9767 51.668H4.65167C3.91147 51.6674 3.20179 51.3949 2.67839 50.9104C2.155 50.4259 1.86066 49.7689 1.86 49.0837V4.30611C1.8611 3.62117 2.15563 2.9646 2.67898 2.48042C3.20233 1.99624 3.91176 1.72398 4.65167 1.72337H9.50583L10.2608 4.51594C10.3112 4.70207 10.4272 4.8673 10.5906 4.9854C10.7539 5.1035 10.9552 5.1677 11.1625 5.1678H20.465C20.6725 5.16783 20.8741 5.1036 21.0376 4.98534C21.2012 4.86707 21.3173 4.70157 21.3675 4.51517L22.1225 1.7226H26.9767C27.7167 1.72342 28.4262 1.99598 28.9494 2.48047C29.4726 2.96496 29.7668 3.62181 29.7675 4.30689V18.9455H14.8833V16.362C14.8833 16.1336 14.7853 15.9145 14.6108 15.753C14.4363 15.5914 14.1997 15.5007 13.9529 15.5007C13.7062 15.5007 13.4695 15.5914 13.295 15.753C13.1205 15.9145 13.0225 16.1336 13.0225 16.362V37.0286C13.0225 37.2569 13.1205 37.4759 13.2949 37.6373C13.4693 37.7988 13.7058 37.8895 13.9525 37.8895C14.1992 37.8895 14.4357 37.7988 14.6101 37.6373C14.7845 37.4759 14.8825 37.2569 14.8825 37.0286V36.1677H29.7658V49.0845H29.7675ZM38.1392 33.5841C38.1387 33.8123 38.0406 34.0311 37.8663 34.1924C37.692 34.3538 37.4557 34.4446 37.2092 34.4451H14.8842V27.5562H38.1392V33.5841ZM38.1392 25.8336H14.8833V24.1118H38.1392V25.8336ZM38.1392 22.3892H14.8833V20.6673H37.2092C37.4557 20.6675 37.6922 20.7583 37.8665 20.9197C38.0409 21.0811 38.1389 21.3 38.1392 21.5283V22.3892Z" fill="url(#paint2_linear)"/>
<path d="M32.6563 31.9165H28.0046C27.7579 31.9165 27.5212 32.0072 27.3467 32.1688C27.1722 32.3303 27.0742 32.5494 27.0742 32.7778C27.0742 33.0062 27.1722 33.2253 27.3467 33.3868C27.5212 33.5484 27.7579 33.6391 28.0046 33.6391H32.6555C32.9022 33.6391 33.1389 33.5484 33.3134 33.3868C33.4879 33.2253 33.5859 33.0062 33.5859 32.7778C33.5859 32.5494 33.4879 32.3303 33.3134 32.1688C33.1389 32.0072 32.9022 31.9165 32.6555 31.9165H32.6563Z" fill="url(#paint3_linear)"/>
<path d="M36.3799 31.9165H35.4499C35.2079 31.9232 34.9783 32.0169 34.8097 32.1777C34.6412 32.3385 34.5469 32.5537 34.5469 32.7778C34.5469 33.0019 34.6412 33.2171 34.8097 33.3779C34.9783 33.5387 35.2079 33.6324 35.4499 33.6391H36.3799C36.6218 33.6324 36.8514 33.5387 37.02 33.3779C37.1886 33.2171 37.2828 33.0019 37.2828 32.7778C37.2828 32.5537 37.1886 32.3385 37.02 32.1777C36.8514 32.0169 36.6218 31.9232 36.3799 31.9165Z" fill="url(#paint4_linear)"/>
</g>
<defs>
<linearGradient id="paint0_linear" x1="40.0018" y1="26.6953" x2="0.00182189" y2="26.6953" gradientUnits="userSpaceOnUse">
<stop stop-color="#A31FED"/>
<stop offset="1" stop-color="#03EE65"/>
</linearGradient>
<linearGradient id="paint1_linear" x1="39.9988" y1="26.6953" x2="-0.00125385" y2="26.6953" gradientUnits="userSpaceOnUse">
<stop stop-color="#A31FED"/>
<stop offset="1" stop-color="#03EE65"/>
</linearGradient>
<linearGradient id="paint2_linear" x1="40" y1="26.6953" x2="0" y2="26.6953" gradientUnits="userSpaceOnUse">
<stop stop-color="#A31FED"/>
<stop offset="1" stop-color="#03EE65"/>
</linearGradient>
<linearGradient id="paint3_linear" x1="39.998" y1="26.6955" x2="-0.00202562" y2="26.6955" gradientUnits="userSpaceOnUse">
<stop stop-color="#A31FED"/>
<stop offset="1" stop-color="#03EE65"/>
</linearGradient>
<linearGradient id="paint4_linear" x1="40.0015" y1="26.6955" x2="0.00148833" y2="26.6955" gradientUnits="userSpaceOnUse">
<stop stop-color="#A31FED"/>
<stop offset="1" stop-color="#03EE65"/>
</linearGradient>
<clipPath id="clip0">
<rect width="40" height="54" fill="white"/>
</clipPath>
</defs>
</svg>
