<svg width="48" height="35" viewBox="0 0 48 35" fill="none" xmlns="http://www.w3.org/2000/svg">
<g clip-path="url(#clip0)">
<path d="M12.3854 14.748H4.64844V16.298H12.3864V14.748H12.3854Z" fill="url(#paint0_linear)"/>
<path d="M16.2614 19.397H4.64844V20.947H16.2614V19.397Z" fill="url(#paint1_linear)"/>
<path d="M32.5214 24.0459H4.64844V25.5959H32.5224V24.0459H32.5214Z" fill="url(#paint2_linear)"/>
<path d="M9.29844 28.6851H4.64844V30.2351H9.29844V28.6851Z" fill="url(#paint3_linear)"/>
<path d="M17.0357 28.6851H12.3867V30.2351H17.0367V28.6851H17.0357Z" fill="url(#paint4_linear)"/>
<path d="M24.7847 28.6851H20.1367V30.2351H24.7847V28.6851Z" fill="url(#paint5_linear)"/>
<path d="M31.7498 13.9731C31.1828 13.9731 30.6638 14.1331 30.2098 14.3981C29.737 14.1207 29.1989 13.974 28.6508 13.9731C26.9408 13.9731 25.5508 15.3621 25.5508 17.0731C25.5508 18.7831 26.9408 20.1721 28.6508 20.1721C29.1994 20.1711 29.7378 20.0241 30.2108 19.7461C30.6638 20.0111 31.1828 20.1721 31.7508 20.1721C33.4608 20.1721 34.8488 18.7821 34.8488 17.0721C34.8483 16.2504 34.5216 15.4625 33.9405 14.8814C33.3595 14.3003 32.5715 13.9737 31.7498 13.9731ZM29.0478 18.5651C28.9188 18.6026 28.7851 18.6218 28.6508 18.6221C27.8008 18.6221 27.1008 17.9221 27.1008 17.0721C27.1008 16.2221 27.8008 15.5221 28.6508 15.5221C28.7828 15.5221 28.9248 15.5511 29.0478 15.5791C28.7899 16.0347 28.6532 16.5487 28.6508 17.0721C28.6508 17.6201 28.8018 18.1221 29.0478 18.5651ZM31.7498 18.6221C30.8998 18.6221 30.1998 17.9221 30.1998 17.0721C30.1998 16.2221 30.8998 15.5221 31.7498 15.5221C32.5998 15.5221 33.2998 16.2221 33.2998 17.0721C33.2998 17.9221 32.5998 18.6221 31.7498 18.6221Z" fill="url(#paint6_linear)"/>
<path d="M46.385 10.3919L13.899 0.129887C13.673 0.0548867 11.859 -0.540113 10.989 1.64189L8.315 10.0999H2.325C1.70953 10.1025 1.11998 10.348 0.684586 10.7831C0.249189 11.2181 0.00315767 11.8074 2.15351e-07 12.4229V32.5599C-0.000131207 32.8651 0.0598911 33.1674 0.176637 33.4494C0.293382 33.7314 0.464561 33.9877 0.680391 34.2035C0.89622 34.4193 1.15247 34.5905 1.43449 34.7072C1.71651 34.824 2.01877 34.884 2.324 34.8839H36.397C37.21 34.8839 37.918 34.4689 38.334 33.8359C38.334 33.8359 39.383 34.1279 39.619 34.1279C40.639 34.1279 41.528 33.4759 41.83 32.5029L47.896 13.3029C48.086 12.7169 48.218 10.8839 46.385 10.3929V10.3919ZM11.528 5.06189L27.487 10.0999H17.197L10.592 8.01189L11.528 5.06389V5.06189ZM10.129 9.49389L12.066 10.1079H9.94L10.13 9.49389H10.129ZM37.172 32.5599H37.162C37.162 32.9849 36.812 33.3349 36.388 33.3349H2.324C2.11887 33.3338 1.92246 33.2518 1.77751 33.1067C1.63256 32.9615 1.55079 32.765 1.55 32.5599V12.4229C1.55 11.9979 1.9 11.6489 2.324 11.6489H36.397C36.822 11.6489 37.172 11.9989 37.172 12.4229V32.5599ZM40.356 32.0399C40.2916 32.2341 40.1536 32.3953 39.9717 32.489C39.7898 32.5826 39.5785 32.6013 39.383 32.5409L38.713 32.3329V18.5269L44.089 20.2279L40.356 32.0389V32.0399ZM44.551 18.7459L38.712 16.9029V13.6529L45.487 15.7879L44.551 18.7459ZM46.422 12.8399L45.959 14.3139L38.674 12.0179C38.5776 11.4836 38.297 11 37.881 10.6513C37.465 10.3025 36.9399 10.1106 36.397 10.1089H32.627L11.991 3.58889L12.454 2.11589C12.5175 1.92107 12.6553 1.75918 12.8375 1.66538C13.0197 1.57158 13.2315 1.55343 13.427 1.61489L45.912 11.8669C46.564 12.0369 46.479 12.6419 46.422 12.8399Z" fill="url(#paint7_linear)"/>
</g>
<defs>
<linearGradient id="paint0_linear" x1="47.9984" y1="17.442" x2="-0.00156279" y2="17.442" gradientUnits="userSpaceOnUse">
<stop stop-color="#A31FED"/>
<stop offset="1" stop-color="#03EE65"/>
</linearGradient>
<linearGradient id="paint1_linear" x1="47.9994" y1="17.442" x2="-0.000561237" y2="17.442" gradientUnits="userSpaceOnUse">
<stop stop-color="#A31FED"/>
<stop offset="1" stop-color="#03EE65"/>
</linearGradient>
<linearGradient id="paint2_linear" x1="47.9984" y1="17.4419" x2="-0.00156291" y2="17.4419" gradientUnits="userSpaceOnUse">
<stop stop-color="#A31FED"/>
<stop offset="1" stop-color="#03EE65"/>
</linearGradient>
<linearGradient id="paint3_linear" x1="48.0004" y1="17.442" x2="0.000436068" y2="17.442" gradientUnits="userSpaceOnUse">
<stop stop-color="#A31FED"/>
<stop offset="1" stop-color="#03EE65"/>
</linearGradient>
<linearGradient id="paint4_linear" x1="47.9997" y1="17.442" x2="-0.000282286" y2="17.442" gradientUnits="userSpaceOnUse">
<stop stop-color="#A31FED"/>
<stop offset="1" stop-color="#03EE65"/>
</linearGradient>
<linearGradient id="paint5_linear" x1="48.0007" y1="17.442" x2="0.000715972" y2="17.442" gradientUnits="userSpaceOnUse">
<stop stop-color="#A31FED"/>
<stop offset="1" stop-color="#03EE65"/>
</linearGradient>
<linearGradient id="paint6_linear" x1="48.0018" y1="17.4421" x2="0.00178063" y2="17.4421" gradientUnits="userSpaceOnUse">
<stop stop-color="#A31FED"/>
<stop offset="1" stop-color="#03EE65"/>
</linearGradient>
<linearGradient id="paint7_linear" x1="48" y1="17.4419" x2="0" y2="17.4419" gradientUnits="userSpaceOnUse">
<stop stop-color="#A31FED"/>
<stop offset="1" stop-color="#03EE65"/>
</linearGradient>
<clipPath id="clip0">
<rect width="48" height="35" fill="white"/>
</clipPath>
</defs>
</svg>
