<svg width="48" height="63" viewBox="0 0 48 63" fill="none" xmlns="http://www.w3.org/2000/svg">
<g clip-path="url(#clip0)">
<path d="M42.783 16.716H40.886C37.493 11.439 30.464 9.91101 25.186 13.303C25.074 13.3749 24.9633 13.4489 24.854 13.525C25.984 7.28801 21.842 1.31501 15.604 0.185014C9.366 -0.943986 3.394 3.19701 2.264 9.43501C1.794 12.035 2.234 14.717 3.511 17.029C2.48931 17.3814 1.60251 18.0429 0.973446 18.9217C0.344382 19.8005 0.00419109 20.8533 0 21.934L0 57.412C0.00158747 58.7953 0.551712 60.1214 1.52972 61.0996C2.50772 62.0778 3.83376 62.6282 5.217 62.63H42.783C44.1662 62.6282 45.4923 62.0778 46.4703 61.0996C47.4483 60.1214 47.9984 58.7953 48 57.412V21.934C47.9984 20.5508 47.4483 19.2246 46.4703 18.2464C45.4923 17.2682 44.1662 16.7179 42.783 16.716ZM31.29 13.585C32.9399 13.5836 34.561 14.0171 35.9899 14.8419C37.4188 15.6667 38.605 16.8536 39.429 18.283C40.2565 19.7095 40.6935 21.3289 40.696 22.978C40.6972 24.0446 40.5145 25.1035 40.156 26.108H37.896C38.6545 24.5221 38.8135 22.7154 38.3437 21.0214C37.8738 19.3274 36.8069 17.8607 35.34 16.892C34.1387 16.1121 32.7372 15.6971 31.305 15.6971C29.8728 15.6971 28.4713 16.1121 27.27 16.892C25.8026 17.8606 24.7354 19.3274 24.2654 21.0216C23.7954 22.7159 23.9544 24.5229 24.713 26.109H22.453C21.9507 24.6938 21.7954 23.1786 22.0001 21.6909C22.2047 20.2032 22.7634 18.7863 23.6292 17.5593C24.495 16.3322 25.6427 15.3309 26.9757 14.6393C28.3087 13.9478 29.7883 13.5862 31.29 13.585ZM35.68 25.775C35.6055 25.8895 35.5264 26.0009 35.443 26.109H27.166C26.4733 25.2119 26.0939 24.1124 26.086 22.979C26.0855 22.1174 26.2988 21.2691 26.7066 20.5101C27.1145 19.7511 27.7042 19.1051 28.423 18.63C29.2808 18.0733 30.2814 17.7771 31.304 17.7771C32.3266 17.7771 33.3272 18.0733 34.185 18.63C34.7524 19.001 35.2412 19.4802 35.6234 20.0401C36.0056 20.6 36.2738 21.2298 36.4126 21.8934C36.5515 22.5569 36.5582 23.2414 36.4325 23.9076C36.3068 24.5737 36.0511 25.2087 35.68 25.776V25.775ZM13.565 2.10901C14.7982 2.10901 16.0194 2.35192 17.1588 2.82386C18.2981 3.2958 19.3334 3.98754 20.2054 4.85957C21.0775 5.73161 21.7692 6.76687 22.2412 7.90623C22.7131 9.0456 22.956 10.2668 22.956 11.5C22.956 13.9907 21.9666 16.3793 20.2054 18.1405C18.4443 19.9016 16.0556 20.891 13.565 20.891C11.0744 20.891 8.68571 19.9016 6.92456 18.1405C5.16341 16.3793 4.174 13.9907 4.174 11.5C4.17718 9.01034 5.1676 6.62355 6.92807 4.86308C8.68853 3.10261 11.0753 2.11219 13.565 2.10901ZM2.087 21.934C2.08974 21.185 2.36096 20.4619 2.85142 19.8958C3.34188 19.3298 4.01905 18.9584 4.76 18.849C6.58283 21.0407 9.15764 22.4736 11.9809 22.8675C14.8042 23.2614 17.6729 22.588 20.026 20.979C19.8999 21.6377 19.833 22.3064 19.826 22.977C19.829 24.037 19.981 25.09 20.276 26.107H5.217C4.38687 26.107 3.59074 25.7772 3.00376 25.1903C2.41677 24.6033 2.087 23.8071 2.087 22.977V21.934ZM15.652 45.934C15.5122 45.9383 15.373 45.9146 15.2427 45.8641C15.1123 45.8136 14.9934 45.7374 14.893 45.6401C14.7926 45.5427 14.7128 45.4262 14.6583 45.2975C14.6038 45.1687 14.5757 45.0303 14.5757 44.8905C14.5757 44.7507 14.6038 44.6123 14.6583 44.4835C14.7128 44.3548 14.7926 44.2383 14.893 44.141C14.9934 44.0436 15.1123 43.9675 15.2427 43.917C15.373 43.8665 15.5122 43.8427 15.652 43.847C15.9232 43.8554 16.1804 43.969 16.3692 44.1638C16.5581 44.3586 16.6637 44.6192 16.6637 44.8905C16.6637 45.1618 16.5581 45.4224 16.3692 45.6172C16.1804 45.812 15.9232 45.9256 15.652 45.934ZM45.913 44.89H28.173C27.762 44.89 27.3549 44.8091 26.9752 44.6518C26.5955 44.4945 26.2504 44.2639 25.9598 43.9733C25.6691 43.6826 25.4386 43.3376 25.2813 42.9578C25.124 42.5781 25.043 42.1711 25.043 41.76C25.043 41.349 25.124 40.942 25.2813 40.5622C25.4386 40.1825 25.6691 39.8374 25.9598 39.5468C26.2504 39.2561 26.5955 39.0256 26.9752 38.8683C27.3549 38.711 27.762 38.63 28.173 38.63H45.913V44.89ZM45.913 36.543H28.173C26.7894 36.543 25.4624 37.0927 24.484 38.071C23.5056 39.0494 22.956 40.3764 22.956 41.76C22.956 43.1436 23.5056 44.4706 24.484 45.449C25.4624 46.4274 26.7894 46.977 28.173 46.977H45.913V57.412C45.913 58.2421 45.5832 59.0383 44.9962 59.6253C44.4093 60.2122 43.6131 60.542 42.783 60.542H21.913V55.847L25.391 53.238H27.322C27.5682 53.9341 28.0525 54.5208 28.6893 54.8943C29.3262 55.2679 30.0746 55.4043 30.8023 55.2794C31.53 55.1545 32.1901 54.7764 32.666 54.2119C33.1419 53.6474 33.4029 52.9329 33.4029 52.1945C33.4029 51.4562 33.1419 50.7416 32.666 50.1771C32.1901 49.6126 31.53 49.2345 30.8023 49.1096C30.0746 48.9847 29.3262 49.1211 28.6893 49.4947C28.0525 49.8682 27.5682 50.4549 27.322 51.151H25.044C24.818 51.151 24.598 51.224 24.417 51.36L20.243 54.49C20.1135 54.5873 20.0084 54.7134 19.936 54.8583C19.8636 55.0032 19.826 55.163 19.826 55.325V60.543H16.696V47.829C17.3921 47.5829 17.9788 47.0986 18.3523 46.4617C18.7259 45.8248 18.8623 45.0764 18.7374 44.3487C18.6125 43.621 18.2344 42.9609 17.6699 42.485C17.1054 42.0091 16.3908 41.7481 15.6525 41.7481C14.9142 41.7481 14.1996 42.0091 13.6351 42.485C13.0706 42.9609 12.6925 43.621 12.5676 44.3487C12.4427 45.0764 12.5791 45.8248 12.9527 46.4617C13.3262 47.0986 13.9129 47.5829 14.609 47.829V60.543H11.479V52.195C11.479 51.918 11.369 51.653 11.173 51.457L8.348 48.632V43.655C9.0441 43.4089 9.63077 42.9246 10.0043 42.2877C10.3779 41.6508 10.5143 40.9024 10.3894 40.1747C10.2645 39.447 9.88643 38.7869 9.32192 38.311C8.75741 37.8351 8.04284 37.5741 7.3045 37.5741C6.56616 37.5741 5.85159 37.8351 5.28708 38.311C4.72257 38.7869 4.34447 39.447 4.21959 40.1747C4.09472 40.9024 4.23111 41.6508 4.60467 42.2877C4.97823 42.9246 5.5649 43.4089 6.261 43.655V49.065C6.261 49.341 6.371 49.606 6.567 49.802L9.391 52.627V60.543H5.217C4.38687 60.543 3.59074 60.2132 3.00376 59.6263C2.41677 59.0393 2.087 58.2431 2.087 57.413V27.123C2.98472 27.8134 4.08454 28.1893 5.217 28.193H42.783C43.9155 28.1893 45.0153 27.8134 45.913 27.123V36.542V36.543ZM29.217 52.195C29.217 51.9183 29.3269 51.6528 29.5226 51.4571C29.7183 51.2615 29.9837 51.1515 30.2605 51.1515C30.5373 51.1515 30.8027 51.2615 30.9984 51.4571C31.1941 51.6528 31.304 51.9183 31.304 52.195C31.304 52.4718 31.1941 52.7372 30.9984 52.9329C30.8027 53.1286 30.5373 53.2385 30.2605 53.2385C29.9837 53.2385 29.7183 53.1286 29.5226 52.9329C29.3269 52.7372 29.217 52.4718 29.217 52.195ZM7.304 41.76C7.16425 41.7643 7.02505 41.7406 6.89467 41.6901C6.76428 41.6396 6.64537 41.5634 6.54499 41.4661C6.4446 41.3687 6.36479 41.2522 6.31028 41.1235C6.25578 40.9947 6.22769 40.8563 6.22769 40.7165C6.22769 40.5767 6.25578 40.4383 6.31028 40.3095C6.36479 40.1808 6.4446 40.0643 6.54499 39.967C6.64537 39.8696 6.76428 39.7935 6.89467 39.743C7.02505 39.6925 7.16425 39.6687 7.304 39.673C7.57516 39.6814 7.83241 39.795 8.02125 39.9898C8.21009 40.1846 8.31569 40.4452 8.31569 40.7165C8.31569 40.9878 8.21009 41.2484 8.02125 41.4432C7.83241 41.638 7.57516 41.7516 7.304 41.76ZM45.913 22.977C45.913 23.8071 45.5832 24.6033 44.9962 25.1903C44.4093 25.7772 43.6131 26.107 42.783 26.107H42.333C43.0368 23.7013 42.9114 21.1289 41.977 18.803H42.783C43.6131 18.803 44.4093 19.1328 44.9962 19.7198C45.5832 20.3068 45.913 21.1029 45.913 21.933V22.977Z" fill="url(#paint0_linear)"/>
<path d="M13.5657 4.19482C11.6286 4.19482 9.77078 4.96435 8.40101 6.33412C7.03125 7.70388 6.26172 9.56168 6.26172 11.4988C6.2641 13.4352 7.03439 15.2917 8.40364 16.6609C9.77289 18.0302 11.6293 18.8004 13.5657 18.8028C15.5029 18.8028 17.3607 18.0333 18.7304 16.6635C20.1002 15.2938 20.8697 13.436 20.8697 11.4988C20.8697 9.56168 20.1002 7.70388 18.7304 6.33412C17.3607 4.96435 15.5029 4.19482 13.5657 4.19482ZM13.5657 16.7158C12.1823 16.7158 10.8554 16.1663 9.8771 15.1882C8.89875 14.21 8.34898 12.8833 8.34872 11.4998C8.35057 10.1168 8.90081 8.79087 9.87879 7.81289C10.8568 6.83492 12.1827 6.28468 13.5657 6.28282C14.9494 6.28282 16.2763 6.83247 17.2547 7.81085C18.2331 8.78923 18.7827 10.1162 18.7827 11.4998C18.7827 12.8835 18.2331 14.2104 17.2547 15.1888C16.2763 16.1672 14.9494 16.7168 13.5657 16.7168V16.7158Z" fill="url(#paint1_linear)"/>
<path d="M29.2159 0.0200195H27.1289V2.10802H29.2159V0.0200195Z" fill="url(#paint2_linear)"/>
<path d="M29.2159 4.19482H27.1289V9.41182H29.2159V4.19482Z" fill="url(#paint3_linear)"/>
<path d="M33.3917 0.0200195H31.3047V2.10802H33.3917V0.0200195Z" fill="url(#paint4_linear)"/>
<path d="M33.3917 4.19482H31.3047V9.41182H33.3917V4.19482Z" fill="url(#paint5_linear)"/>
</g>
<defs>
<linearGradient id="paint0_linear" x1="48" y1="31.315" x2="0" y2="31.315" gradientUnits="userSpaceOnUse">
<stop stop-color="#A31FED"/>
<stop offset="1" stop-color="#03EE65"/>
</linearGradient>
<linearGradient id="paint1_linear" x1="48.0007" y1="31.3148" x2="0.00071907" y2="31.3148" gradientUnits="userSpaceOnUse">
<stop stop-color="#A31FED"/>
<stop offset="1" stop-color="#03EE65"/>
</linearGradient>
<linearGradient id="paint2_linear" x1="47.9989" y1="31.315" x2="-0.00109279" y2="31.315" gradientUnits="userSpaceOnUse">
<stop stop-color="#A31FED"/>
<stop offset="1" stop-color="#03EE65"/>
</linearGradient>
<linearGradient id="paint3_linear" x1="47.9989" y1="31.3148" x2="-0.00109279" y2="31.3148" gradientUnits="userSpaceOnUse">
<stop stop-color="#A31FED"/>
<stop offset="1" stop-color="#03EE65"/>
</linearGradient>
<linearGradient id="paint4_linear" x1="48.0007" y1="31.315" x2="0.000717997" y2="31.315" gradientUnits="userSpaceOnUse">
<stop stop-color="#A31FED"/>
<stop offset="1" stop-color="#03EE65"/>
</linearGradient>
<linearGradient id="paint5_linear" x1="48.0007" y1="31.3148" x2="0.000717997" y2="31.3148" gradientUnits="userSpaceOnUse">
<stop stop-color="#A31FED"/>
<stop offset="1" stop-color="#03EE65"/>
</linearGradient>
<clipPath id="clip0">
<rect width="48" height="63" fill="white"/>
</clipPath>
</defs>
</svg>
