<svg width="48" height="48" viewBox="0 0 48 48" fill="none" xmlns="http://www.w3.org/2000/svg">
<path d="M43.32 11.333H36.568V4.667H43.32V11.333ZM4.613 4.667V11.333H11.365V4.667H4.613ZM4.613 43.333H11.365V36.6H4.613V43.333ZM0 32.067H15.91V47.933H0V32.067ZM2.14 45.8H13.772V34.2H2.139V45.8H2.14ZM15.91 15.933H0V0.067H15.91V15.933ZM13.773 2.2H2.139V13.8H13.772V2.2H13.773ZM47.933 0.067V15.933H32.023V0.067H47.933ZM34.228 2.2V13.8H45.861V2.2H34.228ZM29.616 0H27.343V2.267H29.616V0ZM34.296 31.933H32.022V34.2H34.295V31.933H34.296ZM13.771 22.8H18.183V25.067H11.498V20.533H13.771V18.267H18.25V0H25.002V2.267H20.522V4.667H29.615V11.467H27.41V13.733H29.616V18.2H41.047V20.467H38.841V22.733H41.047V25H36.568V20.467H34.295V25H29.75V22.733H32.023V20.467H29.683V18.2H27.41V20.533H29.616V22.8H27.41V25.067H25.07V27.333H20.457V22.6H18.25V20.467H13.77V22.8H13.771ZM20.523 18.267H22.729V22.867H25.069V18.133H22.796V13.667H25.069V16H27.275V13.733H25.07V11.467H27.276V6.933H25.07V9.2H22.797V6.933H20.524V11.467H22.73V13.733H20.524V18.267H20.523ZM18.183 47.933H25.069V45.6H18.183V47.933ZM11.297 29.733V25.2H6.82V27.467H9.026V29.733H11.299H11.297ZM6.685 27.4H2.273V25.133H6.685V22.867H9.025V20.467H11.298V18.2H9.025V20.4H2.273V18.2H0V20.467H2.206V22.8H0V29.733H6.685V27.4ZM13.638 27.4V29.667H18.184V27.4H13.638ZM29.683 38.867H34.228V36.6H29.682V38.867H29.683ZM22.797 34.2H25.003V31.933H22.863V29.8H18.318V34.2H20.524V36.467H22.797V34.2ZM45.66 20.533H47.933V18.267H45.66V20.533ZM43.32 20.533V29.733H48V25.133H45.66V20.533H43.32ZM45.727 48H47.933V45.6H45.727V48ZM18.251 38.867H20.524V36.6H18.25V38.867H18.251ZM45.661 31.933H41.114V29.8H38.908V27.533H36.635V25.267H34.362V27.533H27.41V34.267H25.07V38.8H22.798V41.067H20.525V43.333H27.411V41.067H29.684V38.8H27.41V36.4H29.616V32.067H31.956V29.8H36.568V43.4H34.295V41.133H32.022V43.4H29.75V45.6H27.41V47.933H34.296V45.6H38.842V48H41.048V45.6H38.842V43.333H41.048V41.067H38.842V38.867H41.048V36.6H38.842V32.133H41.048V34.267H43.321V38.867H41.115V41.067H47.867V38.867H45.594V31.933H45.661Z" fill="url(#paint0_linear)"/>
<defs>
<linearGradient id="paint0_linear" x1="48" y1="24" x2="0" y2="24" gradientUnits="userSpaceOnUse">
<stop stop-color="#A31FED"/>
<stop offset="1" stop-color="#03EE65"/>
</linearGradient>
</defs>
</svg>
