<svg width="36" height="55" viewBox="0 0 36 55" fill="none" xmlns="http://www.w3.org/2000/svg">
<path d="M18.001 21.9715C17.455 21.9715 17.0117 22.4487 17.0117 23.0383V26.5163C17.0117 26.7992 17.1159 27.0706 17.3015 27.2707C17.487 27.4707 17.7386 27.5831 18.001 27.5831C18.2633 27.5831 18.515 27.4707 18.7005 27.2707C18.886 27.0706 18.9902 26.7992 18.9902 26.5163V23.0383C18.9902 22.4487 18.5477 21.9707 18.001 21.9707V21.9715Z" fill="url(#paint0_linear)"/>
<path d="M13.8455 15.4648C13.5829 15.4648 13.3311 15.5773 13.1454 15.7775C12.9598 15.9778 12.8555 16.2493 12.8555 16.5325V19.8535C12.8555 20.1365 12.9597 20.4078 13.1452 20.6079C13.3307 20.808 13.5824 20.9204 13.8447 20.9204C14.1071 20.9204 14.3587 20.808 14.5442 20.6079C14.7297 20.4078 14.834 20.1365 14.834 19.8535V16.5325C14.834 15.9429 14.3915 15.4648 13.8447 15.4648H13.8455Z" fill="url(#paint1_linear)"/>
<path d="M18.001 30.249C17.7388 30.2499 17.4877 30.3626 17.3023 30.5624C17.117 30.7623 17.0125 31.0332 17.0117 31.3159C17.0117 31.5965 17.1175 31.8699 17.302 32.0697C17.4857 32.2679 17.7407 32.3819 18.001 32.3819C18.2629 32.3808 18.5138 32.2682 18.6991 32.0685C18.8844 31.8689 18.989 31.5983 18.9902 31.3159C18.9894 31.0332 18.8849 30.7623 18.6996 30.5624C18.5143 30.3626 18.2631 30.2499 18.001 30.249Z" fill="url(#paint2_linear)"/>
<path d="M26.7045 15.8424C26.7031 14.5416 26.2233 13.2945 25.3704 12.3747C24.5175 11.4549 23.3611 10.9375 22.155 10.936C20.9488 10.9375 19.7924 11.4549 18.9395 12.3747C18.0866 13.2945 17.6069 14.5416 17.6055 15.8424C17.6069 17.1431 18.0866 18.3902 18.9395 19.31C19.7924 20.2298 20.9488 20.7472 22.155 20.7487C23.3611 20.7472 24.5175 20.2298 25.3704 19.31C26.2233 18.3902 26.7031 17.1431 26.7045 15.8424ZM19.584 15.8424C19.5846 15.1071 19.8556 14.4022 20.3376 13.8822C20.8196 13.3623 21.4732 13.0698 22.155 13.0689C22.8369 13.0695 23.4906 13.362 23.9728 13.8819C24.455 14.4019 24.7261 15.107 24.7267 15.8424C24.7259 16.5774 24.4548 17.2822 23.9728 17.802C23.4908 18.3218 22.8373 18.6142 22.1557 18.615C21.4738 18.6146 20.82 18.3224 20.3377 17.8025C19.8553 17.2827 19.584 16.5777 19.5832 15.8424H19.584Z" fill="url(#paint3_linear)"/>
<path d="M23.2425 26.404L28.3605 23.1736C29.6301 22.3683 30.6831 21.2199 31.4157 19.8418C32.1483 18.4638 32.5351 16.9035 32.538 15.3151V7.25272H35.0107C35.5575 7.25272 36 6.77551 36 6.18588V1.06603C36 0.477206 35.5575 0 35.0107 0H0.99C0.4425 0 0 0.477206 0 1.06684V6.18669C0 6.77551 0.4425 7.25272 0.98925 7.25272H3.46125V15.3151C3.46125 18.535 5.0625 21.5462 7.63875 23.1736L12.7568 26.404C13.1723 26.6661 13.2172 27.0964 13.2172 27.2695C13.2172 27.4418 13.1723 27.8721 12.7568 28.1341L7.6395 31.3646C6.37 32.1698 5.31705 33.318 4.58448 34.696C3.85192 36.0739 3.46504 37.6339 3.462 39.2223V47.3566H0.9885C0.4425 47.3566 0 47.8338 0 48.4243V53.5433C0 54.1321 0.4425 54.6101 0.98925 54.6101H35.01C35.2724 54.6099 35.5241 54.4974 35.7096 54.2972C35.8951 54.097 35.9993 53.8255 35.9993 53.5425V48.4235C35.9993 47.8346 35.5568 47.3566 35.01 47.3566H32.538V39.2231C32.5348 37.6348 32.1479 36.0748 31.4153 34.6969C30.6828 33.319 29.6299 32.1708 28.3605 31.3654L23.2418 28.1341C23.1007 28.0471 22.9838 27.9211 22.903 27.7691C22.8222 27.6171 22.7804 27.4447 22.782 27.2695C22.782 27.0972 22.827 26.6669 23.2418 26.4049L23.2425 26.404ZM1.977 2.13287H34.0215V5.11985H1.97775V2.13287H1.977ZM16.4175 7.67978C16.4167 8.41487 16.1456 9.11961 15.6636 9.63939C15.1816 10.1592 14.5281 10.4516 13.8465 10.4524C13.4756 10.4518 13.1092 10.3647 12.7725 10.1971C12.4357 10.0295 12.1365 9.78545 11.8953 9.48158C11.6541 9.1777 11.4767 8.82122 11.3752 8.43652C11.2736 8.05183 11.2504 7.64801 11.307 7.25272H16.3853C16.4062 7.39426 16.4175 7.53743 16.4175 7.67978ZM34.0222 52.4757H1.97775V49.4895H13.5502C13.8078 49.4818 14.0524 49.3661 14.2321 49.167C14.4117 48.9678 14.5123 48.7009 14.5123 48.423C14.5123 48.1452 14.4117 47.8783 14.2321 47.6791C14.0524 47.48 13.8078 47.3643 13.5502 47.3566H6.27375L13.6702 39.38C16.0575 36.8055 19.9425 36.8055 22.3298 39.38L29.7262 47.3558H22.4505C22.1881 47.3558 21.9365 47.4682 21.751 47.6683C21.5655 47.8683 21.4613 48.1397 21.4613 48.4226C21.4613 48.7056 21.5655 48.9769 21.751 49.177C21.9365 49.3771 22.1881 49.4895 22.4505 49.4895H34.0222V52.4757ZM22.2428 29.975L27.3615 33.2062C28.3336 33.823 29.1399 34.7024 29.7009 35.7576C30.2618 36.8129 30.558 38.0076 30.5603 39.2239V45.2399L23.7285 37.8724C20.5702 34.4656 15.4297 34.4656 12.2715 37.8724L5.439 45.2407V39.2231C5.44146 38.0068 5.73784 36.8122 6.2989 35.7571C6.85996 34.702 7.66633 33.8228 8.6385 33.2062L13.7565 29.9758C14.1963 29.7016 14.561 29.3068 14.8137 28.8315C15.0663 28.3562 15.1979 27.8173 15.195 27.2695C15.1977 26.7218 15.0661 26.183 14.8135 25.7079C14.5608 25.2328 14.1962 24.8381 13.7565 24.564L8.6385 21.3327C7.66637 20.7162 6.86006 19.837 6.29912 18.7818C5.73819 17.7267 5.44199 16.5321 5.43975 15.3159V7.25272H9.31575C9.30373 7.39471 9.29747 7.5372 9.297 7.67978C9.29859 8.98042 9.77844 10.2273 10.6313 11.1469C11.4842 12.0665 12.6405 12.5838 13.8465 12.5853C15.0525 12.5838 16.2088 12.0665 17.0617 11.1469C17.9146 10.2273 18.3944 8.98042 18.396 7.67978C18.396 7.53743 18.3885 7.39507 18.3765 7.25272H30.5603V15.3151C30.5603 17.7812 29.3347 20.0871 27.3615 21.3327L22.2428 24.5632C21.8031 24.8373 21.4384 25.2319 21.1858 25.7071C20.9332 26.1822 20.8015 26.721 20.8043 27.2687C20.8015 27.8164 20.9332 28.3551 21.1858 28.8303C21.4384 29.3054 21.8031 29.7001 22.2428 29.9742V29.975Z" fill="url(#paint4_linear)"/>
<path d="M18.001 47.3564C17.7407 47.3564 17.4857 47.4697 17.302 47.6687C17.1171 47.869 17.0128 48.1398 17.0117 48.4225C17.0129 48.705 17.1175 48.9756 17.3028 49.1754C17.488 49.3752 17.739 49.488 18.001 49.4893C18.263 49.488 18.5139 49.3752 18.6992 49.1754C18.8844 48.9756 18.989 48.705 18.9902 48.4225C18.9902 48.1418 18.8845 47.8668 18.7 47.6687C18.5141 47.4695 18.263 47.3573 18.001 47.3564Z" fill="url(#paint5_linear)"/>
<defs>
<linearGradient id="paint0_linear" x1="36.001" y1="27.3041" x2="0.000965474" y2="27.3041" gradientUnits="userSpaceOnUse">
<stop stop-color="#A31FED"/>
<stop offset="1" stop-color="#03EE65"/>
</linearGradient>
<linearGradient id="paint1_linear" x1="35.999" y1="27.3044" x2="-0.0010333" y2="27.3044" gradientUnits="userSpaceOnUse">
<stop stop-color="#A31FED"/>
<stop offset="1" stop-color="#03EE65"/>
</linearGradient>
<linearGradient id="paint2_linear" x1="36.001" y1="27.3041" x2="0.000965474" y2="27.3041" gradientUnits="userSpaceOnUse">
<stop stop-color="#A31FED"/>
<stop offset="1" stop-color="#03EE65"/>
</linearGradient>
<linearGradient id="paint3_linear" x1="36.0015" y1="27.3042" x2="0.00147048" y2="27.3042" gradientUnits="userSpaceOnUse">
<stop stop-color="#A31FED"/>
<stop offset="1" stop-color="#03EE65"/>
</linearGradient>
<linearGradient id="paint4_linear" x1="36" y1="27.3043" x2="0" y2="27.3043" gradientUnits="userSpaceOnUse">
<stop stop-color="#A31FED"/>
<stop offset="1" stop-color="#03EE65"/>
</linearGradient>
<linearGradient id="paint5_linear" x1="36.001" y1="27.3041" x2="0.000965474" y2="27.3041" gradientUnits="userSpaceOnUse">
<stop stop-color="#A31FED"/>
<stop offset="1" stop-color="#03EE65"/>
</linearGradient>
</defs>
</svg>
