<svg width="48" height="49" viewBox="0 0 48 49" fill="none" xmlns="http://www.w3.org/2000/svg">
<path fill-rule="evenodd" clip-rule="evenodd" d="M28.047 0.0417998C27.165 0.2648 26.932 0.3698 26.388 0.7868C25.955 1.1198 25.508 1.7538 25.309 2.3148C25.176 2.6908 25.117 2.8948 24.739 4.2898L23.964 7.1318C23.8157 7.67779 23.6687 8.22413 23.523 8.7708C23.386 9.2828 23.187 10.0208 23.081 10.4088C22.6694 11.9183 22.2597 13.4283 21.852 14.9388C21.5809 15.9574 21.3052 16.9747 21.025 17.9908L20.639 19.4048C20.3547 20.4426 20.0737 21.4812 19.796 22.5208C19.659 23.0328 19.456 23.7848 19.345 24.1908C18.839 26.0358 18.788 26.3118 18.953 26.3118C19.023 26.3118 20.587 24.7598 20.718 24.5588C20.774 24.4748 20.902 24.0898 21.005 23.7038C21.18 23.0388 21.344 22.4338 21.785 20.8178C21.891 20.4298 22.089 19.6918 22.225 19.1798C22.362 18.6668 22.561 17.9298 22.667 17.5408C23.2282 15.4859 23.7852 13.4299 24.338 11.3728C24.7277 9.94884 25.116 8.52451 25.503 7.0998C25.959 5.4318 26.104 4.8938 26.307 4.1118C26.619 2.9098 26.716 2.6438 26.979 2.2668C27.482 1.5468 28.37 1.3408 29.557 1.6668C29.892 1.7608 30.471 1.9188 30.842 2.0198L32.223 2.3958C33.859 2.8418 34.457 3.0038 35.34 3.2388C35.852 3.3758 36.59 3.5738 36.978 3.6808C39.4929 4.36733 42.0096 5.04733 44.528 5.7208C45.378 5.9428 45.438 5.9728 45.868 6.3998C46.53 7.0548 46.608 7.6368 46.226 9.0598L45.754 10.8268C45.4804 11.8564 45.2021 12.8848 44.919 13.9118L44.533 15.3258C44.2511 16.3525 43.9728 17.3802 43.698 18.4088C43.4236 19.4383 43.1449 20.4666 42.862 21.4938L42.477 22.9078C42.1951 23.9345 41.9168 24.9622 41.642 25.9908C41.3682 27.0201 41.0896 28.0481 40.806 29.0748C40.432 30.4418 40.224 31.2908 40.223 31.4458C40.223 31.5418 40.339 31.7258 40.528 31.9308C40.696 32.1118 40.898 32.3388 40.978 32.4348C41.196 32.6988 41.359 32.6648 41.448 32.3348L41.645 31.6128C41.884 30.7458 42.155 29.7408 42.401 28.8178C42.538 28.3048 42.741 27.5538 42.851 27.1478L43.627 24.3028C44.07 22.6828 44.223 22.1158 44.457 21.2358L44.903 19.5808C45.785 16.3508 45.867 16.0478 46.128 15.0678C46.4024 14.038 46.6811 13.0093 46.964 11.9818L47.354 10.5528C48 8.1838 48.083 7.7198 47.941 7.2538C47.8934 7.09575 47.8467 6.93742 47.801 6.7788C47.647 6.2448 47.428 5.8988 46.931 5.4018C46.386 4.8558 45.936 4.5928 45.21 4.3938C44.3726 4.16433 43.535 3.936 42.697 3.7088C41.6589 3.42406 40.6199 3.14272 39.58 2.8648C38.5455 2.58925 37.5121 2.30925 36.48 2.0248L33.652 1.2548C30.726 0.4538 29.634 0.1618 29.3 0.0897999C28.848 -0.00920015 28.328 -0.0292002 28.047 0.0417998ZM36.584 9.3438C36.044 9.6718 36.031 10.0928 36.528 11.0838C36.722 11.4708 36.922 11.8968 36.971 12.0298C37.021 12.1638 37.119 12.4228 37.19 12.6068C37.3 12.8938 37.62 14.0988 37.748 14.7138C37.85 15.2008 37.927 16.2078 37.927 17.0588C37.927 17.9108 37.85 18.9188 37.748 19.4048C37.62 20.0198 37.3 21.2248 37.19 21.5118C37.119 21.6958 37.02 21.9548 36.971 22.0888C36.921 22.2218 36.722 22.6478 36.528 23.0348C36.083 23.9218 36.058 24.2148 36.393 24.5508C36.578 24.7358 36.657 24.7698 36.905 24.7698C37.343 24.7698 37.58 24.5268 38.043 23.6028C38.421 22.8498 38.479 22.7128 38.79 21.8458C38.982 21.3138 39.305 20.0758 39.395 19.5328C39.47 19.0818 39.588 17.5688 39.588 17.0588C39.588 16.6308 39.475 15.0588 39.422 14.7458C39.3522 14.3371 39.2718 13.9303 39.181 13.5258C39.076 13.0758 38.574 11.5848 38.401 11.2018C38.2964 10.9713 38.1938 10.74 38.093 10.5078C37.863 9.9728 37.489 9.4318 37.274 9.3198C37.018 9.1878 36.828 9.1948 36.584 9.3438ZM33.701 10.8538C33.4521 10.9707 33.2572 11.1781 33.156 11.4338C33.091 11.6058 33.118 11.6938 33.446 12.3658C34.223 13.9518 34.586 15.4498 34.586 17.0598C34.586 18.6168 34.268 19.9738 33.571 21.3848C33.169 22.1978 33.111 22.4198 33.219 22.7468C33.316 23.0408 33.609 23.2268 33.972 23.2268C34.376 23.2278 34.635 22.9648 35.043 22.1398C35.386 21.4468 35.85 20.0978 35.983 19.4048C36.023 19.1928 36.085 18.9038 36.119 18.7618C36.199 18.4378 36.151 15.4938 36.058 14.9718C35.969 14.4708 35.768 13.6948 35.636 13.3488L35.436 12.8168C35.195 12.1728 34.697 11.2918 34.446 11.0648C34.301 10.9338 34.156 10.8268 34.124 10.8268C34.0745 10.8234 34.0258 10.8133 33.979 10.7968C33.932 10.7808 33.807 10.8058 33.701 10.8528V10.8538ZM30.778 12.3768C30.455 12.5058 30.135 12.9168 30.135 13.2018C30.135 13.2748 30.305 13.6738 30.512 14.0888C30.928 14.9208 31.078 15.4048 31.176 16.2238C31.258 16.9208 31.259 17.2338 31.176 17.8308C31.057 18.6938 30.841 19.3778 30.426 20.2058C30.11 20.8338 30.086 20.9558 30.23 21.2328C30.388 21.5388 30.629 21.6858 30.974 21.6858C31.414 21.6858 31.589 21.5098 32.02 20.6338C32.405 19.8488 32.518 19.5498 32.64 18.9868C32.682 18.7928 32.743 18.5288 32.775 18.4008C32.807 18.2728 32.834 17.6698 32.834 17.0598C32.834 16.4498 32.807 15.8448 32.775 15.7178C32.727 15.5231 32.6817 15.3277 32.639 15.1318C32.416 14.1058 31.904 12.9808 31.489 12.6058C31.345 12.4758 31.2 12.3688 31.169 12.3688C31.1197 12.3656 31.071 12.3562 31.024 12.3408C30.977 12.3248 30.866 12.3408 30.778 12.3768ZM27.558 14.0968C27.217 14.4368 27.222 14.6518 27.591 15.3408C28.103 16.2968 28.202 17.0908 27.92 17.9798C27.8209 18.2811 27.6916 18.5716 27.534 18.8468C27.274 19.2698 27.245 19.5568 27.434 19.8668C27.654 20.2278 28.049 20.3578 28.387 20.1808C28.907 19.9088 29.514 18.7998 29.657 17.8628C29.83 16.7138 29.584 15.4228 29.03 14.5678C28.665 14.0048 28.46 13.8468 28.099 13.8468C27.845 13.8468 27.774 13.8798 27.557 14.0968H27.558ZM12.498 22.2638C12.3683 22.3031 12.2335 22.3233 12.098 22.3238C11.792 22.3288 11.408 22.4238 10.557 22.7048C9.694 22.9898 9.003 23.3618 8.231 23.9558C7.62 24.4268 0 32.0738 0 32.2168C0 32.3768 0.743 33.1228 0.902 33.1228C0.982 33.1228 2.448 31.7028 4.949 29.2008C7.107 27.0438 9.006 25.1768 9.171 25.0508C9.497 24.8018 10.571 24.2438 11.005 24.0978C12.055 23.7438 12.084 23.7418 15.022 23.7418C17.154 23.7418 17.799 23.7228 17.886 23.6598C18.003 23.5748 18.248 22.7558 18.248 22.4518C18.248 22.3518 18.204 22.2618 18.146 22.2388C17.988 22.1778 12.642 22.2018 12.497 22.2638H12.498ZM22.923 25.0898C22.6257 25.1984 22.3374 25.3305 22.061 25.4848C21.801 25.6388 20.431 26.9648 17.304 30.0868C14.888 32.4988 12.871 34.4718 12.821 34.4718C12.608 34.4718 12.517 34.2738 12.561 33.8998C12.584 33.7018 12.617 32.8278 12.633 31.9578C12.67 30.0718 12.706 30.1668 11.963 30.1678C11.691 30.1678 11.426 30.1968 11.373 30.2298C11.268 30.2958 11.211 31.0728 11.143 33.3788C11.103 34.6978 11.164 35.0588 11.493 35.4558C12.05 36.1308 12.569 36.2498 13.343 35.8808C13.718 35.7018 14.154 35.2858 18.117 31.3258C20.516 28.9288 22.617 26.8728 22.785 26.7568C23.109 26.5338 23.785 26.3168 24.159 26.3148C24.683 26.3118 25.343 26.6128 25.789 27.0588C26.165 27.4348 26.301 27.6898 26.447 28.2928C26.552 28.7298 26.552 28.7778 26.447 29.2198C26.341 29.6675 26.1244 30.0815 25.817 30.4238C25.735 30.5128 25.54 30.7438 25.381 30.9378C25.2577 31.0923 25.1289 31.2424 24.995 31.3878C24.861 31.5331 24.7322 31.6832 24.609 31.8378C24.4861 31.9923 24.3577 32.1424 24.224 32.2878C24.09 32.4331 23.9613 32.5832 23.838 32.7378C23.7151 32.8923 23.5867 33.0424 23.453 33.1878C23.319 33.3328 23.1903 33.4826 23.067 33.6368C22.9437 33.7914 22.815 33.9415 22.681 34.0868C22.5474 34.2322 22.419 34.3823 22.296 34.5368C22.1728 34.6914 22.044 34.8415 21.91 34.9868C21.7764 35.1319 21.648 35.2816 21.525 35.4358C21.4021 35.5903 21.2737 35.7404 21.14 35.8858C21.006 36.0311 20.8773 36.1812 20.754 36.3358C20.6307 36.4903 20.502 36.6404 20.368 36.7858C20.2343 36.9312 20.1059 37.0813 19.983 37.2358C19.8598 37.39 19.731 37.5398 19.597 37.6848C19.4634 37.8302 19.3349 37.9803 19.212 38.1348C19.054 38.3288 18.909 38.5018 18.891 38.5198C18.871 38.5378 18.727 38.7108 18.569 38.9058C18.4259 39.083 18.2758 39.2545 18.119 39.4198C17.9626 39.5851 17.8128 39.7566 17.67 39.9338C17.5652 40.0643 17.4579 40.1926 17.348 40.3188C17.33 40.3368 17.185 40.5098 17.028 40.7048C16.9047 40.8594 16.776 41.0094 16.642 41.1548C16.5078 41.3002 16.3787 41.4503 16.255 41.6048C15.897 42.0438 15.797 42.1428 15.356 42.5038C15.162 42.6628 14.966 42.8278 14.919 42.8718C14.744 43.0378 14.082 43.5248 13.517 43.9028C12.957 44.2788 11.954 44.7898 9.863 45.7658C7.232 46.9938 7.45 46.8418 7.606 47.3388C7.84 48.0808 8.018 48.2068 8.527 47.9908C8.903 47.8308 10.584 47.0408 11.743 46.4808C12.317 46.2008 12.822 45.9738 12.863 45.9738C13.091 45.9738 15.406 44.4328 15.891 43.9588C15.968 43.8828 16.191 43.6908 16.384 43.5318C16.7658 43.2302 17.1108 42.8849 17.412 42.5028C17.57 42.3088 17.715 42.1358 17.734 42.1178C17.753 42.1008 17.897 41.9278 18.055 41.7328C18.1981 41.5555 18.3482 41.3841 18.505 41.2188C18.6617 41.0535 18.8118 40.882 18.955 40.7048C19.113 40.5108 19.258 40.3368 19.276 40.3188C19.295 40.3018 19.439 40.1288 19.597 39.9338C19.755 39.7388 19.929 39.5368 19.983 39.4838C20.1167 39.3385 20.2451 39.1884 20.368 39.0338C20.526 38.8398 20.7 38.6378 20.754 38.5838C20.808 38.5308 20.982 38.3288 21.14 38.1338C21.2629 37.9792 21.3913 37.8291 21.525 37.6838C21.659 37.5388 21.7878 37.389 21.911 37.2348C22.068 37.0408 22.241 36.8378 22.296 36.7848C22.35 36.7318 22.524 36.5298 22.682 36.3348C22.839 36.1408 23.012 35.9388 23.067 35.8848C23.201 35.7398 23.3298 35.59 23.453 35.4358C23.61 35.2418 23.783 35.0388 23.838 34.9858C23.892 34.9328 24.066 34.7308 24.224 34.5358C24.381 34.3418 24.554 34.1398 24.609 34.0858C24.663 34.0338 24.837 33.8308 24.995 33.6358C25.152 33.4428 25.325 33.2398 25.38 33.1868C25.5143 33.0417 25.6431 32.8916 25.766 32.7368C25.8704 32.6063 25.9774 32.478 26.087 32.3518C26.106 32.3338 26.251 32.1618 26.409 31.9678C26.568 31.7738 26.78 31.5278 26.881 31.4208C27.299 30.9808 27.711 30.2438 27.861 29.6718C27.976 29.2278 27.976 28.2788 27.861 27.8418C27.637 26.9958 27.431 26.6368 26.821 26.0268C26.323 25.5288 25.951 25.2888 25.351 25.0798C24.899 24.9228 24.745 24.8998 24.127 24.9058C23.527 24.9108 23.345 24.9388 22.923 25.0898ZM29.377 29.9268C29.34 29.9708 29.267 30.1228 29.215 30.2638C29.163 30.4048 29.082 30.6148 29.035 30.7308C28.881 31.1078 28.91 31.1238 30.585 31.5768L31.998 31.9608L33.668 32.4108C34.181 32.5468 34.933 32.7488 35.34 32.8608C35.746 32.9708 36.341 33.1308 36.662 33.2158C36.983 33.3008 37.398 33.4198 37.584 33.4808C38.105 33.6508 38.582 34.0868 38.846 34.6328C39.065 35.0868 39.048 35.5348 38.773 36.5598L38.301 38.3268C38.067 39.2038 37.798 40.1948 37.563 41.0448C37.309 41.9648 36.793 42.4668 35.867 42.7008C35.497 42.7938 35.587 42.8108 33.54 42.2518C32.5926 41.9926 31.6449 41.7343 30.697 41.4768C29.6753 41.1966 28.6526 40.9199 27.629 40.6468C27.117 40.5098 26.379 40.3108 25.991 40.2048C22.143 39.1538 22.28 39.1848 22.097 39.3228C21.895 39.4758 21.332 40.1858 21.332 40.2878C21.332 40.4328 21.502 40.5118 22.207 40.6978C22.592 40.7998 23.123 40.9458 23.388 41.0208C23.653 41.0968 24.289 41.2708 24.802 41.4068C25.314 41.5428 26.066 41.7448 26.472 41.8558L28.143 42.3058C29.6443 42.7053 31.1436 43.112 32.641 43.5258C34.701 44.0878 35.101 44.1738 35.623 44.1738C36.849 44.1718 38.11 43.3938 38.644 42.3108C38.862 41.8688 38.907 41.7368 39.165 40.7688C39.335 40.1318 39.568 39.2748 39.901 38.0538C40.408 36.1938 40.416 36.1538 40.416 35.4108C40.416 34.8068 40.39 34.6268 40.253 34.2468C40.047 33.6778 39.878 33.4248 39.376 32.9288C38.9532 32.5203 38.44 32.2174 37.878 32.0448C37.736 32.0048 37.418 31.9118 37.171 31.8398C36.8185 31.7391 36.4652 31.6414 36.111 31.5468C35.476 31.3768 34.629 31.1468 33.395 30.8108C32.998 30.7028 32.239 30.4978 31.709 30.3568C29.572 29.7848 29.505 29.7728 29.377 29.9268ZM27.654 32.8808C27.403 33.0758 27.262 33.2208 26.924 33.6368C26.8003 33.7913 26.6713 33.9414 26.537 34.0868C26.4029 34.2316 26.2738 34.381 26.15 34.5348C25.992 34.7288 25.778 34.9748 25.676 35.0818C25.096 35.6858 25.006 36.1068 25.286 36.8818C25.492 37.4508 25.661 37.7038 26.162 38.1988C26.832 38.8618 27.339 39.0568 28.368 39.0488C29.157 39.0438 29.513 38.9458 30.029 38.5908C30.978 37.9378 31.549 36.9218 31.549 35.8858C31.549 34.7678 30.857 33.6328 29.866 33.1208C29.269 32.8128 28.986 32.7388 28.393 32.7378C27.917 32.7378 27.813 32.7578 27.653 32.8808H27.654ZM29.011 34.3038C29.661 34.6118 30.025 35.2078 30.018 35.9538C30.013 36.4768 29.91 36.7368 29.581 37.0668C28.593 38.0558 27.027 37.6428 26.631 36.2878C26.538 35.9718 26.534 35.8708 26.602 35.5968C26.71 35.1648 26.801 34.9988 27.092 34.7048C27.632 34.1598 28.377 34.0048 29.011 34.3048V34.3038Z" fill="url(#paint0_linear)"/>
<path fill-rule="evenodd" clip-rule="evenodd" d="M28.047 0.0417998C27.165 0.2648 26.932 0.3698 26.388 0.7868C25.955 1.1198 25.508 1.7538 25.309 2.3148C25.176 2.6908 25.117 2.8948 24.739 4.2898L23.964 7.1318C23.8157 7.67779 23.6687 8.22413 23.523 8.7708C23.386 9.2828 23.187 10.0208 23.081 10.4088C22.6694 11.9183 22.2597 13.4283 21.852 14.9388C21.5809 15.9574 21.3052 16.9747 21.025 17.9908L20.639 19.4048C20.3547 20.4426 20.0737 21.4812 19.796 22.5208C19.659 23.0328 19.456 23.7848 19.345 24.1908C18.839 26.0358 18.788 26.3118 18.953 26.3118C19.023 26.3118 20.587 24.7598 20.718 24.5588C20.774 24.4748 20.902 24.0898 21.005 23.7038C21.18 23.0388 21.344 22.4338 21.785 20.8178C21.891 20.4298 22.089 19.6918 22.225 19.1798C22.362 18.6668 22.561 17.9298 22.667 17.5408C23.2282 15.4859 23.7852 13.4299 24.338 11.3728C24.7277 9.94884 25.116 8.52451 25.503 7.0998C25.959 5.4318 26.104 4.8938 26.307 4.1118C26.619 2.9098 26.716 2.6438 26.979 2.2668C27.482 1.5468 28.37 1.3408 29.557 1.6668C29.892 1.7608 30.471 1.9188 30.842 2.0198L32.223 2.3958C33.859 2.8418 34.457 3.0038 35.34 3.2388C35.852 3.3758 36.59 3.5738 36.978 3.6808C39.4929 4.36733 42.0096 5.04733 44.528 5.7208C45.378 5.9428 45.438 5.9728 45.868 6.3998C46.53 7.0548 46.608 7.6368 46.226 9.0598L45.754 10.8268C45.4804 11.8564 45.2021 12.8848 44.919 13.9118L44.533 15.3258C44.2511 16.3525 43.9728 17.3802 43.698 18.4088C43.4236 19.4383 43.1449 20.4666 42.862 21.4938L42.477 22.9078C42.1951 23.9345 41.9168 24.9622 41.642 25.9908C41.3682 27.0201 41.0896 28.0481 40.806 29.0748C40.432 30.4418 40.224 31.2908 40.223 31.4458C40.223 31.5418 40.339 31.7258 40.528 31.9308C40.696 32.1118 40.898 32.3388 40.978 32.4348C41.196 32.6988 41.359 32.6648 41.448 32.3348L41.645 31.6128C41.884 30.7458 42.155 29.7408 42.401 28.8178C42.538 28.3048 42.741 27.5538 42.851 27.1478L43.627 24.3028C44.07 22.6828 44.223 22.1158 44.457 21.2358L44.903 19.5808C45.785 16.3508 45.867 16.0478 46.128 15.0678C46.4024 14.038 46.6811 13.0093 46.964 11.9818L47.354 10.5528C48 8.1838 48.083 7.7198 47.941 7.2538C47.8934 7.09575 47.8467 6.93742 47.801 6.7788C47.647 6.2448 47.428 5.8988 46.931 5.4018C46.386 4.8558 45.936 4.5928 45.21 4.3938C44.3726 4.16433 43.535 3.936 42.697 3.7088C41.6589 3.42406 40.6199 3.14272 39.58 2.8648C38.5455 2.58925 37.5121 2.30925 36.48 2.0248L33.652 1.2548C30.726 0.4538 29.634 0.1618 29.3 0.0897999C28.848 -0.00920015 28.328 -0.0292002 28.047 0.0417998ZM36.584 9.3438C36.044 9.6718 36.031 10.0928 36.528 11.0838C36.722 11.4708 36.922 11.8968 36.971 12.0298C37.021 12.1638 37.119 12.4228 37.19 12.6068C37.3 12.8938 37.62 14.0988 37.748 14.7138C37.85 15.2008 37.927 16.2078 37.927 17.0588C37.927 17.9108 37.85 18.9188 37.748 19.4048C37.62 20.0198 37.3 21.2248 37.19 21.5118C37.119 21.6958 37.02 21.9548 36.971 22.0888C36.921 22.2218 36.722 22.6478 36.528 23.0348C36.083 23.9218 36.058 24.2148 36.393 24.5508C36.578 24.7358 36.657 24.7698 36.905 24.7698C37.343 24.7698 37.58 24.5268 38.043 23.6028C38.421 22.8498 38.479 22.7128 38.79 21.8458C38.982 21.3138 39.305 20.0758 39.395 19.5328C39.47 19.0818 39.588 17.5688 39.588 17.0588C39.588 16.6308 39.475 15.0588 39.422 14.7458C39.3522 14.3371 39.2718 13.9303 39.181 13.5258C39.076 13.0758 38.574 11.5848 38.401 11.2018C38.2964 10.9713 38.1938 10.74 38.093 10.5078C37.863 9.9728 37.489 9.4318 37.274 9.3198C37.018 9.1878 36.828 9.1948 36.584 9.3438ZM33.701 10.8538C33.4521 10.9707 33.2572 11.1781 33.156 11.4338C33.091 11.6058 33.118 11.6938 33.446 12.3658C34.223 13.9518 34.586 15.4498 34.586 17.0598C34.586 18.6168 34.268 19.9738 33.571 21.3848C33.169 22.1978 33.111 22.4198 33.219 22.7468C33.316 23.0408 33.609 23.2268 33.972 23.2268C34.376 23.2278 34.635 22.9648 35.043 22.1398C35.386 21.4468 35.85 20.0978 35.983 19.4048C36.023 19.1928 36.085 18.9038 36.119 18.7618C36.199 18.4378 36.151 15.4938 36.058 14.9718C35.969 14.4708 35.768 13.6948 35.636 13.3488L35.436 12.8168C35.195 12.1728 34.697 11.2918 34.446 11.0648C34.301 10.9338 34.156 10.8268 34.124 10.8268C34.0745 10.8234 34.0258 10.8133 33.979 10.7968C33.932 10.7808 33.807 10.8058 33.701 10.8528V10.8538ZM30.778 12.3768C30.455 12.5058 30.135 12.9168 30.135 13.2018C30.135 13.2748 30.305 13.6738 30.512 14.0888C30.928 14.9208 31.078 15.4048 31.176 16.2238C31.258 16.9208 31.259 17.2338 31.176 17.8308C31.057 18.6938 30.841 19.3778 30.426 20.2058C30.11 20.8338 30.086 20.9558 30.23 21.2328C30.388 21.5388 30.629 21.6858 30.974 21.6858C31.414 21.6858 31.589 21.5098 32.02 20.6338C32.405 19.8488 32.518 19.5498 32.64 18.9868C32.682 18.7928 32.743 18.5288 32.775 18.4008C32.807 18.2728 32.834 17.6698 32.834 17.0598C32.834 16.4498 32.807 15.8448 32.775 15.7178C32.727 15.5231 32.6817 15.3277 32.639 15.1318C32.416 14.1058 31.904 12.9808 31.489 12.6058C31.345 12.4758 31.2 12.3688 31.169 12.3688C31.1197 12.3656 31.071 12.3562 31.024 12.3408C30.977 12.3248 30.866 12.3408 30.778 12.3768ZM27.558 14.0968C27.217 14.4368 27.222 14.6518 27.591 15.3408C28.103 16.2968 28.202 17.0908 27.92 17.9798C27.8209 18.2811 27.6916 18.5716 27.534 18.8468C27.274 19.2698 27.245 19.5568 27.434 19.8668C27.654 20.2278 28.049 20.3578 28.387 20.1808C28.907 19.9088 29.514 18.7998 29.657 17.8628C29.83 16.7138 29.584 15.4228 29.03 14.5678C28.665 14.0048 28.46 13.8468 28.099 13.8468C27.845 13.8468 27.774 13.8798 27.557 14.0968H27.558ZM12.498 22.2638C12.3683 22.3031 12.2335 22.3233 12.098 22.3238C11.792 22.3288 11.408 22.4238 10.557 22.7048C9.694 22.9898 9.003 23.3618 8.231 23.9558C7.62 24.4268 0 32.0738 0 32.2168C0 32.3768 0.743 33.1228 0.902 33.1228C0.982 33.1228 2.448 31.7028 4.949 29.2008C7.107 27.0438 9.006 25.1768 9.171 25.0508C9.497 24.8018 10.571 24.2438 11.005 24.0978C12.055 23.7438 12.084 23.7418 15.022 23.7418C17.154 23.7418 17.799 23.7228 17.886 23.6598C18.003 23.5748 18.248 22.7558 18.248 22.4518C18.248 22.3518 18.204 22.2618 18.146 22.2388C17.988 22.1778 12.642 22.2018 12.497 22.2638H12.498ZM22.923 25.0898C22.6257 25.1984 22.3374 25.3305 22.061 25.4848C21.801 25.6388 20.431 26.9648 17.304 30.0868C14.888 32.4988 12.871 34.4718 12.821 34.4718C12.608 34.4718 12.517 34.2738 12.561 33.8998C12.584 33.7018 12.617 32.8278 12.633 31.9578C12.67 30.0718 12.706 30.1668 11.963 30.1678C11.691 30.1678 11.426 30.1968 11.373 30.2298C11.268 30.2958 11.211 31.0728 11.143 33.3788C11.103 34.6978 11.164 35.0588 11.493 35.4558C12.05 36.1308 12.569 36.2498 13.343 35.8808C13.718 35.7018 14.154 35.2858 18.117 31.3258C20.516 28.9288 22.617 26.8728 22.785 26.7568C23.109 26.5338 23.785 26.3168 24.159 26.3148C24.683 26.3118 25.343 26.6128 25.789 27.0588C26.165 27.4348 26.301 27.6898 26.447 28.2928C26.552 28.7298 26.552 28.7778 26.447 29.2198C26.341 29.6675 26.1244 30.0815 25.817 30.4238C25.735 30.5128 25.54 30.7438 25.381 30.9378C25.2577 31.0923 25.1289 31.2424 24.995 31.3878C24.861 31.5331 24.7322 31.6832 24.609 31.8378C24.4861 31.9923 24.3577 32.1424 24.224 32.2878C24.09 32.4331 23.9613 32.5832 23.838 32.7378C23.7151 32.8923 23.5867 33.0424 23.453 33.1878C23.319 33.3328 23.1903 33.4826 23.067 33.6368C22.9437 33.7914 22.815 33.9415 22.681 34.0868C22.5474 34.2322 22.419 34.3823 22.296 34.5368C22.1728 34.6914 22.044 34.8415 21.91 34.9868C21.7764 35.1319 21.648 35.2816 21.525 35.4358C21.4021 35.5903 21.2737 35.7404 21.14 35.8858C21.006 36.0311 20.8773 36.1812 20.754 36.3358C20.6307 36.4903 20.502 36.6404 20.368 36.7858C20.2343 36.9312 20.1059 37.0813 19.983 37.2358C19.8598 37.39 19.731 37.5398 19.597 37.6848C19.4634 37.8302 19.3349 37.9803 19.212 38.1348C19.054 38.3288 18.909 38.5018 18.891 38.5198C18.871 38.5378 18.727 38.7108 18.569 38.9058C18.4259 39.083 18.2758 39.2545 18.119 39.4198C17.9626 39.5851 17.8128 39.7566 17.67 39.9338C17.5652 40.0643 17.4579 40.1926 17.348 40.3188C17.33 40.3368 17.185 40.5098 17.028 40.7048C16.9047 40.8594 16.776 41.0094 16.642 41.1548C16.5078 41.3002 16.3787 41.4503 16.255 41.6048C15.897 42.0438 15.797 42.1428 15.356 42.5038C15.162 42.6628 14.966 42.8278 14.919 42.8718C14.744 43.0378 14.082 43.5248 13.517 43.9028C12.957 44.2788 11.954 44.7898 9.863 45.7658C7.232 46.9938 7.45 46.8418 7.606 47.3388C7.84 48.0808 8.018 48.2068 8.527 47.9908C8.903 47.8308 10.584 47.0408 11.743 46.4808C12.317 46.2008 12.822 45.9738 12.863 45.9738C13.091 45.9738 15.406 44.4328 15.891 43.9588C15.968 43.8828 16.191 43.6908 16.384 43.5318C16.7658 43.2302 17.1108 42.8849 17.412 42.5028C17.57 42.3088 17.715 42.1358 17.734 42.1178C17.753 42.1008 17.897 41.9278 18.055 41.7328C18.1981 41.5555 18.3482 41.3841 18.505 41.2188C18.6617 41.0535 18.8118 40.882 18.955 40.7048C19.113 40.5108 19.258 40.3368 19.276 40.3188C19.295 40.3018 19.439 40.1288 19.597 39.9338C19.755 39.7388 19.929 39.5368 19.983 39.4838C20.1167 39.3385 20.2451 39.1884 20.368 39.0338C20.526 38.8398 20.7 38.6378 20.754 38.5838C20.808 38.5308 20.982 38.3288 21.14 38.1338C21.2629 37.9792 21.3913 37.8291 21.525 37.6838C21.659 37.5388 21.7878 37.389 21.911 37.2348C22.068 37.0408 22.241 36.8378 22.296 36.7848C22.35 36.7318 22.524 36.5298 22.682 36.3348C22.839 36.1408 23.012 35.9388 23.067 35.8848C23.201 35.7398 23.3298 35.59 23.453 35.4358C23.61 35.2418 23.783 35.0388 23.838 34.9858C23.892 34.9328 24.066 34.7308 24.224 34.5358C24.381 34.3418 24.554 34.1398 24.609 34.0858C24.663 34.0338 24.837 33.8308 24.995 33.6358C25.152 33.4428 25.325 33.2398 25.38 33.1868C25.5143 33.0417 25.6431 32.8916 25.766 32.7368C25.8704 32.6063 25.9774 32.478 26.087 32.3518C26.106 32.3338 26.251 32.1618 26.409 31.9678C26.568 31.7738 26.78 31.5278 26.881 31.4208C27.299 30.9808 27.711 30.2438 27.861 29.6718C27.976 29.2278 27.976 28.2788 27.861 27.8418C27.637 26.9958 27.431 26.6368 26.821 26.0268C26.323 25.5288 25.951 25.2888 25.351 25.0798C24.899 24.9228 24.745 24.8998 24.127 24.9058C23.527 24.9108 23.345 24.9388 22.923 25.0898ZM29.377 29.9268C29.34 29.9708 29.267 30.1228 29.215 30.2638C29.163 30.4048 29.082 30.6148 29.035 30.7308C28.881 31.1078 28.91 31.1238 30.585 31.5768L31.998 31.9608L33.668 32.4108C34.181 32.5468 34.933 32.7488 35.34 32.8608C35.746 32.9708 36.341 33.1308 36.662 33.2158C36.983 33.3008 37.398 33.4198 37.584 33.4808C38.105 33.6508 38.582 34.0868 38.846 34.6328C39.065 35.0868 39.048 35.5348 38.773 36.5598L38.301 38.3268C38.067 39.2038 37.798 40.1948 37.563 41.0448C37.309 41.9648 36.793 42.4668 35.867 42.7008C35.497 42.7938 35.587 42.8108 33.54 42.2518C32.5926 41.9926 31.6449 41.7343 30.697 41.4768C29.6753 41.1966 28.6526 40.9199 27.629 40.6468C27.117 40.5098 26.379 40.3108 25.991 40.2048C22.143 39.1538 22.28 39.1848 22.097 39.3228C21.895 39.4758 21.332 40.1858 21.332 40.2878C21.332 40.4328 21.502 40.5118 22.207 40.6978C22.592 40.7998 23.123 40.9458 23.388 41.0208C23.653 41.0968 24.289 41.2708 24.802 41.4068C25.314 41.5428 26.066 41.7448 26.472 41.8558L28.143 42.3058C29.6443 42.7053 31.1436 43.112 32.641 43.5258C34.701 44.0878 35.101 44.1738 35.623 44.1738C36.849 44.1718 38.11 43.3938 38.644 42.3108C38.862 41.8688 38.907 41.7368 39.165 40.7688C39.335 40.1318 39.568 39.2748 39.901 38.0538C40.408 36.1938 40.416 36.1538 40.416 35.4108C40.416 34.8068 40.39 34.6268 40.253 34.2468C40.047 33.6778 39.878 33.4248 39.376 32.9288C38.9532 32.5203 38.44 32.2174 37.878 32.0448C37.736 32.0048 37.418 31.9118 37.171 31.8398C36.8185 31.7391 36.4652 31.6414 36.111 31.5468C35.476 31.3768 34.629 31.1468 33.395 30.8108C32.998 30.7028 32.239 30.4978 31.709 30.3568C29.572 29.7848 29.505 29.7728 29.377 29.9268ZM27.654 32.8808C27.403 33.0758 27.262 33.2208 26.924 33.6368C26.8003 33.7913 26.6713 33.9414 26.537 34.0868C26.4029 34.2316 26.2738 34.381 26.15 34.5348C25.992 34.7288 25.778 34.9748 25.676 35.0818C25.096 35.6858 25.006 36.1068 25.286 36.8818C25.492 37.4508 25.661 37.7038 26.162 38.1988C26.832 38.8618 27.339 39.0568 28.368 39.0488C29.157 39.0438 29.513 38.9458 30.029 38.5908C30.978 37.9378 31.549 36.9218 31.549 35.8858C31.549 34.7678 30.857 33.6328 29.866 33.1208C29.269 32.8128 28.986 32.7388 28.393 32.7378C27.917 32.7378 27.813 32.7578 27.653 32.8808H27.654ZM29.011 34.3038C29.661 34.6118 30.025 35.2078 30.018 35.9538C30.013 36.4768 29.91 36.7368 29.581 37.0668C28.593 38.0558 27.027 37.6428 26.631 36.2878C26.538 35.9718 26.534 35.8708 26.602 35.5968C26.71 35.1648 26.801 34.9988 27.092 34.7048C27.632 34.1598 28.377 34.0048 29.011 34.3048V34.3038Z" fill="url(#paint1_linear)"/>
<defs>
<linearGradient id="paint0_linear" x1="48" y1="24.0428" x2="0" y2="24.0428" gradientUnits="userSpaceOnUse">
<stop stop-color="#A31FED"/>
<stop offset="1" stop-color="#03EE65"/>
</linearGradient>
<linearGradient id="paint1_linear" x1="48" y1="24.0428" x2="0" y2="24.0428" gradientUnits="userSpaceOnUse">
<stop stop-color="#A31FED"/>
<stop offset="1" stop-color="#03EE65"/>
</linearGradient>
</defs>
</svg>
