<svg width="42" height="42" viewBox="0 0 42 42" fill="none" xmlns="http://www.w3.org/2000/svg">
<path d="M0.774908 0H3.3321V30.5983H0.774908V0ZM10.3838 3.83934C10.3838 5.11911 9.76384 6.16621 8.75646 6.16621C7.82657 6.16621 7.20664 5.11911 7.20664 3.83934C7.20664 2.44321 7.90406 1.51247 8.75646 1.51247C9.84133 1.51247 10.3838 2.55956 10.3838 3.83934ZM7.5941 30.5983V9.65651H10.1513V30.5983H7.5941ZM14.3358 15.3573C14.3358 13.1468 14.3358 11.4017 14.2583 9.65651H16.5055L16.6605 13.1468H16.738C17.4354 11.169 19.0627 9.19114 21.31 9.19114C23.2472 9.19114 26.1919 10.9363 26.1919 18.0332V30.482H23.6347V18.615C23.6347 15.241 22.7823 12.4488 20.3801 12.4488C18.6753 12.4488 17.4354 14.1939 16.9705 16.2881C16.893 16.7535 16.8155 17.4515 16.8155 18.0332V30.5983H14.2583V15.3573H14.3358ZM32.7786 19.313C33.1661 18.615 33.7085 17.6842 34.0959 16.9862L38.203 9.77285H41.2251L35.8782 18.3823L42 30.7147H38.9004L34.0959 20.5928L32.7786 22.8033V30.7147H30.2989V0H32.7786V19.313ZM41.845 38.5097H0V42H41.845V38.5097Z" fill="url(#paint0_linear)"/>
<defs>
<linearGradient id="paint0_linear" x1="42" y1="21" x2="2.69115e-07" y2="21" gradientUnits="userSpaceOnUse">
<stop stop-color="#807CFA"/>
<stop offset="1" stop-color="#03EE65"/>
</linearGradient>
</defs>
</svg>
