<svg width="38" height="46" viewBox="0 0 38 46" fill="none" xmlns="http://www.w3.org/2000/svg">
<path fill-rule="evenodd" clip-rule="evenodd" d="M1.60013 0H28.533C28.9998 0 29.4665 0.173937 29.7333 0.462875L37.4663 6.71169C37.8001 7.00134 38 7.406 38 7.75388V44.6114C38 45.3639 37.2664 46 36.3999 46H1.60013C0.732739 46 0 45.3632 0 44.6114V1.38863C0 0.636813 0.733565 0 1.60013 0ZM29.4665 25.4588H12.6003V18.0528H11.7329C10.868 18.0532 10.0386 18.3519 9.42636 18.8834C8.81411 19.4148 8.46897 20.1358 8.46656 20.8883V30.493H29.3996V25.4588H29.4665ZM15.0001 23.3759H17.8005V18.0528H15.0001V23.3759ZM20.2003 23.3759H23.0007V18.0528H20.2003V23.3759ZM25.3336 23.3759H29.4665V20.8301C29.4641 20.0776 29.119 19.3566 28.5067 18.8251C27.8945 18.2937 27.065 17.995 26.2002 17.9946H25.3328V23.3759H25.3336ZM29.4665 32.5184H25.3336V37.8415H26.2002C27.065 37.8411 27.8945 37.5424 28.5067 37.011C29.119 36.4795 29.4641 35.7585 29.4665 35.006V32.5184ZM22.933 32.5184H20.1326V37.8415H22.933V32.5184ZM17.7997 32.5184H14.9993V37.8415H17.7997V32.5184ZM12.6003 32.5184H8.46656V35.0642C8.46897 35.8167 8.81411 36.5377 9.42636 37.0692C10.0386 37.6007 10.868 37.8993 11.7329 37.8997H12.6003V32.5184V32.5184ZM11.7329 15.9117C8.60039 15.9117 6.06596 18.1111 6.06596 20.8301V35.0642C6.06596 37.784 8.60039 39.9826 11.7329 39.9826H26.2002C29.3335 39.9826 31.8671 37.7832 31.8671 35.0642V20.8294C31.8671 18.1096 29.3335 15.911 26.2002 15.911H11.7329V15.9117ZM27.9341 2.77725H3.20026V43.2802H34.7997V8.33247L27.9333 2.77725H27.9341Z" fill="url(#paint0_linear)"/>
<defs>
<linearGradient id="paint0_linear" x1="38" y1="23" x2="0" y2="23" gradientUnits="userSpaceOnUse">
<stop stop-color="#A31FED"/>
<stop offset="1" stop-color="#03EE65"/>
</linearGradient>
</defs>
</svg>
