<svg width="42" height="42" viewBox="0 0 42 42" fill="none" xmlns="http://www.w3.org/2000/svg">
<path d="M37.9053 9.91667H31.9972V4.08333H37.9053V9.91667ZM9.88579 4.08333H4.03621V9.91667H9.94429V4.08333H9.88579ZM4.03621 37.9167H9.94429V32.025H4.03621V37.9167ZM0 28.0583H13.922V41.9417H0V28.0583ZM1.87187 40.075H12.0501V29.925H1.87187V40.075ZM13.922 13.9417H0V0.0583333H13.922V13.9417ZM12.0501 1.925H1.87187V12.075H12.0501V1.925ZM41.9415 0.0583333V13.9417H28.0195V0.0583333H41.9415ZM40.0696 1.925H29.9499V12.075H40.1281V1.925H40.0696ZM25.9136 0H23.9248V1.98333H25.9136V0ZM30.0084 27.9417H28.0195V29.925H30.0084V27.9417ZM12.0501 19.95H15.9109V21.9333H11.9331H10.0613V17.9667H12.0501V15.9833H15.9694V0.233333V0H21.8774V1.98333H17.9582V4.08333H25.9136V6.06667V8.05V10.0333H23.9833V12.0167H25.9136V15.925H35.9164V17.9083H33.9861V19.8917H35.9164V21.875H33.9276H31.9972V17.9083H30.0084V21.875H28.0195H26.0306V19.8917H28.0195V17.9083H25.9721V15.925H23.9833V17.9667H25.9136V19.95H23.9833V21.9333H23.4568H21.9359V23.9167H19.8886H19.5961H17.8997V19.775H15.9694V17.9083H12.0501V19.95ZM17.9582 15.9833H19.8886V20.0083H21.0585H21.9359V15.8667H21.7019H21.117H19.9471V11.9583H21.9359V14H22.4039H23.8663V12.0167H21.9359V10.0333H23.8663V8.05V6.06667H21.9359V8.05H19.9471V6.06667H17.9582V10.0333H19.8886V12.0167H17.9582V15.9833ZM15.9109 41.9417H21.9359V39.9H15.9109V41.9417ZM9.88579 26.0167V24.0333V22.05H7.95543H7.89694H5.96657V24.0333H7.89694V26.0167H9.88579ZM5.84958 23.975H1.98886V21.9917H5.84958V20.0083H7.89694V17.9083H9.88579V15.925H7.89694V17.85H1.98886V15.925H0V17.9083H1.93036V19.95H0V21.875V21.9333V23.9167V24.5V26.0167H5.84958V23.975ZM13.922 23.975H11.9331V25.9583H13.922H15.9109V23.975H13.922ZM25.9721 34.0083H27.961H29.9499V32.025H27.961H25.9721V34.0083ZM19.9471 29.925H21.8774V27.9417H20.0056V26.075H18.0167H16.0279V27.9417V28.0583V29.925H17.9582V31.9083H19.9471V29.925ZM39.9526 17.9667H41.9415V15.9833H39.9526V17.9667ZM39.8941 17.9667H37.9053V26.0167H39.3092H39.9526H42V21.9917H39.9526V17.9667H39.8941ZM40.0111 42H41.9415V39.9H40.0111V42ZM15.9694 34.0083H17.9582V32.025H15.9694V34.0083ZM39.9526 27.9417H37.9638H35.9749V26.075H34.0446V24.0917H32.0557V22.1083H30.0669V24.0917H28.078H23.9833V26.075V28V28.0583V29.9833H22.8134H21.9359V33.95H20.532H19.9471V35.9333H17.9582V37.9167H19.9471H21.9359H23.9833V37.6833V35.9333H25.9721V33.95H23.9833V31.85H25.9136V29.9833V28.0583H25.9721H27.961V26.075H31.9972V31.9083V32.025V37.975H30.0084V35.9917H28.0195V37.975H26.0306V39.9H23.9833V41.9417H30.0084V39.9H31.9972H33.9861V42H35.9164V39.9H33.9861V37.9167H35.9164V35.9333H33.9861V34.0083H35.9164V32.025H33.9861V31.9667V28.1167H35.9164V29.9833H37.9053V34.0083H35.9749V35.9333H37.9053H39.8941H41.883V34.0083H39.8941V27.9417H39.9526Z" fill="url(#paint0_linear)"/>
<defs>
<linearGradient id="paint0_linear" x1="42" y1="21" x2="2.69115e-07" y2="21" gradientUnits="userSpaceOnUse">
<stop stop-color="#807CFA"/>
<stop offset="1" stop-color="#03EE65"/>
</linearGradient>
</defs>
</svg>
