<svg width="41" height="35" viewBox="0 0 41 35" fill="none" xmlns="http://www.w3.org/2000/svg">
<path fill-rule="evenodd" clip-rule="evenodd" d="M1.24242 0H37.6869C38.3771 0 38.9293 0.615385 38.9293 1.38462V12.4615H39.7576C40.4478 12.4615 41 13.0769 41 13.8462V21.1538C41 21.9231 40.4478 22.5385 39.7576 22.5385H38.9293V33.6154C38.9293 34.3846 38.3771 35 37.6869 35H1.24242C0.552189 35 0 34.3846 0 33.6154V1.38462C0 0.615385 0.552189 0 1.24242 0ZM36.4444 12.4615V2.76923H2.48485V32.3077H36.4444V22.5385H26.367C25.6768 22.5385 25.1246 21.9231 25.1246 21.1538V13.8462C25.1246 13.0769 25.6768 12.4615 26.367 12.4615H36.4444ZM38.5152 15.2308H27.5404V19.8462H38.4461V15.2308H38.5152Z" fill="url(#paint0_linear)"/>
<defs>
<linearGradient id="paint0_linear" x1="41" y1="17.5" x2="2.62707e-07" y2="17.5" gradientUnits="userSpaceOnUse">
<stop stop-color="#807CFA"/>
<stop offset="1" stop-color="#03EE65"/>
</linearGradient>
</defs>
</svg>
