<svg width="42" height="42" viewBox="0 0 42 42" fill="none" xmlns="http://www.w3.org/2000/svg">
<path d="M22.2076 14.1964C22.2076 15.0799 21.5596 15.7279 20.676 15.7279C19.7924 15.7279 19.1445 15.0799 19.0856 14.2553C19.0856 13.4306 19.7924 12.7237 20.6171 12.7237C21.5007 12.7237 22.2076 13.3717 22.2076 14.1964ZM11.0154 12.7237C10.1907 12.7237 9.48387 13.3717 9.42496 14.1964C9.42496 15.021 10.0729 15.7279 10.8976 15.7279C11.7223 15.7279 12.4881 15.0799 12.4881 14.2553C12.547 13.4895 11.8401 12.7237 11.0154 12.7237ZM42 6.30295V35.6971C42 39.1725 39.1725 42 35.6971 42H6.30295C2.82749 42 0 39.1725 0 35.6971V6.30295C0 2.82749 2.82749 0 6.30295 0H35.6971C39.1725 0 42 2.82749 42 6.30295ZM16.1403 27.9804C15.8457 24.3871 16.9649 21.5596 19.3801 19.2034C21.7952 16.906 24.7405 15.8457 28.0982 15.669C27.9215 13.6073 27.1557 11.8401 25.9776 10.3086C22.6788 6.00842 16.6115 4.18233 11.1921 5.94951C7.24544 7.24544 4.30014 9.71949 3.12202 13.8429C1.88499 18.2609 3.59327 22.561 7.65778 25.4474C8.30575 25.9187 8.36466 26.2721 8.18794 26.979C7.89341 27.9215 7.7756 28.864 7.48107 29.9832C8.8359 29.1585 9.95512 28.3927 11.1332 27.7447C11.4867 27.568 11.9579 27.5091 12.4292 27.5091C13.6073 27.6269 14.8443 27.8036 16.1403 27.9804ZM37.2875 21.0295C33.871 16.6704 26.8612 15.6101 22.0309 18.7321C16.6115 22.2665 15.9635 28.9229 20.6171 33.223C23.0912 35.5203 26.0365 36.4039 29.3941 36.1094C30.5133 35.9916 31.5736 35.4025 32.6339 35.5203C33.6943 35.6381 34.6957 36.345 35.756 36.8163C35.6971 36.5217 35.6971 36.2272 35.5203 35.9916C34.8724 34.7546 35.2258 33.9888 36.2861 33.1052C39.8794 29.8654 40.2328 24.7994 37.2875 21.0295ZM23.5035 22.4432C22.7966 22.4432 22.2076 23.0323 22.2076 23.7391C22.2076 24.3871 22.7966 24.9762 23.5035 24.9762C24.2104 24.9762 24.7405 24.446 24.7994 23.7391C24.7994 23.0323 24.2693 22.4432 23.5035 22.4432ZM31.3969 22.4432C30.7489 22.4432 30.1599 22.9734 30.1599 23.6802C30.1599 24.3871 30.69 24.9762 31.3969 24.9762C32.1038 24.9762 32.6339 24.446 32.6339 23.798C32.6339 23.0323 32.1038 22.4432 31.3969 22.4432Z" fill="url(#paint0_linear)"/>
<defs>
<linearGradient id="paint0_linear" x1="42" y1="21" x2="2.69115e-07" y2="21" gradientUnits="userSpaceOnUse">
<stop stop-color="#807CFA"/>
<stop offset="1" stop-color="#03EE65"/>
</linearGradient>
</defs>
</svg>
