<svg width="37" height="48" viewBox="0 0 37 48" fill="none" xmlns="http://www.w3.org/2000/svg">
<g clip-path="url(#clip0)">
<path fill-rule="evenodd" clip-rule="evenodd" d="M4.26394 0H32.8048C35.1431 0 37.0688 1.86667 37.0688 4.13333V43.9333C37.0688 46.2 35.1431 48.0667 32.8048 48.0667H29.71C29.1598 48.0667 28.6784 47.6 28.6097 47.0667C28.4033 43.4 28.3346 37.2 26.6152 34.1333C26.1338 33.2667 25.5149 32.6667 24.8959 32.2667C24.3457 32 23.7955 31.8 23.2453 31.8C22.6952 31.8 22.0762 31.9333 21.526 32.2667C20.8383 32.6 20.2193 33.2 19.7379 33.9333C20.2193 40.7333 20.632 46.8667 20.632 46.8667C20.7007 47.4667 20.2193 48 19.6004 48C18.9814 48.0667 18.4312 47.6 18.4312 47C18.4312 46.9333 16.8494 23.2667 16.368 16.8667C16.1617 13.9333 14.9238 12.2 13.5483 11.4667C12.9981 11.2 12.3792 11.0667 11.7602 11.0667C11.1413 11.0667 10.5223 11.2667 9.97212 11.6C8.59665 12.4 7.49628 14.1333 7.49628 16.5333C7.49628 20.2 8.59665 46.8 8.59665 46.9333C8.59665 47.6 8.04647 48.0667 7.42751 48.0667H4.26394C1.92565 48 0 46.1333 0 43.8667V4.13333C0 1.86667 1.92565 0 4.26394 0ZM30.7416 45.1333H32.8048C33.4926 45.1333 34.0427 44.6 34.0427 43.9333V4.13333C34.0427 3.46667 33.4926 2.93333 32.8048 2.93333H4.26394C3.57621 2.93333 3.02602 3.46667 3.02602 4.13333V43.9333C3.02602 44.6 3.57621 45.1333 4.26394 45.1333H6.12082C5.70818 35.6667 5.08922 25.9333 5.08922 16.5333C5.08922 13.2667 6.60223 10.8667 8.66543 9.73333C9.55948 9.26667 10.5223 8.93333 11.4851 8.93333C12.448 8.86667 13.4796 9.06667 14.3736 9.53333C16.4368 10.5333 18.0874 12.8667 18.4312 16.7333C18.6375 19.4 19.0502 25.2 19.4628 31C19.7379 30.7333 20.0818 30.5333 20.4256 30.4C21.3197 29.9333 22.2138 29.7333 23.1766 29.7333C24.1394 29.7333 25.1022 30 25.9275 30.4667C26.9591 31 27.8532 31.9333 28.5409 33.1333C30.1914 36.0667 30.5353 41.1333 30.7416 45.1333ZM9.42193 15.7333C9.28439 16.4 9.35316 16.9333 9.49071 17.3333C9.69703 18 11.21 18.1333 11.829 18.0667C12.5167 18 13.7546 17.7333 13.8922 16.8667C13.961 16.3333 13.961 15.7333 13.8234 15.2C13.6859 14.6 13.2045 13.8 12.6543 13.4667C11.9665 13.0667 11.0725 13.2 10.4535 13.6667C9.90335 14.2 9.55948 15.0667 9.42193 15.7333ZM8.32156 15.6C8.18401 16.4 8.25279 17.2 8.39033 17.7333C8.80297 19 10.6599 19.3333 11.829 19.2C13.1357 19.1333 14.7175 18.5333 14.9238 17.0667C14.9926 16.4 14.9926 15.6667 14.7862 15C14.5112 14.1333 13.961 13.1333 13.1357 12.6667C12.0353 12 10.5911 12.1333 9.62825 12.9333C8.94052 13.5333 8.52788 14.6667 8.32156 15.6Z" fill="url(#paint0_linear)"/>
</g>
<defs>
<linearGradient id="paint0_linear" x1="37.0688" y1="24.0333" x2="2.37518e-07" y2="24.0333" gradientUnits="userSpaceOnUse">
<stop stop-color="#807CFA"/>
<stop offset="1" stop-color="#03EE65"/>
</linearGradient>
<clipPath id="clip0">
<rect width="37" height="48" fill="white"/>
</clipPath>
</defs>
</svg>
