<svg width="41" height="31" viewBox="0 0 41 31" fill="none" xmlns="http://www.w3.org/2000/svg">
<path fill-rule="evenodd" clip-rule="evenodd" d="M1.24242 31H37.6869C38.3771 31 38.9293 30.4549 38.9293 29.7736V19.9626H39.7576C40.4478 19.9626 41 19.4176 41 18.7363V12.2637C41 11.5824 40.4478 11.0374 39.7576 11.0374H38.9293V1.22637C38.9293 0.545054 38.3771 -8.64267e-07 37.6869 -8.64267e-07H1.24242C0.552189 -8.64267e-07 0 0.545054 0 1.22637V29.7736C0 30.4549 0.552189 31 1.24242 31V31ZM36.4444 19.9626V28.5473H2.48485V2.38461H36.4444V11.0374H26.367C25.6768 11.0374 25.1246 11.5824 25.1246 12.2637V18.7363C25.1246 19.4176 25.6768 19.9626 26.367 19.9626H36.4444V19.9626ZM38.5152 17.5099H27.5404V13.422H38.4461V17.5099H38.5152V17.5099Z" fill="url(#paint0_linear)"/>
<defs>
<linearGradient id="paint0_linear" x1="41" y1="15.5" x2="0" y2="15.5" gradientUnits="userSpaceOnUse">
<stop stop-color="#A31FED"/>
<stop offset="1" stop-color="#03EE65"/>
</linearGradient>
</defs>
</svg>
