<svg width="41" height="35" viewBox="0 0 41 35" fill="none" xmlns="http://www.w3.org/2000/svg">
<path fill-rule="evenodd" clip-rule="evenodd" d="M2.78468 5.88685L4.68064 22.1024C8.35405 21.8349 12.0867 21.5673 15.8194 21.0856V20.9786C15.8194 17.2859 19.6705 14.9312 23.4624 14.9312C26.0101 14.9312 28.6171 15.948 30.039 17.8746C31.0462 17.4465 32.172 17.2324 33.4162 17.2324C33.9494 17.2324 34.4827 17.2859 34.9566 17.3394C36.0824 17.0183 37.1488 16.6437 38.2153 16.2691L35.3714 2.88991C30.9277 4.17431 25.6546 5.13761 20.026 5.61927C14.5751 6.20795 8.70954 6.26147 2.78468 5.88685ZM38.2153 18.6774C39.6965 19.7477 40.6445 21.2462 40.6445 23.0122C40.6445 26.4908 36.9711 28.792 33.3569 28.792C31.4017 28.792 29.6243 28.1498 28.2616 27.1865C27.9061 26.919 27.5506 26.5979 27.3136 26.2768C27.1358 26.3838 26.8988 26.4373 26.7211 26.5443C27.4913 27.4006 27.9061 28.4709 27.9061 29.5948C27.9061 32.8593 24.4697 35 21.0925 35C17.7153 35 14.2789 32.8593 14.2789 29.5948C14.2789 27.6147 15.6416 25.9021 17.5376 24.9924C17.0043 24.5107 16.5896 23.9755 16.2934 23.3333C12.0867 23.815 7.76156 24.1896 3.61416 24.4572L2.42919 24.5107L0 3.42508L1.48121 3.53211C7.76156 4.06728 13.9827 3.96024 19.789 3.47859C25.8324 2.94342 31.3425 1.87309 35.9046 0.428135L37.2673 0L41 17.6605C40.052 18.0352 39.1633 18.3563 38.2153 18.6774ZM29.328 24.8853C30.4538 23.815 31.1055 22.4771 31.1055 20.9786C31.1055 20.604 31.0462 20.2829 30.987 19.9083C31.698 19.6407 32.5275 19.4266 33.3569 19.4266C35.6084 19.4266 38.1561 20.711 38.1561 22.9587C38.1561 25.2064 35.6084 26.4908 33.3569 26.4908C31.9942 26.4908 30.75 26.0627 29.8613 25.4205C29.6835 25.2599 29.5058 25.0994 29.328 24.8853ZM23.8772 27.0795C23.7587 27.0795 23.5809 27.0795 23.4624 27.0795C22.2775 27.0795 21.0925 26.8654 20.0853 26.4908C18.4263 26.8119 16.8266 27.9358 16.8266 29.5948C16.8266 31.6284 19.1373 32.7523 21.1517 32.7523C23.1662 32.7523 25.4769 31.5749 25.4769 29.5948C25.4769 28.7385 25.0029 27.9893 24.2919 27.4006C24.1734 27.2401 24.0549 27.133 23.8772 27.0795ZM23.4624 17.1789C25.8916 17.1789 28.6763 18.5703 28.6763 21.0321C28.6763 23.4404 25.8916 24.8853 23.4624 24.8853C21.0332 24.8853 18.2486 23.4939 18.2486 21.0321C18.2486 18.5703 21.0332 17.1789 23.4624 17.1789Z" fill="url(#paint0_linear)"/>
<defs>
<linearGradient id="paint0_linear" x1="41" y1="17.5" x2="2.62707e-07" y2="17.5" gradientUnits="userSpaceOnUse">
<stop stop-color="#807CFA"/>
<stop offset="1" stop-color="#03EE65"/>
</linearGradient>
</defs>
</svg>
