<svg width="39" height="49" viewBox="0 0 39 49" fill="none" xmlns="http://www.w3.org/2000/svg">
<path fill-rule="evenodd" clip-rule="evenodd" d="M2.98978 0H29.6985C31.3595 0 32.6882 1.66951 32.6882 3.75639V7.01192H37.8041C38.4685 7.01192 39 7.67973 39 8.51448V36.0613C39 36.8961 38.4685 37.5639 37.8041 37.5639H32.6882V45.2436C32.6882 47.3305 31.3595 49 29.6985 49H2.98978C1.32879 49 0 47.3305 0 45.2436V3.75639C0 1.66951 1.32879 0 2.98978 0ZM24.8484 23.707V20.7853H17.8058L20.5963 17.2794L18.9353 15.1925L13.3543 22.2044L18.9353 29.2164L20.5963 27.1295L17.8058 23.6235H24.8484V23.707V23.707ZM30.2964 3.75639C30.2964 3.33901 30.0307 3.00511 29.6985 3.00511H2.98978C2.65758 2.92164 2.32538 3.33901 2.32538 3.75639V45.1601C2.32538 45.5775 2.65758 45.9114 2.98978 45.9114H29.6985C30.0307 45.9114 30.2964 45.5775 30.2964 45.1601V37.4804H8.37138C7.70698 37.4804 7.17547 36.8126 7.17547 35.9779V13.1891C7.17547 12.7717 7.30835 12.3543 7.57411 12.1039L11.3612 7.4293C11.5605 7.17888 11.8927 7.01192 12.2249 7.01192H30.2964V3.75639V3.75639ZM36.5417 9.85009H12.6899L9.56729 13.6899V34.4753H36.5417V9.85009V9.85009Z" fill="url(#paint0_linear)"/>
<defs>
<linearGradient id="paint0_linear" x1="39" y1="24.5" x2="0" y2="24.5" gradientUnits="userSpaceOnUse">
<stop stop-color="#A31FED"/>
<stop offset="1" stop-color="#03EE65"/>
</linearGradient>
</defs>
</svg>
