<svg width="43" height="51" viewBox="0 0 43 51" fill="none" xmlns="http://www.w3.org/2000/svg">
<g clip-path="url(#clip0)">
<path d="M41.1931 12.6756C40.9073 11.3892 40.4751 10.1549 39.9085 9.00681L40.7622 6.98275L37.1117 2.65412L35.406 3.66669C34.4377 2.99572 33.3971 2.48354 32.3127 2.14412L31.7098 0H26.5498L25.946 2.14412C24.8615 2.48248 23.8209 2.99434 22.8527 3.66563L21.1453 2.65306L17.4957 6.98275L18.3494 9.00681C17.7834 10.1553 17.3512 11.3895 17.0648 12.6756L15.2579 13.3896V19.5075L16.7449 20.1057L13.0245 24.5182C12.6698 24.939 12.367 25.4001 12.1063 25.8921C11.696 26.2002 11.309 26.5529 10.9641 26.962L1.92696 37.6805C1.31405 38.4033 0.828147 39.2632 0.497382 40.2103C0.166618 41.1574 -0.00243107 42.1729 2.64132e-05 43.1981C2.64132e-05 47.5001 2.9509 51 6.57813 51C7.4424 51.0031 8.29859 50.8027 9.09713 50.4106C9.89566 50.0185 10.6207 49.4424 11.2302 48.7156L20.2665 37.9971C20.6203 37.5774 20.924 37.1153 21.1838 36.6233C21.5941 36.3152 21.9811 35.9624 22.326 35.5534L26.0312 31.1589L26.5606 32.9035H31.7098L32.3127 30.7594C33.3974 30.4203 34.438 29.9078 35.406 29.2358L37.1126 30.2483L40.7622 25.9197L39.9085 23.8956C40.4746 22.7472 40.9068 21.513 41.1931 20.2268L43 19.5128V13.3918L41.1931 12.6756ZM15.0563 37.1981L8.28738 45.2264C7.94903 45.6263 7.51839 45.8985 7.04979 46.0086C6.58118 46.1186 6.09559 46.0617 5.65425 45.8448C5.21291 45.628 4.83559 45.261 4.56987 44.7902C4.30416 44.3193 4.16194 43.7657 4.16117 43.1991C4.16117 42.4331 4.41201 41.7137 4.86888 41.1719L11.6369 33.1457C12.2974 34.9658 13.5212 36.4161 15.0563 37.1981ZM19.2864 36.8347L10.2484 47.5522C9.76736 48.1257 9.19523 48.5804 8.56508 48.8899C7.93493 49.1994 7.25928 49.3576 6.57723 49.3553C5.20084 49.3536 3.88122 48.7043 2.90796 47.55C1.93471 46.3957 1.3873 44.8305 1.38588 43.1981C1.38409 42.3892 1.51752 41.5879 1.77846 40.8405C2.0394 40.0931 2.42267 39.4145 2.90611 38.8439L11.1523 29.0647C11.1167 29.3871 11.0978 29.7117 11.0958 30.0369C11.0958 30.4831 11.129 30.9209 11.1881 31.3491L3.88705 40.0084C3.53287 40.4264 3.25208 40.9235 3.06095 41.471C2.86981 42.0185 2.77212 42.6055 2.77353 43.1981C2.77495 44.394 3.17615 45.5405 3.88918 46.3862C4.6022 47.2319 5.56887 47.7078 6.57723 47.7094C7.59311 47.7094 8.54807 47.2409 9.26653 46.3887L18.3037 35.6702C18.6581 35.2523 18.9392 34.755 19.1304 34.2073C19.3217 33.6596 19.4195 33.0724 19.4181 32.4796C19.417 31.3587 19.0646 30.2783 18.4294 29.4485C17.7941 28.6186 16.9214 28.0986 15.9808 27.9894L17.14 26.6156C18.2018 26.9951 19.1319 27.7708 19.7922 28.8275C20.4525 29.8842 20.8077 31.1654 20.8049 32.4806C20.807 33.2893 20.6738 34.0905 20.413 34.8377C20.1522 35.585 19.769 36.2634 19.2855 36.8337L19.2864 36.8347ZM15.291 29.6427C15.3985 29.6257 15.506 29.614 15.6153 29.614C16.2562 29.6146 16.8707 29.9168 17.3238 30.4542C17.777 30.9917 18.0318 31.7205 18.0323 32.4806C18.0323 32.6145 18.0143 32.7441 18 32.8759C17.8923 32.8941 17.7836 32.9037 17.6748 32.9046C17.0339 32.904 16.4195 32.6018 15.9663 32.0643C15.5131 31.5268 15.2583 30.798 15.2579 30.0379C15.2579 29.903 15.2758 29.7723 15.291 29.6427ZM18.2338 25.3204L25.0027 17.2922C25.3411 16.8922 25.7717 16.62 26.2403 16.51C26.7089 16.3999 27.1945 16.4569 27.6359 16.6737C28.0772 16.8906 28.4545 17.2575 28.7202 17.7284C28.986 18.1992 29.1282 18.7529 29.1289 19.3194C29.1289 20.0844 28.8781 20.8048 28.4212 21.3467L21.6532 29.3728C20.9927 27.5528 19.7689 26.1024 18.2338 25.3204ZM22.1379 33.4528C22.171 33.1319 22.1934 32.8089 22.1934 32.4806C22.1934 32.0344 22.1611 31.5966 22.1011 31.1684L29.4022 22.5091C29.7565 22.0912 30.0375 21.5941 30.2288 21.0466C30.42 20.4991 30.5179 19.9121 30.5166 19.3194C30.5152 18.1233 30.1138 16.9766 29.4006 16.1309C28.6874 15.2852 27.7205 14.8095 26.712 14.8081C25.6961 14.8081 24.7411 15.2756 24.0227 16.1287L14.9855 26.8462C14.6311 27.2642 14.3501 27.7614 14.1588 28.3091C13.9675 28.8568 13.8697 29.4441 13.8711 30.0369C13.8724 31.1576 14.2249 32.2377 14.8602 33.0673C15.4954 33.8969 16.368 34.4168 17.3084 34.5259L16.1492 35.9008C15.0873 35.5215 14.1569 34.7459 13.4964 33.6892C12.836 32.6325 12.4807 31.3512 12.4835 30.0358C12.4818 29.2271 12.6153 28.426 12.8762 27.6788C13.1372 26.9316 13.5204 26.2532 14.0037 25.6828L23.0409 14.9653C23.5218 14.3916 24.0939 13.9368 24.7241 13.6271C25.3542 13.3175 26.0299 13.1591 26.712 13.1612C29.5751 13.1612 31.9033 15.9237 31.9033 19.3184C31.9053 20.1273 31.7719 20.9287 31.511 21.6761C31.25 22.4234 30.8667 23.102 30.3831 23.6725L22.1379 33.4517V33.4528ZM20.881 15.2012C21.4024 10.3488 24.8979 6.58219 29.1289 6.58219C33.7183 6.58219 37.4512 11.0096 37.4512 16.4528C37.4512 21.471 34.2755 25.6169 30.1842 26.2352L31.3631 24.837C31.9761 24.1142 32.462 23.2543 32.7927 22.3072C33.1235 21.3601 33.2925 20.3446 33.2901 19.3194C33.2901 15.0163 30.3392 11.5175 26.712 11.5175C25.8477 11.5144 24.9915 11.7148 24.193 12.1069C23.3945 12.499 22.6694 13.0751 22.0599 13.8019L20.881 15.2012ZM41.6133 18.3271L40.0223 18.9561L39.9345 19.4076C39.6585 20.8298 39.1834 22.187 38.5289 23.4228L38.3229 23.8149L39.0754 25.5977L36.8385 28.2498L35.3353 27.3572L35.0047 27.6027C33.9627 28.3789 32.8184 28.9424 31.6194 29.2698L31.2395 29.3728L30.7101 31.2588H27.5361L27.1151 29.8743L28.7384 27.9512C28.8683 27.9565 28.9973 27.9692 29.1289 27.9692C34.4833 27.9692 38.8389 22.8034 38.8389 16.4517C38.8389 10.1023 34.4833 4.93637 29.1289 4.93637C23.7745 4.93637 19.419 10.1012 19.419 16.4517C19.419 16.6079 19.4289 16.7609 19.4342 16.9161L17.8379 18.8094L16.6455 18.3292V14.5775L18.2365 13.9485L18.3234 13.4969C18.5994 12.0748 19.0745 10.7176 19.729 9.48175L19.935 9.08969L19.1834 7.30894L21.4194 4.65694L22.9226 5.54944L23.2541 5.30294C24.2958 4.5272 25.4398 3.96406 26.6385 3.63694L27.0184 3.53281L27.5487 1.64581H30.711L31.2413 3.53281L31.6212 3.63694C32.8171 3.96313 33.9557 4.52413 35.0065 5.30294L35.3371 5.54838L36.8403 4.65588L39.0763 7.30894L38.3238 9.09181L38.5307 9.48387C39.1851 10.7197 39.6602 12.0769 39.9363 13.4991L40.0232 13.9496L41.6133 14.5775V18.3281V18.3271Z" fill="url(#paint0_linear)"/>
<path d="M35.3711 32.9038C31.1643 32.9038 27.7422 36.9626 27.7422 41.9521C27.7422 46.9405 31.1643 51.0003 35.3711 51.0003C39.577 51.0003 43 46.9416 43 41.9521C43 36.9626 39.5779 32.9038 35.3711 32.9038ZM35.3711 49.3556C33.7161 49.3536 32.1293 48.573 30.9591 47.185C29.7888 45.797 29.1306 43.915 29.1289 41.9521C29.1306 39.9891 29.7888 38.1072 30.9591 36.7192C32.1293 35.3312 33.7161 34.5505 35.3711 34.5486C37.0261 34.5505 38.6129 35.3312 39.7831 36.7192C40.9534 38.1072 41.6116 39.9891 41.6133 41.9521C41.6116 43.915 40.9534 45.797 39.7831 47.185C38.6129 48.573 37.0261 49.3536 35.3711 49.3556Z" fill="url(#paint1_linear)"/>
<path d="M33.9803 44.9017L32.3902 43.0158L31.4102 44.1792L33.9812 47.2286L40.0191 40.0663L39.0391 38.9028L33.9803 44.9017Z" fill="url(#paint2_linear)"/>
<path d="M3.47122 25.4997H4.85797V11.5161H3.75789L6.24561 8.56556L8.73245 11.5161H7.63236V25.4997H9.02001V13.1609H12.0811L6.24561 6.23975L0.410156 13.1609H3.47032V25.4997H3.47122Z" fill="url(#paint3_linear)"/>
<path d="M30.6697 8.42852C30.164 8.29343 29.6473 8.22537 29.1289 8.22559V9.87034C29.5455 9.87034 29.9602 9.92452 30.3625 10.034L30.6697 8.42959V8.42852Z" fill="url(#paint4_linear)"/>
<path d="M34.6765 16.4513H36.0633C36.0659 14.9406 35.7167 13.4584 35.0542 12.1682C34.3917 10.8779 33.4417 9.82972 32.3088 9.13916L31.6719 10.6012C32.5783 11.1536 33.3386 11.9921 33.8688 13.0244C34.3989 14.0567 34.6785 15.2426 34.6765 16.4513Z" fill="url(#paint5_linear)"/>
</g>
<defs>
<linearGradient id="paint0_linear" x1="43" y1="25.5" x2="2.563e-05" y2="25.5" gradientUnits="userSpaceOnUse">
<stop stop-color="#A31FED"/>
<stop offset="1" stop-color="#03EE65"/>
</linearGradient>
<linearGradient id="paint1_linear" x1="43" y1="25.5003" x2="3.11328e-05" y2="25.5003" gradientUnits="userSpaceOnUse">
<stop stop-color="#A31FED"/>
<stop offset="1" stop-color="#03EE65"/>
</linearGradient>
<linearGradient id="paint2_linear" x1="42.9969" y1="25.5005" x2="-0.00312463" y2="25.5005" gradientUnits="userSpaceOnUse">
<stop stop-color="#A31FED"/>
<stop offset="1" stop-color="#03EE65"/>
</linearGradient>
<linearGradient id="paint3_linear" x1="43.0034" y1="25.4997" x2="0.00344664" y2="25.4997" gradientUnits="userSpaceOnUse">
<stop stop-color="#A31FED"/>
<stop offset="1" stop-color="#03EE65"/>
</linearGradient>
<linearGradient id="paint4_linear" x1="43" y1="25.4997" x2="-3.1003e-05" y2="25.4997" gradientUnits="userSpaceOnUse">
<stop stop-color="#A31FED"/>
<stop offset="1" stop-color="#03EE65"/>
</linearGradient>
<linearGradient id="paint5_linear" x1="42.9988" y1="25.4995" x2="-0.00123725" y2="25.4995" gradientUnits="userSpaceOnUse">
<stop stop-color="#A31FED"/>
<stop offset="1" stop-color="#03EE65"/>
</linearGradient>
<clipPath id="clip0">
<rect width="43" height="51" fill="white"/>
</clipPath>
</defs>
</svg>
