<svg width="55" height="44" viewBox="0 0 55 44" fill="none" xmlns="http://www.w3.org/2000/svg">
<g clip-path="url(#clip0)">
<path d="M3.66667 37.5467H5.5V35.9822H3.66667C3.42591 35.9822 3.18751 35.9418 2.96508 35.8631C2.74265 35.7845 2.54055 35.6693 2.3703 35.524C2.20006 35.3787 2.06502 35.2063 1.97289 35.0165C1.88075 34.8267 1.83333 34.6232 1.83333 34.4178V3.12889C1.83333 2.71397 2.02649 2.31605 2.3703 2.02266C2.71412 1.72927 3.18044 1.56444 3.66667 1.56444H44C44.4862 1.56444 44.9525 1.72927 45.2964 2.02266C45.6402 2.31605 45.8333 2.71397 45.8333 3.12889V4.69333H47.6667V3.12889C47.6667 2.29906 47.2804 1.50321 46.5927 0.91643C45.9051 0.32965 44.9725 0 44 0L3.66667 0C2.69421 0 1.76158 0.32965 1.07394 0.91643C0.386308 1.50321 0 2.29906 0 3.12889L0 34.4178C0 35.2476 0.386308 36.0435 1.07394 36.6302C1.76158 37.217 2.69421 37.5467 3.66667 37.5467Z" fill="url(#paint0_linear)"/>
<path d="M3.66797 3.12891H5.5013V4.69335H3.66797V3.12891Z" fill="url(#paint1_linear)"/>
<path d="M7.33594 3.12891H9.16927V4.69335H7.33594V3.12891Z" fill="url(#paint2_linear)"/>
<path d="M11 3.12891H12.8333V4.69335H11V3.12891Z" fill="url(#paint3_linear)"/>
<path d="M7.33594 40.6756C7.33594 41.5054 7.72225 42.3013 8.40988 42.8881C8.75036 43.1786 9.15457 43.4091 9.59943 43.5663C10.0443 43.7235 10.5211 43.8045 11.0026 43.8045H51.3359C52.3084 43.8045 53.241 43.4748 53.9286 42.8881C54.6163 42.3013 55.0026 41.5054 55.0026 40.6756V9.3867C55.0026 8.55687 54.6163 7.76102 53.9286 7.17424C53.241 6.58746 52.3084 6.25781 51.3359 6.25781H11.0026C10.0301 6.25781 9.09751 6.58746 8.40988 7.17424C7.72225 7.76102 7.33594 8.55687 7.33594 9.3867V40.6756ZM9.16927 9.3867C9.16927 8.97179 9.36242 8.57386 9.70624 8.28047C10.0501 7.98708 10.5164 7.82226 11.0026 7.82226H51.3359C51.8222 7.82226 52.2885 7.98708 52.6323 8.28047C52.9761 8.57386 53.1693 8.97179 53.1693 9.3867V40.6756C53.1693 41.0905 52.9761 41.4884 52.6323 41.7818C52.2885 42.0752 51.8222 42.24 51.3359 42.24H11.0026C10.5164 42.24 10.0501 42.0752 9.70624 41.7818C9.36242 41.4884 9.16927 41.0905 9.16927 40.6756V9.3867Z" fill="url(#paint4_linear)"/>
<path d="M11 9.38672H12.8333V10.9512H11V9.38672Z" fill="url(#paint5_linear)"/>
<path d="M14.668 9.38672H16.5013V10.9512H14.668V9.38672Z" fill="url(#paint6_linear)"/>
<path d="M18.332 9.38672H20.1654V10.9512H18.332V9.38672Z" fill="url(#paint7_linear)"/>
<path d="M11 12.5156H51.3333V14.0801H11V12.5156Z" fill="url(#paint8_linear)"/>
<path d="M11 16.4268H18.3333V17.9912H11V16.4268Z" fill="url(#paint9_linear)"/>
<path d="M11 19.5557H16.5V21.1201H11V19.5557Z" fill="url(#paint10_linear)"/>
<path d="M31.1667 22.6846C30.324 22.6846 29.4896 22.8262 28.7111 23.1014C27.9326 23.3765 27.2252 23.7799 26.6294 24.2883C26.0336 24.7968 25.5609 25.4004 25.2384 26.0647C24.916 26.729 24.75 27.4411 24.75 28.1601C24.75 28.8792 24.916 29.5912 25.2384 30.2555C25.5609 30.9199 26.0336 31.5235 26.6294 32.0319C27.2252 32.5404 27.9326 32.9437 28.7111 33.2189C29.4896 33.494 30.324 33.6357 31.1667 33.6357C32.8685 33.6357 34.5006 33.0588 35.7039 32.0319C36.9073 31.0051 37.5833 29.6123 37.5833 28.1601C37.5833 26.7079 36.9073 25.3152 35.7039 24.2883C34.5006 23.2615 32.8685 22.6846 31.1667 22.6846ZM31.1667 32.0712C29.9511 32.0712 28.7853 31.6592 27.9258 30.9257C27.0662 30.1922 26.5833 29.1974 26.5833 28.1601C26.5833 27.1228 27.0662 26.128 27.9258 25.3946C28.7853 24.6611 29.9511 24.249 31.1667 24.249C32.3822 24.249 33.548 24.6611 34.4076 25.3946C35.2671 26.128 35.75 27.1228 35.75 28.1601C35.75 29.1974 35.2671 30.1922 34.4076 30.9257C33.548 31.6592 32.3822 32.0712 31.1667 32.0712Z" fill="url(#paint11_linear)"/>
<path d="M45.8333 25.8134C45.8333 25.606 45.7368 25.407 45.5648 25.2603C45.3929 25.1136 45.1598 25.0312 44.9167 25.0312H42.4944C42.3002 24.5173 42.0576 24.0177 41.7691 23.5372L43.4821 22.0764C43.5673 22.0037 43.6349 21.9174 43.6811 21.8225C43.7272 21.7275 43.7509 21.6257 43.7509 21.5229C43.7509 21.4201 43.7272 21.3183 43.6811 21.2234C43.6349 21.1284 43.5673 21.0422 43.4821 20.9695L39.5931 17.6509C39.508 17.5782 39.4069 17.5205 39.2956 17.4811C39.1843 17.4418 39.065 17.4215 38.9446 17.4215C38.8241 17.4215 38.7048 17.4418 38.5936 17.4811C38.4823 17.5205 38.3812 17.5782 38.296 17.6509L36.5842 19.1117C36.0208 18.8662 35.4353 18.6596 34.8333 18.4938V16.4268C34.8333 16.2193 34.7368 16.0203 34.5648 15.8736C34.3929 15.7269 34.1598 15.6445 33.9167 15.6445H28.4167C28.1736 15.6445 27.9404 15.7269 27.7685 15.8736C27.5966 16.0203 27.5 16.2193 27.5 16.4268V18.4938C26.8984 18.66 26.3129 18.8663 25.7492 19.1117L24.0373 17.6509C23.9522 17.5782 23.8511 17.5205 23.7398 17.4811C23.6285 17.4418 23.5092 17.4215 23.3888 17.4215C23.2683 17.4215 23.149 17.4418 23.0377 17.4811C22.9264 17.5205 22.8253 17.5782 22.7402 17.6509L18.8513 20.9695C18.766 21.0422 18.6984 21.1284 18.6523 21.2234C18.6061 21.3183 18.5824 21.4201 18.5824 21.5229C18.5824 21.6257 18.6061 21.7275 18.6523 21.8225C18.6984 21.9174 18.766 22.0037 18.8513 22.0764L20.5631 23.5372C20.2754 24.0179 20.0333 24.5175 19.839 25.0312H17.4167C17.1736 25.0312 16.9404 25.1136 16.7685 25.2603C16.5966 25.407 16.5 25.606 16.5 25.8134V30.5068C16.5 30.7142 16.5966 30.9132 16.7685 31.0599C16.9404 31.2066 17.1736 31.289 17.4167 31.289H19.839C20.0337 31.8033 20.2755 32.3029 20.5643 32.783L18.8513 34.2438C18.766 34.3165 18.6984 34.4027 18.6523 34.4977C18.6061 34.5927 18.5824 34.6944 18.5824 34.7972C18.5824 34.9 18.6061 35.0018 18.6523 35.0968C18.6984 35.1917 18.766 35.278 18.8513 35.3507L22.7402 38.6692C22.8253 38.742 22.9264 38.7997 23.0377 38.839C23.149 38.8784 23.2683 38.8987 23.3888 38.8987C23.5092 38.8987 23.6285 38.8784 23.7398 38.839C23.8511 38.7997 23.9522 38.742 24.0373 38.6692L25.7492 37.2084C26.3129 37.4529 26.8984 37.6602 27.5 37.8264V39.8934C27.5 40.1009 27.5966 40.2998 27.7685 40.4465C27.9404 40.5932 28.1736 40.6756 28.4167 40.6756H33.9167C34.1598 40.6756 34.3929 40.5932 34.5648 40.4465C34.7368 40.2998 34.8333 40.1009 34.8333 39.8934V37.8264C35.4349 37.6602 36.0204 37.4539 36.5842 37.2084L38.296 38.6692C38.3812 38.742 38.4823 38.7997 38.5936 38.839C38.7048 38.8784 38.8241 38.8987 38.9446 38.8987C39.065 38.8987 39.1843 38.8784 39.2956 38.839C39.4069 38.7997 39.508 38.742 39.5931 38.6692L43.4821 35.3507C43.5673 35.278 43.6349 35.1917 43.6811 35.0968C43.7272 35.0018 43.7509 34.9 43.7509 34.7972C43.7509 34.6944 43.7272 34.5927 43.6811 34.4977C43.6349 34.4027 43.5673 34.3165 43.4821 34.2438L41.7691 32.783C42.0578 32.3029 42.2996 31.8033 42.4944 31.289H44.9167C45.1598 31.289 45.3929 31.2066 45.5648 31.0599C45.7368 30.9132 45.8333 30.7142 45.8333 30.5068V25.8134ZM44 29.7245H41.8057C41.6024 29.7244 41.4049 29.782 41.2441 29.8882C41.0834 29.9944 40.9685 30.1432 40.9177 30.3112C40.6835 31.0877 40.3224 31.8322 39.8452 32.5229C39.7421 32.6724 39.7001 32.8468 39.7258 33.0189C39.7515 33.1909 39.8435 33.3508 39.9873 33.4733L41.5365 34.7972L38.9446 37.01L37.3931 35.687C37.2495 35.5643 37.0622 35.4858 36.8605 35.4639C36.6589 35.4419 36.4545 35.4778 36.2794 35.5658C35.47 35.9731 34.5975 36.2812 33.6875 36.481C33.4907 36.5243 33.3163 36.6223 33.1918 36.7595C33.0674 36.8967 32.9999 37.0653 33 37.2388V39.1112H29.3333V37.2388C29.3334 37.0653 29.266 36.8967 29.1415 36.7595C29.017 36.6223 28.8427 36.5243 28.6458 36.481C27.7358 36.2812 26.8633 35.9731 26.054 35.5658C25.8788 35.4778 25.6744 35.4419 25.4728 35.4639C25.2712 35.4858 25.0838 35.5643 24.9402 35.687L23.3888 37.01L20.7969 34.7972L22.346 33.4733C22.4898 33.3508 22.5818 33.1909 22.6076 33.0189C22.6333 32.8468 22.5913 32.6724 22.4881 32.5229C22.0109 31.8322 21.6499 31.0877 21.4156 30.3112C21.3648 30.1432 21.25 29.9944 21.0892 29.8882C20.9285 29.782 20.7309 29.7244 20.5276 29.7245H18.3333V26.5956H20.5276C20.7309 26.5957 20.9285 26.5381 21.0892 26.4319C21.25 26.3257 21.3648 26.1769 21.4156 26.009C21.6507 25.2315 22.0117 24.4858 22.4881 23.7933C22.5913 23.6439 22.6333 23.4694 22.6076 23.2974C22.5818 23.1254 22.4898 22.9655 22.346 22.8429L20.7969 21.521L23.3888 19.3083L24.9402 20.6322C25.0841 20.7546 25.2716 20.8327 25.4732 20.8543C25.6748 20.8759 25.8791 20.8397 26.054 20.7515C26.8633 20.3439 27.7358 20.0355 28.6458 19.8353C28.8425 19.792 29.0167 19.6941 29.1411 19.5571C29.2656 19.4202 29.3332 19.2518 29.3333 19.0785V17.209H33V19.0814C32.9999 19.2549 33.0674 19.4235 33.1918 19.5607C33.3163 19.6978 33.4907 19.7958 33.6875 19.8392C34.5976 20.0386 35.4702 20.3467 36.2794 20.7544C36.4545 20.8424 36.6589 20.8783 36.8605 20.8563C37.0622 20.8344 37.2495 20.7559 37.3931 20.6332L38.9446 19.3102L41.5365 21.5229L39.9873 22.8468C39.8435 22.9694 39.7515 23.1293 39.7258 23.3013C39.7001 23.4733 39.7421 23.6478 39.8452 23.7972C40.3229 24.4877 40.684 25.2323 40.9177 26.009C40.9685 26.1769 41.0834 26.3257 41.2441 26.4319C41.4049 26.5381 41.6024 26.5957 41.8057 26.5956H44V29.7245Z" fill="url(#paint12_linear)"/>
<path d="M45.832 39.1113H51.332V40.6758H45.832V39.1113Z" fill="url(#paint13_linear)"/>
</g>
<defs>
<linearGradient id="paint0_linear" x1="55" y1="21.9022" x2="0" y2="21.9022" gradientUnits="userSpaceOnUse">
<stop stop-color="#A31FED"/>
<stop offset="1" stop-color="#03EE65"/>
</linearGradient>
<linearGradient id="paint1_linear" x1="55.0013" y1="21.9022" x2="0.00130313" y2="21.9022" gradientUnits="userSpaceOnUse">
<stop stop-color="#A31FED"/>
<stop offset="1" stop-color="#03EE65"/>
</linearGradient>
<linearGradient id="paint2_linear" x1="55.0026" y1="21.9022" x2="0.00261198" y2="21.9022" gradientUnits="userSpaceOnUse">
<stop stop-color="#A31FED"/>
<stop offset="1" stop-color="#03EE65"/>
</linearGradient>
<linearGradient id="paint3_linear" x1="55" y1="21.9022" x2="-2.58535e-06" y2="21.9022" gradientUnits="userSpaceOnUse">
<stop stop-color="#A31FED"/>
<stop offset="1" stop-color="#03EE65"/>
</linearGradient>
<linearGradient id="paint4_linear" x1="55.0026" y1="21.9023" x2="0.00260624" y2="21.9023" gradientUnits="userSpaceOnUse">
<stop stop-color="#A31FED"/>
<stop offset="1" stop-color="#03EE65"/>
</linearGradient>
<linearGradient id="paint5_linear" x1="55" y1="21.9023" x2="-2.58535e-06" y2="21.9023" gradientUnits="userSpaceOnUse">
<stop stop-color="#A31FED"/>
<stop offset="1" stop-color="#03EE65"/>
</linearGradient>
<linearGradient id="paint6_linear" x1="55.0012" y1="21.9023" x2="0.00132915" y2="21.9023" gradientUnits="userSpaceOnUse">
<stop stop-color="#A31FED"/>
<stop offset="1" stop-color="#03EE65"/>
</linearGradient>
<linearGradient id="paint7_linear" x1="54.9987" y1="21.9023" x2="-0.00130639" y2="21.9023" gradientUnits="userSpaceOnUse">
<stop stop-color="#A31FED"/>
<stop offset="1" stop-color="#03EE65"/>
</linearGradient>
<linearGradient id="paint8_linear" x1="55" y1="21.9023" x2="2.28123e-06" y2="21.9023" gradientUnits="userSpaceOnUse">
<stop stop-color="#A31FED"/>
<stop offset="1" stop-color="#03EE65"/>
</linearGradient>
<linearGradient id="paint9_linear" x1="55" y1="21.9023" x2="2.75672e-07" y2="21.9023" gradientUnits="userSpaceOnUse">
<stop stop-color="#A31FED"/>
<stop offset="1" stop-color="#03EE65"/>
</linearGradient>
<linearGradient id="paint10_linear" x1="55" y1="21.9023" x2="8.19564e-07" y2="21.9023" gradientUnits="userSpaceOnUse">
<stop stop-color="#A31FED"/>
<stop offset="1" stop-color="#03EE65"/>
</linearGradient>
<linearGradient id="paint11_linear" x1="55" y1="21.9023" x2="6.89179e-06" y2="21.9023" gradientUnits="userSpaceOnUse">
<stop stop-color="#A31FED"/>
<stop offset="1" stop-color="#03EE65"/>
</linearGradient>
<linearGradient id="paint12_linear" x1="55" y1="21.9023" x2="-1.52737e-07" y2="21.9023" gradientUnits="userSpaceOnUse">
<stop stop-color="#A31FED"/>
<stop offset="1" stop-color="#03EE65"/>
</linearGradient>
<linearGradient id="paint13_linear" x1="54.9987" y1="21.9025" x2="-0.00126934" y2="21.9025" gradientUnits="userSpaceOnUse">
<stop stop-color="#A31FED"/>
<stop offset="1" stop-color="#03EE65"/>
</linearGradient>
<clipPath id="clip0">
<rect width="55" height="44" fill="white"/>
</clipPath>
</defs>
</svg>
