<svg width="47" height="47" viewBox="0 0 47 47" fill="none" xmlns="http://www.w3.org/2000/svg">
<g clip-path="url(#clip0)">
<path d="M45.4461 27.2818H44.7195V21.0026C44.7192 20.5304 44.6008 20.0652 44.3742 19.6461C44.1475 19.227 43.8194 18.8663 43.4172 18.5943V17.7399C43.4165 17.1438 43.1694 16.5723 42.7304 16.1508C42.2913 15.7293 41.696 15.4921 41.0751 15.4914H40.5326L42.6075 12.5689C42.9409 12.0976 43.0661 11.5186 42.9556 10.9588C42.8451 10.399 42.5079 9.9041 42.018 9.58255L27.9425 0.374305C27.7 0.214458 27.4269 0.102404 27.139 0.0446376C26.851 -0.0131286 26.554 -0.0154578 26.2652 0.0377849C25.6777 0.144005 25.1685 0.464545 24.8317 0.939245L12.6831 18.0538H9.30208L10.1177 10.1277C10.1219 10.0843 10.1386 10.0428 10.1659 10.008C10.1932 9.97309 10.2301 9.94622 10.2724 9.93035C11.3287 9.54544 12.2276 8.844 12.8359 7.93003C12.8606 7.89407 12.8951 7.86538 12.9357 7.84713C12.9764 7.82888 13.0214 7.82178 13.066 7.82663L18.3682 8.32953C18.5492 8.34424 18.729 8.28997 18.8686 8.17845C19.0083 8.06693 19.0966 7.90713 19.1145 7.73359C19.1323 7.56005 19.0784 7.38673 18.9642 7.2511C18.85 7.11548 18.6848 7.02844 18.5043 7.00883L13.2021 6.50593C12.903 6.47608 12.6012 6.52686 12.3305 6.65256C12.0598 6.77825 11.831 6.97389 11.6697 7.21751C11.222 7.88942 10.5607 8.40495 9.78383 8.68766C9.49957 8.78992 9.25108 8.96699 9.06681 9.19858C8.88255 9.43017 8.76998 9.70691 8.742 9.99709L7.91265 18.0529H7.0314L8.32096 5.51799C8.34348 5.30099 8.45483 5.10146 8.63056 4.96326C8.80628 4.82506 9.03197 4.75951 9.25802 4.78103L19.973 5.79623C20.1486 5.80163 20.3197 5.74279 20.4517 5.63161C20.5838 5.52044 20.6668 5.36524 20.6841 5.19746C20.7014 5.02968 20.6517 4.86186 20.5449 4.72799C20.4381 4.59412 20.2824 4.50421 20.1091 4.47647L9.39412 3.45939C8.80338 3.40402 8.21386 3.57578 7.75481 3.937C7.29576 4.29822 7.00463 4.81943 6.94523 5.38639L5.90535 15.4914H4.13502C3.51408 15.4921 2.91879 15.7293 2.47972 16.1508C2.04064 16.5723 1.79363 17.1438 1.79285 17.7399V18.3227C1.25834 18.5583 0.805371 18.936 0.487617 19.4111C0.169863 19.8863 0.000641004 20.4389 0 21.0035L0 43.6275C0.00103638 44.4095 0.325091 45.1592 0.901096 45.7121C1.4771 46.2651 2.25803 46.5762 3.07263 46.5772H41.6469C42.4615 46.5762 43.2424 46.2651 43.8184 45.7121C44.3944 45.1592 44.7185 44.4095 44.7195 43.6275V37.3492H45.4461C46.3028 37.3492 47 36.6799 47 35.8574V28.7736C47 27.9511 46.3028 27.2818 45.4461 27.2818ZM41.0751 16.8187C41.6038 16.8187 42.0346 17.2323 42.0346 17.7399V18.0783C41.9061 18.0623 41.7766 18.0541 41.6469 18.0538H38.7133L39.5906 16.8187H41.0751ZM25.9744 1.68748C26.0527 1.57622 26.1583 1.48517 26.2819 1.42238C26.4056 1.35959 26.5434 1.32699 26.6833 1.32746C26.8536 1.32746 27.0201 1.37729 27.164 1.47128L41.2396 10.6786C41.4271 10.8016 41.5562 10.9911 41.5984 11.2054C41.6406 11.4197 41.5926 11.6413 41.4648 11.8216L37.0409 18.0538H35.9785L38.1474 14.9988C38.3201 14.759 38.4188 14.4772 38.4323 14.1859C38.4458 13.8946 38.3735 13.6056 38.2237 13.3519C37.8167 12.6567 37.654 11.8541 37.7596 11.063C37.7989 10.7769 37.7544 10.4858 37.6308 10.2226C37.5073 9.95941 37.3098 9.7345 37.0605 9.57315L29.7647 4.79983C29.517 4.63591 29.2266 4.54158 28.9261 4.52747C28.6257 4.51335 28.3271 4.58 28.0639 4.71992C27.3356 5.10381 26.4978 5.25214 25.6747 5.14293C25.3747 5.10442 25.0693 5.1466 24.7928 5.26476C24.5162 5.38292 24.2791 5.57243 24.1081 5.81221L15.418 18.0538H14.3565L25.9744 1.68748ZM26.2779 12.9581C24.8351 12.9599 23.4466 13.4866 22.3921 14.4319C21.3376 15.3773 20.6954 16.6711 20.5948 18.0529H17.0904L25.2508 6.56139C25.2761 6.52513 25.3113 6.49628 25.3526 6.47804C25.3939 6.45979 25.4396 6.45285 25.4848 6.45799C26.604 6.60643 27.7432 6.4047 28.7336 5.88271C28.7732 5.86288 28.8176 5.8538 28.8621 5.85645C28.9067 5.8591 28.9496 5.87338 28.9863 5.89775L36.283 10.6711C36.3203 10.6949 36.3501 10.7281 36.3691 10.7671C36.3881 10.806 36.3955 10.8492 36.3907 10.892C36.2465 11.9677 36.4673 13.0594 37.0203 14.0052C37.042 14.0435 37.0523 14.0868 37.0498 14.1303C37.0474 14.1737 37.0325 14.2157 37.0066 14.2515L34.3071 18.0548H31.9629C31.8626 16.6729 31.2205 15.3788 30.166 14.4332C29.1115 13.4877 27.7228 12.9609 26.2799 12.959L26.2779 12.9581ZM30.5764 18.0529H21.9813C22.0801 17.0238 22.5754 16.0673 23.3703 15.3704C24.1652 14.6736 25.2024 14.2866 26.2789 14.2854C27.3553 14.2869 28.3924 14.674 29.1871 15.3711C29.9818 16.0681 30.4769 17.0248 30.5755 18.0538L30.5764 18.0529ZM3.17544 17.7399C3.17544 17.2323 3.60627 16.8187 4.13502 16.8187H5.76925L5.64196 18.0538H3.17446V17.7399H3.17544ZM1.38356 21.0035C1.38356 20.1087 2.14046 19.3811 3.07263 19.3811H41.6469C42.5791 19.3811 43.3369 20.1087 43.3369 21.0035V22.845H1.38258V21.0026L1.38356 21.0035ZM43.3369 43.6275C43.3369 44.5223 42.5791 45.2499 41.6469 45.2499H3.07263C2.62456 45.2494 2.19499 45.0783 1.87816 44.7742C1.56133 44.47 1.3831 44.0576 1.38258 43.6275V41.7851H5.11125C5.20416 41.7884 5.29681 41.7738 5.38368 41.7419C5.47054 41.7101 5.54983 41.6618 5.61679 41.5999C5.68376 41.538 5.73703 41.4638 5.77342 41.3816C5.8098 41.2995 5.82855 41.2111 5.82855 41.1219C5.82855 41.0326 5.8098 40.9443 5.77342 40.8622C5.73703 40.78 5.68376 40.7058 5.61679 40.6439C5.54983 40.582 5.47054 40.5337 5.38368 40.5019C5.29681 40.47 5.20416 40.4554 5.11125 40.4587H1.38258V24.1723H43.3379V27.2818H36.7648C35.7806 27.2827 34.8165 27.5491 33.9825 28.0507C33.1485 28.5524 32.4782 29.2689 32.0481 30.1187L32.0383 30.1347L32.0188 30.1789C31.9169 30.3857 31.8288 30.5991 31.7573 30.82V30.8218C31.5148 31.5752 31.4598 32.3726 31.5967 33.1501C31.7337 33.9276 32.0587 34.6633 32.5458 35.2982C33.0329 35.9331 33.6683 36.4494 34.4011 36.8056C35.1338 37.1619 35.9434 37.348 36.7648 37.3492H43.3379V40.4587H9.53708C9.35374 40.4587 9.17791 40.5286 9.04827 40.6531C8.91862 40.7776 8.84579 40.9464 8.84579 41.1224C8.84579 41.2984 8.91862 41.4672 9.04827 41.5916C9.17791 41.7161 9.35374 41.786 9.53708 41.786H43.3379V43.6275H43.3369ZM45.6174 35.8574C45.6174 35.9011 45.5994 35.9429 45.5672 35.9737C45.5351 36.0046 45.4915 36.0219 45.4461 36.0219H36.7638C36.143 36.021 35.5315 35.8766 34.9812 35.6008C34.4308 35.325 33.9578 34.926 33.6021 34.4375C33.2464 33.9491 33.0185 33.3855 32.9377 32.7946C32.8569 32.2037 32.9256 31.6028 33.1379 31.0427C33.2028 30.8734 33.2804 30.7088 33.37 30.5502C33.7014 29.9634 34.1916 29.4734 34.7889 29.1318C35.3862 28.7901 36.0685 28.6096 36.7638 28.6091H45.4461C45.5401 28.6091 45.6174 28.6833 45.6174 28.7736V35.8574Z" fill="url(#paint0_linear)"/>
<path d="M36.9264 29.6221C36.1826 29.6228 35.4695 29.9068 34.9436 30.4117C34.4177 30.9166 34.1219 31.6011 34.1211 32.3152C34.1221 33.029 34.4181 33.7134 34.944 34.218C35.4699 34.7227 36.1828 35.0066 36.9264 35.0073C37.6699 35.0063 38.3825 34.7224 38.9082 34.2177C39.4339 33.7131 39.7297 33.0289 39.7307 32.3152C39.73 31.6013 39.4343 30.9169 38.9086 30.412C38.3829 29.9072 37.67 29.6231 36.9264 29.6221ZM36.9264 33.6801C36.5493 33.6798 36.1877 33.536 35.921 33.2801C35.6543 33.0242 35.5042 32.6772 35.5037 32.3152C35.5037 31.5632 36.1421 30.9493 36.9264 30.9493C37.7097 30.9493 38.3482 31.5622 38.3482 32.3152C38.3482 33.0672 37.7107 33.6801 36.9264 33.6801Z" fill="url(#paint1_linear)"/>
</g>
<defs>
<linearGradient id="paint0_linear" x1="47" y1="23.2887" x2="0" y2="23.2887" gradientUnits="userSpaceOnUse">
<stop stop-color="#A31FED"/>
<stop offset="1" stop-color="#03EE65"/>
</linearGradient>
<linearGradient id="paint1_linear" x1="47.0001" y1="23.2883" x2="2.56974e-05" y2="23.2883" gradientUnits="userSpaceOnUse">
<stop stop-color="#A31FED"/>
<stop offset="1" stop-color="#03EE65"/>
</linearGradient>
<clipPath id="clip0">
<rect width="47" height="47" fill="white"/>
</clipPath>
</defs>
</svg>
