<svg width="47" height="47" viewBox="0 0 47 47" fill="none" xmlns="http://www.w3.org/2000/svg">
<g clip-path="url(#clip0)">
<path d="M44.2466 25.002V5.04858C44.245 3.70975 43.7124 2.42623 42.7655 1.47972C41.8186 0.53321 40.5349 0.00103655 39.196 0L5.04858 0C3.71009 0.00155488 2.42687 0.533957 1.48041 1.48041C0.533957 2.42687 0.00155488 3.71009 0 5.04858L0 36.4446C0.00155488 37.7831 0.533957 39.0663 1.48041 40.0128C2.42687 40.9592 3.71009 41.4916 5.04858 41.4932H16.7075V43.7883C16.7088 44.6397 17.0476 45.4559 17.6496 46.0579C18.2516 46.6599 19.0678 46.9987 19.9192 47H43.7883C44.6399 46.9987 45.4562 46.6598 46.0582 46.0575C46.6603 45.4553 46.999 44.6389 47 43.7874V28.1804C46.9989 27.4081 46.72 26.662 46.2143 26.0783C45.7086 25.4946 45.0099 25.1122 44.2456 25.0011L44.2466 25.002ZM43.7864 27.7231C43.9081 27.7231 44.0249 27.7714 44.1111 27.8572C44.1974 27.9431 44.2461 28.0597 44.2466 28.1814V31.303H19.4609V28.1804C19.4615 28.0589 19.51 27.9425 19.5961 27.8566C19.6821 27.7708 19.7986 27.7224 19.9202 27.7222H43.7874L43.7864 27.7231ZM5.04956 2.7544H39.198C39.8064 2.75491 40.3897 2.99676 40.82 3.42686C41.2503 3.85696 41.4924 4.4402 41.4932 5.04858V8.35327H2.75342V5.04858C2.75419 4.4402 2.99629 3.85696 3.42657 3.42686C3.85686 2.99676 4.4402 2.75491 5.04858 2.7544H5.04956ZM5.04956 38.7388C4.44118 38.738 3.85794 38.4959 3.42784 38.0656C2.99774 37.6353 2.75589 37.052 2.75537 36.4436V11.1077H41.4932V24.9688H19.9202C19.0683 24.9695 18.2515 25.3082 17.649 25.9105C17.0465 26.5128 16.7076 27.3295 16.7065 28.1814V38.7388H5.04858H5.04956ZM43.7883 44.2456H19.9202C19.7986 44.2453 19.6821 44.197 19.5961 44.1112C19.51 44.0253 19.4615 43.9089 19.4609 43.7874V40.4337C19.5106 40.2245 19.5106 40.0065 19.4609 39.7973V34.0554H44.2466V43.7864C44.2461 43.9081 44.1974 44.0246 44.1111 44.1105C44.0249 44.1964 43.9081 44.2446 43.7864 44.2446L43.7883 44.2456Z" fill="url(#paint0_linear)"/>
<path d="M11.1059 20.7684C10.5703 20.5804 9.28462 20.1104 8.84105 19.753C8.45722 19.4445 8.73628 18.8884 9.06528 18.7023C9.95437 18.199 10.819 19.0333 11.0334 19.1459C11.3292 19.2998 11.6707 19.3412 11.9947 19.2624C12.3186 19.1836 12.603 18.9901 12.7952 18.7176C12.9873 18.4452 13.0741 18.1123 13.0395 17.7807C13.0049 17.4491 12.8512 17.1413 12.6069 16.9144C12.5638 16.8811 12.0527 16.3269 11.0177 16.0086V15.238C11.0177 14.8729 10.8727 14.5227 10.6145 14.2646C10.3563 14.0064 10.0062 13.8613 9.64103 13.8613C9.27591 13.8613 8.92574 14.0064 8.66755 14.2646C8.40937 14.5227 8.26432 14.8729 8.26432 15.238V16.0527C7.09128 16.4542 6.22178 17.4725 5.98189 18.7444C5.52168 21.1884 7.20487 22.2322 9.41484 23.0821C10.1972 23.3827 10.769 23.464 10.8807 24.0809C11.1029 25.3186 9.46087 26.2184 7.76397 25.108C7.45831 24.9081 7.08574 24.8377 6.72821 24.9125C6.37069 24.9872 6.05749 25.2009 5.85753 25.5066C5.65757 25.8122 5.58722 26.1848 5.66196 26.5423C5.73669 26.8998 5.9504 27.213 6.25605 27.413C7.01197 27.9075 7.60535 28.1435 8.26335 28.2502V29.0081C8.26335 29.3733 8.40844 29.7236 8.66672 29.9819C8.92499 30.2402 9.27529 30.3853 9.64054 30.3853C10.0058 30.3853 10.3561 30.2402 10.6144 29.9819C10.8726 29.7236 11.0177 29.3733 11.0177 29.0081V28.0632C14.2999 26.8157 14.7102 22.0432 11.1059 20.7684Z" fill="url(#paint1_linear)"/>
<path d="M24.3247 38.6465H22.947C22.5819 38.6465 22.2317 38.7915 21.9735 39.0497C21.7154 39.3079 21.5703 39.6581 21.5703 40.0232C21.5703 40.3883 21.7154 40.7385 21.9735 40.9967C22.2317 41.2549 22.5819 41.3999 22.947 41.3999H24.3247C24.6898 41.3999 25.04 41.2549 25.2982 40.9967C25.5564 40.7385 25.7014 40.3883 25.7014 40.0232C25.7014 39.6581 25.5564 39.3079 25.2982 39.0497C25.04 38.7915 24.6898 38.6465 24.3247 38.6465Z" fill="url(#paint2_linear)"/>
<path d="M29.8325 38.6465H28.4548C28.0897 38.6465 27.7395 38.7915 27.4814 39.0497C27.2232 39.3079 27.0781 39.6581 27.0781 40.0232C27.0781 40.3883 27.2232 40.7385 27.4814 40.9967C27.7395 41.2549 28.0897 41.3999 28.4548 41.3999H29.8325C30.1976 41.3999 30.5478 41.2549 30.806 40.9967C31.0642 40.7385 31.2092 40.3883 31.2092 40.0232C31.2092 39.6581 31.0642 39.3079 30.806 39.0497C30.5478 38.7915 30.1976 38.6465 29.8325 38.6465Z" fill="url(#paint3_linear)"/>
<path d="M35.2495 38.6465H33.8728C33.5077 38.6465 33.1575 38.7915 32.8993 39.0497C32.6411 39.3079 32.4961 39.6581 32.4961 40.0232C32.4961 40.3883 32.6411 40.7385 32.8993 40.9967C33.1575 41.2549 33.5077 41.3999 33.8728 41.3999H35.2495C35.6146 41.3999 35.9648 41.2549 36.223 40.9967C36.4812 40.7385 36.6262 40.3883 36.6262 40.0232C36.6262 39.6581 36.4812 39.3079 36.223 39.0497C35.9648 38.7915 35.6146 38.6465 35.2495 38.6465Z" fill="url(#paint4_linear)"/>
<path d="M40.7573 38.6465H39.3806C39.0155 38.6465 38.6653 38.7915 38.4071 39.0497C38.149 39.3079 38.0039 39.6581 38.0039 40.0232C38.0039 40.3883 38.149 40.7385 38.4071 40.9967C38.6653 41.2549 39.0155 41.3999 39.3806 41.3999H40.7573C41.1224 41.3999 41.4726 41.2549 41.7308 40.9967C41.989 40.7385 42.134 40.3883 42.134 40.0232C42.134 39.6581 41.989 39.3079 41.7308 39.0497C41.4726 38.7915 41.1224 38.6465 40.7573 38.6465Z" fill="url(#paint5_linear)"/>
<path d="M17.9905 16.6157H37.2683C37.6336 16.6157 37.9839 16.4706 38.2421 16.2124C38.5004 15.9541 38.6455 15.6038 38.6455 15.2385C38.6455 14.8733 38.5004 14.523 38.2421 14.2647C37.9839 14.0064 37.6336 13.8613 37.2683 13.8613H17.9905C17.6252 13.8613 17.2749 14.0064 17.0167 14.2647C16.7584 14.523 16.6133 14.8733 16.6133 15.2385C16.6133 15.6038 16.7584 15.9541 17.0167 16.2124C17.2749 16.4706 17.6252 16.6157 17.9905 16.6157Z" fill="url(#paint6_linear)"/>
<path d="M17.9905 22.1235H37.2683C37.6336 22.1235 37.9839 21.9784 38.2421 21.7202C38.5004 21.4619 38.6455 21.1116 38.6455 20.7463C38.6455 20.3811 38.5004 20.0308 38.2421 19.7725C37.9839 19.5142 37.6336 19.3691 37.2683 19.3691H17.9905C17.6252 19.3691 17.2749 19.5142 17.0167 19.7725C16.7584 20.0308 16.6133 20.3811 16.6133 20.7463C16.6133 21.1116 16.7584 21.4619 17.0167 21.7202C17.2749 21.9784 17.6252 22.1235 17.9905 22.1235Z" fill="url(#paint7_linear)"/>
</g>
<defs>
<linearGradient id="paint0_linear" x1="47" y1="23.5" x2="0" y2="23.5" gradientUnits="userSpaceOnUse">
<stop stop-color="#A31FED"/>
<stop offset="1" stop-color="#03EE65"/>
</linearGradient>
<linearGradient id="paint1_linear" x1="47.0021" y1="23.5002" x2="0.00211539" y2="23.5002" gradientUnits="userSpaceOnUse">
<stop stop-color="#A31FED"/>
<stop offset="1" stop-color="#03EE65"/>
</linearGradient>
<linearGradient id="paint2_linear" x1="46.9983" y1="23.4998" x2="-0.00170609" y2="23.4998" gradientUnits="userSpaceOnUse">
<stop stop-color="#A31FED"/>
<stop offset="1" stop-color="#03EE65"/>
</linearGradient>
<linearGradient id="paint3_linear" x1="46.9983" y1="23.4998" x2="-0.00170385" y2="23.4998" gradientUnits="userSpaceOnUse">
<stop stop-color="#A31FED"/>
<stop offset="1" stop-color="#03EE65"/>
</linearGradient>
<linearGradient id="paint4_linear" x1="46.9995" y1="23.4998" x2="-0.000475182" y2="23.4998" gradientUnits="userSpaceOnUse">
<stop stop-color="#A31FED"/>
<stop offset="1" stop-color="#03EE65"/>
</linearGradient>
<linearGradient id="paint5_linear" x1="46.9995" y1="23.4998" x2="-0.000471928" y2="23.4998" gradientUnits="userSpaceOnUse">
<stop stop-color="#A31FED"/>
<stop offset="1" stop-color="#03EE65"/>
</linearGradient>
<linearGradient id="paint6_linear" x1="46.9983" y1="23.5002" x2="-0.00171181" y2="23.5002" gradientUnits="userSpaceOnUse">
<stop stop-color="#A31FED"/>
<stop offset="1" stop-color="#03EE65"/>
</linearGradient>
<linearGradient id="paint7_linear" x1="46.9983" y1="23.5002" x2="-0.00171181" y2="23.5002" gradientUnits="userSpaceOnUse">
<stop stop-color="#A31FED"/>
<stop offset="1" stop-color="#03EE65"/>
</linearGradient>
<clipPath id="clip0">
<rect width="47" height="47" fill="white"/>
</clipPath>
</defs>
</svg>
