<svg width="37" height="35" viewBox="0 0 37 35" fill="none" xmlns="http://www.w3.org/2000/svg">
<g clip-path="url(#clip0)">
<path fill-rule="evenodd" clip-rule="evenodd" d="M2.2 22.1H10.7V26.4C10.7 27 11.2 27.5 11.8 27.5H25.3C25.9 27.5 26.4 27 26.4 26.4V22.1H34.9V30C29.8 31.9 24.2 32.8 18.6 32.8C13 32.8 7.4 31.9 2.3 30V22.1H2.2ZM33.7 9.6L26.7 16.6L19.7 9.6L21.2 8L25.6 12.4V1.5H27.8V12.4L32.2 8L33.7 9.6ZM9.2 15V4.1L4.8 8.5L3.2 7L10.2 0L17.2 7L15.7 8.5L11.3 4.1V15H9.2ZM11.7 20H1.1C0.5 20 0 20.5 0 21V30.7C0 31.1 0.3 31.6 0.7 31.7C6.3 33.9 12.4 35 18.5 35C24.6 35 30.6 33.9 36.2 31.8C36.6 31.7 37 31.3 37 30.8V21C37 20.4 36.5 19.9 35.9 19.9H25.2C24.6 19.9 24.1 20.4 24.1 21V25.3H12.8V21C12.8 20.5 12.3 20 11.7 20Z" fill="url(#paint0_linear)"/>
</g>
<defs>
<linearGradient id="paint0_linear" x1="37" y1="17.5" x2="2.37077e-07" y2="17.5" gradientUnits="userSpaceOnUse">
<stop stop-color="#807CFA"/>
<stop offset="1" stop-color="#03EE65"/>
</linearGradient>
<clipPath id="clip0">
<rect width="36.9" height="35" fill="white"/>
</clipPath>
</defs>
</svg>
