<svg width="41" height="41" viewBox="0 0 41 41" fill="none" xmlns="http://www.w3.org/2000/svg">
<path fill-rule="evenodd" clip-rule="evenodd" d="M20.5 0C26.1 0 31.3 2.3 35 6C38.7 9.7 41 14.8 41 20.5C41 26.1 38.7 31.3 35 35C31.3 38.7 26.2 41 20.5 41C14.8 41 9.7 38.6 6 34.9C2.3 31.2 0 26.1 0 20.4C0 14.7 2.3 9.7 6 6C9.7 2.3 14.8 0 20.5 0ZM18.7 18.7C17.7 19.7 17.7 21.2 18.7 22.2C19.7 23.2 21.2 23.2 22.2 22.2C23.2 21.2 23.2 19.7 22.2 18.7C21.2 17.8 19.7 17.8 18.7 18.7ZM9.1 30.2C8.7 31.2 9.7 32.3 10.7 31.8L25 25.7C25.3 25.6 25.5 25.4 25.7 25L31.8 10.7C32.2 9.7 31.2 8.6 30.2 9.1L15.9 15.2C15.6 15.3 15.4 15.6 15.2 15.9L9.1 30.2ZM17.3 17.3L12.6 28.4L23.7 23.7L28.4 12.6L17.3 17.3ZM33.2 7.7C29.9 4.4 25.4 2.4 20.5 2.4C15.5 2.4 11 4.4 7.8 7.7C4.5 11 2.5 15.5 2.5 20.5C2.5 25.5 4.5 30 7.8 33.2C11.1 36.5 15.6 38.5 20.5 38.5C25.5 38.5 30 36.5 33.2 33.2C36.5 29.9 38.5 25.4 38.5 20.5C38.4 15.5 36.4 11 33.2 7.7Z" fill="url(#paint0_linear)"/>
<defs>
<linearGradient id="paint0_linear" x1="41" y1="20.5" x2="2.62707e-07" y2="20.5" gradientUnits="userSpaceOnUse">
<stop stop-color="#807CFA"/>
<stop offset="1" stop-color="#03EE65"/>
</linearGradient>
</defs>
</svg>
