<svg width="40" height="41" viewBox="0 0 40 41" fill="none" xmlns="http://www.w3.org/2000/svg">
<path fill-rule="evenodd" clip-rule="evenodd" d="M9.7 37.8H15.4L15 25.4C12.1 24.5 9.4 22.9 7.1 20.7C4.5 18.2 2.4 15 1.1 11.3C0.5 9.6 0 7.6 0 5.8C0 2.1 2.3 0 5.9 0H33.9C37.6 0 39.8 2.1 39.8 5.8C39.8 7.6 39.3 9.6 38.6 11.3C37.2 15 35.2 18.2 32.6 20.7C30.3 22.9 27.6 24.5 24.7 25.4L24.3 37.8H30V40.9H9.7V37.8ZM9.1 18.3C7.2 13.7 7.2 8 7.9 3.1H5.9C3.9 3.1 3 3.8 3 5.9C3 7.3 3.4 8.9 4 10.4C5.2 13.5 6.9 16.2 9.1 18.3ZM11 3.1C10.3 7.8 10.4 12.3 11.5 16C14.5 25.4 25.5 25.3 28.4 16C29.5 12.3 29.6 7.8 28.9 3.1H11ZM32.1 3.1C32.8 8 32.7 13.7 30.9 18.4C33 16.3 34.8 13.5 35.9 10.4C36.4 9 36.9 7.3 36.9 5.9C36.9 3.8 36 3.1 34 3.1H32.1ZM21.7 26.1C20.5 26.2 19.3 26.2 18.1 26.1L18.5 37.7H21.3L21.7 26.1Z" fill="url(#paint0_linear)"/>
<defs>
<linearGradient id="paint0_linear" x1="39.8" y1="20.45" x2="2.55018e-07" y2="20.45" gradientUnits="userSpaceOnUse">
<stop stop-color="#807CFA"/>
<stop offset="1" stop-color="#03EE65"/>
</linearGradient>
</defs>
</svg>
