<svg width="41" height="41" viewBox="0 0 41 41" fill="none" xmlns="http://www.w3.org/2000/svg">
<g clip-path="url(#clip0)">
<path fill-rule="evenodd" clip-rule="evenodd" d="M10.2 5.5H12.3V0H14.8V5.5H16.9V0H19.4V5.5H21.5V0H24V5.5H26.1V0H28.6V5.5H30.7V0H33.2V5.6C34.3 5.8 35.1 6.7 35.4 7.8H41V10.3H35.5V12.4H41V14.9H35.5V17H41V19.5H35.5V21.6H41V24H35.5V26.1H41V28.6H35.5V30.7H41V33.2H35.4C35.2 34.3 34.3 35.1 33.2 35.4V41H30.7V35.5H28.6V41H26.1V35.5H24V41H21.5V35.5H19.4V41H16.9V35.5H14.8V41H12.3V35.5H10.2V41H7.8V35.4C6.7 35.2 5.9 34.3 5.6 33.2H0V30.7H5.5V28.6H0V26.1H5.5V24H0V21.5H5.5V19.4H0V16.9H5.5V14.8H0V12.3H5.5V10.2H0V7.8H5.6C5.8 6.7 6.7 5.9 7.8 5.6V0H10.3V5.5H10.2ZM32.5 8H8.4C8.2 8 8 8.2 8 8.4V32.6C8 32.8 8.2 33 8.4 33H32.6C32.8 33 33 32.8 33 32.6V8.4C32.9 8.2 32.8 8 32.5 8Z" fill="url(#paint0_linear)"/>
</g>
<defs>
<linearGradient id="paint0_linear" x1="41" y1="20.5" x2="2.62707e-07" y2="20.5" gradientUnits="userSpaceOnUse">
<stop stop-color="#807CFA"/>
<stop offset="1" stop-color="#03EE65"/>
</linearGradient>
<clipPath id="clip0">
<rect width="40.9" height="40.9" fill="white"/>
</clipPath>
</defs>
</svg>
