<svg width="51" height="51" viewBox="0 0 51 51" fill="none" xmlns="http://www.w3.org/2000/svg">
<path fill-rule="evenodd" clip-rule="evenodd" d="M43.0877 40.4037C37.1175 49.3491 26.4 53.1277 16.6894 49.8117C4.10167 45.5704 -2.80361 31.304 1.08061 17.8859C5.03675 4.46784 18.4157 -3.01236 30.9315 1.15188C37.693 3.46534 43.1596 8.78631 45.821 15.8809L47.6193 12.2565L51 14.1844L46.1088 23.9009L37.0456 19.1198L38.7 15.4182L42.2245 17.269C39.9947 11.4082 35.4631 6.93554 29.7807 5.00765C19.2789 1.53745 8.05781 7.78381 4.74903 19.0427C1.44026 30.3786 7.26658 42.3316 17.7684 45.8789C25.9684 48.655 34.9596 45.4933 39.9947 38.0131L43.0877 40.4037ZM25.321 25.8288L33.8807 17.0377L16.114 13.6446L21.3649 25.0577L12.8052 33.926L30.5719 37.319L25.321 25.8288Z" fill="url(#paint0_linear)"/>
<defs>
<linearGradient id="paint0_linear" x1="51" y1="25.5" x2="3.26782e-07" y2="25.5" gradientUnits="userSpaceOnUse">
<stop stop-color="#807CFA"/>
<stop offset="1" stop-color="#03EE65"/>
</linearGradient>
</defs>
</svg>
