<svg width="53" height="53" viewBox="0 0 53 53" fill="none" xmlns="http://www.w3.org/2000/svg">
<path fill-rule="evenodd" clip-rule="evenodd" d="M4.06303 0H40.3595C42.6167 0 44.4225 1.80579 44.4225 4.06303V7.58433H51.3748C52.2777 7.58433 53 8.30664 53 9.20954V39.0051C53 39.908 52.2777 40.6303 51.3748 40.6303H44.4225V48.937C44.4225 51.1942 42.6167 53 40.3595 53H4.06303C1.80579 53 0 51.1942 0 48.937V4.06303C0 1.80579 1.80579 0 4.06303 0ZM33.7683 25.6422V22.4821H24.1976L27.9898 18.6899L25.7325 16.4327L18.1482 24.017L25.7325 31.6014L27.9898 29.3441L24.1976 25.552H33.7683V25.6422ZM41.1721 4.06303C41.1721 3.61158 40.8109 3.25043 40.3595 3.25043H4.06303C3.61158 3.16014 3.16014 3.61158 3.16014 4.06303V48.8467C3.16014 49.2981 3.61158 49.6593 4.06303 49.6593H40.3595C40.8109 49.6593 41.1721 49.2981 41.1721 48.8467V40.54H11.3765C10.4736 40.54 9.75128 39.8177 9.75128 38.9148V14.2658C9.75128 13.8143 9.93186 13.3629 10.293 13.092L15.4395 8.03577C15.7104 7.76491 16.1618 7.58433 16.6133 7.58433H41.1721V4.06303ZM49.6593 10.6542H17.2453L13.0017 14.8075V37.2896H49.6593V10.6542Z" fill="url(#paint0_linear)"/>
<defs>
<linearGradient id="paint0_linear" x1="53" y1="26.5" x2="3.39597e-07" y2="26.5" gradientUnits="userSpaceOnUse">
<stop stop-color="#807CFA"/>
<stop offset="1" stop-color="#03EE65"/>
</linearGradient>
</defs>
</svg>
