<svg width="53" height="42" viewBox="0 0 53 42" fill="none" xmlns="http://www.w3.org/2000/svg">
<path fill-rule="evenodd" clip-rule="evenodd" d="M1.60606 0H48.7172C49.6094 0 50.3232 0.738461 50.3232 1.66154V14.9538H51.3939C52.2862 14.9538 53 15.6923 53 16.6154V25.3846C53 26.3077 52.2862 27.0462 51.3939 27.0462H50.3232V40.3385C50.3232 41.2615 49.6094 42 48.7172 42H1.60606C0.713805 42 0 41.2615 0 40.3385V1.66154C0 0.738461 0.713805 0 1.60606 0ZM47.1111 14.9538V3.32308H3.21212V38.7692H47.1111V27.0462H34.0842C33.1919 27.0462 32.4781 26.3077 32.4781 25.3846V16.6154C32.4781 15.6923 33.1919 14.9538 34.0842 14.9538H47.1111ZM49.7879 18.2769H35.601V23.8154H49.6987V18.2769H49.7879Z" fill="url(#paint0_linear)"/>
<defs>
<linearGradient id="paint0_linear" x1="53" y1="21" x2="3.39597e-07" y2="21" gradientUnits="userSpaceOnUse">
<stop stop-color="#807CFA"/>
<stop offset="1" stop-color="#03EE65"/>
</linearGradient>
</defs>
</svg>
