<svg width="51" height="42" viewBox="0 0 51 42" fill="none" xmlns="http://www.w3.org/2000/svg">
<path d="M0.940959 0H4.04613V30.5983H0.940959V0ZM12.6089 3.83934C12.6089 5.11911 11.8561 6.16621 10.6328 6.16621C9.50369 6.16621 8.75092 5.11911 8.75092 3.83934C8.75092 2.44321 9.59779 1.51247 10.6328 1.51247C11.9502 1.51247 12.6089 2.55956 12.6089 3.83934ZM9.2214 30.5983V9.65651H12.3266V30.5983H9.2214ZM17.4077 15.3573C17.4077 13.1468 17.4077 11.4017 17.3137 9.65651H20.0424L20.2306 13.1468H20.3247C21.1716 11.169 23.1476 9.19114 25.8764 9.19114C28.2288 9.19114 31.8044 10.9363 31.8044 18.0332V30.482H28.6993V18.615C28.6993 15.241 27.6642 12.4488 24.7472 12.4488C22.6771 12.4488 21.1716 14.1939 20.607 16.2881C20.5129 16.7535 20.4188 17.4515 20.4188 18.0332V30.5983H17.3137V15.3573H17.4077ZM39.8026 19.313C40.2731 18.615 40.9317 17.6842 41.4022 16.9862L46.3893 9.77285H50.059L43.5664 18.3823L51 30.7147H47.2362L41.4022 20.5928L39.8026 22.8033V30.7147H36.7915V0H39.8026V19.313ZM50.8118 38.5097H0V42H50.8118V38.5097Z" fill="url(#paint0_linear)"/>
<defs>
<linearGradient id="paint0_linear" x1="51" y1="21" x2="3.26782e-07" y2="21" gradientUnits="userSpaceOnUse">
<stop stop-color="#807CFA"/>
<stop offset="1" stop-color="#03EE65"/>
</linearGradient>
</defs>
</svg>
