<svg width="53" height="55" viewBox="0 0 53 55" fill="none" xmlns="http://www.w3.org/2000/svg">
<path fill-rule="evenodd" clip-rule="evenodd" d="M26.4161 55C19.4557 55 13.0823 54.208 8.38608 52.8C3.27057 51.304 0 48.928 0 46.112V37.136C0 33.176 5.53481 31.152 8.46994 30.36C13.0823 29.04 19.4557 28.16 26.5 28.16C33.4604 28.16 39.8339 28.952 44.5301 30.36C47.4652 31.24 53 33.176 53 37.136V46.112C53 48.928 49.7294 51.304 44.5301 52.8C39.8339 54.12 33.4604 55 26.4161 55ZM26.4161 31.504C19.7073 31.504 13.5854 32.296 9.22468 33.528C6.37342 34.408 4.2769 35.288 3.52215 36.168C3.27057 36.432 3.18671 36.696 3.18671 36.96L3.52215 37.664C4.19304 38.632 6.28956 39.6 9.30855 40.48C13.6693 41.712 19.7073 42.504 26.5 42.504C33.2089 42.504 39.3307 41.712 43.6915 40.48C46.7104 39.6 48.7231 38.632 49.4778 37.752L49.8133 37.048C49.8133 36.784 49.6456 36.52 49.4778 36.256C48.6392 35.376 46.6266 34.408 43.7753 33.616C39.2468 32.296 33.2089 31.504 26.4161 31.504ZM27.4225 51.656C28.5965 51.656 29.7706 51.568 30.9446 51.568V45.76C29.7706 45.848 28.5965 45.848 27.4225 45.848V51.656ZM32.9573 45.672V51.392C34.0475 51.304 35.0538 51.216 36.0601 51.04V45.32C35.0538 45.496 34.0475 45.584 32.9573 45.672ZM38.0728 45.056V50.776C39.163 50.6 40.1693 50.424 41.1756 50.16V44.44C40.1693 44.704 39.0791 44.88 38.0728 45.056ZM43.1044 44.088V49.72C43.2722 49.632 43.4399 49.632 43.6076 49.544C44.4462 49.28 45.1171 49.104 45.788 48.84V43.208C45.3687 43.384 44.8655 43.472 44.4462 43.648C44.0269 43.824 43.6076 43.912 43.1044 44.088ZM47.8006 42.504V48.048C49.0585 47.432 49.7294 46.728 49.7294 46.112V41.448C49.1424 41.888 48.4715 42.152 47.8006 42.504ZM25.4098 51.656V45.848C24.2358 45.848 23.0617 45.76 21.8877 45.76V51.568C23.0617 51.568 24.2358 51.656 25.4098 51.656ZM19.9589 45.672C18.8687 45.584 17.8623 45.496 16.856 45.408V51.128C17.8623 51.216 18.8687 51.392 19.9589 51.48V45.672ZM14.8434 45.056C13.7532 44.88 12.7468 44.704 11.7405 44.528V50.248C12.7468 50.424 13.7532 50.688 14.8434 50.864V45.056ZM9.81171 44.088C9.39241 44 8.88924 43.824 8.46994 43.736C7.96677 43.56 7.54747 43.472 7.12816 43.296V48.928C7.79905 49.192 8.5538 49.368 9.30855 49.632C9.47627 49.72 9.64399 49.72 9.81171 49.808V44.088ZM5.11551 42.504C4.44462 42.152 3.77373 41.888 3.18671 41.536V46.2C3.18671 46.816 3.85759 47.432 5.11551 48.136V42.504Z" fill="url(#paint0_linear)"/>
<path fill-rule="evenodd" clip-rule="evenodd" d="M34.0475 18.656H23.2294C28.0095 15.84 31.0285 13.64 32.2025 12.232C33.3766 10.736 34.0475 9.152 34.0475 7.304C34.0475 5.192 33.3766 3.52 32.0348 2.112C30.693 0.704 28.8481 0 26.5839 0C24.4035 0 22.6424 0.704 21.2168 2.024C19.875 3.432 19.0364 5.016 18.7848 6.952L22.3908 7.92C22.7263 4.928 24.068 3.432 26.5 3.432C27.5902 3.432 28.4288 3.784 29.0997 4.488C29.7706 5.28 30.106 6.16 30.106 7.216C30.106 8.096 29.7706 9.064 29.0997 10.12C28.4288 11.176 27.087 12.408 25.1582 13.816L18.8687 18.216V22H34.0475V18.656Z" fill="url(#paint1_linear)"/>
<defs>
<linearGradient id="paint0_linear" x1="53" y1="27.5" x2="3.39597e-07" y2="27.5" gradientUnits="userSpaceOnUse">
<stop stop-color="#807CFA"/>
<stop offset="1" stop-color="#03EE65"/>
</linearGradient>
<linearGradient id="paint1_linear" x1="53" y1="27.5" x2="3.39597e-07" y2="27.5" gradientUnits="userSpaceOnUse">
<stop stop-color="#807CFA"/>
<stop offset="1" stop-color="#03EE65"/>
</linearGradient>
</defs>
</svg>
