<svg width="49" height="49" viewBox="0 0 49 49" fill="none" xmlns="http://www.w3.org/2000/svg">
<path d="M44.2228 11.5694H37.3301V4.76389H44.2228V11.5694ZM11.5334 4.76389H4.70891V11.5694H11.6017V4.76389H11.5334ZM4.70891 44.2361H11.6017V37.3625H4.70891V44.2361ZM0 32.7347H16.2423V48.9319H0V32.7347ZM2.18384 46.7542H14.0585V34.9125H2.18384V46.7542ZM16.2423 16.2653H0V0.0680556H16.2423V16.2653ZM14.0585 2.24583H2.18384V14.0875H14.0585V2.24583ZM48.9318 0.0680556V16.2653H32.6894V0.0680556H48.9318ZM46.7479 2.24583H34.9415V14.0875H46.8162V2.24583H46.7479ZM30.2326 0H27.9123V2.31389H30.2326V0ZM35.0098 32.5986H32.6894V34.9125H35.0098V32.5986ZM14.0585 23.275H18.5627V25.5889H13.922H11.7382V20.9611H14.0585V18.6472H18.6309V0.272222V0H25.5237V2.31389H20.9513V4.76389H30.2326V7.07778V9.39167V11.7056H27.9805V14.0194H30.2326V18.5792H41.9025V20.8931H39.6504V23.2069H41.9025V25.5208H39.5822H37.3301V20.8931H35.0098V25.5208H32.6894H30.3691V23.2069H32.6894V20.8931H30.3008V18.5792H27.9805V20.9611H30.2326V23.275H27.9805V25.5889H27.3663H25.5919V27.9028H23.2033H22.8621H20.883V23.0708H18.6309V20.8931H14.0585V23.275ZM20.9513 18.6472H23.2033V23.3431H24.5682H25.5919V18.5111H25.3189H24.6365H23.2716V13.9514H25.5919V16.3333H26.1379H27.844V14.0194H25.5919V11.7056H27.844V9.39167V7.07778H25.5919V9.39167H23.2716V7.07778H20.9513V11.7056H23.2033V14.0194H20.9513V18.6472ZM18.5627 48.9319H25.5919V46.55H18.5627V48.9319ZM11.5334 30.3528V28.0389V25.725H9.28134H9.21309H6.961V28.0389H9.21309V30.3528H11.5334ZM6.82451 27.9708H2.32033V25.6569H6.82451V23.3431H9.21309V20.8931H11.5334V18.5792H9.21309V20.825H2.32033V18.5792H0V20.8931H2.25209V23.275H0V25.5208V25.5889V27.9028V28.5833V30.3528H6.82451V27.9708ZM16.2423 27.9708H13.922V30.2847H16.2423H18.5627V27.9708H16.2423ZM30.3008 39.6764H32.6212H34.9415V37.3625H32.6212H30.3008V39.6764ZM23.2716 34.9125H25.5237V32.5986H23.3398V30.4208H21.0195H18.6992V32.5986V32.7347V34.9125H20.9513V37.2264H23.2716V34.9125ZM46.6114 20.9611H48.9318V18.6472H46.6114V20.9611ZM46.5432 20.9611H44.2228V30.3528H45.8607H46.6114H49V25.6569H46.6114V20.9611H46.5432ZM46.6797 49H48.9318V46.55H46.6797V49ZM18.6309 39.6764H20.9513V37.3625H18.6309V39.6764ZM46.6114 32.5986H44.2911H41.9708V30.4208H39.7187V28.1069H37.3983V25.7931H35.078V28.1069H32.7577H27.9805V30.4208V32.6667V32.7347V34.9806H26.6156H25.5919V39.6083H23.954H23.2716V41.9222H20.9513V44.2361H23.2716H25.5919H27.9805V43.9639V41.9222H30.3008V39.6083H27.9805V37.1583H30.2326V34.9806V32.7347H30.3008H32.6212V30.4208H37.3301V37.2264V37.3625V44.3042H35.0098V41.9903H32.6894V44.3042H30.3691V46.55H27.9805V48.9319H35.0098V46.55H37.3301H39.6504V49H41.9025V46.55H39.6504V44.2361H41.9025V41.9222H39.6504V39.6764H41.9025V37.3625H39.6504V37.2944V32.8028H41.9025V34.9806H44.2228V39.6764H41.9708V41.9222H44.2228H46.5432H48.8635V39.6764H46.5432V32.5986H46.6114Z" fill="url(#paint0_linear)"/>
<defs>
<linearGradient id="paint0_linear" x1="49" y1="24.5" x2="3.13967e-07" y2="24.5" gradientUnits="userSpaceOnUse">
<stop stop-color="#807CFA"/>
<stop offset="1" stop-color="#03EE65"/>
</linearGradient>
</defs>
</svg>
