<svg width="40" height="55" viewBox="0 0 40 55" fill="none" xmlns="http://www.w3.org/2000/svg">
<path fill-rule="evenodd" clip-rule="evenodd" d="M1.68421 0H30.0351C30.5263 0 31.0175 0.207547 31.2982 0.553459L39.4386 8.02516C39.7895 8.37107 40 8.85535 40 9.27044V53.3396C40 54.239 39.2281 55 38.3158 55H1.68421C0.77193 55 0 54.239 0 53.3396V1.66038C0 0.761006 0.77193 0 1.68421 0ZM31.0175 30.4403H14.5263H13.2632V29.195V21.5849H12.3509C10.4561 21.5849 8.91228 23.1069 8.91228 24.9748V36.4591H30.9474V30.4403H31.0175ZM15.7895 27.9497H18.7368V21.5849H15.7895V27.9497ZM21.2632 27.9497H24.2105V21.5849H21.2632V27.9497ZM26.6667 27.9497H31.0175V24.9057C31.0175 23.0377 29.4737 21.5157 27.5789 21.5157H26.6667V27.9497ZM31.0175 38.8805H26.6667V45.2453H27.5789C29.4737 45.2453 31.0175 43.7233 31.0175 41.8553V38.8805ZM24.1404 38.8805H21.193V45.2453H24.1404V38.8805ZM18.7368 38.8805H15.7895V45.2453H18.7368V38.8805ZM13.2632 38.8805H8.91228V41.9245C8.91228 43.7924 10.4561 45.3145 12.3509 45.3145H13.2632V38.8805ZM12.3509 19.0252C9.05263 19.0252 6.38597 21.6541 6.38597 24.9057V41.9245C6.38597 45.1761 9.05263 47.805 12.3509 47.805H27.5789C30.8772 47.805 33.5439 45.1761 33.5439 41.9245V24.9057C33.5439 21.6541 30.8772 19.0252 27.5789 19.0252H12.3509ZM29.4035 3.32075H3.36842V51.7484H36.6316V9.96226L29.4035 3.32075Z" fill="url(#paint0_linear)"/>
<defs>
<linearGradient id="paint0_linear" x1="40" y1="27.5" x2="2.563e-07" y2="27.5" gradientUnits="userSpaceOnUse">
<stop stop-color="#807CFA"/>
<stop offset="1" stop-color="#03EE65"/>
</linearGradient>
</defs>
</svg>
