<svg width="48" height="48" viewBox="0 0 48 48" fill="none" xmlns="http://www.w3.org/2000/svg">
<path fill-rule="evenodd" clip-rule="evenodd" d="M24.0002 0C25.1442 0 25.9342 0.889 26.7162 1.77C27.1792 2.29 27.6382 2.807 27.9192 2.858C28.2072 2.909 28.8252 2.571 29.4392 2.235C30.4552 1.679 31.4652 1.126 32.4992 1.505C33.5462 1.889 33.9372 2.97 34.3282 4.046C34.5592 4.683 34.7892 5.318 35.0092 5.446C35.2292 5.573 35.9072 5.456 36.5842 5.339C37.7202 5.143 38.8542 4.948 39.6972 5.648C40.5352 6.344 40.5302 7.481 40.5242 8.618C40.5212 9.29 40.5182 9.961 40.6832 10.153C40.8472 10.346 41.5192 10.457 42.1912 10.568C43.3312 10.758 44.4732 10.948 45.0312 11.887C45.5892 12.824 45.2042 13.893 44.8182 14.965C44.5872 15.609 44.3552 16.255 44.4482 16.502C44.5422 16.749 45.1362 17.09 45.7342 17.432C46.7462 18.012 47.7642 18.596 47.9672 19.692C48.1652 20.768 47.4432 21.663 46.7142 22.567C46.2672 23.122 45.8162 23.681 45.8162 24C45.8162 24.32 46.2672 24.879 46.7142 25.433C47.4432 26.337 48.1652 27.233 47.9672 28.309C47.7652 29.404 46.7472 29.988 45.7342 30.568C45.1362 30.91 44.5422 31.251 44.4482 31.498C44.3552 31.746 44.5872 32.392 44.8182 33.035C45.2042 34.108 45.5882 35.177 45.0312 36.114C44.4732 37.054 43.3312 37.243 42.1912 37.432C41.5192 37.543 40.8472 37.654 40.6832 37.847C40.5182 38.039 40.5212 38.711 40.5242 39.382C40.5302 40.519 40.5342 41.656 39.6972 42.352C38.8552 43.052 37.7202 42.857 36.5842 42.661C35.9072 42.545 35.2302 42.428 35.0092 42.555C34.7892 42.682 34.5592 43.317 34.3282 43.955C33.9382 45.031 33.5462 46.111 32.5002 46.495C31.4652 46.875 30.4552 46.321 29.4392 45.765C28.8252 45.429 28.2072 45.091 27.9192 45.143C27.6382 45.193 27.1792 45.71 26.7162 46.231C25.9342 47.11 25.1442 48 24.0002 48C22.8562 48 22.0662 47.111 21.2842 46.23C20.8212 45.71 20.3622 45.193 20.0812 45.143C19.7932 45.091 19.1752 45.429 18.5612 45.765C17.5452 46.321 16.5352 46.874 15.5012 46.495C14.4542 46.111 14.0632 45.03 13.6712 43.954C13.4412 43.317 13.2112 42.681 12.9912 42.554C12.7712 42.427 12.0932 42.544 11.4162 42.661C10.2802 42.857 9.1462 43.052 8.3032 42.352C7.4652 41.656 7.4702 40.519 7.4752 39.382C7.4792 38.71 7.4822 38.039 7.3172 37.847C7.1522 37.654 6.4812 37.543 5.8092 37.431C4.6692 37.243 3.5272 37.053 2.9692 36.114C2.4112 35.176 2.7962 34.107 3.1822 33.034C3.4132 32.391 3.6452 31.746 3.5522 31.498C3.4582 31.251 2.8642 30.91 2.2662 30.568C1.2542 29.988 0.235201 29.404 0.0332012 28.308C-0.164799 27.232 0.557201 26.336 1.2852 25.433C1.7332 24.878 2.1842 24.319 2.1842 24C2.1842 23.68 1.7332 23.121 1.2852 22.567C0.557201 21.663 -0.164799 20.767 0.0332012 19.691C0.235201 18.596 1.2532 18.012 2.2662 17.432C2.8642 17.09 3.4582 16.749 3.5522 16.502C3.6452 16.254 3.4132 15.608 3.1822 14.965C2.7962 13.892 2.4112 12.823 2.9682 11.886C3.5272 10.946 4.6692 10.757 5.8092 10.569C6.4812 10.457 7.1522 10.345 7.3172 10.153C7.4822 9.961 7.4792 9.289 7.4752 8.618C7.4702 7.481 7.4652 6.344 8.3032 5.648C9.1452 4.948 10.2802 5.143 11.4162 5.339C12.0932 5.455 12.7702 5.572 12.9902 5.445C13.2102 5.318 13.4402 4.683 13.6722 4.045C14.0622 2.97 14.4542 1.889 15.5002 1.505C16.5352 1.125 17.5452 1.679 18.5602 2.235C19.1752 2.571 19.7932 2.909 20.0802 2.857C20.3622 2.807 20.8212 2.29 21.2842 1.769C22.0662 0.89 22.8562 0 24.0002 0ZM35.7932 12.11C35.6691 12.1091 35.546 12.1326 35.431 12.1792C35.316 12.2259 35.2113 12.2947 35.1229 12.3818C35.0345 12.4689 34.9641 12.5726 34.9158 12.6869C34.8675 12.8012 34.8421 12.9239 34.8412 13.048C34.8412 13.278 34.9262 13.49 35.0662 13.653L35.0692 13.656C35.0885 13.6783 35.1089 13.6997 35.1302 13.72C37.6902 16.408 39.2572 20.024 39.2572 24C39.2572 28.15 37.5492 31.908 34.7892 34.628C31.9125 37.4589 28.0352 39.0407 23.9992 39.03C22.2173 39.0321 20.4485 38.7256 18.7712 38.124H18.7692C18.6796 38.0974 18.5866 38.0839 18.4932 38.084C18.2427 38.0821 18.0018 38.1798 17.8233 38.3555C17.6448 38.5312 17.5433 38.7705 17.5412 39.021C17.5421 39.2242 17.6089 39.4217 17.7315 39.5837C17.8541 39.7458 18.0259 39.8638 18.2212 39.92C20.0272 40.556 21.9722 40.903 24.0002 40.903C28.7382 40.903 33.0272 39.01 36.1322 35.952C39.2372 32.892 41.1582 28.667 41.1582 24C41.1582 19.534 39.3982 15.472 36.5282 12.45C36.438 12.343 36.3255 12.2571 36.1985 12.1983C36.0715 12.1396 35.9331 12.1094 35.7932 12.11ZM32.9202 9.73C32.7961 9.72908 32.673 9.75261 32.558 9.79925C32.443 9.84589 32.3383 9.91472 32.2499 10.0018C32.1615 10.0889 32.0911 10.1926 32.0428 10.3069C31.9945 10.4212 31.9691 10.5439 31.9682 10.668C31.9682 11.186 32.3952 11.606 32.9202 11.606C33.4462 11.606 33.8722 11.186 33.8722 10.668C33.8701 10.4175 33.7686 10.1782 33.5901 10.0025C33.4116 9.82678 33.1707 9.72914 32.9202 9.731V9.73ZM29.8322 8.1C27.9599 7.43434 25.9873 7.09508 24.0002 7.097C19.4622 7.08537 15.1028 8.86407 11.8682 12.047C8.7632 15.107 6.8422 19.333 6.8422 24C6.8422 28.457 8.5932 32.51 11.4542 35.53C11.5442 35.6359 11.6563 35.721 11.7825 35.7792C11.9088 35.8374 12.0462 35.8674 12.1852 35.867C12.7112 35.867 13.1372 35.447 13.1372 34.93C13.1374 34.7083 13.0579 34.4939 12.9132 34.326L12.9092 34.321C12.8909 34.2997 12.8715 34.2794 12.8512 34.26C10.3032 31.574 8.7432 27.966 8.7432 24C8.7432 19.85 10.4512 16.092 13.2112 13.372C16.0876 10.5412 19.9645 8.9594 24.0002 8.97C25.8202 8.97 27.5672 9.284 29.1862 9.86C29.304 9.9095 29.4304 9.935 29.5582 9.935C30.0842 9.935 30.5102 9.515 30.5102 8.997C30.5092 8.79421 30.4426 8.59719 30.3204 8.43535C30.1982 8.27351 30.027 8.15552 29.8322 8.099V8.1ZM15.0802 36.393C14.9561 36.3921 14.833 36.4156 14.718 36.4622C14.603 36.5089 14.4983 36.5777 14.4099 36.6648C14.3215 36.7519 14.2511 36.8556 14.2028 36.9699C14.1545 37.0842 14.1291 37.2069 14.1282 37.331C14.1282 37.849 14.5542 38.268 15.0802 38.268C15.6052 38.268 16.0312 37.848 16.0312 37.331C16.0294 37.0805 15.9281 36.8411 15.7498 36.6652C15.5715 36.4893 15.3307 36.3914 15.0802 36.393ZM18.4602 14.785C17.4151 14.7823 16.4111 15.192 15.6662 15.925C15.2999 16.2838 15.009 16.712 14.8103 17.1846C14.6117 17.6573 14.5094 18.1648 14.5094 18.6775C14.5094 19.1902 14.6117 19.6977 14.8103 20.1704C15.009 20.643 15.2999 21.0712 15.6662 21.43C16.4111 22.163 17.4151 22.5727 18.4602 22.57C19.5053 22.5727 20.5093 22.163 21.2542 21.43C21.6206 21.0713 21.9117 20.6431 22.1104 20.1704C22.3091 19.6978 22.4115 19.1902 22.4115 18.6775C22.4115 18.1648 22.3091 17.6572 22.1104 17.1846C21.9117 16.7119 21.6206 16.2837 21.2542 15.925C20.5093 15.192 19.5053 14.7823 18.4602 14.785ZM19.9102 17.249C19.5237 16.8685 19.0026 16.6557 18.4602 16.657C17.9178 16.6557 17.3967 16.8685 17.0102 17.249C16.82 17.4351 16.669 17.6574 16.5658 17.9027C16.4627 18.148 16.4096 18.4114 16.4096 18.6775C16.4096 18.9436 16.4627 19.207 16.5658 19.4523C16.669 19.6976 16.82 19.9199 17.0102 20.106C17.3812 20.471 17.8942 20.698 18.4602 20.698C19.0026 20.6993 19.5237 20.4865 19.9102 20.106C20.1002 19.9198 20.2512 19.6975 20.3543 19.4522C20.4573 19.2069 20.5104 18.9436 20.5104 18.6775C20.5104 18.4114 20.4573 18.1481 20.3543 17.9028C20.2512 17.6575 20.1002 17.4352 19.9102 17.249ZM28.7502 15.209L17.6702 31.766C17.6022 31.8681 17.5552 31.9827 17.5319 32.1032C17.5087 32.2236 17.5096 32.3475 17.5348 32.4676C17.5599 32.5877 17.6087 32.7016 17.6783 32.8026C17.7479 32.9036 17.8369 32.9897 17.9402 33.056C18.15 33.1922 18.4049 33.2406 18.6501 33.1909C18.8952 33.1411 19.1111 32.9972 19.2512 32.79L30.3322 16.234C30.4002 16.1319 30.4472 16.0173 30.4705 15.8968C30.4937 15.7764 30.4928 15.6525 30.4676 15.5324C30.4425 15.4123 30.3937 15.2984 30.3241 15.1974C30.2545 15.0964 30.1655 15.0103 30.0622 14.944C29.8524 14.8078 29.5975 14.7594 29.3523 14.8091C29.1072 14.8589 28.8913 15.0028 28.7512 15.21L28.7502 15.209ZM29.5422 25.428C28.4971 25.4254 27.4932 25.8351 26.7482 26.568C26.3819 26.9268 26.091 27.355 25.8923 27.8276C25.6937 28.3003 25.5914 28.8078 25.5914 29.3205C25.5914 29.8332 25.6937 30.3407 25.8923 30.8134C26.091 31.286 26.3819 31.7142 26.7482 32.073C27.4932 32.8059 28.4971 33.2156 29.5422 33.213C30.587 33.2155 31.5906 32.8059 32.3352 32.073C32.7017 31.7144 32.9929 31.2862 33.1917 30.8135C33.3905 30.3409 33.4929 29.8333 33.4929 29.3205C33.4929 28.8077 33.3905 28.3001 33.1917 27.8275C32.9929 27.3548 32.7017 26.9266 32.3352 26.568C31.5906 25.8351 30.587 25.4255 29.5422 25.428ZM30.9922 27.892C30.6057 27.5115 30.0846 27.2987 29.5422 27.3C28.9998 27.2987 28.4787 27.5115 28.0922 27.892C27.9022 28.0782 27.7512 28.3005 27.6481 28.5458C27.5451 28.7911 27.492 29.0544 27.492 29.3205C27.492 29.5866 27.5451 29.8499 27.6481 30.0952C27.7512 30.3405 27.9022 30.5628 28.0922 30.749C28.4622 31.115 28.9752 31.34 29.5422 31.34C30.1082 31.34 30.6212 31.114 30.9922 30.749C31.1826 30.563 31.3339 30.3408 31.4372 30.0955C31.5405 29.8502 31.5937 29.5867 31.5937 29.3205C31.5937 29.0543 31.5405 28.7908 31.4372 28.5455C31.3339 28.3002 31.1826 28.078 30.9922 27.892ZM25.2922 2.997C24.7942 2.437 24.2922 1.871 24.0022 1.871C23.7102 1.871 23.2082 2.437 22.7102 2.997C22.0302 3.764 21.3532 4.525 20.4162 4.692C19.4642 4.862 18.5502 4.362 17.6422 3.865C17.0082 3.518 16.3782 3.173 16.1622 3.252C15.9502 3.33 15.7052 4.004 15.4622 4.674C15.1162 5.628 14.7722 6.579 13.9492 7.054C13.1212 7.531 12.1052 7.356 11.0902 7.181C10.3902 7.061 9.6902 6.94 9.5302 7.073C9.3642 7.211 9.3672 7.911 9.3702 8.61C9.3752 9.626 9.3802 10.643 8.7662 11.36C8.1542 12.074 7.1392 12.242 6.1222 12.41C5.4182 12.527 4.7122 12.644 4.6032 12.83C4.4932 13.013 4.7332 13.677 4.9732 14.342C5.3172 15.302 5.6632 16.264 5.3272 17.152C4.9962 18.029 4.1092 18.537 3.2172 19.048C2.5822 19.412 1.9422 19.778 1.8972 20.019C1.8532 20.264 2.3102 20.83 2.7712 21.403C3.4262 22.214 4.0862 23.033 4.0862 23.999C4.0862 24.966 3.4262 25.784 2.7712 26.595C2.3112 27.168 1.8532 27.735 1.8982 27.979C1.9422 28.219 2.5822 28.586 3.2182 28.95C4.1092 29.461 4.9962 29.969 5.3282 30.846C5.6632 31.735 5.3182 32.696 4.9722 33.656C4.7322 34.322 4.4942 34.986 4.6032 35.169C4.7132 35.354 5.4182 35.471 6.1222 35.587C7.1392 35.757 8.1542 35.924 8.7662 36.639C9.3792 37.355 9.3752 38.372 9.3702 39.389C9.3672 40.088 9.3642 40.787 9.5302 40.925C9.6902 41.058 10.3902 40.938 11.0902 40.817C12.1052 40.642 13.1212 40.467 13.9502 40.945C14.7722 41.419 15.1172 42.37 15.4622 43.324C15.7052 43.994 15.9502 44.668 16.1622 44.746C16.3782 44.825 17.0082 44.48 17.6422 44.133C18.5502 43.636 19.4642 43.136 20.4162 43.306C21.3542 43.473 22.0292 44.234 22.7102 45.001C23.2082 45.561 23.7102 46.127 24.0012 46.127C24.2912 46.127 24.7942 45.561 25.2912 45.001C25.9732 44.234 26.6492 43.473 27.5862 43.306C28.5372 43.136 29.4522 43.636 30.3612 44.133C30.9942 44.48 31.6242 44.825 31.8402 44.746C32.0522 44.668 32.2972 43.994 32.5402 43.324C32.8862 42.37 33.2302 41.419 34.0522 40.944C34.8802 40.467 35.8962 40.642 36.9122 40.817C37.6122 40.937 38.3122 41.059 38.4732 40.925C38.6392 40.787 38.6362 40.088 38.6332 39.388C38.6272 38.372 38.6232 37.355 39.2362 36.639C39.8482 35.924 40.8632 35.756 41.8802 35.587C42.5842 35.471 43.2902 35.354 43.3992 35.169C43.5092 34.985 43.2692 34.322 43.0292 33.656C42.6852 32.696 42.3392 31.735 42.6752 30.846C43.0062 29.969 43.8932 29.461 44.7852 28.95C45.4202 28.586 46.0602 28.22 46.1052 27.979C46.1492 27.734 45.6922 27.168 45.2312 26.595C44.5762 25.784 43.9162 24.966 43.9162 23.999C43.9162 23.032 44.5762 22.214 45.2312 21.403C45.6912 20.83 46.1492 20.263 46.1042 20.019C46.0602 19.779 45.4202 19.412 44.7842 19.048C43.8932 18.537 43.0062 18.029 42.6742 17.152C42.3392 16.264 42.6842 15.302 43.0302 14.342C43.2702 13.677 43.5082 13.012 43.3992 12.829C43.2892 12.644 42.5842 12.527 41.8792 12.411C40.8632 12.242 39.8482 12.074 39.2362 11.359C38.6232 10.643 38.6272 9.626 38.6322 8.61C38.6362 7.91 38.6392 7.21 38.4732 7.073C38.3132 6.94 37.6132 7.061 36.9112 7.181C35.8972 7.356 34.8812 7.531 34.0532 7.053C33.2302 6.579 32.8852 5.628 32.5402 4.674C32.2972 4.004 32.0522 3.33 31.8402 3.252C31.6242 3.173 30.9942 3.518 30.3602 3.865C29.4512 4.362 28.5372 4.863 27.5862 4.692C26.6482 4.525 25.9732 3.764 25.2922 2.997Z" fill="url(#paint0_linear)"/>
<defs>
<linearGradient id="paint0_linear" x1="48.0002" y1="24" x2="0.000200272" y2="24" gradientUnits="userSpaceOnUse">
<stop stop-color="#A31FED"/>
<stop offset="1" stop-color="#03EE65"/>
</linearGradient>
</defs>
</svg>
