<svg width="48" height="50" viewBox="0 0 48 50" fill="none" xmlns="http://www.w3.org/2000/svg">
<path d="M46.413 29.0232H45.671V22.3432C45.6707 21.8409 45.5498 21.346 45.3183 20.9001C45.0869 20.4543 44.7517 20.0705 44.341 19.7812V18.8722C44.3402 18.2381 44.0879 17.6301 43.6395 17.1817C43.1911 16.7333 42.5832 16.481 41.949 16.4802H41.395L43.514 13.3712C43.8545 12.8698 43.9824 12.2538 43.8695 11.6583C43.7567 11.0628 43.4124 10.5363 42.912 10.1942L28.537 0.398228C28.2894 0.228178 28.0104 0.108971 27.7164 0.047518C27.4223 -0.0139354 27.119 -0.0164133 26.824 0.0402278C26.224 0.153228 25.704 0.494228 25.36 0.999228L12.953 19.2062H9.5L10.333 10.7742C10.3372 10.728 10.3543 10.6839 10.3822 10.6468C10.4101 10.6097 10.4478 10.5811 10.491 10.5642C11.5697 10.1548 12.4878 9.40854 13.109 8.43623C13.1342 8.39798 13.1695 8.36746 13.211 8.34804C13.2524 8.32863 13.2985 8.32108 13.344 8.32623L18.759 8.86123C18.9439 8.87688 19.1274 8.81915 19.2701 8.70051C19.4127 8.58187 19.5029 8.41187 19.5211 8.22725C19.5394 8.04264 19.4843 7.85825 19.3677 7.71397C19.2511 7.56969 19.0823 7.4771 18.898 7.45623L13.483 6.92123C13.1776 6.88948 12.8693 6.9435 12.5929 7.07722C12.3164 7.21094 12.0827 7.41906 11.918 7.67823C11.4608 8.39303 10.7854 8.94147 9.992 9.24223C9.70169 9.35101 9.44791 9.53938 9.25972 9.78575C9.07154 10.0321 8.95658 10.3265 8.928 10.6352L8.081 19.2052H7.181L8.498 5.87023C8.521 5.63938 8.63473 5.42711 8.81418 5.2801C8.99364 5.13308 9.22414 5.06334 9.455 5.08623L20.398 6.16623C20.5773 6.17198 20.752 6.10938 20.8869 5.99111C21.0217 5.87284 21.1066 5.70773 21.1242 5.52925C21.1419 5.35076 21.0911 5.17222 20.982 5.02981C20.873 4.88739 20.7139 4.79174 20.537 4.76223L9.594 3.68023C8.99068 3.62133 8.38863 3.80405 7.91981 4.18833C7.45099 4.5726 7.15366 5.12709 7.093 5.73023L6.031 16.4802H4.223C3.58885 16.481 2.98089 16.7333 2.53248 17.1817C2.08406 17.6301 1.83179 18.2381 1.831 18.8722V19.4922C1.28511 19.7429 0.822506 20.1447 0.497992 20.6502C0.173477 21.1557 0.000654642 21.7436 0 22.3442L0 46.4122C0.00105843 47.2442 0.332008 48.0417 0.920268 48.63C1.50853 49.2182 2.30608 49.5492 3.138 49.5502H42.533C43.3649 49.5492 44.1625 49.2182 44.7507 48.63C45.339 48.0417 45.6699 47.2442 45.671 46.4122V39.7332H46.413C47.288 39.7332 48 39.0212 48 38.1462V30.6102C48 29.7352 47.288 29.0232 46.413 29.0232ZM41.949 17.8922C42.489 17.8922 42.929 18.3322 42.929 18.8722V19.2322C42.7977 19.2152 42.6654 19.2065 42.533 19.2062H39.537L40.433 17.8922H41.949ZM26.527 1.79523C26.607 1.67686 26.7148 1.57999 26.8411 1.5132C26.9674 1.4464 27.1082 1.41172 27.251 1.41223C27.425 1.41223 27.595 1.46523 27.742 1.56523L42.117 11.3602C42.3086 11.4911 42.4403 11.6927 42.4835 11.9207C42.5266 12.1486 42.4775 12.3844 42.347 12.5762L37.829 19.2062H36.744L38.959 15.9562C39.1354 15.7011 39.2362 15.4013 39.25 15.0914C39.2638 14.7816 39.19 14.4741 39.037 14.2042C38.6213 13.4646 38.4551 12.6107 38.563 11.7692C38.6032 11.4648 38.5576 11.1551 38.4315 10.8751C38.3054 10.5951 38.1036 10.3559 37.849 10.1842L30.398 5.10623C30.1451 4.93184 29.8485 4.8315 29.5416 4.81648C29.2347 4.80147 28.9298 4.87237 28.661 5.02123C27.9172 5.42961 27.0616 5.58741 26.221 5.47123C25.9145 5.43027 25.6027 5.47513 25.3203 5.60083C25.0378 5.72654 24.7957 5.92814 24.621 6.18323L15.746 19.2062H14.662L26.527 1.79523ZM26.837 13.7852C25.3635 13.7872 23.9455 14.3475 22.8685 15.3532C21.7915 16.3589 21.1357 17.7353 21.033 19.2052H17.454L25.788 6.98023C25.8138 6.94166 25.8498 6.91097 25.892 6.89156C25.9342 6.87215 25.9809 6.86477 26.027 6.87023C27.17 7.02814 28.3335 6.81354 29.345 6.25823C29.3854 6.23713 29.4308 6.22747 29.4762 6.23029C29.5217 6.23311 29.5655 6.24831 29.603 6.27423L37.055 11.3522C37.0931 11.3776 37.1235 11.4129 37.1429 11.4543C37.1623 11.4958 37.1699 11.5417 37.165 11.5872C37.0177 12.7316 37.2432 13.8931 37.808 14.8992C37.8302 14.9399 37.8406 14.9859 37.8381 15.0322C37.8357 15.0785 37.8204 15.1231 37.794 15.1612L35.037 19.2072H32.643C32.5406 17.7371 31.8848 16.3604 30.8078 15.3545C29.7308 14.3486 28.3127 13.7882 26.839 13.7862L26.837 13.7852ZM31.227 19.2052H22.449C22.5499 18.1105 23.0558 17.0929 23.8676 16.3515C24.6794 15.6102 25.7386 15.1986 26.838 15.1972C27.9373 15.1988 28.9965 15.6107 29.8081 16.3522C30.6197 17.0937 31.1254 18.1115 31.226 19.2062L31.227 19.2052ZM3.243 18.8722C3.243 18.3322 3.683 17.8922 4.223 17.8922H5.892L5.762 19.2062H3.242V18.8722H3.243ZM1.413 22.3442C1.413 21.3922 2.186 20.6182 3.138 20.6182H42.533C43.485 20.6182 44.259 21.3922 44.259 22.3442V24.3032H1.412V22.3432L1.413 22.3442ZM44.259 46.4122C44.259 47.3642 43.485 48.1382 42.533 48.1382H3.138C2.6804 48.1377 2.24169 47.9557 1.91812 47.6321C1.59455 47.3085 1.41253 46.8698 1.412 46.4122V44.4522H5.22C5.31488 44.4558 5.40951 44.4402 5.49822 44.4064C5.58694 44.3725 5.66791 44.3211 5.7363 44.2553C5.80469 44.1894 5.85909 44.1104 5.89625 44.023C5.93341 43.9357 5.95257 43.8417 5.95257 43.7467C5.95257 43.6518 5.93341 43.5578 5.89625 43.4704C5.85909 43.3831 5.80469 43.3041 5.7363 43.2382C5.66791 43.1723 5.58694 43.1209 5.49822 43.0871C5.40951 43.0533 5.31488 43.0377 5.22 43.0412H1.412V25.7152H44.26V29.0232H37.547C36.5419 29.0241 35.5573 29.3076 34.7056 29.8412C33.8538 30.3749 33.1693 31.1372 32.73 32.0412L32.72 32.0582L32.7 32.1052C32.596 32.3252 32.506 32.5522 32.433 32.7872V32.7892C32.1853 33.5906 32.1291 34.439 32.269 35.2661C32.4089 36.0932 32.7408 36.8759 33.2383 37.5513C33.7357 38.2267 34.3847 38.776 35.133 39.155C35.8814 39.5339 36.7082 39.732 37.547 39.7332H44.26V43.0412H9.74C9.55276 43.0412 9.37318 43.1156 9.24078 43.248C9.10838 43.3804 9.034 43.56 9.034 43.7472C9.034 43.9345 9.10838 44.114 9.24078 44.2464C9.37318 44.3788 9.55276 44.4532 9.74 44.4532H44.26V46.4122H44.259ZM46.588 38.1462C46.588 38.1926 46.5696 38.2372 46.5367 38.27C46.5039 38.3028 46.4594 38.3212 46.413 38.3212H37.546C36.912 38.3203 36.2875 38.1666 35.7255 37.8732C35.1634 37.5798 34.6803 37.1553 34.317 36.6357C33.9538 36.116 33.721 35.5165 33.6385 34.8879C33.556 34.2593 33.6261 33.62 33.843 33.0242C33.9093 32.8441 33.9885 32.669 34.08 32.5002C34.4185 31.876 34.9191 31.3547 35.5291 30.9913C36.1391 30.6278 36.8359 30.4357 37.546 30.4352H46.413C46.509 30.4352 46.588 30.5142 46.588 30.6102V38.1462Z" fill="url(#paint0_linear)"/>
<path d="M37.7127 31.5132C36.9531 31.514 36.2248 31.8161 35.6877 32.3532C35.1506 32.8903 34.8485 33.6186 34.8477 34.3782C34.8487 35.1376 35.1509 35.8656 35.688 36.4025C36.2251 36.9394 36.9532 37.2414 37.7127 37.2422C38.4719 37.2411 39.1998 36.939 39.7366 36.4022C40.2735 35.8653 40.5756 35.1374 40.5767 34.3782C40.5759 33.6188 40.2739 32.8906 39.737 32.3536C39.2001 31.8165 38.4721 31.5142 37.7127 31.5132ZM37.7127 35.8302C37.3276 35.8299 36.9583 35.6769 36.6859 35.4047C36.4135 35.1325 36.2602 34.7633 36.2597 34.3782C36.2597 33.5782 36.9117 32.9252 37.7127 32.9252C38.5127 32.9252 39.1647 33.5772 39.1647 34.3782C39.1647 35.1782 38.5137 35.8302 37.7127 35.8302Z" fill="url(#paint1_linear)"/>
<defs>
<linearGradient id="paint0_linear" x1="48" y1="24.7752" x2="0" y2="24.7752" gradientUnits="userSpaceOnUse">
<stop stop-color="#A31FED"/>
<stop offset="1" stop-color="#03EE65"/>
</linearGradient>
<linearGradient id="paint1_linear" x1="48.0007" y1="24.7752" x2="0.000654926" y2="24.7752" gradientUnits="userSpaceOnUse">
<stop stop-color="#A31FED"/>
<stop offset="1" stop-color="#03EE65"/>
</linearGradient>
</defs>
</svg>
