<svg width="48" height="72" viewBox="0 0 48 72" fill="none" xmlns="http://www.w3.org/2000/svg">
<g clip-path="url(#clip0)">
<path d="M45.2928 21.246C45.2928 9.53 35.7628 0 24.0478 0C12.3328 0 2.80078 9.53 2.80078 21.246C2.80078 28.74 6.70178 35.339 12.5788 39.122C11.7213 40.5163 11.1129 42.0492 10.7808 43.652C10.5848 44.596 10.4808 45.574 10.4808 46.577V57.815C10.4808 65.505 16.5458 71.761 23.9998 71.761C27.2268 71.761 30.3508 70.569 32.7978 68.405C35.2214 66.247 36.8246 63.3176 37.3358 60.113C37.3788 59.8095 37.301 59.5012 37.119 59.2544C36.9371 59.0077 36.6656 58.8422 36.3629 58.7936C36.0602 58.745 35.7505 58.8171 35.5005 58.9945C35.2504 59.1718 35.08 59.4403 35.0258 59.742C34.1228 65.35 29.4858 69.422 23.9998 69.422C17.8358 69.422 12.8208 64.215 12.8208 57.815V48.975C13.5484 50.0828 14.4315 51.0803 15.4428 51.937C17.8346 53.9635 20.8659 55.0792 24.0008 55.087C27.2278 55.087 30.3528 53.895 32.7978 51.73C33.7088 50.9196 34.509 49.9926 35.1778 48.973V52.493C35.1778 52.8034 35.3011 53.1012 35.5206 53.3207C35.7401 53.5402 36.0378 53.6635 36.3483 53.6635C36.6587 53.6635 36.9564 53.5402 37.1759 53.3207C37.3955 53.1012 37.5188 52.8034 37.5188 52.493V46.576C37.519 45.5704 37.4137 44.5676 37.2048 43.584C36.8728 42.0217 36.278 40.5272 35.4458 39.164C41.3598 35.388 45.2918 28.768 45.2918 21.246H45.2928ZM31.2478 49.978C29.2516 51.7555 26.6736 52.7406 24.0008 52.747C18.8578 52.747 14.3278 49.023 13.1338 43.859C14.2268 39.149 18.0928 35.547 22.8318 35.034V37.665C22.2706 37.8821 21.7882 38.2637 21.4477 38.7598C21.1072 39.2559 20.9246 39.8433 20.9238 40.445V41.782C20.9238 43.048 21.7178 44.129 22.8328 44.562V47.099C22.8328 47.4093 22.956 47.7069 23.1755 47.9263C23.3949 48.1457 23.6925 48.269 24.0028 48.269C24.3131 48.269 24.6107 48.1457 24.8301 47.9263C25.0495 47.7069 25.1728 47.4093 25.1728 47.099V44.561C25.7338 44.344 26.2161 43.9625 26.5566 43.4666C26.8971 42.9707 27.0798 42.3835 27.0808 41.782V40.444C27.0798 39.8425 26.8971 39.2553 26.5566 38.7594C26.2161 38.2635 25.7338 37.882 25.1728 37.665V35.035C29.9118 35.55 33.7758 39.153 34.8678 43.865C34.3198 46.2272 33.0551 48.3623 31.2468 49.978H31.2478ZM23.2648 41.782V40.444C23.2648 40.09 23.5528 39.802 23.9068 39.802H24.0988C24.4538 39.802 24.7418 40.09 24.7418 40.444V41.782C24.7415 41.9524 24.6737 42.1157 24.5531 42.236C24.4325 42.3564 24.2691 42.424 24.0988 42.424H23.9068C23.7366 42.4237 23.5735 42.356 23.4531 42.2357C23.3328 42.1153 23.265 41.9522 23.2648 41.782ZM34.0618 37.272C32.8014 35.8184 31.2472 34.6483 29.5018 33.839C30.6469 33.3456 31.7191 32.6979 32.6888 31.914C35.0886 29.9657 36.7637 27.2671 37.4448 24.252C37.5124 23.9491 37.457 23.6318 37.2906 23.3698C37.1243 23.1078 36.8607 22.9226 36.5578 22.855C36.2549 22.7874 35.9376 22.8428 35.6756 23.0092C35.4136 23.1755 35.2284 23.4391 35.1608 23.742C34.0138 28.874 29.3708 32.604 24.1078 32.632H23.9608C17.7208 32.584 12.6598 27.496 12.6598 21.246C12.6598 14.966 17.7688 9.858 24.0478 9.858C28.6348 9.858 32.7538 12.588 34.5418 16.814C34.6683 17.0912 34.8979 17.3082 35.1819 17.4187C35.4659 17.5292 35.7818 17.5246 36.0624 17.4058C36.343 17.287 36.5662 17.0634 36.6845 16.7825C36.8028 16.5017 36.8068 16.1858 36.6958 15.902C35.6472 13.4145 33.8876 11.2919 31.6376 9.80044C29.3875 8.30896 26.7473 7.51496 24.0478 7.518C16.4778 7.518 10.3198 13.676 10.3198 21.246C10.3198 26.858 13.7058 31.694 18.5418 33.82C16.7943 34.6227 15.2367 35.7866 13.9718 37.235C8.67078 33.883 5.14178 27.969 5.14178 21.246C5.14178 10.822 13.6218 2.34 24.0468 2.34C34.4718 2.34 42.9528 10.822 42.9528 21.246C42.9528 27.995 39.3968 33.926 34.0618 37.273V37.272Z" fill="url(#paint0_linear)"/>
<path d="M4.768 49.0459H1.17C1.01635 49.0459 0.864211 49.0762 0.72226 49.135C0.58031 49.1938 0.45133 49.2799 0.342685 49.3886C0.234041 49.4972 0.147859 49.6262 0.089061 49.7682C0.0302629 49.9101 0 50.0623 0 50.2159C0 50.3695 0.0302629 50.5217 0.089061 50.6636C0.147859 50.8056 0.234041 50.9346 0.342685 51.0432C0.45133 51.1519 0.58031 51.238 0.72226 51.2968C0.864211 51.3556 1.01635 51.3859 1.17 51.3859H4.768C5.0783 51.3859 5.3759 51.2626 5.59531 51.0432C5.81473 50.8238 5.938 50.5262 5.938 50.2159C5.938 49.9056 5.81473 49.608 5.59531 49.3886C5.3759 49.1692 5.0783 49.0459 4.768 49.0459Z" fill="url(#paint1_linear)"/>
<path d="M6.86989 45.3121L4.32589 42.7671C4.21722 42.6584 4.08821 42.5722 3.94623 42.5134C3.80424 42.4546 3.65207 42.4243 3.49839 42.4243C3.34471 42.4243 3.19253 42.4546 3.05055 42.5134C2.90856 42.5722 2.77956 42.6584 2.67089 42.7671C2.56222 42.8757 2.47602 43.0048 2.41721 43.1467C2.35839 43.2887 2.32812 43.4409 2.32813 43.5946C2.32813 43.7483 2.35839 43.9004 2.41721 44.0424C2.47602 44.1844 2.56222 44.3134 2.67089 44.4221L5.21489 46.9671C5.32327 47.0763 5.45218 47.1629 5.59421 47.222C5.73623 47.2812 5.88855 47.3116 6.04239 47.3116C6.19623 47.3116 6.34855 47.2812 6.49057 47.222C6.63259 47.1629 6.7615 47.0763 6.86989 46.9671C6.97859 46.8584 7.06482 46.7294 7.12365 46.5874C7.18248 46.4455 7.21276 46.2933 7.21276 46.1396C7.21276 45.9859 7.18248 45.8337 7.12365 45.6917C7.06482 45.5497 6.97859 45.4207 6.86989 45.3121Z" fill="url(#paint2_linear)"/>
<path d="M6.86727 53.4649C6.75861 53.3562 6.62961 53.27 6.48763 53.2112C6.34564 53.1524 6.19346 53.1221 6.03977 53.1221C5.88607 53.1221 5.73389 53.1524 5.5919 53.2112C5.44992 53.27 5.32092 53.3562 5.21227 53.4649L2.66927 56.0099C2.55842 56.1181 2.47015 56.2472 2.40958 56.3898C2.34901 56.5323 2.31735 56.6855 2.31643 56.8403C2.3155 56.9952 2.34534 57.1487 2.4042 57.292C2.46307 57.4352 2.54979 57.5654 2.65934 57.6749C2.76889 57.7844 2.89909 57.871 3.04238 57.9298C3.18567 57.9886 3.33921 58.0183 3.49409 58.0173C3.64896 58.0163 3.8021 57.9845 3.94461 57.9239C4.08711 57.8632 4.21616 57.7749 4.32427 57.6639L6.86827 55.1199C6.97696 55.0113 7.06319 54.8823 7.12202 54.7403C7.18086 54.5983 7.21114 54.4461 7.21114 54.2924C7.21114 54.1387 7.18086 53.9866 7.12202 53.8446C7.06319 53.7026 6.97696 53.5736 6.86827 53.4649H6.86727Z" fill="url(#paint3_linear)"/>
<path d="M46.8315 49.0459H43.2325C43.0789 49.0459 42.9267 49.0762 42.7848 49.135C42.6428 49.1938 42.5138 49.2799 42.4052 49.3886C42.2965 49.4972 42.2104 49.6262 42.1516 49.7682C42.0928 49.9101 42.0625 50.0623 42.0625 50.2159C42.0625 50.3695 42.0928 50.5217 42.1516 50.6636C42.2104 50.8056 42.2965 50.9346 42.4052 51.0432C42.5138 51.1519 42.6428 51.238 42.7848 51.2968C42.9267 51.3556 43.0789 51.3859 43.2325 51.3859H46.8315C47.1418 51.3859 47.4394 51.2626 47.6588 51.0432C47.8782 50.8238 48.0015 50.5262 48.0015 50.2159C48.0015 49.9056 47.8782 49.608 47.6588 49.3886C47.4394 49.1692 47.1418 49.0459 46.8315 49.0459Z" fill="url(#paint4_linear)"/>
<path d="M45.3305 56.0099L42.7855 53.4649C42.678 53.3514 42.5488 53.2605 42.4056 53.1977C42.2624 53.1349 42.1081 53.1014 41.9518 53.0992C41.7954 53.0971 41.6402 53.1263 41.4954 53.1851C41.3505 53.244 41.2189 53.3312 41.1083 53.4418C40.9977 53.5524 40.9105 53.684 40.8516 53.8289C40.7928 53.9737 40.7636 54.1289 40.7657 54.2853C40.7679 54.4416 40.8014 54.5959 40.8642 54.7391C40.927 54.8823 41.0179 55.0115 41.1315 55.1189L43.6755 57.6639C43.7838 57.7731 43.9128 57.8598 44.0548 57.9189C44.1968 57.978 44.3491 58.0085 44.503 58.0085C44.6568 58.0085 44.8091 57.978 44.9511 57.9189C45.0932 57.8598 45.2221 57.7731 45.3305 57.6639C45.5497 57.4446 45.6728 57.1471 45.6728 56.8369C45.6728 56.5268 45.5497 56.2293 45.3305 56.0099Z" fill="url(#paint5_linear)"/>
<path d="M45.3308 42.7672C45.2222 42.6585 45.0932 42.5723 44.9512 42.5134C44.8092 42.4546 44.657 42.4243 44.5033 42.4243C44.3496 42.4243 44.1975 42.4546 44.0555 42.5134C43.9135 42.5723 43.7845 42.6585 43.6758 42.7672L41.1318 45.3122C41.0232 45.4209 40.937 45.5499 40.8781 45.6918C40.8193 45.8338 40.7891 45.986 40.7891 46.1397C40.7891 46.2934 40.8193 46.4455 40.8781 46.5875C40.937 46.7295 41.0232 46.8585 41.1318 46.9672C41.2405 47.0759 41.3695 47.1621 41.5115 47.2209C41.6535 47.2797 41.8056 47.3099 41.9593 47.3099C42.113 47.3099 42.2652 47.2797 42.4072 47.2209C42.5491 47.1621 42.6782 47.0759 42.7868 46.9672L45.3308 44.4222C45.4395 44.3135 45.5258 44.1845 45.5846 44.0425C45.6434 43.9006 45.6737 43.7484 45.6737 43.5947C45.6737 43.441 45.6434 43.2888 45.5846 43.1468C45.5258 43.0048 45.4395 42.8758 45.3308 42.7672Z" fill="url(#paint6_linear)"/>
<path d="M25.4553 20.0791V15.5071C26.5293 15.8651 27.2853 16.6981 27.2853 17.6671C27.2853 17.9775 27.4086 18.275 27.628 18.4945C27.8474 18.7139 28.145 18.8371 28.4553 18.8371C28.7656 18.8371 29.0632 18.7139 29.2826 18.4945C29.502 18.275 29.6253 17.9775 29.6253 17.6671C29.6253 15.4371 27.8383 13.5661 25.4553 13.0971V12.7471C25.4553 12.4368 25.332 12.1393 25.1126 11.9198C24.8932 11.7004 24.5956 11.5771 24.2853 11.5771C23.975 11.5771 23.6774 11.7004 23.458 11.9198C23.2386 12.1393 23.1153 12.4368 23.1153 12.7471V13.0971C20.7323 13.5661 18.9453 15.4371 18.9453 17.6671C18.9453 19.8981 20.7323 21.7691 23.1153 22.2381V26.8101C22.0403 26.4531 21.2853 25.6201 21.2853 24.6501C21.2853 24.3398 21.162 24.0423 20.9426 23.8228C20.7232 23.6034 20.4256 23.4801 20.1153 23.4801C19.805 23.4801 19.5074 23.6034 19.288 23.8228C19.0686 24.0423 18.9453 24.3398 18.9453 24.6501C18.9453 26.8811 20.7323 28.7521 23.1153 29.2211V29.7511C23.1153 30.0615 23.2386 30.359 23.458 30.5785C23.6774 30.7979 23.975 30.9211 24.2853 30.9211C24.5956 30.9211 24.8932 30.7979 25.1126 30.5785C25.332 30.359 25.4553 30.0615 25.4553 29.7511V29.2211C27.8383 28.7512 29.6253 26.8811 29.6253 24.6511C29.6253 22.4191 27.8383 20.5481 25.4553 20.0791ZM23.1153 19.8251C22.0413 19.4681 21.2853 18.6361 21.2853 17.6671C21.2853 16.6981 22.0403 15.8651 23.1153 15.5071V19.8251ZM25.4553 26.8101V22.4921C26.5293 22.8501 27.2853 23.6821 27.2853 24.6501C27.2853 25.6201 26.5293 26.4531 25.4553 26.8101Z" fill="url(#paint7_linear)"/>
</g>
<defs>
<linearGradient id="paint0_linear" x1="48.0008" y1="35.88" x2="0.000780934" y2="35.88" gradientUnits="userSpaceOnUse">
<stop stop-color="#A31FED"/>
<stop offset="1" stop-color="#03EE65"/>
</linearGradient>
<linearGradient id="paint1_linear" x1="48" y1="35.8799" x2="0" y2="35.8799" gradientUnits="userSpaceOnUse">
<stop stop-color="#A31FED"/>
<stop offset="1" stop-color="#03EE65"/>
</linearGradient>
<linearGradient id="paint2_linear" x1="48.0019" y1="35.8801" x2="0.00188726" y2="35.8801" gradientUnits="userSpaceOnUse">
<stop stop-color="#A31FED"/>
<stop offset="1" stop-color="#03EE65"/>
</linearGradient>
<linearGradient id="paint3_linear" x1="47.9993" y1="35.8799" x2="-0.000733319" y2="35.8799" gradientUnits="userSpaceOnUse">
<stop stop-color="#A31FED"/>
<stop offset="1" stop-color="#03EE65"/>
</linearGradient>
<linearGradient id="paint4_linear" x1="48.0015" y1="35.8799" x2="0.00150688" y2="35.8799" gradientUnits="userSpaceOnUse">
<stop stop-color="#A31FED"/>
<stop offset="1" stop-color="#03EE65"/>
</linearGradient>
<linearGradient id="paint5_linear" x1="47.9995" y1="35.8799" x2="-0.000559458" y2="35.8799" gradientUnits="userSpaceOnUse">
<stop stop-color="#A31FED"/>
<stop offset="1" stop-color="#03EE65"/>
</linearGradient>
<linearGradient id="paint6_linear" x1="47.9998" y1="35.8802" x2="-0.000176472" y2="35.8802" gradientUnits="userSpaceOnUse">
<stop stop-color="#A31FED"/>
<stop offset="1" stop-color="#03EE65"/>
</linearGradient>
<linearGradient id="paint7_linear" x1="47.9983" y1="35.8801" x2="-0.00168694" y2="35.8801" gradientUnits="userSpaceOnUse">
<stop stop-color="#A31FED"/>
<stop offset="1" stop-color="#03EE65"/>
</linearGradient>
<clipPath id="clip0">
<rect width="48" height="72" fill="white"/>
</clipPath>
</defs>
</svg>
