<svg width="35" height="48" viewBox="0 0 35 48" fill="none" xmlns="http://www.w3.org/2000/svg">
<g clip-path="url(#clip0)">
<path d="M17.063 19.313C16.8144 19.313 16.576 19.4117 16.4001 19.5874C16.2242 19.7631 16.1253 20.0014 16.125 20.25V23.307C16.1329 23.5504 16.2352 23.7811 16.4102 23.9504C16.5851 24.1197 16.819 24.2144 17.0625 24.2144C17.306 24.2144 17.5399 24.1197 17.7148 23.9504C17.8898 23.7811 17.9921 23.5504 18 23.307V20.25C18 20.0012 17.9012 19.7627 17.7253 19.5867C17.5494 19.4108 17.3108 19.312 17.062 19.312L17.063 19.313Z" fill="url(#paint0_linear)"/>
<path d="M13.1255 13.5942C12.8769 13.5942 12.6385 13.6929 12.4626 13.8686C12.2867 14.0443 12.1878 14.2826 12.1875 14.5312V17.4512C12.1875 17.7 12.2863 17.9386 12.4622 18.1145C12.6381 18.2904 12.8767 18.3892 13.1255 18.3892C13.3743 18.3892 13.6129 18.2904 13.7888 18.1145C13.9647 17.9386 14.0635 17.7 14.0635 17.4512V14.5312C14.0632 14.2826 13.9643 14.0443 13.7884 13.8686C13.6125 13.6929 13.3741 13.5942 13.1255 13.5942Z" fill="url(#paint1_linear)"/>
<path d="M17.063 26.5879C16.8144 26.5884 16.5761 26.6874 16.4003 26.8632C16.2245 27.039 16.1255 27.2773 16.125 27.5259C16.125 27.7729 16.225 28.0129 16.4 28.1889C16.5764 28.3638 16.8146 28.4623 17.063 28.4629C17.309 28.4629 17.551 28.3629 17.725 28.1889C17.9003 28.0127 17.9991 27.7745 18 27.5259C17.9995 27.2773 17.9005 27.039 17.7247 26.8632C17.5489 26.6874 17.3106 26.5884 17.062 26.5879H17.063Z" fill="url(#paint2_linear)"/>
<path d="M25.3135 13.9248C25.3124 12.7813 24.8577 11.6848 24.0491 10.8762C23.2405 10.0676 22.1441 9.61288 21.0005 9.61182C19.8569 9.61288 18.7605 10.0676 17.9519 10.8762C17.1433 11.6848 16.6886 12.7813 16.6875 13.9248C16.6886 15.0684 17.1433 16.1648 17.9519 16.9734C18.7605 17.782 19.8569 18.2368 21.0005 18.2378C22.1441 18.2368 23.2405 17.782 24.0491 16.9734C24.8577 16.1648 25.3124 15.0684 25.3135 13.9248ZM18.5635 13.9248C18.564 13.2786 18.8209 12.6589 19.2778 12.2018C19.7347 11.7448 20.3542 11.4876 21.0005 11.4868C21.6469 11.4873 22.2667 11.7444 22.7238 12.2015C23.1809 12.6586 23.438 13.2784 23.4385 13.9248C23.438 14.5713 23.1809 15.1911 22.7238 15.6482C22.2667 16.1053 21.6469 16.3623 21.0005 16.3628C20.3541 16.3623 19.7343 16.1053 19.2772 15.6482C18.8201 15.1911 18.563 14.5713 18.5625 13.9248H18.5635Z" fill="url(#paint3_linear)"/>
<path d="M22.033 23.209L26.885 20.369C28.0884 19.6611 29.0865 18.6518 29.7809 17.4406C30.4753 16.2294 30.8421 14.8581 30.845 13.462V6.375H33.188C33.706 6.375 34.126 5.955 34.126 5.437V0.937C34.1257 0.6884 34.0268 0.450073 33.8509 0.27438C33.675 0.0986873 33.4366 -1.41275e-07 33.188 0L0.939 0C0.690227 0 0.451643 0.0988247 0.275734 0.274734C0.0998247 0.450643 0.001 0.689227 0.001 0.938V5.438C0.001 5.955 0.421 6.375 0.939 6.375H3.281V13.462C3.28383 14.8582 3.65055 16.2295 4.34497 17.4407C5.0394 18.6519 6.03756 19.6612 7.241 20.369L12.093 23.209C12.486 23.439 12.529 23.817 12.529 23.969C12.529 24.12 12.486 24.499 12.093 24.729L7.242 27.569C6.03856 28.2768 5.0404 29.2861 4.34597 30.4973C3.65155 31.7085 3.28483 33.0798 3.282 34.476V41.625H0.937C0.6884 41.6253 0.450073 41.7242 0.27438 41.9001C0.0986873 42.076 -1.41275e-07 42.3144 0 42.563V47.063C0 47.58 0.42 48 0.938 48H33.188C33.705 48 34.125 47.58 34.125 47.062V42.562C34.1247 42.3134 34.0258 42.0751 33.8499 41.8994C33.674 41.7237 33.4356 41.625 33.187 41.625H30.844V34.475C30.841 33.079 30.4742 31.7079 29.7798 30.4969C29.0854 29.2859 28.0873 28.2767 26.884 27.569L22.032 24.729C21.8982 24.6526 21.7873 24.5419 21.7107 24.4083C21.634 24.2747 21.5944 24.123 21.596 23.969C21.596 23.817 21.638 23.439 22.032 23.209H22.033ZM1.876 1.875H32.251V4.5H1.876V1.875ZM15.564 6.75C15.5635 7.39644 15.3064 8.01624 14.8493 8.47334C14.3922 8.93044 13.7724 9.18747 13.126 9.188C12.7744 9.18738 12.4271 9.11077 12.1078 8.96344C11.7886 8.8161 11.505 8.60151 11.2764 8.33436C11.0478 8.06721 10.8796 7.75381 10.7834 7.41563C10.6872 7.07745 10.6653 6.72247 10.719 6.375H15.533C15.553 6.5 15.563 6.625 15.563 6.75H15.564ZM32.251 46.125H1.876V43.5H12.846C13.0893 43.4921 13.3201 43.3898 13.4894 43.2149C13.6587 43.0399 13.7534 42.806 13.7534 42.5625C13.7534 42.319 13.6587 42.0851 13.4894 41.9101C13.3201 41.7352 13.0893 41.6329 12.846 41.625H5.947L12.958 34.615C14.0474 33.5277 15.5238 32.917 17.063 32.917C18.6022 32.917 20.0786 33.5277 21.168 34.615L28.178 41.625H21.281C21.0377 41.6329 20.8069 41.7352 20.6376 41.9101C20.4683 42.0851 20.3736 42.319 20.3736 42.5625C20.3736 42.806 20.4683 43.0399 20.6376 43.2149C20.8069 43.3898 21.0377 43.4921 21.281 43.5H32.251V46.125ZM21.085 26.347L25.937 29.187C26.8587 29.7289 27.6232 30.5017 28.155 31.4292C28.6869 32.3567 28.9678 33.4068 28.97 34.476V39.764L22.494 33.288C19.5 30.294 14.628 30.294 11.634 33.288L5.157 39.764V34.476C5.15902 33.4067 5.43982 32.3563 5.97171 31.4286C6.50359 30.5009 7.26817 29.728 8.19 29.186L13.041 26.347C13.4579 26.1061 13.8036 25.7593 14.0431 25.3416C14.2827 24.924 14.4075 24.4504 14.405 23.969C14.405 22.979 13.895 22.09 13.041 21.59L8.19 18.75C7.26846 18.2082 6.50407 17.4355 5.9722 16.5082C5.44033 15.5809 5.15936 14.531 5.157 13.462V6.375H8.832C8.78064 6.97039 8.85346 7.56995 9.04584 8.13574C9.23822 8.70152 9.54597 9.2212 9.94961 9.66188C10.3532 10.1026 10.844 10.4546 11.3908 10.6958C11.9375 10.937 12.5284 11.062 13.126 11.063C13.7236 11.062 14.3145 10.937 14.8612 10.6958C15.408 10.4546 15.8988 10.1026 16.3024 9.66188C16.706 9.2212 17.0138 8.70152 17.2062 8.13574C17.3985 7.56995 17.4714 6.97039 17.42 6.375H28.97V13.462C28.9678 14.5312 28.6869 15.5813 28.155 16.5088C27.6232 17.4363 26.8587 18.2091 25.937 18.751L21.085 21.591C20.6683 21.832 20.3228 22.1789 20.0834 22.5965C19.8441 23.0142 19.7194 23.4877 19.722 23.969C19.722 24.958 20.232 25.847 21.085 26.347Z" fill="url(#paint4_linear)"/>
<path d="M17.063 41.625C16.816 41.625 16.574 41.725 16.4 41.9C16.2247 42.0762 16.1259 42.3144 16.125 42.563C16.125 42.809 16.225 43.051 16.4 43.225C16.5762 43.4003 16.8144 43.4991 17.063 43.5C17.3113 43.4994 17.5493 43.4005 17.725 43.225C17.9004 43.0488 17.9992 42.8106 18 42.562C17.9994 42.3137 17.9005 42.0757 17.725 41.9C17.5488 41.7246 17.3106 41.6258 17.062 41.625H17.063Z" fill="url(#paint5_linear)"/>
</g>
<defs>
<linearGradient id="paint0_linear" x1="34.125" y1="24" x2="1.09328e-06" y2="24" gradientUnits="userSpaceOnUse">
<stop stop-color="#A31FED"/>
<stop offset="1" stop-color="#03EE65"/>
</linearGradient>
<linearGradient id="paint1_linear" x1="34.1255" y1="24.0002" x2="0.000503545" y2="24.0002" gradientUnits="userSpaceOnUse">
<stop stop-color="#A31FED"/>
<stop offset="1" stop-color="#03EE65"/>
</linearGradient>
<linearGradient id="paint2_linear" x1="34.125" y1="23.9999" x2="1.09328e-06" y2="23.9999" gradientUnits="userSpaceOnUse">
<stop stop-color="#A31FED"/>
<stop offset="1" stop-color="#03EE65"/>
</linearGradient>
<linearGradient id="paint3_linear" x1="34.1255" y1="23.9998" x2="0.000501828" y2="23.9998" gradientUnits="userSpaceOnUse">
<stop stop-color="#A31FED"/>
<stop offset="1" stop-color="#03EE65"/>
</linearGradient>
<linearGradient id="paint4_linear" x1="34.126" y1="24" x2="0.00100073" y2="24" gradientUnits="userSpaceOnUse">
<stop stop-color="#A31FED"/>
<stop offset="1" stop-color="#03EE65"/>
</linearGradient>
<linearGradient id="paint5_linear" x1="34.125" y1="24" x2="1.09328e-06" y2="24" gradientUnits="userSpaceOnUse">
<stop stop-color="#A31FED"/>
<stop offset="1" stop-color="#03EE65"/>
</linearGradient>
<clipPath id="clip0">
<rect width="35" height="48" fill="white"/>
</clipPath>
</defs>
</svg>
