<svg width="48" height="48" viewBox="0 0 48 48" fill="none" xmlns="http://www.w3.org/2000/svg">
<g clip-path="url(#clip0)">
<path d="M21.409 18.9092C21.409 19.7492 22.066 20.4992 23.045 20.7732L26.181 21.6522C28.707 22.3592 30.405 24.2932 30.405 26.4642C30.405 28.7732 28.503 30.7262 25.907 31.3472V33.2452C25.907 34.1062 25.047 34.8052 23.987 34.8052C22.927 34.8052 22.067 34.1062 22.067 33.2452V31.3472C19.471 30.7262 17.57 28.7732 17.57 26.4642C17.57 25.6042 18.43 24.9042 19.49 24.9042C20.55 24.9042 21.409 25.6042 21.409 26.4642C21.409 27.5522 22.497 28.4362 23.836 28.4362H24.139C25.477 28.4362 26.566 27.5522 26.566 26.4642C26.566 25.6242 25.909 24.8742 24.93 24.6002L21.793 23.7212C19.267 23.0142 17.57 21.0802 17.57 18.9092C17.57 16.6002 19.471 14.6472 22.068 14.0262V12.1282C22.068 11.2672 22.928 10.5682 23.988 10.5682C25.048 10.5682 25.907 11.2672 25.907 12.1282V14.0262C28.503 14.6472 30.404 16.6002 30.404 18.9092C30.404 19.7702 29.545 20.4692 28.485 20.4692C27.425 20.4692 26.565 19.7702 26.565 18.9092C26.565 17.8222 25.477 16.9372 24.139 16.9372H23.836C22.498 16.9372 21.409 17.8212 21.409 18.9092ZM47.975 11.8512C47.975 17.8822 48.749 25.8562 41.736 35.1542C37.442 40.8482 31.927 44.7382 24.897 47.8142C24.6081 47.9374 24.2972 48.0007 23.9832 48.0002C23.6691 47.9996 23.3585 47.9353 23.07 47.8112C8.904 41.9302 0 30.0962 0 17.1812V11.8512C0 10.0692 1.275 8.41616 3.25 7.64116L21.478 0.470162C23.0916 -0.156721 24.8814 -0.156721 26.495 0.470162L44.725 7.64016C46.698 8.41516 47.974 10.0682 47.974 11.8502L47.975 11.8512ZM44.135 11.8512C44.135 11.2572 43.711 10.7062 43.053 10.4472L25.907 3.70416V6.24016C25.907 7.10116 25.047 7.80016 23.987 7.80016C22.927 7.80016 22.067 7.10116 22.067 6.24016V3.70416L4.923 10.4472C4.265 10.7072 3.84 11.2572 3.84 11.8512V17.1812C3.84 28.1312 10.749 38.0992 22.069 43.7762V40.1602C22.069 39.2982 22.929 38.6002 23.989 38.6002C25.049 38.6002 25.908 39.2982 25.908 40.1602V43.7762C37.228 38.0992 44.137 28.1312 44.137 17.1812V11.8512H44.135Z" fill="url(#paint0_linear)"/>
</g>
<defs>
<linearGradient id="paint0_linear" x1="48" y1="24.0002" x2="0" y2="24.0002" gradientUnits="userSpaceOnUse">
<stop stop-color="#A31FED"/>
<stop offset="1" stop-color="#03EE65"/>
</linearGradient>
<clipPath id="clip0">
<rect width="48" height="48" fill="white"/>
</clipPath>
</defs>
</svg>
