<svg width="48" height="46" viewBox="0 0 48 46" fill="none" xmlns="http://www.w3.org/2000/svg">
<path fill-rule="evenodd" clip-rule="evenodd" d="M3.84325 0.117C2.76025 0.386 1.90825 0.923 1.14125 1.822C0.77525 2.25 0.37425 3.019 0.20625 3.615C0.13725 3.857 0.06325 4.075 0.04125 4.099C-0.01375 4.158 -0.01375 29.779 0.04125 29.839C0.06325 29.863 0.13725 30.081 0.20625 30.322C0.46225 31.228 1.01625 32.097 1.73825 32.724C2.34056 33.269 3.07422 33.6481 3.86725 33.824L4.33625 33.938H8.74225C11.6282 33.938 13.2082 33.92 13.3222 33.888C14.0892 33.676 14.1892 32.566 13.4802 32.133L13.2502 31.993L4.47625 31.945L4.14825 31.835C3.61625 31.655 3.37325 31.508 2.98625 31.132C2.38825 30.552 2.22825 30.259 2.05925 29.444C1.97125 29.017 1.96925 28.7 1.96925 16.969C1.96925 5.237 1.97125 4.921 2.05925 4.493C2.22925 3.676 2.38825 3.387 2.99225 2.799C3.40825 2.394 3.73025 2.217 4.33225 2.063C4.70025 1.97 4.78125 1.97 24.0002 1.97C43.1403 1.97 43.3003 1.97 43.6683 2.063C44.3022 2.223 44.6483 2.426 45.1123 2.908C45.5703 3.382 45.7293 3.665 45.9023 4.315L46.0083 4.712V17.626C46.0083 24.729 45.9913 30.719 45.9703 30.939C45.7153 33.694 44.7583 36.299 43.2853 38.249C41.4453 40.685 39.0823 42.384 36.2783 43.289C35.5353 43.528 34.2733 43.799 33.4833 43.889C32.8313 43.963 31.1073 43.963 30.4552 43.889C28.9602 43.719 27.0182 43.142 25.6982 42.476C25.2183 42.233 24.1002 41.542 23.7032 41.241C22.1362 40.057 20.9202 38.707 19.9503 37.075C19.4323 36.205 19.0972 35.457 18.7232 34.337C18.2062 32.793 18.0233 31.645 18.0233 29.954C18.0233 28.782 18.0682 28.332 18.3032 27.165C18.7872 24.76 19.8603 22.602 21.5203 20.696C23.6133 18.293 26.6942 16.623 29.9532 16.123C33.1792 15.629 36.6063 16.343 39.4132 18.097C40.2453 18.617 40.8683 19.117 41.7513 19.977C42.2213 20.435 42.6712 20.843 42.7533 20.885C42.9873 21.006 43.3703 21.028 43.6163 20.934C43.8813 20.832 44.1293 20.549 44.2003 20.265C44.3103 19.829 44.1743 19.569 43.4383 18.81C41.7483 17.068 39.8633 15.838 37.5233 14.95C36.7233 14.647 35.0742 14.235 34.2653 14.138L33.2553 14.015C32.7653 13.956 31.1552 13.956 30.7032 14.015L29.7652 14.137C27.7172 14.4 25.5833 15.155 23.7393 16.268C21.9929 17.3246 20.4626 18.7026 19.2292 20.329C17.6472 22.419 16.5273 25.112 16.1733 27.681L16.0763 28.37C16.0152 28.797 16.0182 31.202 16.0812 31.665C16.2542 32.937 16.3682 33.49 16.6833 34.584C16.8283 35.088 17.3283 36.375 17.6033 36.953C18.3213 38.466 19.6143 40.258 20.8412 41.44C22.6672 43.2 25.1572 44.65 27.5152 45.323C28.5932 45.631 29.0152 45.713 30.4692 45.893C31.0033 45.96 33.3933 45.931 33.9693 45.851C35.8793 45.587 37.5693 45.065 39.2343 44.226C40.5523 43.562 41.3703 43.001 42.7363 41.826C44.0933 40.658 45.6433 38.57 46.4693 36.798C47.1873 35.258 47.6773 33.578 47.8583 32.04C47.8812 31.826 47.9139 31.6131 47.9563 31.402C48.0133 31.182 48.0163 4.162 47.9593 4.1C47.9363 4.076 47.8623 3.858 47.7943 3.616C47.6263 3.02 47.2243 2.252 46.8593 1.823C46.0773 0.907 45.2413 0.383 44.1333 0.115L43.6643 0L4.28925 0.006L3.84325 0.116V0.117ZM8.29725 5.036C7.40225 5.225 6.78725 5.546 6.20425 6.129C5.58225 6.751 5.22425 7.452 5.05925 8.371C4.96125 8.917 4.96125 8.941 5.03925 9.421C5.19225 10.357 5.42325 10.9 5.91525 11.48C6.74025 12.453 7.76525 12.937 9.00025 12.937C10.2343 12.937 11.2592 12.453 12.0852 11.48C12.5772 10.9 12.8073 10.357 12.9602 9.422C13.0393 8.94 13.0382 8.917 12.9402 8.372C12.7712 7.429 12.4082 6.732 11.7502 6.087C11.2422 5.588 10.7052 5.293 9.93725 5.089C9.52725 4.981 8.68725 4.953 8.29725 5.036ZM34.3503 6.09C34.0093 6.224 33.8283 6.353 33.5243 6.678C33.0482 7.187 33.0273 7.275 33.0093 8.854C32.9953 10.085 33.0013 10.208 33.0903 10.5C33.2903 11.16 33.7663 11.656 34.4033 11.871C34.7073 11.974 34.7513 11.976 37.8283 11.991C40.0433 12.001 41.0262 11.99 41.2243 11.951C41.7342 11.853 42.0043 11.723 42.3163 11.423C42.9243 10.84 43.0312 10.472 43.0312 8.971C43.0312 8.395 43.0083 7.815 42.9803 7.678C42.8393 6.996 42.3463 6.362 41.7793 6.133L41.5083 6.023L38.0393 6.013C34.7643 6.003 34.5583 6.008 34.3503 6.09ZM9.49025 7.056C10.3272 7.274 10.9102 7.974 10.9602 8.819C10.9952 9.439 10.8142 9.919 10.3752 10.365C10.0872 10.658 9.85925 10.789 9.44625 10.896C9.09625 10.987 8.90425 10.987 8.55225 10.896C8.16825 10.797 7.93825 10.671 7.67125 10.414C7.23925 9.999 7.03125 9.524 7.03125 8.954C7.03125 8.388 7.24625 7.889 7.65125 7.516C7.89314 7.28858 8.18925 7.12691 8.51135 7.04638C8.83344 6.96586 9.1708 6.96917 9.49125 7.056H9.49025ZM40.8403 8.1C40.9423 8.202 40.9463 8.239 40.9463 8.954C40.9463 9.669 40.9423 9.706 40.8393 9.808L40.7333 9.915H35.2073L35.1003 9.808C35.0003 9.708 34.9923 9.658 34.9803 9.011C34.9663 8.264 34.9963 8.136 35.2053 8.029C35.2953 7.983 35.9153 7.972 38.0273 7.981L40.7333 7.993L40.8403 8.1ZM5.65525 21.069C5.41325 21.155 5.25925 21.305 5.12725 21.586C4.98525 21.886 4.98725 22.096 5.13225 22.388C5.26225 22.648 5.43725 22.799 5.72625 22.901C6.00625 23 8.99425 23 9.27325 22.901C9.56325 22.799 9.73825 22.648 9.86725 22.388C10.0132 22.096 10.0142 21.888 9.87325 21.584C9.74525 21.308 9.53725 21.117 9.29125 21.049C9.01225 20.971 5.88025 20.989 5.65525 21.069ZM12.5592 21.129C11.8243 21.502 11.8523 22.454 12.6093 22.858C12.7493 22.933 12.8802 22.945 13.4992 22.945C14.1192 22.945 14.2502 22.933 14.3903 22.858C15.1483 22.454 15.1752 21.502 14.4402 21.129C14.1972 21.006 14.1562 21 13.5002 21C12.8442 21 12.8022 21.006 12.5603 21.129H12.5592ZM39.6423 24.072C39.5275 24.1166 39.4175 24.1729 39.3143 24.24C39.2323 24.297 36.9062 26.597 34.1473 29.351C29.4653 34.026 29.1203 34.359 28.9722 34.359C28.8263 34.359 28.6842 34.232 27.2323 32.789C26.0982 31.663 25.5953 31.193 25.4473 31.126C24.8663 30.863 24.2002 31.168 24.0492 31.768C23.9653 32.101 24.0732 32.392 24.4392 32.816C24.9172 33.371 28.3193 36.729 28.4993 36.824C28.7472 36.954 29.2112 36.944 29.5082 36.802C29.6972 36.712 30.7983 35.635 35.2083 31.224C40.1793 26.254 40.6883 25.731 40.8223 25.457C41.0462 24.998 40.9973 24.637 40.6653 24.304C40.5376 24.1672 40.3719 24.072 40.1894 24.0306C40.007 23.9892 39.8164 24.0037 39.6423 24.072ZM5.71025 26.039C5.58443 26.0803 5.46836 26.1468 5.36915 26.2345C5.26993 26.3222 5.18966 26.4292 5.13325 26.549C4.98825 26.842 4.98625 27.05 5.12725 27.354C5.25525 27.629 5.46425 27.82 5.70925 27.889C5.94825 27.955 12.0542 27.955 12.2922 27.889C12.5382 27.82 12.7462 27.629 12.8742 27.354C13.0152 27.05 13.0142 26.842 12.8682 26.55C12.811 26.4274 12.7285 26.3182 12.6261 26.2296C12.5237 26.141 12.4038 26.0751 12.2743 26.036C12.0002 25.939 5.97425 25.942 5.71025 26.039Z" fill="url(#paint0_linear)"/>
<defs>
<linearGradient id="paint0_linear" x1="48.0002" y1="22.965" x2="0.00025177" y2="22.965" gradientUnits="userSpaceOnUse">
<stop stop-color="#A31FED"/>
<stop offset="1" stop-color="#03EE65"/>
</linearGradient>
</defs>
</svg>
