<svg width="114" height="80" viewBox="0 0 114 80" fill="none" xmlns="http://www.w3.org/2000/svg">
<g clip-path="url(#clip0)">
<path d="M108.373 0.0236773L80.3017 0.015625H80.2939C80.272 0.015625 80.2511 0.0198631 80.2299 0.0198631C76.3736 0.149547 71.5702 3.54762 70.6956 7.73735L57.4203 72.2671C56.5454 76.4963 58.9249 79.9372 62.7534 80.0003H92.244C96.0135 79.7956 99.6777 76.4365 100.537 72.2943L113.813 7.76405C114.702 3.49252 112.266 0.0236773 108.373 0.0236773Z" fill="#01798A"/>
<path d="M57.4205 72.267L70.6958 7.73717C71.5704 3.54743 76.3738 0.149363 80.2301 0.019679L69.0685 0.0120505L48.9595 0.0078125C45.0923 0.0946925 40.2268 3.51649 39.3522 7.73759L26.0731 72.267C25.1951 76.4961 27.5784 79.937 31.4043 80.0001H62.7536C58.9251 79.937 56.5455 76.4961 57.4205 72.267Z" fill="#024381"/>
<path d="M26.0739 72.2668L39.353 7.73699C40.2276 3.51589 45.0931 0.0940848 48.9602 0.0072047L23.1994 0C19.3106 0 14.3248 3.46122 13.4359 7.73699L0.15678 72.2668C0.0761506 72.6606 0.0310137 73.0466 0.00439453 73.4238V74.6207C0.264414 77.7034 2.40745 79.9483 5.48795 79.9996H31.405C27.5792 79.9369 25.1958 76.496 26.0739 72.2668Z" fill="#DD0228"/>
<path d="M49.5025 47.0283H49.9901C50.438 47.0283 50.7393 46.8626 50.8809 46.5358L52.1478 44.4533H55.54L54.8329 45.823H58.9002L58.384 47.9221H53.544C52.9865 48.8435 52.3002 49.2762 51.4754 49.2249H48.9543L49.5025 47.0283ZM48.9454 50.0361H57.8574L57.2892 52.3161H53.7048L53.1582 54.5165H56.6457L56.0778 56.7966H52.5903L51.7801 60.0484C51.5795 60.5922 51.8434 60.8363 52.5671 60.7812H55.4092L54.8826 62.9002H49.4257C48.3914 62.9002 48.0365 62.2501 48.3609 60.9469L49.3968 56.797H47.1677L47.734 54.5169H49.9635L50.5101 52.3165H48.3791L48.9454 50.0361ZM63.1693 44.4372L63.0293 45.7722C63.0293 45.7722 64.7101 44.3859 66.2367 44.3859H71.878L69.7207 52.9654C69.5417 53.9461 68.7744 54.4339 67.4195 54.4339H61.0251L59.5275 60.4583C59.4407 60.7812 59.563 60.9465 59.8855 60.9465H61.1439L60.6814 62.8167H57.4828C56.2553 62.8167 55.7445 62.4112 55.947 61.5962L60.1795 44.4372H63.1693ZM67.9469 46.8626H62.9112L62.3086 49.1778C62.3086 49.1778 63.1473 48.5129 64.5489 48.4892C65.9466 48.465 67.5418 48.4892 67.5418 48.4892L67.9469 46.8626ZM66.1221 52.2331C66.4944 52.2886 66.7031 52.1271 66.7278 51.7448L67.036 50.5247H61.993L61.5702 52.2331H66.1221ZM62.721 55.0052H65.6279L65.5735 56.3872H66.3474C66.7386 56.3872 66.9326 56.2495 66.9326 55.9778L67.1618 55.084H69.578L69.2555 56.3872C68.9823 57.4738 68.259 58.0409 67.0831 58.0964H65.5345L65.5272 60.4583C65.4991 60.8367 65.81 61.0295 66.4516 61.0295H67.9068L67.4372 62.9002H63.9463C62.9675 62.9511 62.4876 62.4391 62.498 61.3525L62.721 55.0052ZM27.4957 33.0072C27.1014 35.1296 26.1875 36.7595 24.7698 37.9169C23.3647 39.0548 21.5531 39.6257 19.3344 39.6257C17.2465 39.6257 15.7161 39.043 14.7393 37.8737C14.0619 37.043 13.7251 35.9878 13.7251 34.7121C13.7251 34.1845 13.7826 33.6174 13.8972 33.0076L16.2609 20.4871H19.8305L17.4996 32.8652C17.4329 33.1761 17.4006 33.4947 17.4032 33.8141C17.3993 34.4481 17.5428 34.9677 17.8329 35.3733C18.2558 35.9759 18.9421 36.2747 19.8977 36.2747C20.996 36.2747 21.9011 35.9797 22.6036 35.3847C23.3061 34.7939 23.7648 33.9556 23.9708 32.8648L26.3094 20.4858H29.8613L27.4957 33.0072ZM42.4881 28.0813H45.2839L43.0938 39.2557H40.3034L42.4881 28.0813ZM43.3681 24.0102H46.189L45.662 26.7226H42.8415L43.3681 24.0102ZM47.7587 38.4052C47.0273 37.6372 46.6581 36.6019 46.6546 35.2868C46.6546 35.0622 46.6669 34.8066 46.6943 34.5269C46.7213 34.2434 46.7553 33.9679 46.8035 33.7119C47.1349 31.8968 47.8413 30.4558 48.9288 29.3925C50.0148 28.3254 51.3249 27.7901 52.8592 27.7901C54.1153 27.7901 55.1118 28.1762 55.8413 28.9475C56.5704 29.7235 56.9358 30.7703 56.9358 32.1015C56.9358 32.3295 56.92 32.5935 56.893 32.877C56.8616 33.1565 56.8228 33.435 56.7765 33.7119C56.4524 35.4995 55.7483 36.9248 54.6604 37.9682C53.5725 39.0192 52.2658 39.5426 50.7428 39.5426C49.4812 39.5431 48.4882 39.165 47.7587 38.4052ZM53.0868 36.1925C53.5798 35.6059 53.9324 34.7159 54.1477 33.531C54.1801 33.3458 54.2087 33.1529 54.2264 32.9601C54.2442 32.7711 54.2515 32.5939 54.2515 32.4325C54.2515 31.7434 54.0918 31.2081 53.7712 30.8301C53.4525 30.4482 52.9992 30.2592 52.4132 30.2592C51.6389 30.2592 51.0078 30.558 50.5136 31.1568C50.0152 31.7557 49.6618 32.6609 49.4396 33.8658C49.4091 34.051 49.384 34.2362 49.3609 34.4172C49.3431 34.6024 49.3377 34.7753 49.3412 34.9329C49.3412 35.6182 49.5009 36.1459 49.8215 36.5196C50.1406 36.8939 50.5919 37.0786 51.1853 37.0786C51.9634 37.0782 52.5938 36.7828 53.0868 36.1925Z" fill="white"/>
<path d="M80.294 0.015533L69.0684 0.0117188L80.23 0.0197711C80.2508 0.0197711 80.272 0.015533 80.294 0.015533Z" fill="#E02F41"/>
<path d="M69.0685 0.0118665L49.1138 0C49.0636 0 49.0116 0.00381424 48.9595 0.00762849L69.0685 0.0118665Z" fill="#2E4F7D"/>
<path d="M75.0754 47.1225L75.7494 44.5161H79.1582L79.0112 45.4731C79.0112 45.4731 80.7526 44.5161 82.0072 44.5161H86.2219L85.5522 47.1225H84.889L81.7098 59.4154H82.3729L81.7422 61.8565H81.079L80.8032 62.9156H77.502L77.7775 61.8565H71.2654L71.9 59.4154H72.5524L75.7347 47.1225H75.0754ZM78.7531 47.1225L77.8859 50.4494C77.8859 50.4494 79.3704 49.8234 80.6496 49.6463C80.932 48.485 81.3012 47.1225 81.3012 47.1225H78.7531ZM77.4843 52.009L76.6135 55.4939C76.6135 55.4939 78.2585 54.604 79.3873 54.5294C79.7133 53.1825 80.0397 52.0094 80.0397 52.0094H77.4843V52.009ZM78.122 59.4154L78.7739 56.8874H76.2301L75.5738 59.4154H78.122ZM86.3654 44.3546H89.5702L89.7063 45.6536C89.6847 45.9842 89.8641 46.1422 90.2441 46.1422H90.8105L90.2376 48.3426H87.8823C86.9835 48.3935 86.5209 48.0159 86.4777 47.2009L86.3654 44.3546ZM85.4264 49.0758H95.806L95.1968 51.4385H91.8922L91.3255 53.6351H94.6274L94.014 55.9936H90.3371L89.5053 57.3761H91.3054L91.7209 60.1439C91.7703 60.4194 91.9925 60.5533 92.3729 60.5533H92.9315L92.3443 62.8326H90.3656C89.3402 62.8881 88.8105 62.51 88.7669 61.6951L88.2901 59.1671L86.6525 61.8565C86.2651 62.6164 85.6699 62.9707 84.8674 62.9156H81.846L82.4335 60.6356H83.3764C83.7637 60.6356 84.0858 60.447 84.3759 60.0647L86.9395 55.9936H83.6348L84.2475 53.6351H87.8318L88.4016 51.4385H84.8142L85.4264 49.0758ZM30.7841 28.0775H33.3056L33.0171 29.6918L33.3789 29.2311C34.1964 28.2704 35.189 27.794 36.3611 27.794C37.422 27.794 38.187 28.1326 38.6677 28.8137C39.1406 29.4947 39.2699 30.436 39.0457 31.6447L37.6565 39.2596H35.0652L36.3194 32.3575C36.4486 31.6447 36.4128 31.1133 36.2137 30.7704C36.0169 30.428 35.6404 30.2589 35.0972 30.2589C34.4306 30.2589 33.8697 30.4869 33.4125 30.9399C32.9538 31.3968 32.651 32.0308 32.502 32.8377L31.3462 39.2596H28.7495L30.7841 28.0775ZM59.6992 28.0775H62.223L61.9363 29.6918L62.294 29.2311C63.1122 28.2704 64.1083 27.794 65.2768 27.794C66.3378 27.794 67.1039 28.1326 67.5811 28.8137C68.0514 29.4947 68.1868 30.436 67.9577 31.6447L66.5739 39.2596H63.9791L65.234 32.3575C65.3629 31.6447 65.3266 31.1133 65.1295 30.7704C64.925 30.428 64.5558 30.2589 64.0149 30.2589C63.3479 30.2589 62.7893 30.4869 62.3267 30.9399C61.868 31.3968 61.5633 32.0308 61.4202 32.8377L60.2586 39.2596H57.6653L59.6992 28.0775ZM72.1728 21.1475H79.4988C80.907 21.1475 81.9968 21.4979 82.7456 22.1866C83.4909 22.8842 83.864 23.884 83.864 25.1872V25.2266C83.864 25.4745 83.8493 25.7542 83.8277 26.0572C83.7904 26.3649 83.7427 26.671 83.6846 26.9748C83.3617 28.6993 82.6129 30.0855 81.4555 31.1366C80.2935 32.1838 78.9178 32.7114 77.3338 32.7114H73.405L72.1901 39.2592H68.7887L72.1728 21.1475ZM74.0037 29.5621H77.2617C78.1108 29.5621 78.7847 29.3451 79.2766 28.9162C79.7643 28.4831 80.0868 27.8216 80.265 26.9239C80.2935 26.7582 80.3117 26.6086 80.3333 26.4709C80.3441 26.3412 80.3584 26.2107 80.3584 26.0852C80.3584 25.4432 80.1508 24.9787 79.7345 24.6871C79.3191 24.3913 78.6667 24.2501 77.7636 24.2501H74.9967L74.0037 29.5621ZM99.0894 41.4215C98.0138 43.9334 96.9892 45.3976 96.3874 46.0787C95.7848 46.7525 94.5911 48.3193 91.7167 48.2011L91.9647 46.2842C94.3836 45.465 95.6914 41.7754 96.4375 40.1416L95.5483 28.1089L97.4193 28.0813H98.9891L99.1581 35.6293L102.1 28.0813H105.079L99.0894 41.4215ZM90.7603 28.9908L89.5771 29.8846C88.3407 28.8217 87.2118 28.164 85.0329 29.2744C82.0651 30.7861 79.5849 42.3822 87.757 38.5629L88.2226 39.1694L91.4377 39.2601L93.5491 28.7234L90.7603 28.9908ZM88.9317 34.7512C88.4155 36.4248 87.262 37.5309 86.3585 37.2161C85.4554 36.9088 85.1325 35.2945 85.6564 33.6171C86.1725 31.9397 87.3338 30.8374 88.2295 31.1522C89.1327 31.4595 89.4587 33.0738 88.9317 34.7512Z" fill="white"/>
</g>
<defs>
<clipPath id="clip0">
<rect width="114" height="80" fill="white"/>
</clipPath>
</defs>
</svg>
